<svg version="1.1" xmlns="http://www.w3.org/2000/svg" viewBox="0 0 1043.1339848189418 468.4092530063382" width="1043.1339848189418" height="468.4092530063382">
  <!-- svg-source:excalidraw -->
  
  <defs>
    <style class="style-fonts">
      @font-face {
        font-family: "Virgil";
        src: url("https://excalidraw.com/Virgil.woff2");
      }
      @font-face {
        font-family: "Cascadia";
        src: url("https://excalidraw.com/Cascadia.woff2");
      }
    </style>
    
  </defs>
  <g stroke-linecap="round" transform="translate(10 13.353460563776537) rotate(0 97.82889304011019 113.04672063997738)"><path d="M32 0 M32 0 C76.21 1.25, 119.16 -0.05, 163.66 0 M32 0 C79.65 -0.84, 125.71 -0.76, 163.66 0 M163.66 0 C185.09 -1.28, 194.76 12.25, 195.66 32 M163.66 0 C185.87 2.01, 194.55 8.37, 195.66 32 M195.66 32 C197.68 66.06, 194.3 97.17, 195.66 194.09 M195.66 32 C196.79 64.78, 195.62 97.35, 195.66 194.09 M195.66 194.09 C195.4 216.88, 186.25 227.58, 163.66 226.09 M195.66 194.09 C196.73 215.55, 186.15 226.43, 163.66 226.09 M163.66 226.09 C120.2 227.47, 78.01 227.1, 32 226.09 M163.66 226.09 C114.75 228.1, 63.91 227.77, 32 226.09 M32 226.09 C12.57 227.39, -0.52 215.92, 0 194.09 M32 226.09 C11.71 227.88, -1.26 215.92, 0 194.09 M0 194.09 C2.15 148.46, 2.27 104.25, 0 32 M0 194.09 C1.4 146.03, 2.1 97.31, 0 32 M0 32 C0.66 9.56, 8.85 -0.34, 32 0 M0 32 C1.69 8.9, 12.89 -1.07, 32 0" stroke="#076678" stroke-width="4" fill="none"></path></g><g transform="translate(68.7913945659891 18.353460563776537) rotate(0 39.037498474121094 17.5)"><text x="39.037498474121094" y="0" font-family="Virgil, Segoe UI Emoji" font-size="28px" fill="#076678" text-anchor="middle" style="white-space: pre;" direction="ltr" dominant-baseline="text-before-edge">WASM</text></g><g transform="translate(30.520202529503194 82.92067326530099) rotate(0 67.39323730460194 -3.8044569446146)" stroke="none"><path fill="#076678" d="M -0.66,-1.71 Q -0.66,-1.71 3.42,-3.21 7.51,-4.71 9.86,-5.63 12.22,-6.55 14.29,-7.00 16.36,-7.46 18.43,-7.90 20.49,-8.35 21.52,-8.93 22.55,-9.50 23.84,-9.87 25.13,-10.24 27.07,-10.85 29.01,-11.45 30.95,-11.81 32.90,-12.16 34.89,-12.55 36.87,-12.94 38.10,-13.23 39.32,-13.52 40.85,-13.32 42.38,-13.12 44.17,-11.52 45.97,-9.91 47.95,-8.60 49.92,-7.29 51.49,-5.92 53.06,-4.56 54.34,-3.76 55.63,-2.97 57.45,-2.32 59.28,-1.67 60.20,-1.12 61.13,-0.56 62.92,-0.14 64.71,0.28 65.88,0.81 67.05,1.34 69.19,1.58 71.34,1.82 74.26,2.03 77.17,2.23 79.56,2.05 81.95,1.87 84.22,1.51 86.48,1.16 91.24,0.40 95.99,-0.35 99.24,-0.97 102.49,-1.59 105.11,-2.15 107.74,-2.71 110.11,-3.25 112.47,-3.80 114.73,-4.34 116.99,-4.87 118.96,-5.16 120.93,-5.45 121.97,-5.63 123.02,-5.81 124.21,-6.90 125.39,-7.99 126.73,-8.93 128.07,-9.87 131.04,-10.97 134.01,-12.07 134.39,-12.13 134.78,-12.19 135.16,-12.13 135.55,-12.07 135.89,-11.89 136.24,-11.70 136.51,-11.42 136.78,-11.14 136.94,-10.78 137.11,-10.43 137.15,-10.04 137.19,-9.65 137.11,-9.27 137.03,-8.89 136.83,-8.55 136.62,-8.22 136.33,-7.96 136.03,-7.71 135.67,-7.57 135.30,-7.42 134.91,-7.40 134.52,-7.38 134.15,-7.48 133.77,-7.58 133.45,-7.80 133.12,-8.02 132.89,-8.33 132.65,-8.64 132.52,-9.01 132.40,-9.38 132.40,-9.77 132.40,-10.17 132.52,-10.54 132.65,-10.91 132.88,-11.22 133.12,-11.53 133.44,-11.75 133.76,-11.97 134.14,-12.07 134.52,-12.18 134.91,-12.16 135.30,-12.14 135.66,-11.99 136.02,-11.85 136.32,-11.60 136.62,-11.34 136.82,-11.01 137.02,-10.67 137.11,-10.29 137.19,-9.91 137.15,-9.52 137.11,-9.13 136.95,-8.78 136.78,-8.43 136.51,-8.14 136.25,-7.86 135.90,-7.67 135.56,-7.49 135.56,-7.49 135.56,-7.49 132.27,-6.23 128.98,-4.98 127.55,-4.52 126.13,-4.07 124.90,-3.33 123.67,-2.58 122.48,-2.56 121.29,-2.55 119.46,-2.36 117.64,-2.18 115.38,-1.61 113.13,-1.05 110.75,-0.46 108.37,0.11 105.73,0.73 103.08,1.35 99.80,2.05 96.52,2.74 91.81,3.59 87.09,4.45 84.72,4.95 82.35,5.46 79.70,5.83 77.06,6.20 74.02,6.23 70.99,6.26 67.20,5.64 63.41,5.03 60.92,4.22 58.43,3.40 56.95,2.42 55.47,1.45 54.46,0.92 53.45,0.40 52.06,-0.53 50.66,-1.47 48.87,-2.72 47.08,-3.97 46.22,-4.78 45.36,-5.60 44.34,-6.35 43.32,-7.11 41.57,-8.47 39.82,-9.83 38.71,-9.75 37.59,-9.66 35.54,-9.17 33.49,-8.67 31.83,-8.41 30.16,-8.15 27.04,-7.25 23.91,-6.34 22.55,-5.88 21.20,-5.41 19.11,-4.88 17.03,-4.35 15.23,-3.97 13.43,-3.60 11.08,-2.57 8.73,-1.53 4.69,0.09 0.66,1.71 0.44,1.77 0.23,1.82 0.00,1.82 -0.21,1.83 -0.42,1.77 -0.64,1.72 -0.84,1.62 -1.03,1.52 -1.20,1.37 -1.37,1.22 -1.50,1.04 -1.62,0.86 -1.70,0.65 -1.78,0.44 -1.81,0.22 -1.84,0.00 -1.81,-0.21 -1.79,-0.43 -1.71,-0.64 -1.63,-0.84 -1.51,-1.03 -1.38,-1.21 -1.21,-1.36 -1.05,-1.51 -0.85,-1.61 -0.66,-1.71 -0.66,-1.71 L -0.66,-1.71 Z"></path></g><g transform="translate(42.47706721257782 123.1392181083699) rotate(0 62.50179266152594 -7.0654200399986)" stroke="none"><path fill="#076678" d="M -1.11,-1.66 Q -1.11,-1.66 0.81,-2.84 2.74,-4.01 5.85,-5.48 8.97,-6.94 13.14,-8.49 17.31,-10.03 21.28,-11.30 25.25,-12.57 27.28,-13.12 29.32,-13.67 30.42,-13.72 31.52,-13.78 33.20,-13.47 34.89,-13.15 36.48,-11.99 38.07,-10.82 39.83,-9.71 41.58,-8.61 43.01,-7.88 44.44,-7.15 45.68,-6.57 46.93,-5.99 48.95,-5.00 50.96,-4.01 52.59,-3.44 54.21,-2.87 55.30,-2.69 56.38,-2.51 58.25,-2.33 60.12,-2.15 61.59,-2.14 63.07,-2.13 64.93,-2.07 66.80,-2.01 68.84,-1.93 70.88,-1.85 73.00,-1.78 75.12,-1.70 78.52,-1.65 81.92,-1.59 86.39,-2.17 90.86,-2.75 95.54,-3.91 100.22,-5.07 104.33,-6.78 108.45,-8.49 112.47,-9.86 116.49,-11.24 118.44,-12.10 120.39,-12.96 122.28,-14.24 124.17,-15.52 124.41,-15.61 124.66,-15.71 124.92,-15.72 125.18,-15.74 125.43,-15.66 125.69,-15.59 125.90,-15.45 126.12,-15.30 126.28,-15.09 126.43,-14.88 126.52,-14.63 126.60,-14.38 126.60,-14.12 126.60,-13.86 126.51,-13.61 126.43,-13.36 126.27,-13.15 126.11,-12.94 125.89,-12.80 125.67,-12.65 125.42,-12.58 125.17,-12.51 124.91,-12.53 124.64,-12.55 124.40,-12.64 124.16,-12.74 123.96,-12.91 123.76,-13.08 123.63,-13.31 123.49,-13.53 123.44,-13.79 123.38,-14.05 123.41,-14.31 123.44,-14.57 123.55,-14.80 123.66,-15.04 123.84,-15.23 124.02,-15.42 124.26,-15.54 124.49,-15.66 124.75,-15.70 125.01,-15.75 125.26,-15.70 125.52,-15.66 125.75,-15.54 125.98,-15.41 126.16,-15.22 126.34,-15.03 126.45,-14.79 126.56,-14.55 126.59,-14.29 126.62,-14.03 126.56,-13.78 126.50,-13.52 126.36,-13.30 126.23,-13.07 126.03,-12.90 125.83,-12.73 125.83,-12.73 125.83,-12.73 123.67,-11.60 121.51,-10.46 119.46,-9.53 117.40,-8.61 113.47,-7.23 109.54,-5.86 105.24,-4.05 100.94,-2.23 96.11,-0.99 91.27,0.25 86.60,0.92 81.93,1.59 78.52,1.64 75.12,1.69 72.99,1.76 70.87,1.83 68.81,1.89 66.75,1.95 64.84,1.97 62.93,1.99 61.42,1.90 59.90,1.81 57.66,1.77 55.42,1.72 54.19,1.37 52.97,1.02 50.64,0.33 48.30,-0.34 46.69,-1.38 45.08,-2.42 43.86,-3.12 42.64,-3.82 41.21,-4.64 39.78,-5.46 37.76,-6.51 35.74,-7.57 34.13,-8.85 32.52,-10.13 31.28,-10.46 30.04,-10.79 28.12,-10.24 26.19,-9.70 22.32,-8.39 18.44,-7.08 14.45,-5.50 10.46,-3.92 7.61,-2.45 4.75,-0.98 2.93,0.34 1.11,1.66 0.89,1.77 0.68,1.88 0.44,1.94 0.20,1.99 -0.03,1.99 -0.27,1.98 -0.50,1.92 -0.74,1.86 -0.95,1.74 -1.16,1.63 -1.34,1.46 -1.52,1.30 -1.65,1.10 -1.79,0.90 -1.87,0.67 -1.95,0.44 -1.97,0.20 -2.00,-0.03 -1.97,-0.27 -1.93,-0.51 -1.84,-0.73 -1.76,-0.96 -1.61,-1.15 -1.47,-1.35 -1.29,-1.51 -1.11,-1.66 -1.11,-1.66 L -1.11,-1.66 Z"></path></g><g transform="translate(44.65104260950045 163.35776295143881) rotate(0 65.21926190767925 -9.239395436921228)" stroke="none"><path fill="#076678" d="M -0.83,-1.66 Q -0.83,-1.66 0.38,-2.34 1.61,-3.02 3.41,-3.86 5.22,-4.71 7.96,-5.68 10.71,-6.65 12.80,-7.34 14.89,-8.03 17.93,-9.23 20.98,-10.43 23.51,-11.55 26.05,-12.67 28.38,-13.76 30.71,-14.85 32.42,-15.44 34.12,-16.02 35.16,-16.35 36.21,-16.67 37.76,-16.96 39.32,-17.25 40.40,-16.91 41.48,-16.57 43.18,-15.39 44.89,-14.20 46.84,-12.23 48.79,-10.25 49.96,-9.50 51.14,-8.75 54.80,-8.07 58.46,-7.38 61.97,-7.00 65.48,-6.61 68.22,-6.42 70.96,-6.22 73.69,-6.12 76.41,-6.01 79.44,-5.95 82.47,-5.89 84.38,-5.90 86.30,-5.91 89.47,-6.49 92.65,-7.06 98.50,-7.62 104.35,-8.19 107.05,-8.72 109.76,-9.24 111.83,-9.77 113.90,-10.30 116.23,-11.77 118.55,-13.25 119.61,-13.75 120.68,-14.25 121.47,-14.97 122.25,-15.68 123.57,-16.60 124.89,-17.51 126.92,-19.01 128.94,-20.51 129.31,-20.69 129.67,-20.88 130.07,-20.94 130.48,-21.00 130.88,-20.92 131.28,-20.85 131.64,-20.65 131.99,-20.46 132.27,-20.15 132.55,-19.85 132.71,-19.48 132.88,-19.11 132.91,-18.70 132.95,-18.29 132.86,-17.90 132.76,-17.50 132.54,-17.15 132.33,-16.81 132.01,-16.55 131.70,-16.29 131.31,-16.15 130.93,-16.00 130.53,-15.99 130.12,-15.97 129.73,-16.09 129.33,-16.20 129.00,-16.44 128.67,-16.67 128.43,-17.00 128.18,-17.33 128.06,-17.72 127.94,-18.11 127.94,-18.52 127.95,-18.93 128.09,-19.31 128.23,-19.69 128.48,-20.01 128.73,-20.34 129.07,-20.56 129.41,-20.78 129.81,-20.88 130.20,-20.99 130.61,-20.96 131.02,-20.93 131.40,-20.77 131.77,-20.61 132.08,-20.34 132.38,-20.07 132.59,-19.72 132.79,-19.37 132.87,-18.97 132.96,-18.57 132.90,-18.16 132.85,-17.76 132.67,-17.39 132.50,-17.02 132.21,-16.73 131.93,-16.44 131.93,-16.44 131.93,-16.44 129.75,-15.10 127.57,-13.75 126.10,-13.09 124.63,-12.44 122.37,-11.36 120.10,-10.29 118.50,-9.48 116.91,-8.67 115.77,-8.15 114.63,-7.64 112.47,-7.06 110.31,-6.49 107.47,-5.90 104.63,-5.32 98.92,-4.73 93.20,-4.14 89.74,-3.47 86.29,-2.80 84.37,-2.83 82.45,-2.86 79.39,-2.85 76.34,-2.84 73.58,-2.84 70.81,-2.85 67.99,-2.91 65.17,-2.97 61.47,-3.19 57.77,-3.41 53.30,-4.15 48.83,-4.88 47.05,-6.01 45.27,-7.14 44.16,-8.33 43.04,-9.52 42.03,-10.58 41.03,-11.64 39.65,-12.38 38.26,-13.13 36.63,-13.06 35.00,-13.00 33.47,-12.64 31.94,-12.27 29.60,-11.13 27.27,-9.99 24.70,-8.79 22.14,-7.60 19.06,-6.29 15.98,-4.99 13.96,-4.21 11.94,-3.42 9.42,-2.38 6.90,-1.35 5.14,-0.41 3.38,0.52 2.11,1.09 0.83,1.66 0.62,1.74 0.41,1.81 0.18,1.83 -0.03,1.86 -0.25,1.83 -0.48,1.79 -0.68,1.71 -0.89,1.63 -1.08,1.50 -1.26,1.36 -1.40,1.19 -1.55,1.02 -1.65,0.82 -1.75,0.62 -1.80,0.40 -1.85,0.18 -1.84,-0.03 -1.84,-0.26 -1.78,-0.47 -1.72,-0.69 -1.61,-0.89 -1.51,-1.08 -1.35,-1.25 -1.20,-1.41 -1.02,-1.54 -0.83,-1.66 -0.83,-1.66 L -0.83,-1.66 Z"></path></g><g transform="translate(50.08598110180708 203.57630779450767) rotate(0 63.58878035998731 -9.782889286151885)" stroke="none"><path fill="#076678" d="M -0.81,-1.63 Q -0.81,-1.63 1.08,-2.51 2.98,-3.39 4.68,-4.37 6.37,-5.34 9.54,-7.86 12.71,-10.37 15.37,-12.41 18.03,-14.45 20.53,-15.69 23.03,-16.93 25.98,-18.07 28.93,-19.21 31.85,-19.71 34.77,-20.21 36.32,-20.52 37.87,-20.82 40.39,-19.49 42.91,-18.16 43.81,-17.45 44.72,-16.73 46.71,-13.69 48.69,-10.64 49.74,-9.58 50.79,-8.52 51.95,-7.91 53.11,-7.29 59.22,-7.28 65.34,-7.27 70.93,-7.19 76.52,-7.11 81.66,-7.37 86.80,-7.63 89.64,-7.72 92.48,-7.82 96.09,-8.46 99.70,-9.11 102.43,-9.98 105.17,-10.85 108.14,-12.43 111.11,-14.01 113.40,-15.03 115.69,-16.05 117.53,-17.07 119.37,-18.10 120.52,-18.70 121.67,-19.30 124.15,-20.36 126.64,-21.43 126.95,-21.47 127.27,-21.50 127.57,-21.44 127.88,-21.37 128.15,-21.21 128.42,-21.05 128.63,-20.81 128.83,-20.57 128.95,-20.28 129.07,-19.99 129.09,-19.68 129.11,-19.36 129.02,-19.06 128.94,-18.76 128.77,-18.49 128.59,-18.23 128.34,-18.04 128.09,-17.85 127.80,-17.75 127.50,-17.64 127.18,-17.64 126.87,-17.64 126.57,-17.74 126.27,-17.84 126.02,-18.03 125.77,-18.21 125.59,-18.47 125.41,-18.73 125.33,-19.04 125.24,-19.34 125.26,-19.65 125.27,-19.97 125.39,-20.26 125.50,-20.55 125.70,-20.79 125.90,-21.04 126.17,-21.20 126.44,-21.36 126.75,-21.43 127.06,-21.50 127.37,-21.47 127.68,-21.44 127.97,-21.31 128.25,-21.18 128.48,-20.96 128.71,-20.75 128.86,-20.47 129.01,-20.19 129.06,-19.88 129.12,-19.57 129.07,-19.26 129.02,-18.95 128.87,-18.67 128.73,-18.39 128.50,-18.18 128.27,-17.96 127.99,-17.82 127.70,-17.69 127.70,-17.69 127.70,-17.69 125.28,-17.01 122.85,-16.33 121.77,-16.03 120.68,-15.74 118.74,-14.65 116.81,-13.56 114.61,-12.57 112.41,-11.57 109.23,-9.87 106.04,-8.17 103.13,-7.22 100.22,-6.26 96.42,-5.55 92.62,-4.83 89.80,-4.67 86.98,-4.50 81.75,-4.15 76.51,-3.79 70.91,-3.75 65.32,-3.70 58.36,-3.76 51.40,-3.83 49.72,-4.85 48.05,-5.88 46.84,-7.22 45.64,-8.56 43.80,-11.15 41.96,-13.74 41.22,-14.53 40.47,-15.32 39.30,-16.51 38.13,-17.70 36.69,-17.60 35.24,-17.49 32.59,-17.03 29.94,-16.58 27.13,-15.46 24.32,-14.34 22.09,-13.22 19.85,-12.09 17.26,-10.02 14.67,-7.95 11.36,-5.22 8.06,-2.49 6.28,-1.42 4.51,-0.35 2.66,0.64 0.81,1.63 0.60,1.70 0.40,1.78 0.18,1.80 -0.03,1.82 -0.25,1.79 -0.47,1.76 -0.67,1.68 -0.87,1.59 -1.05,1.47 -1.23,1.34 -1.37,1.17 -1.52,1.00 -1.62,0.81 -1.71,0.61 -1.76,0.39 -1.81,0.18 -1.81,-0.03 -1.80,-0.25 -1.75,-0.46 -1.69,-0.68 -1.58,-0.87 -1.48,-1.06 -1.33,-1.22 -1.18,-1.38 -0.99,-1.51 -0.81,-1.63 -0.81,-1.63 L -0.81,-1.63 Z"></path></g><g stroke-linecap="round" transform="translate(409.30341516654926 13.353460999999925) rotate(0 113.13921790455709 113.13921790455707)"><path d="M32 0 M32 0 C68.86 0.51, 106.7 0.99, 194.28 0 M32 0 C72.9 0.03, 113.21 0.62, 194.28 0 M194.28 0 C215.47 -1.03, 224.9 11.85, 226.28 32 M194.28 0 C217.58 -2.16, 228.41 9.57, 226.28 32 M226.28 32 C225.08 97.84, 225.41 162, 226.28 194.28 M226.28 32 C225.51 66.17, 226.03 101.14, 226.28 194.28 M226.28 194.28 C226.89 216.4, 217.04 225.53, 194.28 226.28 M226.28 194.28 C225.15 216.52, 217.78 226.16, 194.28 226.28 M194.28 226.28 C152.76 229.53, 109.51 225.96, 32 226.28 M194.28 226.28 C162.41 225.58, 130.11 225.17, 32 226.28 M32 226.28 C9.63 227.78, 1.72 216.25, 0 194.28 M32 226.28 C10.11 228.23, 1.72 216.28, 0 194.28 M0 194.28 C0.48 132, -0.54 68.87, 0 32 M0 194.28 C2.38 141.75, 1.24 88.7, 0 32 M0 32 C1.33 12.55, 11.6 1.87, 32 0 M0 32 C-1.56 12.03, 9.54 -0.78, 32 0" stroke="#b16286" stroke-width="4" fill="none"></path></g><g transform="translate(472.3051323081669 108.99267890455701) rotate(0 50.13750076293945 17.5)"><text x="50.13750076293945" y="0" font-family="Virgil, Segoe UI Emoji" font-size="28px" fill="#b16286" text-anchor="middle" style="white-space: pre;" direction="ltr" dominant-baseline="text-before-edge">Wasmer</text></g><g stroke-linecap="round" transform="translate(839.2274796037152 10) rotate(0 96.95325260761331 113.13921781789162)"><path d="M32 0 M32 0 C64.99 -2.17, 95.11 0.25, 161.91 0 M32 0 C78.43 0.27, 126.27 -1.12, 161.91 0 M161.91 0 C183.63 0.15, 195.7 12.63, 193.91 32 M161.91 0 C181.29 -2.05, 192.23 11.51, 193.91 32 M193.91 32 C194.82 79.89, 193.21 126.65, 193.91 194.28 M193.91 32 C194.77 74.9, 195.23 119.02, 193.91 194.28 M193.91 194.28 C192.62 214.75, 182.23 226.78, 161.91 226.28 M193.91 194.28 C194.89 216.49, 182.01 228.32, 161.91 226.28 M161.91 226.28 C117.44 225.4, 72.37 227.08, 32 226.28 M161.91 226.28 C123.82 227.84, 84.92 226.95, 32 226.28 M32 226.28 C12.31 227.18, 1.61 213.65, 0 194.28 M32 226.28 C12.46 226.21, 1.06 216.43, 0 194.28 M0 194.28 C-1.37 157.47, -2 117.94, 0 32 M0 194.28 C-0.18 134.58, -1.55 76.75, 0 32 M0 32 C1.33 10.1, 12.18 -1.4, 32 0 M0 32 C1.08 10.57, 11.39 2.16, 32 0" stroke="#79740e" stroke-width="4" fill="none"></path></g><g transform="translate(894.668231448389 15) rotate(0 41.51250076293945 17.5)"><text x="41.51250076293945" y="0" font-family="Virgil, Segoe UI Emoji" font-size="28px" fill="#79740e" text-anchor="middle" style="white-space: pre;" direction="ltr" dominant-baseline="text-before-edge">State</text></g><g transform="translate(908.5169313280246 80.34830704685044) rotate(0 31.098561712944843 56.09936622727298)" stroke="none"><path fill="#79740e" d="M 5.21,-0.74 Q 5.21,-0.74 5.58,1.70 5.95,4.15 6.33,7.20 6.71,10.25 6.92,12.87 7.13,15.49 7.82,17.92 8.52,20.35 8.68,23.06 8.85,25.77 8.91,28.05 8.96,30.34 9.04,32.73 9.12,35.13 9.63,38.75 10.14,42.38 10.32,45.03 10.50,47.67 10.52,50.18 10.54,52.69 10.58,55.61 10.62,58.53 10.62,61.23 10.62,63.93 10.63,66.42 10.64,68.91 10.64,71.20 10.65,73.50 10.69,75.89 10.73,78.27 10.77,81.11 10.81,83.94 10.85,86.63 10.89,89.32 10.91,91.51 10.93,93.70 10.94,96.12 10.96,98.54 10.97,101.13 10.98,103.71 10.21,106.73 9.45,109.74 7.91,107.83 6.36,105.91 8.89,105.98 11.43,106.05 14.64,106.13 17.85,106.21 20.78,106.40 23.71,106.58 26.34,106.58 28.96,106.57 32.34,106.54 35.72,106.51 38.45,106.47 41.17,106.43 43.49,106.41 45.81,106.40 48.03,106.36 50.25,106.32 53.85,107.10 57.45,107.87 54.86,108.82 52.28,109.78 51.77,106.79 51.26,103.80 51.32,100.55 51.38,97.29 51.38,95.05 51.38,92.81 50.91,90.37 50.43,87.92 50.30,85.55 50.16,83.17 50.13,80.52 50.09,77.87 50.08,75.27 50.07,72.68 50.06,70.01 50.04,67.35 50.09,64.37 50.14,61.38 50.60,59.08 51.06,56.77 51.93,52.95 52.80,49.12 52.72,45.98 52.64,42.84 53.10,39.23 53.56,35.62 53.76,32.90 53.96,30.19 54.50,27.66 55.05,25.14 55.16,22.15 55.26,19.16 55.27,16.60 55.28,14.04 55.24,11.27 55.20,8.51 55.15,5.93 55.09,3.34 57.03,5.26 58.96,7.18 55.70,6.19 52.45,5.21 50.31,4.97 48.17,4.73 45.09,4.66 42.00,4.60 39.58,4.60 37.15,4.60 34.87,4.60 32.58,4.61 29.53,4.58 26.47,4.55 23.14,4.95 19.81,5.34 17.50,5.48 15.20,5.62 12.68,6.25 10.17,6.88 7.44,6.98 4.70,7.08 2.35,7.10 0.00,7.12 -1.13,6.93 -2.27,6.75 -3.28,6.21 -4.30,5.67 -5.10,4.83 -5.89,4.00 -6.37,2.95 -6.86,1.90 -6.98,0.76 -7.11,-0.38 -6.86,-1.50 -6.61,-2.63 -6.02,-3.62 -5.43,-4.60 -4.55,-5.35 -3.67,-6.10 -2.60,-6.52 -1.53,-6.95 -0.38,-7.01 0.76,-7.08 1.87,-6.77 2.98,-6.46 3.94,-5.82 4.89,-5.17 5.59,-4.25 6.29,-3.33 6.66,-2.24 7.02,-1.15 7.02,-0.00 7.03,1.14 6.66,2.24 6.29,3.33 5.59,4.25 4.90,5.16 3.94,5.81 2.99,6.46 1.88,6.77 0.77,7.08 -0.37,7.01 -1.52,6.95 -2.59,6.53 -3.67,6.10 -4.54,5.35 -5.42,4.61 -6.02,3.62 -6.61,2.63 -6.86,1.51 -7.11,0.38 -6.98,-0.75 -6.86,-1.90 -6.38,-2.94 -5.89,-3.99 -5.10,-4.83 -4.31,-5.66 -3.29,-6.20 -2.27,-6.75 -1.13,-6.93 -0.00,-7.12 -0.00,-7.12 -0.00,-7.12 2.29,-7.11 4.60,-7.09 6.74,-6.91 8.89,-6.73 11.87,-7.44 14.86,-8.14 17.81,-8.31 20.76,-8.47 23.60,-8.95 26.45,-9.43 29.52,-9.46 32.58,-9.48 34.87,-9.48 37.16,-9.48 39.60,-9.47 42.03,-9.46 45.61,-9.45 49.20,-9.44 51.40,-9.17 53.61,-8.90 56.38,-7.99 59.16,-7.09 62.34,-6.28 65.52,-5.48 67.42,-1.67 69.32,2.12 69.26,4.62 69.21,7.12 69.17,9.71 69.12,12.31 69.10,14.49 69.07,16.68 69.03,19.62 68.98,22.56 68.39,26.73 67.80,30.90 67.57,34.55 67.34,38.21 67.08,40.57 66.83,42.94 66.81,45.81 66.80,48.68 66.09,52.55 65.38,56.43 64.94,60.06 64.49,63.68 64.53,67.27 64.57,70.85 64.57,73.08 64.58,75.31 64.55,78.03 64.53,80.75 64.48,83.49 64.44,86.23 65.05,90.44 65.67,94.64 65.69,97.43 65.72,100.22 65.75,102.96 65.79,105.70 65.75,109.05 65.71,112.41 64.87,115.23 64.02,118.05 61.97,119.32 59.91,120.60 57.79,121.15 55.67,121.70 52.96,121.10 50.25,120.50 48.03,120.46 45.81,120.43 43.49,120.41 41.17,120.40 38.45,120.36 35.72,120.32 32.34,120.29 28.96,120.26 26.33,120.25 23.71,120.24 18.80,120.48 13.90,120.72 11.06,120.72 8.22,120.73 5.69,120.53 3.16,120.33 -0.05,118.60 -3.28,116.88 -4.03,114.77 -4.77,112.66 -4.22,108.18 -3.66,103.71 -3.65,101.13 -3.64,98.54 -3.63,96.12 -3.61,93.70 -3.59,91.51 -3.57,89.32 -3.53,86.63 -3.50,83.94 -3.45,81.11 -3.41,78.27 -3.37,75.89 -3.33,73.50 -3.33,71.20 -3.32,68.91 -3.31,66.42 -3.30,63.93 -3.30,61.23 -3.31,58.54 -3.27,55.62 -3.23,52.71 -3.21,49.71 -3.20,46.71 -3.30,44.31 -3.41,41.92 -3.82,38.52 -4.24,35.13 -4.16,32.74 -4.09,30.35 -4.04,28.11 -3.98,25.87 -3.89,23.23 -3.80,20.59 -4.25,18.15 -4.70,15.70 -4.58,13.30 -4.46,10.90 -4.50,8.28 -4.55,5.65 -4.88,3.20 -5.21,0.74 -5.22,0.11 -5.23,-0.52 -5.09,-1.14 -4.96,-1.76 -4.67,-2.33 -4.39,-2.89 -3.98,-3.38 -3.57,-3.86 -3.05,-4.23 -2.54,-4.60 -1.95,-4.84 -1.36,-5.08 -0.73,-5.17 -0.11,-5.26 0.52,-5.19 1.15,-5.13 1.74,-4.92 2.34,-4.71 2.87,-4.36 3.40,-4.01 3.83,-3.54 4.26,-3.08 4.57,-2.52 4.88,-1.96 5.04,-1.35 5.21,-0.74 5.21,-0.74 L 5.21,-0.74 Z"></path></g><g transform="translate(971.9336061936376 87.66561568519035) rotate(0 17.68349587598823 6.707532918478307)" stroke="none"><path fill="#79740e" d="M 0.64,-2.56 Q 0.64,-2.56 2.04,-2.19 3.45,-1.82 4.68,-1.24 5.91,-0.66 7.42,-0.54 8.93,-0.42 10.20,0.16 11.47,0.75 12.78,1.28 14.08,1.80 15.23,2.35 16.38,2.89 18.11,3.44 19.83,4.00 21.24,4.96 22.64,5.93 23.95,6.19 25.25,6.46 27.74,6.91 30.22,7.37 31.41,7.95 32.60,8.53 34.85,9.60 37.09,10.68 37.48,11.02 37.87,11.37 38.13,11.82 38.39,12.28 38.49,12.79 38.59,13.30 38.53,13.82 38.46,14.34 38.23,14.81 38.00,15.28 37.63,15.65 37.26,16.03 36.80,16.26 36.33,16.50 35.81,16.57 35.29,16.64 34.78,16.55 34.26,16.45 33.81,16.20 33.35,15.94 33.00,15.55 32.65,15.17 32.44,14.69 32.23,14.21 32.18,13.69 32.14,13.17 32.26,12.66 32.39,12.15 32.66,11.71 32.94,11.26 33.35,10.93 33.76,10.60 34.25,10.42 34.74,10.24 35.26,10.22 35.78,10.20 36.28,10.36 36.78,10.51 37.21,10.81 37.64,11.11 37.94,11.53 38.25,11.96 38.41,12.46 38.56,12.96 38.55,13.48 38.54,14.00 38.36,14.49 38.18,14.99 37.86,15.40 37.53,15.80 37.09,16.09 36.66,16.37 36.15,16.50 35.64,16.63 35.12,16.59 34.60,16.55 34.12,16.35 33.64,16.14 33.64,16.14 33.64,16.14 31.80,15.25 29.96,14.36 28.45,13.68 26.94,13.00 25.40,12.83 23.87,12.66 22.00,11.95 20.13,11.24 19.31,10.49 18.49,9.73 17.39,9.28 16.28,8.83 13.86,8.11 11.44,7.39 9.99,6.68 8.54,5.96 7.47,5.37 6.39,4.78 4.27,4.00 2.15,3.22 0.75,2.89 -0.64,2.56 -0.93,2.45 -1.23,2.33 -1.49,2.15 -1.76,1.97 -1.97,1.73 -2.18,1.49 -2.32,1.21 -2.47,0.92 -2.55,0.61 -2.62,0.30 -2.62,-0.00 -2.62,-0.32 -2.54,-0.63 -2.46,-0.94 -2.32,-1.22 -2.17,-1.50 -1.95,-1.74 -1.74,-1.98 -1.48,-2.16 -1.22,-2.34 -0.92,-2.45 -0.62,-2.56 -0.30,-2.60 0.00,-2.64 0.32,-2.60 0.64,-2.56 0.64,-2.56 L 0.64,-2.56 Z"></path></g><g transform="translate(967.0554004347443 116.93485023855021) rotate(0 18.293271595849887 6.097757198616591)" stroke="none"><path fill="#79740e" d="M 0,-2.58 Q 0,-2.58 1.41,-2.57 2.82,-2.56 4.44,-2.17 6.07,-1.78 8.03,-1.17 9.99,-0.56 11.09,-0.53 12.20,-0.50 13.66,-0.05 15.12,0.40 16.39,0.96 17.67,1.53 18.86,1.68 20.05,1.83 21.91,2.39 23.77,2.94 24.75,3.51 25.73,4.07 26.82,4.57 27.91,5.07 29.04,5.65 30.16,6.22 31.86,6.96 33.55,7.70 35.51,8.45 37.47,9.19 37.93,9.41 38.38,9.63 38.75,9.99 39.11,10.34 39.34,10.79 39.57,11.24 39.64,11.74 39.71,12.25 39.62,12.74 39.53,13.24 39.29,13.69 39.04,14.13 38.67,14.47 38.29,14.81 37.83,15.02 37.37,15.22 36.86,15.27 36.36,15.31 35.86,15.20 35.37,15.08 34.94,14.81 34.51,14.54 34.19,14.15 33.87,13.76 33.69,13.28 33.51,12.81 33.49,12.30 33.48,11.80 33.62,11.31 33.76,10.83 34.06,10.41 34.35,10.00 34.76,9.70 35.16,9.40 35.65,9.25 36.13,9.09 36.64,9.10 37.14,9.11 37.62,9.28 38.10,9.45 38.49,9.76 38.89,10.08 39.17,10.50 39.45,10.93 39.57,11.42 39.70,11.91 39.66,12.41 39.63,12.92 39.43,13.38 39.24,13.85 38.90,14.23 38.57,14.61 38.13,14.87 37.69,15.12 37.19,15.22 36.70,15.32 36.19,15.26 35.69,15.19 35.69,15.19 35.69,15.19 32.66,13.77 29.63,12.35 28.58,12.02 27.52,11.69 25.60,10.81 23.67,9.92 22.16,8.83 20.66,7.75 19.10,7.54 17.54,7.33 16.48,7.02 15.43,6.70 13.57,5.93 11.72,5.16 10.50,5.02 9.28,4.89 8.00,4.24 6.71,3.60 4.74,3.08 2.78,2.56 1.39,2.57 0,2.58 -0.30,2.54 -0.61,2.50 -0.90,2.39 -1.20,2.28 -1.45,2.11 -1.71,1.93 -1.91,1.70 -2.12,1.46 -2.27,1.19 -2.41,0.91 -2.49,0.61 -2.56,0.31 -2.56,-0.00 -2.56,-0.31 -2.49,-0.61 -2.41,-0.91 -2.27,-1.19 -2.12,-1.46 -1.91,-1.70 -1.71,-1.93 -1.45,-2.11 -1.20,-2.28 -0.90,-2.39 -0.61,-2.50 -0.30,-2.54 0.00,-2.58 0.00,-2.58 L 0,-2.58 Z"></path></g><g transform="translate(968.2749518744677 142.54543047274) rotate(0 14.634617276679933 6.097757198616648)" stroke="none"><path fill="#79740e" d="M 0.63,-2.55 Q 0.63,-2.55 2.04,-2.18 3.45,-1.81 4.68,-1.23 5.92,-0.65 7.41,0.27 8.91,1.20 10.89,1.47 12.88,1.74 14.22,2.29 15.57,2.83 16.78,3.35 17.99,3.87 18.99,4.53 20.00,5.18 21.74,5.80 23.49,6.41 24.93,7.06 26.36,7.72 29.11,9.02 31.87,10.33 32.10,10.80 32.32,11.26 32.39,11.77 32.46,12.29 32.36,12.79 32.26,13.30 32.01,13.75 31.75,14.20 31.36,14.55 30.98,14.89 30.50,15.09 30.03,15.30 29.51,15.34 28.99,15.38 28.49,15.25 27.99,15.12 27.56,14.84 27.12,14.56 26.80,14.16 26.48,13.75 26.30,13.27 26.12,12.78 26.11,12.27 26.10,11.75 26.25,11.25 26.40,10.76 26.71,10.34 27.01,9.92 27.43,9.62 27.85,9.32 28.35,9.17 28.84,9.02 29.36,9.04 29.88,9.05 30.36,9.23 30.85,9.41 31.25,9.74 31.65,10.06 31.93,10.50 32.21,10.94 32.33,11.44 32.45,11.94 32.41,12.46 32.36,12.97 32.16,13.45 31.95,13.92 31.61,14.31 31.26,14.69 30.81,14.94 30.36,15.20 29.85,15.29 29.34,15.39 28.83,15.32 28.32,15.24 27.85,15.01 27.39,14.78 27.03,14.41 26.66,14.05 26.66,14.05 26.66,14.05 25.84,13.89 25.02,13.74 23.76,13.09 22.50,12.44 21.11,11.80 19.72,11.16 18.21,10.72 16.70,10.29 15.29,9.50 13.89,8.72 12.85,8.37 11.82,8.02 10.79,7.28 9.77,6.53 8.28,6.30 6.80,6.06 5.97,5.30 5.14,4.53 3.65,3.87 2.15,3.21 0.75,2.88 -0.63,2.55 -0.93,2.43 -1.23,2.32 -1.49,2.14 -1.75,1.96 -1.96,1.72 -2.17,1.48 -2.31,1.20 -2.46,0.92 -2.53,0.61 -2.61,0.30 -2.61,-0.00 -2.61,-0.32 -2.53,-0.63 -2.45,-0.94 -2.30,-1.22 -2.16,-1.50 -1.94,-1.73 -1.73,-1.97 -1.47,-2.15 -1.21,-2.33 -0.91,-2.44 -0.62,-2.55 -0.30,-2.59 0.00,-2.63 0.32,-2.59 0.63,-2.55 0.63,-2.55 L 0.63,-2.55 Z"></path></g><g transform="translate(964.6162975552975 165.71690782748328) rotate(0 20.12259875543498 7.9270843582016255)" stroke="none"><path fill="#79740e" d="M 0.78,-2.34 Q 0.78,-2.34 1.86,-2.02 2.94,-1.69 4.41,-0.66 5.89,0.35 6.98,0.57 8.07,0.79 9.30,1.26 10.54,1.73 11.71,2.27 12.89,2.82 15.64,3.94 18.39,5.05 19.55,5.81 20.71,6.57 21.74,7.15 22.77,7.72 24.99,8.37 27.22,9.02 28.53,9.17 29.84,9.31 31.00,9.84 32.16,10.36 34.63,10.82 37.10,11.29 39.86,12.64 42.62,13.99 42.85,14.41 43.09,14.84 43.17,15.32 43.26,15.80 43.19,16.29 43.12,16.77 42.89,17.21 42.67,17.64 42.32,17.98 41.97,18.32 41.53,18.54 41.09,18.75 40.61,18.81 40.12,18.87 39.64,18.77 39.16,18.67 38.74,18.43 38.32,18.18 38.00,17.81 37.67,17.44 37.49,16.99 37.30,16.54 37.27,16.05 37.23,15.57 37.36,15.09 37.48,14.62 37.75,14.21 38.02,13.80 38.40,13.50 38.79,13.20 39.25,13.04 39.71,12.88 40.20,12.87 40.68,12.86 41.15,13.01 41.62,13.16 42.01,13.45 42.40,13.74 42.68,14.14 42.96,14.54 43.10,15.01 43.24,15.48 43.22,15.97 43.20,16.46 43.03,16.91 42.85,17.37 42.54,17.75 42.23,18.12 41.81,18.38 41.40,18.64 40.92,18.75 40.45,18.86 39.96,18.82 39.47,18.77 39.03,18.57 38.58,18.37 38.22,18.04 37.86,17.71 37.86,17.71 37.86,17.71 37.55,17.51 37.23,17.31 35.46,16.78 33.69,16.25 32.48,16.12 31.26,16.00 29.32,15.28 27.38,14.56 26.34,14.27 25.31,13.98 24.28,13.57 23.26,13.15 21.74,12.73 20.22,12.32 18.99,11.61 17.76,10.90 16.89,10.28 16.03,9.66 14.79,9.06 13.56,8.46 12.08,8.13 10.60,7.81 9.52,7.30 8.44,6.79 6.74,6.16 5.05,5.53 3.15,4.31 1.26,3.09 0.24,2.72 -0.78,2.34 -1.05,2.22 -1.32,2.09 -1.55,1.90 -1.78,1.71 -1.96,1.47 -2.14,1.23 -2.26,0.96 -2.37,0.68 -2.42,0.39 -2.47,0.10 -2.44,-0.19 -2.42,-0.49 -2.33,-0.77 -2.23,-1.06 -2.07,-1.31 -1.91,-1.56 -1.70,-1.77 -1.48,-1.97 -1.22,-2.12 -0.97,-2.27 -0.68,-2.36 -0.39,-2.44 -0.09,-2.45 0.19,-2.46 0.49,-2.40 0.78,-2.34 0.78,-2.34 L 0.78,-2.34 Z"></path></g><g transform="translate(965.835848995021 190.10793662194976) rotate(0 23.17147735474316 9.75641151778666)" stroke="none"><path fill="#79740e" d="M 0.73,-2.21 Q 0.73,-2.21 1.81,-1.90 2.88,-1.59 3.96,-1.02 5.03,-0.44 6.22,0.03 7.41,0.51 9.56,1.19 11.71,1.88 13.90,3.00 16.09,4.13 17.22,4.43 18.36,4.73 20.21,5.30 22.06,5.86 23.26,6.63 24.45,7.40 25.98,7.62 27.50,7.84 29.37,8.41 31.24,8.99 32.28,9.63 33.33,10.27 34.57,10.86 35.82,11.45 37.81,12.48 39.80,13.51 41.05,13.80 42.29,14.09 45.24,15.87 48.19,17.64 48.44,17.99 48.69,18.33 48.82,18.74 48.94,19.15 48.93,19.57 48.92,20.00 48.78,20.40 48.63,20.80 48.37,21.13 48.10,21.46 47.74,21.69 47.38,21.92 46.97,22.03 46.56,22.13 46.13,22.10 45.71,22.06 45.32,21.90 44.93,21.73 44.61,21.45 44.29,21.16 44.08,20.79 43.87,20.42 43.79,20.00 43.71,19.59 43.76,19.16 43.82,18.74 44.01,18.36 44.20,17.98 44.50,17.68 44.80,17.38 45.18,17.18 45.56,16.99 45.98,16.94 46.40,16.88 46.82,16.96 47.24,17.04 47.61,17.24 47.98,17.45 48.27,17.77 48.55,18.08 48.72,18.48 48.89,18.87 48.93,19.29 48.96,19.71 48.86,20.13 48.76,20.54 48.53,20.90 48.30,21.26 47.97,21.53 47.64,21.79 47.24,21.94 46.84,22.09 46.42,22.10 45.99,22.12 45.58,21.99 45.18,21.87 44.83,21.62 44.48,21.37 44.48,21.37 44.48,21.37 42.81,20.21 41.14,19.04 39.43,18.64 37.73,18.25 36.07,17.67 34.41,17.08 32.29,16.03 30.17,14.97 28.82,14.18 27.47,13.40 25.64,12.73 23.81,12.07 21.76,11.01 19.70,9.95 18.38,9.32 17.05,8.70 15.74,8.19 14.44,7.68 12.53,6.90 10.62,6.12 8.08,5.63 5.54,5.14 3.43,4.07 1.32,3.00 0.29,2.61 -0.73,2.21 -0.99,2.09 -1.24,1.97 -1.46,1.79 -1.68,1.62 -1.85,1.39 -2.02,1.17 -2.13,0.91 -2.24,0.65 -2.29,0.37 -2.33,0.09 -2.31,-0.18 -2.29,-0.46 -2.20,-0.73 -2.11,-1.00 -1.96,-1.24 -1.81,-1.47 -1.60,-1.67 -1.40,-1.86 -1.16,-2.01 -0.91,-2.15 -0.64,-2.23 -0.37,-2.30 -0.09,-2.32 0.18,-2.33 0.46,-2.27 0.74,-2.21 0.73,-2.21 L 0.73,-2.21 Z"></path></g><g transform="translate(873.1030337514433 205.58685874151516) rotate(0 19.043764789525767 -7.223496989130481)" stroke="none"><path fill="#79740e" d="M 0,-2.66 Q 0,-2.66 1.08,-2.67 2.17,-2.67 3.04,-3.41 3.90,-4.15 5.46,-4.60 7.01,-5.06 8.07,-5.38 9.12,-5.70 10.74,-6.76 12.36,-7.81 13.44,-8.21 14.52,-8.61 16.05,-8.96 17.57,-9.30 18.79,-9.79 20.01,-10.28 20.88,-11.08 21.76,-11.88 23.77,-12.63 25.77,-13.39 27.40,-13.56 29.03,-13.74 30.71,-14.47 32.39,-15.20 34.15,-16.02 35.90,-16.84 36.38,-17.04 36.86,-17.25 37.37,-17.28 37.89,-17.32 38.39,-17.20 38.89,-17.07 39.32,-16.79 39.75,-16.51 40.08,-16.10 40.40,-15.70 40.57,-15.21 40.75,-14.73 40.76,-14.21 40.77,-13.69 40.62,-13.20 40.46,-12.71 40.16,-12.29 39.85,-11.87 39.43,-11.57 39.01,-11.27 38.52,-11.13 38.02,-10.98 37.51,-10.99 36.99,-11.01 36.51,-11.19 36.02,-11.37 35.62,-11.70 35.22,-12.02 34.94,-12.46 34.67,-12.90 34.55,-13.40 34.43,-13.90 34.47,-14.42 34.52,-14.93 34.72,-15.41 34.93,-15.88 35.28,-16.26 35.62,-16.64 36.07,-16.89 36.53,-17.15 37.03,-17.24 37.54,-17.34 38.05,-17.26 38.56,-17.19 39.03,-16.96 39.49,-16.73 39.85,-16.36 40.21,-15.99 40.44,-15.53 40.67,-15.06 40.73,-14.55 40.80,-14.04 40.70,-13.53 40.60,-13.02 40.34,-12.58 40.09,-12.13 39.70,-11.79 39.31,-11.44 39.31,-11.44 39.31,-11.44 37.15,-10.45 34.99,-9.45 33.72,-8.82 32.45,-8.20 30.95,-7.68 29.44,-7.17 28.25,-7.17 27.06,-7.17 25.63,-6.85 24.21,-6.53 22.73,-5.52 21.25,-4.50 19.40,-3.89 17.55,-3.27 16.34,-2.69 15.14,-2.11 13.74,-1.52 12.35,-0.93 11.02,-0.28 9.69,0.35 8.36,0.42 7.02,0.48 6.06,1.12 5.10,1.76 3.73,2.22 2.35,2.67 1.17,2.67 0,2.66 -0.31,2.62 -0.63,2.58 -0.93,2.47 -1.23,2.35 -1.50,2.17 -1.76,1.99 -1.97,1.75 -2.19,1.51 -2.33,1.22 -2.48,0.94 -2.56,0.63 -2.64,0.32 -2.64,-0.00 -2.64,-0.32 -2.56,-0.63 -2.48,-0.94 -2.33,-1.22 -2.19,-1.51 -1.97,-1.75 -1.76,-1.99 -1.50,-2.17 -1.23,-2.35 -0.93,-2.47 -0.63,-2.58 -0.31,-2.62 0.00,-2.66 0.00,-2.66 L 0,-2.66 Z"></path></g><g transform="translate(870.2886842751586 178.94435036602093) rotate(0 19.700446333992204 -6.566815444664016)" stroke="none"><path fill="#79740e" d="M 0,-2.57 Q 0,-2.57 1.13,-2.60 2.26,-2.62 3.81,-2.98 5.35,-3.33 6.66,-3.87 7.97,-4.41 9.00,-4.78 10.03,-5.15 11.34,-5.28 12.64,-5.41 14.67,-6.22 16.70,-7.03 17.82,-7.36 18.94,-7.68 20.61,-7.90 22.27,-8.11 23.92,-9.28 25.58,-10.44 27.67,-11.39 29.77,-12.34 30.88,-12.68 31.99,-13.02 34.99,-14.48 38.00,-15.93 38.49,-15.99 38.98,-16.05 39.47,-15.95 39.96,-15.85 40.39,-15.60 40.82,-15.36 41.15,-14.98 41.48,-14.61 41.67,-14.15 41.87,-13.69 41.90,-13.19 41.94,-12.69 41.81,-12.21 41.69,-11.73 41.42,-11.31 41.14,-10.89 40.75,-10.59 40.36,-10.28 39.89,-10.11 39.42,-9.94 38.92,-9.93 38.43,-9.93 37.95,-10.08 37.48,-10.23 37.07,-10.52 36.67,-10.82 36.39,-11.22 36.10,-11.63 35.96,-12.11 35.82,-12.59 35.83,-13.08 35.85,-13.58 36.03,-14.05 36.21,-14.51 36.52,-14.90 36.84,-15.29 37.26,-15.55 37.68,-15.81 38.17,-15.93 38.65,-16.05 39.15,-16.00 39.64,-15.95 40.10,-15.75 40.56,-15.55 40.92,-15.22 41.29,-14.88 41.53,-14.44 41.77,-14.01 41.86,-13.52 41.95,-13.03 41.88,-12.53 41.81,-12.04 41.58,-11.60 41.36,-11.15 41.00,-10.80 40.64,-10.45 40.20,-10.24 39.75,-10.02 39.75,-10.02 39.75,-10.02 37.86,-9.28 35.98,-8.54 34.17,-7.75 32.36,-6.95 31.15,-6.33 29.95,-5.71 28.55,-5.19 27.16,-4.68 26.32,-4.03 25.48,-3.38 23.52,-2.79 21.57,-2.20 20.26,-2.02 18.95,-1.84 17.59,-1.22 16.23,-0.59 14.68,-0.09 13.14,0.40 11.99,0.44 10.85,0.48 8.97,1.15 7.09,1.82 4.67,2.22 2.26,2.62 1.13,2.60 0,2.57 -0.30,2.54 -0.61,2.50 -0.90,2.39 -1.19,2.28 -1.45,2.10 -1.70,1.92 -1.91,1.69 -2.12,1.46 -2.26,1.18 -2.41,0.91 -2.48,0.61 -2.55,0.31 -2.55,-0.00 -2.55,-0.31 -2.48,-0.61 -2.41,-0.91 -2.26,-1.18 -2.12,-1.46 -1.91,-1.69 -1.70,-1.92 -1.45,-2.10 -1.19,-2.28 -0.90,-2.39 -0.61,-2.50 -0.30,-2.54 0.00,-2.57 0.00,-2.57 L 0,-2.57 Z"></path></g><g transform="translate(872.8215988038146 151.3637254984319) rotate(0 15.760357067193809 -6.566815444664073)" stroke="none"><path fill="#79740e" d="M -0.63,-2.53 Q -0.63,-2.53 0.87,-2.87 2.38,-3.22 4.01,-3.93 5.64,-4.65 6.53,-5.47 7.41,-6.28 8.98,-6.53 10.55,-6.78 11.70,-7.59 12.85,-8.39 13.95,-8.75 15.04,-9.12 16.59,-9.97 18.14,-10.83 19.73,-11.27 21.31,-11.72 22.81,-12.41 24.31,-13.10 25.67,-13.80 27.03,-14.50 27.91,-14.60 28.79,-14.70 29.15,-15.06 29.51,-15.42 29.96,-15.64 30.41,-15.87 30.91,-15.94 31.41,-16.01 31.91,-15.92 32.41,-15.82 32.85,-15.57 33.29,-15.33 33.63,-14.95 33.97,-14.58 34.17,-14.11 34.37,-13.65 34.42,-13.14 34.46,-12.64 34.34,-12.15 34.22,-11.65 33.95,-11.23 33.67,-10.80 33.28,-10.48 32.89,-10.16 32.41,-9.99 31.94,-9.81 31.43,-9.80 30.93,-9.78 30.44,-9.93 29.96,-10.07 29.55,-10.37 29.13,-10.66 28.84,-11.07 28.54,-11.48 28.39,-11.97 28.24,-12.45 28.25,-12.96 28.27,-13.46 28.44,-13.94 28.61,-14.41 28.93,-14.81 29.24,-15.20 29.67,-15.48 30.09,-15.75 30.59,-15.88 31.08,-16.00 31.58,-15.96 32.09,-15.92 32.55,-15.72 33.02,-15.52 33.39,-15.19 33.77,-14.85 34.02,-14.41 34.27,-13.97 34.37,-13.47 34.47,-12.98 34.40,-12.47 34.33,-11.97 34.11,-11.52 33.89,-11.06 33.89,-11.06 33.89,-11.06 31.05,-9.82 28.22,-8.57 26.68,-7.87 25.15,-7.17 23.26,-6.50 21.37,-5.83 20.32,-5.14 19.26,-4.44 17.44,-3.78 15.61,-3.12 14.67,-2.61 13.73,-2.11 11.56,-1.78 9.40,-1.46 7.83,-0.49 6.26,0.47 4.95,1.09 3.65,1.71 2.14,2.12 0.63,2.53 0.32,2.57 0.00,2.61 -0.30,2.57 -0.61,2.54 -0.91,2.42 -1.20,2.31 -1.46,2.14 -1.72,1.96 -1.93,1.72 -2.14,1.49 -2.29,1.21 -2.44,0.93 -2.51,0.62 -2.59,0.32 -2.59,0.00 -2.59,-0.30 -2.52,-0.61 -2.44,-0.91 -2.30,-1.19 -2.15,-1.47 -1.94,-1.71 -1.73,-1.95 -1.48,-2.13 -1.22,-2.31 -0.92,-2.42 -0.63,-2.53 -0.63,-2.53 L -0.63,-2.53 Z"></path></g><g transform="translate(867.6619580972931 126.4098268087084) rotate(0 21.670490967391515 -8.536860078063285)" stroke="none"><path fill="#79740e" d="M -0.76,-2.28 Q -0.76,-2.28 0.34,-2.68 1.44,-3.08 2.37,-3.81 3.29,-4.55 4.42,-5.12 5.55,-5.69 7.37,-6.37 9.20,-7.04 10.37,-7.59 11.54,-8.13 13.10,-8.47 14.66,-8.81 16.04,-9.45 17.42,-10.10 18.37,-10.78 19.31,-11.46 20.63,-12.21 21.94,-12.97 23.53,-13.40 25.12,-13.83 26.25,-14.29 27.38,-14.74 28.47,-15.05 29.56,-15.35 30.64,-15.79 31.72,-16.22 32.74,-16.57 33.75,-16.92 35.03,-17.05 36.31,-17.18 38.59,-17.88 40.87,-18.59 41.21,-18.90 41.56,-19.22 41.98,-19.40 42.41,-19.59 42.87,-19.64 43.33,-19.68 43.79,-19.57 44.24,-19.47 44.63,-19.22 45.03,-18.97 45.32,-18.62 45.62,-18.26 45.79,-17.82 45.95,-17.39 45.97,-16.92 45.99,-16.46 45.86,-16.01 45.73,-15.57 45.46,-15.18 45.19,-14.80 44.82,-14.53 44.44,-14.25 44.00,-14.11 43.56,-13.97 43.09,-13.97 42.63,-13.98 42.19,-14.14 41.75,-14.29 41.38,-14.58 41.02,-14.87 40.76,-15.26 40.51,-15.64 40.39,-16.09 40.27,-16.54 40.30,-17.01 40.34,-17.47 40.52,-17.90 40.69,-18.33 41.00,-18.68 41.31,-19.03 41.71,-19.26 42.11,-19.50 42.57,-19.59 43.02,-19.68 43.48,-19.63 43.95,-19.57 44.36,-19.37 44.78,-19.17 45.12,-18.84 45.45,-18.52 45.66,-18.10 45.87,-17.69 45.94,-17.23 46.01,-16.77 45.93,-16.31 45.84,-15.85 45.62,-15.44 45.40,-15.04 45.40,-15.04 45.40,-15.04 42.62,-13.75 39.85,-12.46 38.31,-11.97 36.77,-11.48 35.62,-11.46 34.48,-11.44 33.28,-10.89 32.09,-10.35 30.64,-10.19 29.20,-10.03 26.77,-9.32 24.35,-8.62 23.23,-7.98 22.11,-7.35 20.88,-6.55 19.66,-5.74 16.70,-4.53 13.75,-3.31 12.50,-2.72 11.24,-2.13 9.93,-1.63 8.63,-1.13 7.40,-0.87 6.17,-0.61 4.62,0.47 3.08,1.57 1.92,1.92 0.76,2.28 0.47,2.33 0.19,2.39 -0.09,2.38 -0.38,2.37 -0.66,2.29 -0.94,2.21 -1.19,2.06 -1.44,1.92 -1.65,1.72 -1.86,1.52 -2.01,1.27 -2.17,1.02 -2.26,0.75 -2.35,0.47 -2.37,0.19 -2.40,-0.09 -2.35,-0.38 -2.30,-0.67 -2.19,-0.93 -2.08,-1.20 -1.90,-1.43 -1.73,-1.66 -1.50,-1.85 -1.28,-2.03 -1.02,-2.15 -0.76,-2.28 -0.76,-2.28 L -0.76,-2.28 Z"></path></g><g transform="translate(868.9753211862262 100.14256503005225) rotate(0 24.95389868972336 -10.50690471146254)" stroke="none"><path fill="#79740e" d="M -0.73,-2.19 Q -0.73,-2.19 0.38,-2.60 1.49,-3.02 3.78,-4.15 6.07,-5.29 8.78,-5.84 11.49,-6.38 13.56,-7.24 15.63,-8.10 17.03,-8.63 18.43,-9.17 19.45,-9.45 20.47,-9.73 21.69,-10.37 22.91,-11.00 24.30,-11.89 25.70,-12.77 27.67,-13.48 29.64,-14.18 31.14,-15.04 32.64,-15.90 34.88,-17.01 37.13,-18.12 38.94,-18.74 40.76,-19.35 42.57,-19.76 44.38,-20.17 46.08,-21.28 47.77,-22.39 48.10,-22.62 48.43,-22.85 48.81,-22.97 49.19,-23.09 49.59,-23.08 50.00,-23.06 50.37,-22.92 50.75,-22.78 51.06,-22.53 51.37,-22.28 51.59,-21.94 51.80,-21.60 51.90,-21.21 51.99,-20.82 51.96,-20.42 51.93,-20.02 51.77,-19.66 51.61,-19.29 51.34,-18.99 51.07,-18.69 50.72,-18.49 50.37,-18.30 49.97,-18.22 49.58,-18.15 49.18,-18.21 48.79,-18.26 48.43,-18.44 48.07,-18.62 47.78,-18.90 47.50,-19.19 47.32,-19.55 47.15,-19.91 47.09,-20.31 47.04,-20.70 47.12,-21.10 47.20,-21.49 47.39,-21.84 47.59,-22.19 47.89,-22.46 48.19,-22.72 48.56,-22.88 48.93,-23.04 49.33,-23.07 49.73,-23.10 50.12,-23.00 50.51,-22.90 50.85,-22.69 51.18,-22.47 51.43,-22.16 51.68,-21.84 51.82,-21.47 51.96,-21.09 51.97,-20.69 51.98,-20.29 51.86,-19.90 51.74,-19.52 51.50,-19.19 51.27,-18.87 51.27,-18.87 51.27,-18.87 48.37,-17.19 45.47,-15.50 44.10,-15.17 42.73,-14.85 40.62,-13.73 38.50,-12.61 37.12,-11.95 35.74,-11.29 34.64,-10.61 33.54,-9.92 31.53,-9.30 29.53,-8.68 27.85,-8.40 26.18,-8.12 24.91,-7.31 23.65,-6.50 21.68,-5.90 19.70,-5.30 18.47,-4.96 17.24,-4.62 14.90,-3.43 12.55,-2.24 10.22,-1.51 7.88,-0.79 6.59,-0.25 5.30,0.28 4.16,0.89 3.03,1.51 1.88,1.85 0.73,2.19 0.45,2.25 0.18,2.30 -0.09,2.29 -0.37,2.28 -0.64,2.20 -0.90,2.12 -1.14,1.98 -1.39,1.84 -1.59,1.65 -1.79,1.46 -1.94,1.22 -2.09,0.99 -2.17,0.72 -2.26,0.46 -2.29,0.18 -2.31,-0.09 -2.26,-0.36 -2.22,-0.64 -2.11,-0.90 -2.00,-1.15 -1.83,-1.38 -1.66,-1.60 -1.45,-1.78 -1.23,-1.95 -0.98,-2.07 -0.73,-2.19 -0.73,-2.19 L -0.73,-2.19 Z"></path></g><g stroke-linecap="round" transform="translate(324.26552426082765 376.69930654487564) rotate(0 198.17710895504064 40.854973230731275)"><path d="M20.43 0 M20.43 0 C115.68 -1.75, 208.79 -0.92, 375.93 0 M20.43 0 C145.51 -2.16, 271.91 -2.08, 375.93 0 M375.93 0 C388.37 -0.54, 397.24 7.12, 396.35 20.43 M375.93 0 C391.49 -2.04, 397.58 6.41, 396.35 20.43 M396.35 20.43 C398.1 36, 396.96 51.03, 396.35 61.28 M396.35 20.43 C396.67 34.94, 395.47 49.09, 396.35 61.28 M396.35 61.28 C398.25 75.5, 391.18 83.13, 375.93 81.71 M396.35 61.28 C395.69 72.84, 388.4 82.32, 375.93 81.71 M375.93 81.71 C249.42 81.37, 123.36 83.36, 20.43 81.71 M375.93 81.71 C240.79 82.04, 107.17 81, 20.43 81.71 M20.43 81.71 C7.73 81.66, 0.68 75.41, 0 61.28 M20.43 81.71 C7.97 80.64, -1.84 75.47, 0 61.28 M0 61.28 C1.68 52.22, 0.25 42.65, 0 20.43 M0 61.28 C0.43 47.18, -1.05 33.57, 0 20.43 M0 20.43 C1 8.41, 8.06 0.3, 20.43 0 M0 20.43 C-1.41 4.76, 8.65 1.96, 20.43 0" stroke="#d65d0e" stroke-width="4" fill="none"></path></g><g transform="translate(402.5176301641104 400.0542797756069) rotate(0 119.92500305175781 17.5)"><text x="119.92500305175781" y="0" font-family="Virgil, Segoe UI Emoji" font-size="28px" fill="#d65d0e" text-anchor="middle" style="white-space: pre;" direction="ltr" dominant-baseline="text-before-edge">Calling Convention</text></g><g stroke-linecap="round"><g transform="translate(207.2748534871116 97.42202720297678) rotate(0 98.21952333908831 0.31941527981311424)"><path d="M0.41 -0.58 C33.46 -0.33, 164.43 0.78, 197.28 0.67 M-0.84 1.73 C32.23 1.71, 163.79 -0.72, 196.82 -1.09" stroke="#076678" stroke-width="4" fill="none"></path></g><g transform="translate(207.2748534871116 97.42202720297678) rotate(0 98.21952333908831 0.31941527981311424)"><path d="M167.83 11.15 C175.92 9.18, 178.75 6.6, 195.42 -0.34 M168.8 9.74 C179.05 5.38, 187.12 2.63, 197.39 -2.04" stroke="#076678" stroke-width="4" fill="none"></path></g><g transform="translate(207.2748534871116 97.42202720297678) rotate(0 98.21952333908831 0.31941527981311424)"><path d="M167.52 -9.37 C175.54 -6.99, 178.43 -5.23, 195.42 -0.34 M168.49 -10.78 C178.8 -8.23, 186.97 -4.06, 197.39 -2.04" stroke="#076678" stroke-width="4" fill="none"></path></g></g><mask></mask><g stroke-linecap="round"><g transform="translate(405.71751344165386 156.9425846318264) rotate(0 -100.11736422464838 0.45227650504811834)"><path d="M0.03 -0.68 C-33.27 -0.36, -166.28 1.37, -199.71 1.4 M-1.41 1.58 C-34.81 1.61, -166.94 -0.01, -200.27 -0.21" stroke="#076678" stroke-width="4" fill="none"></path></g><g transform="translate(405.71751344165386 156.9425846318264) rotate(0 -100.11736422464838 0.45227650504811834)"><path d="M-173.11 -8.98 C-179.15 -7.27, -191.02 -3.71, -200.6 -1.22 M-171.83 -9.21 C-182.71 -6.39, -194.24 -1.54, -200.71 -0.11" stroke="#076678" stroke-width="4" fill="none"></path></g><g transform="translate(405.71751344165386 156.9425846318264) rotate(0 -100.11736422464838 0.45227650504811834)"><path d="M-173.31 11.54 C-179.21 6.91, -191.02 4.13, -200.6 -1.22 M-172.02 11.31 C-183.02 6.08, -194.48 2.87, -200.71 -0.11" stroke="#076678" stroke-width="4" fill="none"></path></g></g><mask></mask><g stroke-linecap="round"><g transform="translate(639.4544340368649 99.12590850119796) rotate(0 98.51915300556766 0.24856538816624152)"><path d="M-0.95 -1.02 C31.78 -0.86, 162.68 -0.08, 195.65 -0.1 M0.75 1.07 C33.93 1.51, 165.39 1.63, 197.99 1.39" stroke="#79740e" stroke-width="4" fill="none"></path></g><g transform="translate(639.4544340368649 99.12590850119796) rotate(0 98.51915300556766 0.24856538816624152)"><path d="M168.13 10.55 C176.48 10.3, 181.5 8.08, 197.72 0.82 M169.84 11.03 C178.17 8.49, 187.53 6.22, 198.62 0.7" stroke="#79740e" stroke-width="4" fill="none"></path></g><g transform="translate(639.4544340368649 99.12590850119796) rotate(0 98.51915300556766 0.24856538816624152)"><path d="M168.08 -9.97 C176.26 -5.32, 181.3 -2.65, 197.72 0.82 M169.79 -9.49 C178.17 -5.89, 187.55 -2.03, 198.62 0.7" stroke="#79740e" stroke-width="4" fill="none"></path></g></g><mask></mask><g stroke-linecap="round"><g transform="translate(837.8970939914072 158.6464659300476) rotate(0 -99.75263803344808 -0.4572465593019075)"><path d="M-0.7 -0.1 C-33.87 -0.04, -166.77 -0.74, -199.95 -0.67 M1.13 -1.19 C-32.06 -0.94, -167.08 -0.17, -200.64 0.28" stroke="#79740e" stroke-width="4" fill="none"></path></g><g transform="translate(837.8970939914072 158.6464659300476) rotate(0 -99.75263803344808 -0.4572465593019075)"><path d="M-172.7 -9.41 C-180.68 -7.02, -185.29 -6.33, -200.66 0.61 M-172.6 -10.53 C-178.52 -7.35, -185.61 -5.99, -201.1 0.44" stroke="#79740e" stroke-width="4" fill="none"></path></g><g transform="translate(837.8970939914072 158.6464659300476) rotate(0 -99.75263803344808 -0.4572465593019075)"><path d="M-172.52 11.11 C-180.36 8.98, -185.02 5.14, -200.66 0.61 M-172.42 9.99 C-178.38 8.17, -185.52 4.53, -201.1 0.44" stroke="#79740e" stroke-width="4" fill="none"></path></g></g><mask></mask><g stroke-linecap="round"><g transform="translate(491.4303389426467 242.54864853005267) rotate(0 0.3454090897925539 63.809904922804066)"><path d="M-0.6 -0.64 C-0.51 20.37, 0.05 105.45, 0.32 126.76 M1.29 1.64 C1.26 22.78, -0.37 107.69, -0.46 128.26" stroke="#d65d0e" stroke-width="4" fill="none"></path></g><g transform="translate(491.4303389426467 242.54864853005267) rotate(0 0.3454090897925539 63.809904922804066)"><path d="M-11.42 100.47 C-7.51 109.7, -3.96 115.55, -0.92 126.64 M-9.59 99.51 C-7.2 108.43, -5 116.63, -0.96 128.88" stroke="#d65d0e" stroke-width="4" fill="none"></path></g><g transform="translate(491.4303389426467 242.54864853005267) rotate(0 0.3454090897925539 63.809904922804066)"><path d="M9.09 100.73 C7.19 109.78, 4.93 115.56, -0.92 126.64 M10.93 99.77 C7.09 108.62, 3.06 116.74, -0.96 128.88" stroke="#d65d0e" stroke-width="4" fill="none"></path></g></g><mask></mask><g stroke-linecap="round"><g transform="translate(552.0625023212338 376.69930702017206) rotate(0 -0.29274982650986203 -65.7019564730106)"><path d="M0 -0.89 C0.12 -22.57, 1.03 -109.1, 0.85 -130.94 M-1.46 1.25 C-1.43 -20.69, -0.1 -110.65, 0.35 -132.66" stroke="#d65d0e" stroke-width="4" fill="none"></path></g><g transform="translate(552.0625023212338 376.69930702017206) rotate(0 -0.29274982650986203 -65.7019564730106)"><path d="M8.64 -102.88 C8.6 -114.89, 3.88 -120.65, 0.46 -130.82 M10.83 -104.17 C6.06 -114.25, 3.35 -125.43, 0.08 -131.81" stroke="#d65d0e" stroke-width="4" fill="none"></path></g><g transform="translate(552.0625023212338 376.69930702017206) rotate(0 -0.29274982650986203 -65.7019564730106)"><path d="M-11.88 -103.22 C-5.57 -115.13, -3.93 -120.78, 0.46 -130.82 M-9.68 -104.52 C-7.14 -114.51, -2.52 -125.56, 0.08 -131.81" stroke="#d65d0e" stroke-width="4" fill="none"></path></g></g><mask></mask><g transform="translate(679.241260660039 301.0871176367723) rotate(0 33.53766459239148 -1.8293271595849774)" stroke="none"><path fill="#928374" d="M 0,-5.33 Q 0,-5.33 1.73,-5.40 3.46,-5.47 7.11,-6.04 10.76,-6.61 14.14,-7.29 17.53,-7.96 20.00,-8.19 22.47,-8.41 25.12,-8.99 27.78,-9.57 30.94,-9.74 34.11,-9.91 37.03,-9.97 39.94,-10.02 44.32,-9.95 48.69,-9.89 51.92,-9.93 55.16,-9.97 57.74,-10.03 60.33,-10.09 63.70,-10.15 67.07,-10.20 68.12,-10.03 69.16,-9.86 70.10,-9.36 71.03,-8.87 71.76,-8.10 72.49,-7.33 72.94,-6.37 73.38,-5.41 73.50,-4.35 73.61,-3.30 73.38,-2.26 73.16,-1.23 72.61,-0.32 72.06,0.58 71.25,1.26 70.45,1.95 69.46,2.34 68.48,2.73 67.42,2.79 66.36,2.85 65.34,2.56 64.32,2.28 63.44,1.69 62.57,1.09 61.92,0.25 61.28,-0.59 60.94,-1.59 60.61,-2.59 60.61,-3.65 60.61,-4.71 60.94,-5.72 61.28,-6.72 61.92,-7.57 62.57,-8.41 63.44,-9.00 64.32,-9.60 65.34,-9.88 66.36,-10.17 67.42,-10.11 68.48,-10.05 69.46,-9.66 70.45,-9.27 71.26,-8.58 72.06,-7.89 72.61,-6.98 73.16,-6.08 73.38,-5.04 73.61,-4.01 73.50,-2.95 73.38,-1.90 72.94,-0.94 72.49,0.01 71.76,0.78 71.03,1.55 70.10,2.05 69.16,2.54 68.11,2.72 67.07,2.89 67.07,2.89 67.07,2.89 63.70,2.83 60.33,2.77 57.74,2.71 55.16,2.65 51.93,2.61 48.69,2.57 44.34,2.65 39.98,2.72 37.16,2.70 34.33,2.68 30.74,2.75 27.15,2.82 23.93,3.20 20.71,3.58 18.30,3.66 15.89,3.74 13.69,4.17 11.50,4.61 7.52,5.04 3.54,5.47 1.77,5.40 0,5.33 -0.63,5.26 -1.27,5.18 -1.87,4.95 -2.48,4.72 -3.01,4.36 -3.53,3.99 -3.96,3.51 -4.39,3.03 -4.69,2.46 -4.99,1.89 -5.14,1.26 -5.29,0.64 -5.29,-0.00 -5.29,-0.64 -5.14,-1.26 -4.99,-1.89 -4.69,-2.46 -4.39,-3.03 -3.96,-3.51 -3.53,-3.99 -3.00,-4.36 -2.48,-4.72 -1.87,-4.95 -1.27,-5.18 -0.63,-5.26 0.00,-5.33 0.00,-5.33 L 0,-5.33 Z"></path></g><g transform="translate(701.1931865750589 301.0871176367723) rotate(0 -1.8293271595849774 17.07372015612657)" stroke="none"><path fill="#928374" d="M 5.19,1.03 Q 5.19,1.03 4.91,2.80 4.63,4.57 4.64,7.31 4.64,10.05 4.72,12.47 4.81,14.89 4.24,18.73 3.67,22.57 3.16,25.72 2.66,28.87 2.83,31.56 3.01,34.25 2.82,35.31 2.63,36.37 2.10,37.32 1.58,38.27 0.79,39.00 -0.00,39.73 -0.98,40.16 -1.97,40.60 -3.05,40.70 -4.12,40.80 -5.17,40.55 -6.22,40.30 -7.14,39.73 -8.06,39.16 -8.74,38.32 -9.43,37.49 -9.81,36.48 -10.19,35.47 -10.23,34.39 -10.28,33.31 -9.97,32.28 -9.66,31.24 -9.04,30.36 -8.42,29.48 -7.55,28.84 -6.68,28.20 -5.66,27.87 -4.63,27.54 -3.55,27.56 -2.47,27.58 -1.45,27.94 -0.43,28.30 0.41,28.96 1.25,29.63 1.85,30.54 2.44,31.44 2.71,32.48 2.98,33.53 2.91,34.61 2.83,35.68 2.41,36.68 2.00,37.68 1.29,38.49 0.57,39.30 -0.35,39.84 -1.28,40.38 -2.34,40.60 -3.40,40.81 -4.47,40.68 -5.54,40.54 -6.52,40.07 -7.49,39.60 -8.26,38.85 -9.03,38.09 -9.52,37.13 -10.01,36.17 -10.17,35.10 -10.33,34.03 -10.33,34.03 -10.33,34.04 -10.25,31.73 -10.18,29.42 -9.49,26.69 -8.79,23.96 -8.60,21.76 -8.40,19.57 -7.82,17.21 -7.23,14.85 -7.03,11.40 -6.83,7.95 -6.43,5.19 -6.04,2.44 -5.62,0.70 -5.19,-1.03 -4.99,-1.64 -4.79,-2.25 -4.46,-2.79 -4.12,-3.33 -3.66,-3.78 -3.20,-4.22 -2.64,-4.54 -2.09,-4.86 -1.48,-5.05 -0.87,-5.23 -0.23,-5.25 0.40,-5.28 1.03,-5.16 1.65,-5.03 2.23,-4.76 2.81,-4.49 3.31,-4.09 3.80,-3.68 4.19,-3.17 4.58,-2.66 4.83,-2.08 5.08,-1.49 5.19,-0.86 5.29,-0.23 5.24,0.40 5.19,1.04 5.19,1.04 L 5.19,1.03 Z"></path></g><g transform="translate(719.4864581709087 301.0871176367723) rotate(0 0 15.854168716403251)" stroke="none"><path fill="#928374" d="M 5.28,0 Q 5.28,0 5.34,2.10 5.39,4.20 5.42,6.50 5.45,8.80 5.58,11.54 5.71,14.28 5.88,17.33 6.04,20.38 6.16,22.52 6.28,24.65 6.37,28.18 6.46,31.70 6.29,32.74 6.12,33.77 5.63,34.69 5.14,35.62 4.38,36.34 3.62,37.06 2.67,37.50 1.72,37.93 0.68,38.05 -0.35,38.16 -1.37,37.94 -2.39,37.71 -3.29,37.17 -4.18,36.63 -4.86,35.83 -5.54,35.04 -5.92,34.06 -6.31,33.09 -6.37,32.05 -6.42,31.00 -6.14,30.00 -5.86,28.99 -5.28,28.12 -4.69,27.26 -3.86,26.62 -3.02,25.99 -2.03,25.66 -1.04,25.32 0.00,25.32 1.04,25.32 2.03,25.66 3.03,25.99 3.86,26.62 4.69,27.26 5.28,28.12 5.86,28.99 6.14,30.00 6.42,31.01 6.37,32.05 6.31,33.09 5.92,34.07 5.54,35.04 4.86,35.84 4.18,36.63 3.28,37.17 2.39,37.71 1.37,37.94 0.34,38.16 -0.69,38.05 -1.73,37.93 -2.68,37.49 -3.63,37.06 -4.39,36.34 -5.14,35.62 -5.63,34.69 -6.12,33.77 -6.29,32.73 -6.46,31.70 -6.46,31.70 -6.46,31.70 -6.37,28.18 -6.28,24.65 -6.16,22.52 -6.04,20.38 -5.88,17.33 -5.71,14.28 -5.58,11.54 -5.45,8.80 -5.42,6.50 -5.39,4.20 -5.34,2.10 -5.28,0 -5.21,-0.63 -5.13,-1.26 -4.90,-1.86 -4.68,-2.45 -4.32,-2.98 -3.95,-3.50 -3.48,-3.92 -3.00,-4.35 -2.43,-4.64 -1.87,-4.94 -1.25,-5.09 -0.63,-5.25 0.00,-5.25 0.63,-5.25 1.25,-5.09 1.87,-4.94 2.44,-4.64 3.00,-4.35 3.48,-3.92 3.95,-3.50 4.32,-2.98 4.68,-2.45 4.90,-1.86 5.13,-1.26 5.21,-0.63 5.28,0.00 5.28,0.00 L 5.28,0 Z"></path></g><g transform="translate(756.0730013626087 319.3803892326222) rotate(0 8.536860078063228 0)" stroke="none"><path fill="#928374" d="M 0,-4.14 Q 0,-4.14 4.90,-3.94 9.81,-3.74 13.44,-3.73 17.07,-3.73 17.67,-3.63 18.26,-3.54 18.80,-3.25 19.33,-2.97 19.75,-2.53 20.16,-2.09 20.41,-1.54 20.67,-0.99 20.73,-0.39 20.80,0.20 20.67,0.79 20.54,1.38 20.23,1.90 19.92,2.41 19.46,2.80 18.99,3.20 18.43,3.42 17.87,3.64 17.27,3.68 16.66,3.71 16.08,3.55 15.50,3.39 15.00,3.05 14.50,2.71 14.13,2.23 13.77,1.74 13.58,1.17 13.38,0.60 13.38,-0.00 13.38,-0.60 13.58,-1.17 13.77,-1.75 14.13,-2.23 14.50,-2.71 15.00,-3.05 15.50,-3.39 16.08,-3.55 16.67,-3.71 17.27,-3.68 17.87,-3.64 18.43,-3.42 19.00,-3.20 19.46,-2.80 19.92,-2.41 20.23,-1.89 20.54,-1.38 20.67,-0.79 20.80,-0.20 20.73,0.39 20.67,1.00 20.41,1.54 20.16,2.09 19.74,2.53 19.33,2.97 18.79,3.25 18.26,3.54 17.66,3.63 17.07,3.73 17.07,3.73 17.07,3.73 13.44,3.73 9.81,3.74 4.90,3.94 0,4.14 -0.49,4.08 -0.99,4.02 -1.46,3.84 -1.92,3.67 -2.33,3.38 -2.75,3.10 -3.08,2.73 -3.41,2.35 -3.64,1.91 -3.87,1.47 -3.99,0.98 -4.11,0.49 -4.11,-0.00 -4.11,-0.50 -3.99,-0.98 -3.87,-1.47 -3.64,-1.91 -3.41,-2.35 -3.08,-2.73 -2.74,-3.10 -2.33,-3.38 -1.92,-3.67 -1.45,-3.84 -0.99,-4.02 -0.49,-4.08 0.00,-4.14 0.00,-4.14 L 0,-4.14 Z"></path></g><g transform="translate(817.0505733487748 301.0871176367723) rotate(0 -12.195514397233069 15.244392996541592)" stroke="none"><path fill="#928374" d="M -0.87,5.25 Q -0.87,5.25 -2.94,4.95 -5.00,4.65 -8.36,5.96 -11.71,7.28 -14.29,8.59 -16.88,9.90 -17.90,13.33 -18.91,16.76 -19.51,19.81 -20.11,22.86 -17.88,23.87 -15.64,24.88 -12.46,24.99 -9.27,25.09 -6.92,25.09 -4.56,25.09 -1.05,25.06 2.45,25.03 3.51,25.20 4.58,25.38 5.53,25.89 6.48,26.40 7.23,27.18 7.97,27.97 8.42,28.95 8.87,29.93 8.98,31.00 9.10,32.08 8.87,33.13 8.63,34.19 8.07,35.11 7.51,36.04 6.69,36.73 5.86,37.43 4.86,37.83 3.86,38.23 2.78,38.28 1.70,38.34 0.66,38.05 -0.37,37.76 -1.26,37.15 -2.16,36.54 -2.81,35.68 -3.46,34.82 -3.80,33.79 -4.15,32.77 -4.14,31.69 -4.14,30.61 -3.79,29.59 -3.45,28.56 -2.79,27.71 -2.14,26.85 -1.24,26.24 -0.35,25.64 0.68,25.35 1.73,25.07 2.80,25.13 3.88,25.19 4.89,25.59 5.89,25.99 6.71,26.69 7.53,27.39 8.09,28.32 8.64,29.25 8.87,30.30 9.10,31.36 8.98,32.43 8.86,33.50 8.41,34.48 7.95,35.46 7.21,36.24 6.46,37.03 5.51,37.53 4.55,38.03 3.49,38.21 2.42,38.38 2.42,38.38 2.42,38.38 0.21,38.35 -1.99,38.32 -4.88,38.27 -7.78,38.22 -10.49,38.07 -13.20,37.91 -15.82,37.63 -18.44,37.35 -22.28,35.39 -26.11,33.42 -28.26,31.63 -30.40,29.84 -31.56,27.34 -32.72,24.84 -32.48,20.98 -32.25,17.13 -31.59,14.42 -30.93,11.70 -30.10,9.61 -29.27,7.51 -27.50,4.78 -25.74,2.05 -23.54,0.37 -21.35,-1.30 -18.44,-2.61 -15.53,-3.92 -12.29,-4.85 -9.05,-5.79 -6.22,-5.92 -3.40,-6.05 -1.26,-5.65 0.87,-5.25 1.49,-5.07 2.10,-4.89 2.66,-4.57 3.21,-4.24 3.68,-3.80 4.14,-3.35 4.48,-2.80 4.82,-2.26 5.02,-1.65 5.22,-1.04 5.27,-0.40 5.32,0.23 5.21,0.87 5.11,1.50 4.85,2.09 4.60,2.68 4.21,3.19 3.82,3.70 3.32,4.11 2.82,4.51 2.24,4.78 1.66,5.06 1.03,5.18 0.40,5.31 -0.23,5.28 -0.87,5.25 -0.87,5.25 L -0.87,5.25 Z"></path></g><g transform="translate(835.3438449446248 302.3066690764956) rotate(0 0.6097757198616591 14.024841556818274)" stroke="none"><path fill="#928374" d="M 5.20,-0.74 Q 5.20,-0.74 5.57,1.70 5.94,4.16 6.16,6.43 6.38,8.71 6.62,10.93 6.85,13.16 7.03,15.75 7.21,18.34 7.34,21.14 7.47,23.95 6.75,26.90 6.04,29.85 5.59,30.76 5.15,31.68 4.43,32.41 3.72,33.14 2.81,33.60 1.90,34.06 0.89,34.20 -0.11,34.35 -1.12,34.17 -2.12,33.98 -3.01,33.49 -3.90,32.99 -4.59,32.24 -5.28,31.48 -5.69,30.55 -6.10,29.62 -6.19,28.60 -6.28,27.58 -6.05,26.59 -5.81,25.60 -5.27,24.74 -4.72,23.87 -3.93,23.23 -3.14,22.58 -2.19,22.22 -1.23,21.86 -0.21,21.83 0.80,21.79 1.77,22.08 2.75,22.37 3.58,22.96 4.42,23.55 5.02,24.37 5.62,25.20 5.93,26.17 6.24,27.14 6.22,28.16 6.20,29.18 5.85,30.14 5.51,31.10 4.88,31.90 4.24,32.70 3.39,33.26 2.53,33.82 1.55,34.07 0.56,34.33 -0.45,34.25 -1.47,34.18 -2.41,33.78 -3.35,33.39 -4.11,32.71 -4.88,32.04 -5.39,31.15 -5.90,30.27 -6.10,29.27 -6.30,28.27 -6.17,27.25 -6.04,26.24 -6.04,26.24 -6.04,26.24 -5.49,23.97 -4.95,21.70 -4.82,19.26 -4.69,16.83 -4.55,14.34 -4.42,11.86 -4.48,8.76 -4.54,5.65 -4.87,3.19 -5.20,0.74 -5.21,0.10 -5.22,-0.52 -5.08,-1.14 -4.94,-1.75 -4.66,-2.32 -4.38,-2.89 -3.97,-3.37 -3.56,-3.85 -3.05,-4.22 -2.53,-4.59 -1.95,-4.83 -1.36,-5.07 -0.73,-5.16 -0.11,-5.25 0.51,-5.18 1.14,-5.12 1.74,-4.91 2.34,-4.70 2.87,-4.35 3.40,-4.00 3.82,-3.53 4.25,-3.07 4.56,-2.51 4.87,-1.96 5.03,-1.35 5.20,-0.74 5.20,-0.74 L 5.20,-0.74 Z"></path></g><g transform="translate(843.8807050226881 310.84352915455895) rotate(0 13.415065836956614 -1.8293271595849774)" stroke="none"><path fill="#928374" d="M -0.51,-4.38 Q -0.51,-4.38 5.47,-4.85 11.45,-5.32 14.92,-5.92 18.39,-6.52 20.71,-6.96 23.02,-7.41 24.65,-7.76 26.27,-8.11 27.00,-8.08 27.72,-8.05 28.40,-7.79 29.08,-7.53 29.64,-7.07 30.20,-6.61 30.58,-5.99 30.97,-5.38 31.13,-4.67 31.30,-3.96 31.23,-3.24 31.17,-2.52 30.87,-1.85 30.58,-1.19 30.08,-0.66 29.59,-0.12 28.96,0.22 28.32,0.57 27.61,0.69 26.89,0.82 26.17,0.72 25.46,0.61 24.81,0.28 24.16,-0.04 23.66,-0.56 23.15,-1.08 22.83,-1.74 22.52,-2.39 22.43,-3.11 22.34,-3.83 22.49,-4.54 22.63,-5.25 23.00,-5.88 23.36,-6.51 23.91,-6.99 24.46,-7.46 25.13,-7.74 25.80,-8.02 26.52,-8.07 27.24,-8.12 27.95,-7.94 28.65,-7.75 29.26,-7.35 29.86,-6.96 30.31,-6.38 30.76,-5.81 31.00,-5.13 31.24,-4.44 31.25,-3.72 31.26,-2.99 31.04,-2.30 30.82,-1.61 30.39,-1.03 29.96,-0.44 29.36,-0.03 28.77,0.38 28.07,0.58 27.38,0.79 27.38,0.79 27.38,0.79 25.71,0.85 24.05,0.91 21.91,1.01 19.78,1.12 16.08,1.82 12.38,2.51 6.44,3.45 0.51,4.38 -0.01,4.38 -0.54,4.38 -1.06,4.25 -1.58,4.12 -2.05,3.87 -2.52,3.62 -2.92,3.27 -3.31,2.91 -3.62,2.47 -3.92,2.03 -4.10,1.54 -4.29,1.04 -4.35,0.51 -4.41,-0.01 -4.35,-0.54 -4.28,-1.07 -4.09,-1.57 -3.90,-2.06 -3.60,-2.50 -3.29,-2.94 -2.89,-3.29 -2.49,-3.64 -2.02,-3.89 -1.55,-4.13 -1.03,-4.26 -0.51,-4.38 -0.51,-4.38 L -0.51,-4.38 Z"></path></g><g transform="translate(878.0281453349412 305.96532339566556) rotate(0 12.195514397233296 13.415065836956614)" stroke="none"><path fill="#928374" d="M 5.17,0.64 Q 5.17,0.64 4.80,3.44 4.43,6.25 4.32,10.44 4.20,14.64 4.29,18.04 4.38,21.44 7.15,22.18 9.92,22.91 12.48,21.67 15.04,20.43 16.01,18.20 16.98,15.97 17.85,12.92 18.71,9.86 18.89,7.53 19.08,5.21 19.05,1.36 19.02,-2.48 19.20,-3.53 19.38,-4.58 19.89,-5.51 20.39,-6.45 21.17,-7.18 21.95,-7.91 22.92,-8.35 23.89,-8.79 24.95,-8.90 26.00,-9.00 27.04,-8.77 28.08,-8.53 28.99,-7.98 29.90,-7.42 30.58,-6.61 31.27,-5.79 31.66,-4.80 32.04,-3.81 32.09,-2.74 32.14,-1.68 31.85,-0.66 31.56,0.36 30.96,1.24 30.35,2.11 29.50,2.75 28.65,3.39 27.64,3.72 26.63,4.06 25.56,4.05 24.50,4.04 23.49,3.70 22.48,3.35 21.64,2.70 20.80,2.05 20.21,1.16 19.61,0.28 19.34,-0.74 19.06,-1.77 19.12,-2.83 19.19,-3.89 19.59,-4.88 19.99,-5.87 20.68,-6.67 21.38,-7.48 22.29,-8.02 23.21,-8.56 24.25,-8.79 25.29,-9.01 26.35,-8.89 27.41,-8.76 28.37,-8.31 29.34,-7.86 30.10,-7.12 30.87,-6.38 31.36,-5.44 31.86,-4.49 32.02,-3.44 32.19,-2.39 32.19,-2.39 32.19,-2.39 32.14,-0.33 32.10,1.72 31.97,3.93 31.84,6.13 31.36,9.64 30.88,13.16 29.72,17.02 28.57,20.88 27.11,24.28 25.65,27.68 24.08,29.36 22.51,31.04 19.52,32.86 16.53,34.69 13.09,35.10 9.64,35.51 5.90,35.22 2.15,34.92 -0.39,33.68 -2.95,32.43 -4.44,30.08 -5.93,27.72 -6.36,24.55 -6.78,21.38 -6.62,17.88 -6.46,14.38 -6.14,9.67 -5.83,4.96 -5.50,2.16 -5.17,-0.64 -5.01,-1.25 -4.86,-1.86 -4.57,-2.42 -4.27,-2.97 -3.86,-3.44 -3.44,-3.91 -2.92,-4.26 -2.40,-4.62 -1.81,-4.84 -1.22,-5.06 -0.60,-5.13 0.01,-5.21 0.64,-5.13 1.26,-5.05 1.85,-4.83 2.43,-4.60 2.95,-4.24 3.47,-3.88 3.88,-3.41 4.30,-2.94 4.59,-2.38 4.88,-1.83 5.02,-1.22 5.17,-0.60 5.17,0.01 5.17,0.64 5.17,0.64 L 5.17,0.64 Z"></path></g><g transform="translate(939.0057173211076 304.74577195594225) rotate(0 -4.878205758893159 15.854168716403251)" stroke="none"><path fill="#928374" d="M 0,5.17 Q 0,5.17 -2.80,5.16 -5.60,5.15 -7.85,5.49 -10.10,5.83 -12.40,6.46 -14.69,7.08 -11.06,8.34 -7.44,9.61 -5.03,9.88 -2.62,10.16 0.05,10.78 2.72,11.40 5.58,12.83 8.43,14.27 10.85,15.73 13.28,17.20 15.45,19.83 17.62,22.45 17.98,24.75 18.34,27.05 17.35,29.98 16.36,32.91 14.63,34.34 12.90,35.78 9.06,36.38 5.22,36.98 0.86,36.62 -3.49,36.26 -5.98,36.26 -8.46,36.27 -11.72,36.41 -14.99,36.56 -18.23,36.91 -21.48,37.26 -22.38,37.19 -23.28,37.12 -24.11,36.76 -24.94,36.41 -25.61,35.81 -26.28,35.21 -26.73,34.42 -27.17,33.64 -27.35,32.75 -27.52,31.87 -27.40,30.98 -27.28,30.08 -26.88,29.27 -26.48,28.46 -25.85,27.82 -25.21,27.19 -24.40,26.78 -23.60,26.38 -22.70,26.26 -21.81,26.13 -20.92,26.30 -20.04,26.47 -19.25,26.91 -18.47,27.35 -17.86,28.02 -17.26,28.69 -16.90,29.52 -16.54,30.34 -16.47,31.24 -16.39,32.14 -16.61,33.02 -16.82,33.89 -17.31,34.65 -17.79,35.41 -18.49,35.98 -19.19,36.55 -20.04,36.86 -20.88,37.17 -21.78,37.20 -22.69,37.23 -23.55,36.97 -24.41,36.70 -25.14,36.18 -25.88,35.65 -26.41,34.92 -26.93,34.19 -27.20,33.33 -27.47,32.47 -27.45,31.57 -27.42,30.67 -27.11,29.82 -26.81,28.97 -26.24,28.27 -25.68,27.56 -24.92,27.08 -24.16,26.59 -23.29,26.37 -22.41,26.15 -22.41,26.15 -22.41,26.15 -19.26,25.96 -16.11,25.77 -12.36,25.19 -8.62,24.61 -6.16,24.55 -3.71,24.49 1.13,24.22 5.99,23.95 5.98,26.51 5.96,29.08 3.57,27.28 1.17,25.48 -0.86,24.39 -2.90,23.29 -5.61,22.62 -8.31,21.96 -13.02,20.61 -17.74,19.26 -20.84,17.26 -23.93,15.27 -25.35,12.19 -26.77,9.11 -26.44,6.23 -26.11,3.34 -24.51,1.16 -22.90,-1.02 -20.44,-2.22 -17.99,-3.43 -14.74,-3.93 -11.49,-4.43 -8.55,-4.79 -5.61,-5.15 -2.80,-5.16 0,-5.17 0.61,-5.10 1.23,-5.02 1.82,-4.80 2.40,-4.58 2.92,-4.23 3.43,-3.87 3.84,-3.40 4.26,-2.94 4.55,-2.38 4.84,-1.83 4.99,-1.22 5.14,-0.62 5.14,0.00 5.14,0.62 4.99,1.23 4.84,1.83 4.55,2.38 4.26,2.94 3.84,3.40 3.43,3.87 2.91,4.23 2.40,4.58 1.82,4.80 1.23,5.02 0.61,5.10 -0.00,5.17 -0.00,5.17 L 0,5.17 Z"></path></g><g transform="translate(980.4704662717008 274.25698596285906) rotate(0 6.70753291847825 30.488785993083184)" stroke="none"><path fill="#928374" d="M 4.98,1.10 Q 4.98,1.10 4.21,4.24 3.43,7.38 3.23,10.67 3.03,13.96 3.10,16.83 3.17,19.70 2.32,23.50 1.46,27.30 0.81,30.21 0.16,33.11 -0.47,35.18 -1.12,37.25 -1.75,40.65 -2.39,44.05 -2.90,46.50 -3.42,48.96 -3.92,52.57 -4.41,56.18 -0.96,55.42 2.49,54.65 5.63,54.82 8.76,55.00 12.57,54.97 16.38,54.94 18.51,54.85 20.64,54.76 23.12,54.73 25.61,54.70 26.61,54.86 27.61,55.03 28.51,55.50 29.40,55.98 30.10,56.71 30.80,57.45 31.23,58.37 31.65,59.29 31.76,60.30 31.87,61.31 31.65,62.30 31.44,63.30 30.91,64.17 30.39,65.04 29.61,65.69 28.84,66.35 27.90,66.73 26.95,67.10 25.94,67.16 24.93,67.21 23.95,66.94 22.97,66.67 22.13,66.10 21.29,65.53 20.67,64.72 20.06,63.91 19.74,62.95 19.41,61.99 19.41,60.97 19.41,59.96 19.74,58.99 20.06,58.03 20.68,57.22 21.29,56.42 22.13,55.85 22.97,55.28 23.95,55.00 24.93,54.73 25.94,54.79 26.96,54.84 27.90,55.22 28.84,55.60 29.62,56.25 30.39,56.91 30.91,57.78 31.44,58.65 31.65,59.64 31.87,60.63 31.76,61.64 31.65,62.65 31.23,63.57 30.80,64.50 30.10,65.23 29.40,65.97 28.50,66.45 27.61,66.92 26.61,67.08 25.60,67.25 25.60,67.25 25.61,67.25 23.12,67.21 20.64,67.18 18.50,67.09 16.37,67.00 12.55,66.96 8.74,66.93 5.57,67.08 2.40,67.24 -1.84,67.24 -6.09,67.24 -9.57,66.91 -13.04,66.58 -14.77,65.14 -16.51,63.71 -17.28,61.27 -18.06,58.83 -17.68,56.56 -17.29,54.30 -16.41,51.40 -15.53,48.50 -14.82,46.04 -14.10,43.58 -13.35,41.22 -12.59,38.86 -11.64,34.97 -10.69,31.07 -10.21,27.90 -9.73,24.73 -8.77,20.39 -7.81,16.05 -7.44,12.85 -7.06,9.65 -6.65,7.44 -6.24,5.23 -5.61,2.06 -4.98,-1.10 -4.78,-1.68 -4.57,-2.27 -4.24,-2.78 -3.90,-3.30 -3.45,-3.71 -2.99,-4.13 -2.46,-4.43 -1.92,-4.73 -1.32,-4.89 -0.73,-5.05 -0.11,-5.07 0.49,-5.08 1.10,-4.95 1.70,-4.81 2.25,-4.54 2.80,-4.27 3.27,-3.87 3.74,-3.47 4.10,-2.97 4.46,-2.47 4.70,-1.90 4.93,-1.33 5.02,-0.72 5.10,-0.11 5.04,0.49 4.98,1.10 4.98,1.10 L 4.98,1.10 Z"></path></g><g transform="translate(962.1771946758508 294.9893604381557) rotate(0 23.781253074604933 -1.2195514397233183)" stroke="none"><path fill="#928374" d="M -0.33,-4.39 Q -0.33,-4.39 4.23,-4.50 8.81,-4.62 15.06,-4.60 21.31,-4.58 24.63,-4.71 27.95,-4.85 30.92,-5.29 33.89,-5.73 37.11,-5.97 40.33,-6.21 43.87,-6.49 47.41,-6.76 48.11,-6.67 48.80,-6.58 49.43,-6.28 50.06,-5.97 50.56,-5.48 51.06,-4.98 51.37,-4.36 51.69,-3.73 51.79,-3.04 51.89,-2.35 51.76,-1.66 51.63,-0.97 51.29,-0.35 50.95,0.25 50.43,0.72 49.91,1.19 49.27,1.47 48.63,1.75 47.93,1.81 47.23,1.88 46.55,1.71 45.87,1.55 45.28,1.17 44.69,0.80 44.24,0.26 43.80,-0.28 43.55,-0.93 43.31,-1.59 43.28,-2.29 43.26,-2.99 43.46,-3.66 43.66,-4.33 44.07,-4.91 44.47,-5.48 45.04,-5.89 45.61,-6.30 46.28,-6.51 46.94,-6.72 47.65,-6.71 48.35,-6.69 49.01,-6.46 49.67,-6.22 50.21,-5.78 50.76,-5.35 51.14,-4.76 51.53,-4.17 51.70,-3.49 51.87,-2.81 51.82,-2.11 51.77,-1.42 51.50,-0.77 51.22,-0.12 50.76,0.39 50.29,0.91 49.69,1.26 49.08,1.61 48.39,1.75 47.70,1.89 47.70,1.89 47.70,1.89 44.23,1.85 40.75,1.81 37.78,1.89 34.81,1.97 31.45,2.28 28.10,2.60 24.79,2.59 21.49,2.58 15.45,2.90 9.41,3.22 4.87,3.80 0.33,4.39 -0.19,4.37 -0.72,4.34 -1.23,4.19 -1.74,4.04 -2.20,3.78 -2.66,3.51 -3.04,3.14 -3.42,2.77 -3.70,2.32 -3.98,1.87 -4.15,1.36 -4.32,0.86 -4.36,0.33 -4.40,-0.19 -4.31,-0.71 -4.22,-1.24 -4.01,-1.73 -3.80,-2.21 -3.48,-2.64 -3.16,-3.06 -2.75,-3.39 -2.34,-3.73 -1.86,-3.95 -1.37,-4.18 -0.85,-4.28 -0.33,-4.39 -0.33,-4.39 L -0.33,-4.39 Z"></path></g><g stroke-linecap="round"><g transform="translate(279.22838843078796 448.6528418432948) rotate(0 277.4479525370569 -209.76284763241216)"><path d="M0 0 C9.96 -18.09, -20.12 -68.9, 59.76 -108.54 C139.64 -148.18, 396.76 -185.98, 479.28 -237.81 C561.81 -289.64, 542.29 -389.24, 554.9 -419.53 M0 0 C9.96 -18.09, -20.12 -68.9, 59.76 -108.54 C139.64 -148.18, 396.76 -185.98, 479.28 -237.81 C561.81 -289.64, 542.29 -389.24, 554.9 -419.53" stroke="#928374" stroke-width="4" fill="none"></path></g></g><mask></mask></svg>