<svg version="1.1" xmlns="http://www.w3.org/2000/svg" viewBox="0 0 901.3680781758958 435" width="901.3680781758958" height="435">
  <!-- svg-source:excalidraw -->
  
  <defs>
    <style class="style-fonts">
      @font-face {
        font-family: "Virgil";
        src: url("https://excalidraw.com/Virgil.woff2");
      }
      @font-face {
        font-family: "Cascadia";
        src: url("https://excalidraw.com/Cascadia.woff2");
      }
    </style>
    
  </defs>
  <g stroke-linecap="round" transform="translate(10 10) rotate(0 91.92182410423453 71.64495114006513)"><path d="M32 0 M32 0 C66.64 1.08, 99.53 1.61, 151.84 0 M32 0 C64.3 -1.77, 97.33 -0.15, 151.84 0 M151.84 0 C174.74 0.22, 183.12 8.86, 183.84 32 M151.84 0 C171.95 -0.8, 182.39 11.77, 183.84 32 M183.84 32 C183.29 57.38, 182.29 79.91, 183.84 111.29 M183.84 32 C183.28 62.63, 183.4 92.39, 183.84 111.29 M183.84 111.29 C184.15 133.96, 173.78 143.83, 151.84 143.29 M183.84 111.29 C183.62 131.66, 172.15 145.56, 151.84 143.29 M151.84 143.29 C119.9 144.45, 85.18 142.16, 32 143.29 M151.84 143.29 C118.31 144.15, 84.16 144.15, 32 143.29 M32 143.29 C10.2 144.18, -1.3 133.21, 0 111.29 M32 143.29 C11.99 144.83, 2.28 131.89, 0 111.29 M0 111.29 C-0.75 91.39, 1.34 73.02, 0 32 M0 111.29 C1.48 88.63, 0.56 64.86, 0 32 M0 32 C-1.46 11.14, 12.59 0.44, 32 0 M0 32 C-1.51 9.73, 9.25 -1.85, 32 0" stroke="#504945" stroke-width="1" fill="none"></path></g><g transform="translate(17.99682105247672 64.14495114006513) rotate(0 83.92500305175781 17.5)"><text x="83.92500305175781" y="0" font-family="Virgil, Segoe UI Emoji" font-size="28px" fill="#504945" text-anchor="middle" style="white-space: pre;" direction="ltr" dominant-baseline="text-before-edge">Instructions</text></g><g stroke-linecap="round" transform="translate(358.7622149837134 11.351791530944638) rotate(0 91.92182410423453 71.64495114006513)"><path d="M32 0 M32 0 C59.57 2.16, 89.47 0.33, 151.84 0 M32 0 C65.91 -0.07, 99.92 -0.34, 151.84 0 M151.84 0 C172.88 1.67, 182.69 11.98, 183.84 32 M151.84 0 C175.11 -1.33, 183 11.84, 183.84 32 M183.84 32 C182.19 62.63, 182.57 90.06, 183.84 111.29 M183.84 32 C184.88 58.88, 184.21 86.82, 183.84 111.29 M183.84 111.29 C182.45 133.26, 171.89 142.9, 151.84 143.29 M183.84 111.29 C182.9 132.28, 170.93 145.43, 151.84 143.29 M151.84 143.29 C114.53 142.17, 76.58 143.94, 32 143.29 M151.84 143.29 C119.58 144.63, 88.36 144.69, 32 143.29 M32 143.29 C11.05 142.65, 0.33 132.92, 0 111.29 M32 143.29 C9 141.06, 0.16 133.43, 0 111.29 M0 111.29 C-1.24 88.39, 0.06 68.04, 0 32 M0 111.29 C0.98 85.91, 0.94 59.33, 0 32 M0 32 C-0.35 10.02, 12.16 -0.38, 32 0 M0 32 C-0.64 12.06, 10.35 -2.05, 32 0" stroke="#504945" stroke-width="1" fill="none"></path></g><g transform="translate(367.1340360361901 65.49674267100977) rotate(0 83.55000305175781 17.5)"><text x="83.55000305175781" y="0" font-family="Virgil, Segoe UI Emoji" font-size="28px" fill="#504945" text-anchor="middle" style="white-space: pre;" direction="ltr" dominant-baseline="text-before-edge">Control Unit</text></g><g stroke-linecap="round" transform="translate(358.7622149837134 281.71009771986974) rotate(0 91.92182410423453 71.64495114006513)"><path d="M32 0 M32 0 C76.54 2.99, 117.05 1.59, 151.84 0 M32 0 C62.02 0.56, 90.72 1.02, 151.84 0 M151.84 0 C174.86 0.84, 183.59 12.17, 183.84 32 M151.84 0 C173.08 -1.87, 184.25 10.01, 183.84 32 M183.84 32 C181.72 50.17, 183 65.16, 183.84 111.29 M183.84 32 C183.8 52.02, 183.23 71.11, 183.84 111.29 M183.84 111.29 C182.62 133.87, 174.6 144.24, 151.84 143.29 M183.84 111.29 C185.82 131.09, 174.24 141.47, 151.84 143.29 M151.84 143.29 C118.41 143.21, 84.45 143.28, 32 143.29 M151.84 143.29 C113.91 142.28, 75.86 142.32, 32 143.29 M32 143.29 C11.77 144.03, 1.68 134.09, 0 111.29 M32 143.29 C8.42 142.27, -1.52 131.09, 0 111.29 M0 111.29 C2.19 79.89, 1.46 50.51, 0 32 M0 111.29 C-0.7 86.06, -1.26 59.69, 0 32 M0 32 C1.95 10.78, 10.74 1.47, 32 0 M0 32 C1.68 10.73, 10.45 0.88, 32 0" stroke="#504945" stroke-width="1" fill="none"></path></g><g transform="translate(425.77153870647817 335.85504885993487) rotate(0 24.912500381469727 17.5)"><text x="24.912500381469727" y="0" font-family="Virgil, Segoe UI Emoji" font-size="28px" fill="#504945" text-anchor="middle" style="white-space: pre;" direction="ltr" dominant-baseline="text-before-edge">I/O</text></g><g stroke-linecap="round" transform="translate(707.5244299674268 11.351791530944638) rotate(0 91.92182410423447 71.64495114006513)"><path d="M32 0 M32 0 C61.19 -0.56, 87.04 0.06, 151.84 0 M32 0 C69.45 -0.61, 108.46 -0.42, 151.84 0 M151.84 0 C172.64 0.36, 184.03 12.15, 183.84 32 M151.84 0 C170.97 0.67, 184.44 8.42, 183.84 32 M183.84 32 C182.81 54.81, 183.04 79.86, 183.84 111.29 M183.84 32 C182.92 47.86, 184.16 63.39, 183.84 111.29 M183.84 111.29 C185.01 131.93, 174.97 141.87, 151.84 143.29 M183.84 111.29 C183.68 132.07, 172.93 144.21, 151.84 143.29 M151.84 143.29 C128.77 140.41, 103.49 144.03, 32 143.29 M151.84 143.29 C111.71 144.25, 73.3 144.95, 32 143.29 M32 143.29 C10.87 142.18, 0.87 133.23, 0 111.29 M32 143.29 C9.92 142.56, -2.26 130.56, 0 111.29 M0 111.29 C-1.61 84.97, 0.97 61.69, 0 32 M0 111.29 C0.05 82.18, 0.64 51.8, 0 32 M0 32 C-1.91 12.11, 12.22 1.9, 32 0 M0 32 C-0.45 9.66, 10.17 0.71, 32 0" stroke="#504945" stroke-width="1" fill="none"></path></g><g transform="translate(751.6462548346008 65.49674267100977) rotate(0 47.79999923706055 17.5)"><text x="47.79999923706055" y="0" font-family="Virgil, Segoe UI Emoji" font-size="28px" fill="#504945" text-anchor="middle" style="white-space: pre;" direction="ltr" dominant-baseline="text-before-edge">Memory</text></g><g stroke-linecap="round"><g transform="translate(195.1954397394137 60.402921296810064) rotate(0 80.63582726889669 0.9110118183804161)"><path d="M-0.67 1.05 C26.5 1.26, 134.77 1.9, 161.94 1.66 M1.18 0.56 C28.26 0.42, 134.11 0.14, 160.85 0.11" stroke="#504945" stroke-width="1" fill="none"></path></g><g transform="translate(195.1954397394137 60.402921296810064) rotate(0 80.63582726889669 0.9110118183804161)"><path d="M134.44 9.97 C140.45 8.59, 142.96 8.05, 161.1 1.25 M131.98 9.97 C138.2 7.47, 145.1 5.31, 160.73 0.96" stroke="#504945" stroke-width="1" fill="none"></path></g><g transform="translate(195.1954397394137 60.402921296810064) rotate(0 80.63582726889669 0.9110118183804161)"><path d="M134.39 -10.55 C140.49 -7.59, 143.01 -3.77, 161.1 1.25 M131.93 -10.55 C138.05 -8.75, 144.96 -6.61, 160.73 0.96" stroke="#504945" stroke-width="1" fill="none"></path></g></g><mask></mask><g stroke-linecap="round"><g transform="translate(357.4104234527688 101.92182410423447) rotate(0 -80.59987264463126 -0.9651190028894234)"><path d="M0.63 0.03 C-26.11 -0.4, -134.29 -1.73, -161.34 -1.96 M-0.49 -1 C-27.24 -1.38, -134.89 -1.15, -161.83 -1.04" stroke="#504945" stroke-width="1" fill="none"></path></g><g transform="translate(357.4104234527688 101.92182410423447) rotate(0 -80.59987264463126 -0.9651190028894234)"><path d="M-133.62 -9.92 C-141.93 -7.99, -147.27 -7.13, -160.47 -2.76 M-133.3 -12.13 C-139.93 -9.6, -144.37 -7.04, -162.48 -1.71" stroke="#504945" stroke-width="1" fill="none"></path></g><g transform="translate(357.4104234527688 101.92182410423447) rotate(0 -80.59987264463126 -0.9651190028894234)"><path d="M-133.57 10.6 C-141.99 7.91, -147.35 4.14, -160.47 -2.76 M-133.24 8.4 C-139.93 6.72, -144.38 5.07, -162.48 -1.71" stroke="#504945" stroke-width="1" fill="none"></path></g></g><mask></mask><g stroke-linecap="round"><g transform="translate(542.605862634948 63.079700492895995) rotate(0 82.15401428747765 0.2645360815648985)"><path d="M-0.94 -0.67 C26.5 -0.8, 137.7 -1.2, 165.25 -1.02 M0.76 1.6 C28.02 1.59, 137.39 0.53, 164.48 -0.02" stroke="#504945" stroke-width="1" fill="none"></path></g><g transform="translate(542.605862634948 63.079700492895995) rotate(0 82.15401428747765 0.2645360815648985)"><path d="M135.32 11.19 C144.56 6.2, 156.74 4.51, 164.85 -0.39 M136.43 10.26 C144.21 8.33, 152.98 5.03, 164.11 0.15" stroke="#504945" stroke-width="1" fill="none"></path></g><g transform="translate(542.605862634948 63.079700492895995) rotate(0 82.15401428747765 0.2645360815648985)"><path d="M135.03 -9.33 C144.34 -7.13, 156.62 -1.65, 164.85 -0.39 M136.14 -10.26 C144.21 -6.07, 153.06 -3.25, 164.11 0.15" stroke="#504945" stroke-width="1" fill="none"></path></g></g><mask></mask><g stroke-linecap="round"><g transform="translate(707.111768280133 101.96076371473896) rotate(0 -82.19970046806918 0.17629471577708955)"><path d="M-0.65 -0.06 C-28.34 -0.08, -138.22 0.15, -165.61 -0.04 M1.21 -1.13 C-26.13 -0.96, -135.43 1.37, -163.26 1.48" stroke="#504945" stroke-width="1" fill="none"></path></g><g transform="translate(707.111768280133 101.96076371473896) rotate(0 -82.19970046806918 0.17629471577708955)"><path d="M-135.3 -10.31 C-144.83 -5.74, -156.25 -0.4, -164.24 -0.47 M-134.73 -8.33 C-142.72 -7.15, -148.67 -4.6, -163.63 2.13" stroke="#504945" stroke-width="1" fill="none"></path></g><g transform="translate(707.111768280133 101.96076371473896) rotate(0 -82.19970046806918 0.17629471577708955)"><path d="M-135.02 10.21 C-144.67 7.77, -156.18 6.11, -164.24 -0.47 M-134.45 12.19 C-142.33 8.45, -148.34 6.09, -163.63 2.13" stroke="#504945" stroke-width="1" fill="none"></path></g></g><mask></mask><g stroke-linecap="round"><g transform="translate(415.53745928338753 156.11804482084688) rotate(0 0.36243724572284464 63.38955228971224)"><path d="M-0.86 -0.71 C-0.98 20.48, -0.72 106.11, -0.72 127.49 M0.89 1.53 C1.15 22.32, 1.5 104.92, 1.62 125.59" stroke="#504945" stroke-width="1" fill="none"></path></g><g transform="translate(415.53745928338753 156.11804482084688) rotate(0 0.36243724572284464 63.38955228971224)"><path d="M-9.97 96.25 C-4.86 104.6, -1.55 113.22, 0.59 125.04 M-8.06 97.86 C-6.61 103.39, -3.72 108.59, 1.33 126.5" stroke="#504945" stroke-width="1" fill="none"></path></g><g transform="translate(415.53745928338753 156.11804482084688) rotate(0 0.36243724572284464 63.38955228971224)"><path d="M10.55 96.15 C9.47 104.38, 6.59 113.03, 0.59 125.04 M12.46 97.76 C9.55 103.12, 8.07 108.34, 1.33 126.5" stroke="#504945" stroke-width="1" fill="none"></path></g></g><mask></mask><g stroke-linecap="round"><g transform="translate(485.83061889250814 283.0618892508144) rotate(0 0.2600608626377152 -63.61795367322969)"><path d="M-0.38 -1.02 C-0.55 -22.31, -1.18 -106.97, -1.14 -128.29 M1.62 1.06 C1.81 -19.97, 1.4 -105.19, 0.97 -126.69" stroke="#504945" stroke-width="1" fill="none"></path></g><g transform="translate(485.83061889250814 283.0618892508144) rotate(0 0.2600608626377152 -63.61795367322969)"><path d="M9.84 -100.52 C8.81 -107.07, 4.6 -114.01, -0.33 -124.83 M10.6 -98.34 C8.26 -105.7, 5.88 -111.91, 1.62 -127.36" stroke="#504945" stroke-width="1" fill="none"></path></g><g transform="translate(485.83061889250814 283.0618892508144) rotate(0 0.2600608626377152 -63.61795367322969)"><path d="M-10.68 -100.29 C-5.75 -106.84, -4 -113.85, -0.33 -124.83 M-9.92 -98.11 C-7.26 -105.51, -4.64 -111.77, 1.62 -127.36" stroke="#504945" stroke-width="1" fill="none"></path></g></g><mask></mask></svg>