<svg version="1.1" xmlns="http://www.w3.org/2000/svg" viewBox="0 0 1048.385227809265 260.39326732867903" width="1048.385227809265" height="260.39326732867903">
  <!-- svg-source:excalidraw -->
  
  <defs>
    <style class="style-fonts">
      @font-face {
        font-family: "Virgil";
        src: url("https://excalidraw.com/Virgil.woff2");
      }
      @font-face {
        font-family: "Cascadia";
        src: url("https://excalidraw.com/Cascadia.woff2");
      }
    </style>
    
  </defs>
  <g stroke-linecap="round" transform="translate(20.647854178105376 104.00696684734558) rotate(0 489.1363636363636 27.49999999999997)"><path d="M0 0 C202.15 0, 404.3 0, 978.27 0 M0 0 C265.71 0, 531.42 0, 978.27 0 M978.27 0 C978.27 15.65, 978.27 31.3, 978.27 55 M978.27 0 C978.27 17.2, 978.27 34.4, 978.27 55 M978.27 55 C700.89 55, 423.5 55, 0 55 M978.27 55 C714.59 55, 450.91 55, 0 55 M0 55 C0 43.27, 0 31.54, 0 0 M0 55 C0 37.43, 0 19.86, 0 0" stroke="#504945" stroke-width="4" fill="none"></path></g><g stroke-linecap="round" transform="translate(194.1750003636364 104.72744837129235) rotate(0 171.63636363636368 27.499999999999915)"><path d="M0 0 C104.94 0, 209.87 0, 343.27 0 M0 0 C73.1 0, 146.21 0, 343.27 0 M343.27 0 C343.27 14.19, 343.27 28.37, 343.27 55 M343.27 0 C343.27 15.76, 343.27 31.52, 343.27 55 M343.27 55 C230.65 55, 118.04 55, 0 55 M343.27 55 C266.18 55, 189.09 55, 0 55 M0 55 C0 39.07, 0 23.15, 0 0 M0 55 C0 35.41, 0 15.83, 0 0" stroke="#d65d0e" stroke-width="4" fill="none"></path></g><g transform="translate(184.94999999999993 170.72744837129235) rotate(0 9.225000381469727 17.5)"><text x="0" y="0" font-family="Virgil, Segoe UI Emoji" font-size="28px" fill="#d65d0e" text-anchor="start" style="white-space: pre;" direction="ltr" dominant-baseline="text-before-edge">A</text></g><g transform="translate(479.510228 170.72744837129235) rotate(0 57.9375 17.5)"><text x="0" y="0" font-family="Virgil, Segoe UI Emoji" font-size="28px" fill="#d65d0e" text-anchor="start" style="white-space: pre;" direction="ltr" dominant-baseline="text-before-edge">A+64KiB</text></g><g transform="translate(10 170.72744837129235) rotate(0 9.675000190734863 17.5)"><text x="0" y="0" font-family="Virgil, Segoe UI Emoji" font-size="28px" fill="#504945" text-anchor="start" style="white-space: pre;" direction="ltr" dominant-baseline="text-before-edge">0</text></g><g transform="translate(957.5102278092651 170.72744837129235) rotate(0 40.4375 17.5)"><text x="0" y="0" font-family="Virgil, Segoe UI Emoji" font-size="28px" fill="#504945" text-anchor="start" style="white-space: pre;" direction="ltr" dominant-baseline="text-before-edge">4 GiB</text></g><g transform="translate(228.23268146821442 116.7288058623785) rotate(0 -6.081415395933448 16.98602231277971)" stroke="none"><path fill="#d65d0e" d="M 2.42,0.60 Q 2.42,0.60 2.05,2.05 1.68,3.49 0.88,5.57 0.08,7.65 -0.26,8.91 -0.61,10.17 -0.84,11.25 -1.06,12.33 -1.45,13.84 -1.84,15.34 -2.22,16.83 -2.61,18.33 -3.62,20.87 -4.64,23.42 -5.50,25.18 -6.36,26.94 -6.92,28.11 -7.48,29.28 -8.00,30.57 -8.53,31.86 -9.02,33.09 -9.51,34.32 -9.64,34.73 -9.76,35.15 -10.01,35.50 -10.26,35.85 -10.61,36.10 -10.96,36.36 -11.38,36.48 -11.79,36.61 -12.22,36.60 -12.65,36.59 -13.06,36.44 -13.46,36.30 -13.80,36.03 -14.14,35.76 -14.37,35.39 -14.61,35.03 -14.71,34.61 -14.82,34.19 -14.79,33.76 -14.75,33.33 -14.58,32.93 -14.41,32.54 -14.13,32.21 -13.84,31.89 -13.46,31.68 -13.09,31.46 -12.66,31.38 -12.24,31.30 -11.81,31.35 -11.38,31.41 -10.99,31.60 -10.61,31.79 -10.30,32.10 -9.99,32.40 -9.80,32.79 -9.61,33.17 -9.55,33.60 -9.49,34.03 -9.57,34.46 -9.65,34.88 -9.86,35.26 -10.07,35.63 -10.39,35.92 -10.71,36.21 -11.11,36.39 -11.50,36.56 -11.94,36.59 -12.37,36.63 -12.79,36.53 -13.21,36.42 -13.57,36.19 -13.94,35.96 -14.21,35.63 -14.48,35.29 -14.63,34.88 -14.78,34.48 -14.79,34.05 -14.81,33.61 -14.81,33.62 -14.81,33.62 -14.16,31.87 -13.51,30.13 -12.67,28.59 -11.84,27.05 -11.29,26.04 -10.73,25.04 -10.11,23.38 -9.48,21.73 -8.95,19.86 -8.41,17.99 -7.93,16.85 -7.45,15.71 -7.09,14.71 -6.72,13.71 -6.18,12.44 -5.63,11.17 -5.28,9.99 -4.93,8.81 -4.50,7.59 -4.07,6.37 -3.60,4.33 -3.12,2.29 -2.77,0.84 -2.42,-0.60 -2.31,-0.88 -2.21,-1.16 -2.03,-1.41 -1.86,-1.66 -1.63,-1.86 -1.41,-2.06 -1.14,-2.20 -0.87,-2.34 -0.58,-2.41 -0.29,-2.48 0.00,-2.48 0.30,-2.48 0.60,-2.40 0.89,-2.33 1.16,-2.19 1.42,-2.05 1.65,-1.85 1.87,-1.65 2.04,-1.40 2.21,-1.15 2.32,-0.87 2.42,-0.59 2.46,-0.29 2.50,0.00 2.46,0.30 2.42,0.60 2.42,0.60 L 2.42,0.60 Z"></path></g><g transform="translate(259.68827834373246 117.98702973739924) rotate(0 -6.710527333443849 15.518094458588877)" stroke="none"><path fill="#d65d0e" d="M 1.95,1.15 Q 1.95,1.15 0.64,3.13 -0.66,5.12 -1.70,7.08 -2.74,9.04 -3.06,10.12 -3.37,11.20 -3.73,12.32 -4.09,13.43 -4.97,15.42 -5.86,17.40 -6.26,18.47 -6.66,19.55 -7.17,20.81 -7.67,22.07 -7.99,23.42 -8.32,24.77 -8.78,25.84 -9.24,26.91 -9.43,28.09 -9.62,29.27 -9.74,30.56 -9.87,31.86 -10.01,32.17 -10.15,32.48 -10.36,32.75 -10.57,33.02 -10.83,33.24 -11.10,33.45 -11.41,33.59 -11.72,33.73 -12.06,33.79 -12.39,33.86 -12.73,33.84 -13.07,33.82 -13.40,33.72 -13.73,33.62 -14.02,33.44 -14.31,33.27 -14.56,33.03 -14.80,32.79 -14.98,32.50 -15.15,32.20 -15.26,31.88 -15.36,31.55 -15.38,31.21 -15.40,30.87 -15.34,30.54 -15.28,30.20 -13.25,29.37 -11.22,28.54 -10.86,28.83 -10.50,29.11 -10.25,29.49 -9.99,29.87 -9.88,30.31 -9.76,30.76 -9.79,31.21 -9.82,31.67 -9.99,32.09 -10.17,32.52 -10.47,32.86 -10.77,33.21 -11.16,33.44 -11.56,33.67 -12.01,33.77 -12.46,33.86 -12.91,33.81 -13.37,33.75 -13.78,33.55 -14.19,33.36 -14.52,33.04 -14.85,32.72 -15.06,32.31 -15.27,31.91 -15.34,31.45 -15.41,31.00 -15.33,30.55 -15.25,30.10 -15.03,29.69 -14.81,29.29 -14.48,28.98 -14.14,28.67 -13.72,28.48 -13.30,28.29 -12.85,28.25 -12.39,28.21 -11.95,28.31 -11.50,28.41 -11.11,28.65 -10.72,28.89 -10.43,29.25 -10.14,29.60 -9.97,30.03 -9.81,30.45 -9.79,30.91 -9.77,31.37 -9.89,31.81 -10.02,32.25 -10.28,32.63 -10.54,33.00 -10.91,33.27 -11.28,33.55 -11.72,33.69 -12.15,33.83 -12.61,33.82 -13.07,33.82 -11.47,32.84 -9.87,31.86 -10.01,32.17 -10.15,32.48 -10.36,32.75 -10.57,33.02 -10.83,33.24 -11.10,33.45 -11.41,33.59 -11.72,33.73 -12.06,33.79 -12.39,33.86 -12.73,33.84 -13.07,33.82 -13.40,33.72 -13.73,33.62 -14.02,33.44 -14.31,33.27 -14.56,33.03 -14.80,32.79 -14.98,32.50 -15.15,32.21 -15.26,31.88 -15.36,31.55 -15.38,31.21 -15.40,30.87 -15.34,30.54 -15.28,30.20 -15.13,28.91 -14.98,27.62 -14.55,26.40 -14.11,25.17 -13.47,24.09 -12.83,23.02 -12.24,21.68 -11.65,20.33 -10.54,18.17 -9.44,16.02 -8.76,13.95 -8.07,11.88 -7.59,10.84 -7.11,9.79 -6.58,8.63 -6.05,7.46 -5.10,5.26 -4.15,3.07 -3.05,0.96 -1.95,-1.15 -1.79,-1.36 -1.62,-1.58 -1.41,-1.75 -1.19,-1.93 -0.95,-2.04 -0.70,-2.16 -0.43,-2.21 -0.16,-2.26 0.10,-2.25 0.38,-2.24 0.64,-2.16 0.90,-2.08 1.14,-1.94 1.38,-1.80 1.57,-1.61 1.77,-1.42 1.91,-1.19 2.06,-0.95 2.14,-0.69 2.23,-0.43 2.25,-0.16 2.27,0.11 2.22,0.38 2.17,0.65 2.06,0.90 1.95,1.15 1.95,1.15 L 1.95,1.15 Z"></path></g><g transform="translate(286.9497956358481 117.98702973739924) rotate(0 -6.500823354273734 17.40543027111994)" stroke="none"><path fill="#d65d0e" d="M 2.31,0.77 Q 2.31,0.77 1.63,2.55 0.94,4.33 0.43,5.91 -0.07,7.49 -0.70,9.68 -1.33,11.88 -1.73,13.32 -2.13,14.77 -2.89,17.10 -3.65,19.43 -4.29,21.02 -4.94,22.61 -5.66,23.91 -6.38,25.21 -7.00,26.38 -7.62,27.55 -8.11,28.54 -8.60,29.53 -9.01,30.54 -9.42,31.54 -9.56,32.99 -9.69,34.44 -9.79,34.78 -9.89,35.12 -10.06,35.42 -10.24,35.73 -10.49,35.98 -10.73,36.23 -11.03,36.42 -11.33,36.61 -11.66,36.72 -11.99,36.83 -12.35,36.86 -12.70,36.89 -13.05,36.83 -13.39,36.78 -13.72,36.64 -14.04,36.50 -14.32,36.29 -14.61,36.07 -14.83,35.80 -15.05,35.53 -15.20,35.21 -15.35,34.89 -15.42,34.54 -15.49,34.20 -15.48,33.85 -15.46,33.50 -13.70,32.30 -11.94,31.11 -11.50,31.29 -11.06,31.47 -10.70,31.77 -10.34,32.08 -10.10,32.49 -9.86,32.89 -9.76,33.35 -9.66,33.82 -9.71,34.29 -9.76,34.76 -9.96,35.19 -10.16,35.61 -10.49,35.96 -10.81,36.30 -11.23,36.52 -11.65,36.74 -12.12,36.82 -12.59,36.89 -13.05,36.81 -13.52,36.74 -13.94,36.51 -14.35,36.29 -14.68,35.95 -15.00,35.60 -15.20,35.17 -15.40,34.74 -15.45,34.27 -15.50,33.80 -15.39,33.34 -15.29,32.88 -15.05,32.47 -14.80,32.07 -14.44,31.76 -14.08,31.46 -13.64,31.28 -13.20,31.11 -12.73,31.09 -12.25,31.06 -11.80,31.19 -11.34,31.32 -10.95,31.58 -10.56,31.85 -10.27,32.23 -9.99,32.60 -9.84,33.05 -9.69,33.50 -9.69,33.98 -9.69,34.45 -9.85,34.90 -10.00,35.34 -10.28,35.72 -10.57,36.10 -10.96,36.36 -11.36,36.62 -11.81,36.75 -12.27,36.88 -10.98,35.66 -9.69,34.44 -9.79,34.78 -9.89,35.12 -10.06,35.42 -10.24,35.73 -10.49,35.98 -10.73,36.23 -11.03,36.42 -11.33,36.61 -11.66,36.72 -11.99,36.83 -12.35,36.86 -12.70,36.89 -13.05,36.83 -13.39,36.78 -13.72,36.64 -14.04,36.50 -14.32,36.29 -14.60,36.07 -14.83,35.80 -15.05,35.53 -15.20,35.21 -15.35,34.89 -15.42,34.55 -15.49,34.20 -15.48,33.85 -15.46,33.50 -15.11,31.61 -14.75,29.73 -14.06,28.40 -13.37,27.08 -12.83,26.08 -12.30,25.08 -11.65,23.84 -11.00,22.59 -10.43,21.63 -9.87,20.66 -9.09,19.19 -8.32,17.71 -7.53,15.62 -6.73,13.53 -6.33,11.99 -5.92,10.46 -5.12,8.32 -4.32,6.18 -3.84,4.54 -3.35,2.90 -2.83,1.06 -2.31,-0.77 -2.19,-1.03 -2.06,-1.30 -1.87,-1.53 -1.69,-1.76 -1.45,-1.93 -1.22,-2.11 -0.95,-2.22 -0.68,-2.34 -0.38,-2.39 -0.09,-2.43 0.19,-2.41 0.48,-2.39 0.76,-2.29 1.04,-2.20 1.29,-2.04 1.54,-1.89 1.74,-1.67 1.95,-1.46 2.09,-1.21 2.24,-0.95 2.32,-0.67 2.40,-0.39 2.42,-0.09 2.43,0.19 2.37,0.48 2.31,0.77 2.31,0.77 L 2.31,0.77 Z"></path></g><g transform="translate(317.56657659468544 115.88998994569803) rotate(0 -6.9202313126139074 17.824838229460198)" stroke="none"><path fill="#d65d0e" d="M 2.28,0.65 Q 2.28,0.65 1.18,3.99 0.09,7.33 -1.16,10.48 -2.41,13.64 -2.85,15.17 -3.29,16.70 -3.70,17.94 -4.10,19.18 -4.63,20.47 -5.16,21.76 -5.86,23.58 -6.55,25.41 -6.89,26.45 -7.22,27.49 -7.61,28.54 -8.01,29.59 -8.39,30.66 -8.77,31.74 -9.64,33.94 -10.51,36.15 -10.66,36.48 -10.81,36.82 -11.04,37.10 -11.27,37.39 -11.56,37.62 -11.85,37.84 -12.18,37.99 -12.52,38.14 -12.88,38.21 -13.24,38.27 -13.61,38.25 -13.98,38.22 -14.33,38.11 -14.68,38.00 -14.99,37.81 -15.31,37.62 -15.57,37.36 -15.83,37.10 -16.02,36.78 -16.20,36.47 -16.31,36.11 -16.42,35.76 -16.44,35.40 -16.46,35.03 -16.39,34.67 -16.33,34.30 -15.02,33.25 -13.72,32.19 -13.23,32.22 -12.74,32.25 -12.28,32.44 -11.82,32.62 -11.45,32.95 -11.07,33.27 -10.82,33.69 -10.57,34.12 -10.47,34.60 -10.37,35.08 -10.42,35.57 -10.48,36.06 -10.69,36.51 -10.90,36.96 -11.25,37.31 -11.59,37.67 -12.03,37.90 -12.46,38.13 -12.95,38.20 -13.44,38.28 -13.93,38.19 -14.41,38.11 -14.85,37.87 -15.28,37.64 -15.62,37.28 -15.96,36.92 -16.16,36.47 -16.36,36.02 -16.41,35.53 -16.46,35.04 -16.35,34.55 -16.24,34.07 -15.98,33.65 -15.73,33.23 -15.35,32.91 -14.97,32.60 -14.51,32.42 -14.05,32.24 -13.56,32.22 -13.06,32.19 -12.59,32.33 -12.11,32.47 -11.71,32.75 -11.30,33.03 -11.00,33.42 -10.71,33.82 -10.55,34.29 -10.40,34.76 -10.40,35.25 -10.41,35.74 -10.57,36.21 -10.73,36.68 -11.03,37.07 -11.34,37.46 -11.75,37.73 -12.16,38.01 -11.33,37.08 -10.51,36.15 -10.66,36.48 -10.81,36.81 -11.04,37.10 -11.27,37.39 -11.56,37.62 -11.85,37.84 -12.18,37.99 -12.52,38.14 -12.88,38.21 -13.24,38.27 -13.61,38.25 -13.98,38.22 -14.33,38.11 -14.68,38.00 -14.99,37.81 -15.31,37.62 -15.57,37.36 -15.83,37.10 -16.02,36.78 -16.20,36.47 -16.31,36.11 -16.42,35.76 -16.44,35.40 -16.46,35.03 -16.39,34.67 -16.33,34.31 -15.76,33.02 -15.19,31.74 -14.65,30.46 -14.11,29.17 -13.32,27.69 -12.53,26.21 -11.99,25.11 -11.44,24.01 -10.73,23.04 -10.03,22.07 -9.58,21.01 -9.14,19.95 -8.56,18.81 -7.99,17.67 -7.50,16.62 -7.02,15.56 -6.49,13.95 -5.97,12.35 -4.96,9.26 -3.94,6.17 -3.11,2.76 -2.28,-0.65 -2.17,-0.91 -2.06,-1.18 -1.89,-1.41 -1.72,-1.64 -1.50,-1.82 -1.27,-2.00 -1.02,-2.13 -0.76,-2.25 -0.48,-2.31 -0.20,-2.37 0.08,-2.36 0.37,-2.35 0.64,-2.27 0.92,-2.19 1.17,-2.05 1.42,-1.90 1.63,-1.70 1.83,-1.51 1.99,-1.26 2.14,-1.02 2.23,-0.75 2.32,-0.48 2.35,-0.19 2.37,0.08 2.33,0.37 2.28,0.65 2.28,0.65 L 2.28,0.65 Z"></path></g><g transform="translate(347.7639495951828 117.98702973739924) rotate(0 -5.662007437593218 16.14720639609922)" stroke="none"><path fill="#d65d0e" d="M 2.28,0.68 Q 2.28,0.68 1.95,1.90 1.61,3.11 1.04,5.28 0.47,7.46 0.05,9.06 -0.36,10.65 -0.71,11.91 -1.06,13.16 -1.86,15.23 -2.67,17.30 -3.04,18.48 -3.40,19.67 -3.95,21.05 -4.49,22.43 -4.93,23.60 -5.38,24.78 -5.76,25.95 -6.15,27.12 -6.61,28.21 -7.08,29.30 -7.82,31.21 -8.56,33.13 -8.77,33.55 -8.97,33.97 -9.30,34.30 -9.63,34.63 -10.05,34.84 -10.47,35.05 -10.93,35.11 -11.39,35.17 -11.85,35.09 -12.31,35.00 -12.71,34.77 -13.12,34.54 -13.43,34.20 -13.75,33.85 -13.93,33.42 -14.12,32.99 -14.16,32.53 -14.20,32.06 -14.08,31.61 -13.97,31.16 -13.72,30.76 -13.47,30.37 -13.11,30.07 -12.74,29.78 -12.31,29.62 -11.87,29.46 -11.40,29.44 -10.94,29.43 -10.49,29.57 -10.04,29.70 -9.66,29.97 -9.28,30.24 -9.01,30.62 -8.74,31.00 -8.60,31.45 -8.46,31.89 -8.47,32.36 -8.48,32.83 -8.64,33.27 -8.80,33.70 -9.10,34.07 -9.39,34.43 -9.78,34.69 -10.17,34.94 -10.63,35.05 -11.08,35.16 -11.54,35.13 -12.01,35.09 -12.44,34.91 -12.87,34.72 -13.22,34.41 -13.56,34.10 -13.79,33.70 -14.03,33.29 -14.11,32.83 -14.20,32.37 -14.14,31.91 -14.08,31.45 -14.08,31.45 -14.08,31.45 -13.15,29.15 -12.22,26.84 -11.68,25.84 -11.13,24.83 -10.58,23.88 -10.02,22.93 -9.53,21.78 -9.04,20.62 -8.53,19.35 -8.02,18.08 -7.62,17.01 -7.21,15.94 -6.76,13.82 -6.31,11.71 -5.98,10.50 -5.64,9.29 -5.04,7.60 -4.44,5.92 -3.75,3.81 -3.06,1.70 -2.67,0.51 -2.28,-0.68 -2.17,-0.94 -2.05,-1.21 -1.88,-1.44 -1.70,-1.67 -1.48,-1.85 -1.25,-2.03 -0.99,-2.15 -0.73,-2.27 -0.45,-2.32 -0.16,-2.38 0.11,-2.36 0.40,-2.35 0.68,-2.27 0.95,-2.18 1.20,-2.04 1.45,-1.89 1.65,-1.69 1.86,-1.49 2.01,-1.24 2.16,-1.00 2.25,-0.72 2.34,-0.45 2.36,-0.16 2.38,0.11 2.33,0.40 2.28,0.68 2.28,0.68 L 2.28,0.68 Z"></path></g><g transform="translate(377.96132259568003 116.7288058623785) rotate(0 -5.032895500082873 15.937502416929135)" stroke="none"><path fill="#d65d0e" d="M 2.29,0 Q 2.29,0 2.31,1.44 2.32,2.89 2.13,5.29 1.94,7.70 1.23,10.28 0.51,12.85 -0.45,14.96 -1.43,17.06 -2.16,18.69 -2.90,20.31 -3.24,21.34 -3.59,22.37 -4.13,23.53 -4.67,24.69 -4.96,26.09 -5.25,27.50 -5.84,28.85 -6.43,30.20 -6.94,31.60 -7.45,33.00 -7.70,33.39 -7.94,33.77 -8.30,34.06 -8.66,34.35 -9.10,34.51 -9.53,34.67 -9.99,34.68 -10.45,34.69 -10.89,34.55 -11.33,34.42 -11.70,34.15 -12.08,33.88 -12.35,33.51 -12.61,33.13 -12.75,32.69 -12.88,32.25 -12.87,31.79 -12.86,31.33 -12.70,30.90 -12.54,30.46 -12.25,30.11 -11.96,29.75 -11.57,29.50 -11.18,29.25 -10.73,29.14 -10.29,29.03 -9.83,29.07 -9.37,29.11 -8.95,29.29 -8.52,29.47 -8.18,29.78 -7.84,30.09 -7.61,30.49 -7.39,30.89 -7.30,31.35 -7.21,31.80 -7.28,32.25 -7.34,32.71 -7.55,33.12 -7.75,33.54 -8.08,33.86 -8.40,34.19 -8.82,34.39 -9.23,34.59 -9.69,34.65 -10.14,34.72 -10.60,34.63 -11.05,34.54 -11.45,34.31 -11.85,34.09 -12.16,33.74 -12.46,33.40 -12.64,32.98 -12.83,32.55 -12.86,32.09 -12.90,31.63 -12.79,31.19 -12.67,30.74 -12.67,30.74 -12.67,30.74 -11.87,28.92 -11.06,27.11 -10.48,26.15 -9.89,25.20 -9.36,23.87 -8.83,22.54 -8.29,21.62 -7.75,20.69 -7.26,19.65 -6.77,18.60 -6.10,17.05 -5.43,15.49 -4.81,13.53 -4.19,11.56 -3.55,9.19 -2.91,6.82 -2.61,4.85 -2.32,2.89 -2.31,1.44 -2.29,0 -2.26,-0.27 -2.22,-0.54 -2.13,-0.80 -2.03,-1.06 -1.87,-1.29 -1.71,-1.52 -1.51,-1.70 -1.30,-1.88 -1.05,-2.01 -0.81,-2.14 -0.54,-2.21 -0.27,-2.27 0.00,-2.27 0.27,-2.27 0.54,-2.21 0.81,-2.14 1.05,-2.01 1.30,-1.88 1.51,-1.70 1.71,-1.52 1.87,-1.29 2.03,-1.06 2.13,-0.80 2.22,-0.54 2.26,-0.27 2.29,0.00 2.29,0.00 L 2.29,0 Z"></path></g><g transform="translate(408.15869559617727 117.56762177905901) rotate(0 -6.081415395933448 16.356910375269337)" stroke="none"><path fill="#d65d0e" d="M 2.06,0.77 Q 2.06,0.77 1.76,1.76 1.45,2.74 1.10,3.86 0.76,4.98 0.18,6.77 -0.38,8.56 -1.44,10.50 -2.50,12.43 -3.28,14.13 -4.06,15.82 -4.81,17.78 -5.56,19.75 -6.06,21.18 -6.56,22.61 -6.84,23.97 -7.13,25.32 -7.58,27.00 -8.03,28.67 -9.23,31.68 -10.43,34.69 -10.79,34.91 -11.15,35.14 -11.56,35.23 -11.98,35.33 -12.40,35.29 -12.82,35.25 -13.21,35.08 -13.60,34.91 -13.91,34.62 -14.23,34.33 -14.43,33.96 -14.64,33.58 -14.71,33.17 -14.79,32.75 -14.72,32.33 -14.66,31.91 -14.47,31.53 -14.27,31.15 -13.97,30.85 -13.66,30.55 -13.28,30.37 -12.90,30.19 -12.48,30.13 -12.05,30.08 -11.64,30.17 -11.22,30.25 -10.85,30.47 -10.49,30.68 -10.21,31.00 -9.93,31.32 -9.76,31.71 -9.60,32.11 -9.57,32.53 -9.54,32.95 -9.65,33.37 -9.76,33.78 -9.99,34.13 -10.22,34.49 -10.56,34.75 -10.89,35.01 -11.29,35.15 -11.69,35.30 -12.12,35.30 -12.55,35.31 -12.95,35.18 -13.36,35.05 -13.70,34.80 -14.04,34.54 -14.28,34.20 -14.53,33.85 -14.65,33.44 -14.77,33.03 -14.75,32.61 -14.73,32.18 -14.58,31.78 -14.43,31.39 -14.16,31.06 -13.89,30.73 -13.89,30.73 -13.89,30.73 -13.34,28.91 -12.79,27.09 -12.15,25.49 -11.51,23.89 -10.92,22.52 -10.33,21.16 -9.77,19.86 -9.21,18.56 -8.61,16.37 -8.02,14.18 -7.33,12.34 -6.64,10.50 -5.94,8.67 -5.25,6.84 -4.51,5.12 -3.78,3.40 -3.34,2.25 -2.90,1.11 -2.48,0.16 -2.06,-0.77 -1.94,-1.01 -1.82,-1.24 -1.64,-1.44 -1.46,-1.64 -1.25,-1.79 -1.03,-1.95 -0.78,-2.04 -0.53,-2.14 -0.27,-2.17 -0.00,-2.20 0.25,-2.17 0.52,-2.14 0.76,-2.05 1.01,-1.95 1.23,-1.80 1.45,-1.65 1.63,-1.45 1.81,-1.26 1.93,-1.02 2.06,-0.79 2.12,-0.53 2.19,-0.27 2.19,-0.00 2.19,0.25 2.12,0.51 2.06,0.77 2.06,0.77 L 2.06,0.77 Z"></path></g><g transform="translate(433.32317309659163 115.88998994569803) rotate(0 -5.662007437593218 16.776318333609595)" stroke="none"><path fill="#d65d0e" d="M 2.40,0 Q 2.40,0 2.45,0.96 2.50,1.92 2.57,3.92 2.64,5.93 2.22,8.13 1.81,10.34 1.39,11.89 0.98,13.44 0.38,15.13 -0.21,16.82 -0.68,18.15 -1.15,19.48 -1.73,20.92 -2.32,22.35 -3.28,24.08 -4.24,25.81 -4.85,26.89 -5.46,27.96 -5.84,29.01 -6.21,30.07 -6.90,31.05 -7.58,32.02 -8.10,33.22 -8.63,34.42 -8.84,34.83 -9.05,35.24 -9.38,35.56 -9.71,35.88 -10.12,36.07 -10.53,36.27 -10.99,36.32 -11.44,36.38 -11.89,36.28 -12.34,36.19 -12.74,35.96 -13.13,35.72 -13.43,35.38 -13.73,35.03 -13.90,34.61 -14.08,34.18 -14.11,33.73 -14.14,33.27 -14.02,32.83 -13.90,32.38 -13.65,32.00 -13.39,31.62 -13.03,31.34 -12.67,31.06 -12.24,30.91 -11.80,30.76 -11.35,30.75 -10.89,30.75 -10.45,30.89 -10.02,31.03 -9.65,31.31 -9.28,31.58 -9.02,31.96 -8.76,32.33 -8.63,32.77 -8.51,33.21 -8.53,33.67 -8.55,34.13 -8.71,34.56 -8.88,34.98 -9.17,35.34 -9.47,35.69 -9.86,35.93 -10.25,36.17 -10.69,36.27 -11.14,36.37 -11.59,36.33 -12.05,36.28 -12.47,36.09 -12.89,35.91 -13.22,35.59 -13.56,35.28 -13.77,34.88 -13.99,34.48 -14.07,34.03 -14.15,33.58 -14.08,33.12 -14.01,32.67 -14.01,32.67 -14.01,32.67 -13.04,30.84 -12.07,29.01 -11.21,28.03 -10.35,27.05 -9.36,25.40 -8.37,23.74 -7.65,22.12 -6.93,20.50 -6.40,19.15 -5.87,17.80 -5.42,16.55 -4.96,15.30 -4.53,13.76 -4.09,12.22 -3.78,10.70 -3.46,9.19 -3.05,7.54 -2.64,5.90 -2.57,3.91 -2.50,1.92 -2.45,0.96 -2.40,0 -2.37,-0.28 -2.33,-0.57 -2.23,-0.84 -2.13,-1.11 -1.96,-1.35 -1.80,-1.59 -1.58,-1.78 -1.36,-1.98 -1.10,-2.11 -0.85,-2.24 -0.57,-2.31 -0.28,-2.38 0.00,-2.38 0.29,-2.38 0.57,-2.31 0.85,-2.24 1.11,-2.11 1.36,-1.97 1.58,-1.78 1.80,-1.59 1.96,-1.35 2.13,-1.11 2.23,-0.84 2.33,-0.57 2.37,-0.28 2.40,0.00 2.40,0.00 L 2.40,0 Z"></path></g><g transform="translate(460.58469038870726 114.21235811233706) rotate(0 -4.403783562572528 17.405430271119968)" stroke="none"><path fill="#d65d0e" d="M 2.42,0 Q 2.42,0 2.41,1.56 2.39,3.13 2.43,4.28 2.47,5.43 2.38,7.60 2.29,9.78 2.30,11.44 2.31,13.09 1.69,15.09 1.07,17.09 0.58,18.63 0.10,20.18 -0.66,22.58 -1.43,24.98 -1.94,26.65 -2.45,28.32 -2.90,29.65 -3.35,30.97 -3.97,32.25 -4.60,33.54 -5.47,35.04 -6.33,36.55 -6.67,36.89 -7.02,37.24 -7.45,37.47 -7.89,37.69 -8.37,37.76 -8.86,37.83 -9.34,37.74 -9.82,37.65 -10.25,37.42 -10.67,37.18 -11.00,36.82 -11.33,36.46 -11.53,36.01 -11.73,35.56 -11.77,35.08 -11.82,34.59 -11.70,34.11 -11.59,33.64 -11.33,33.22 -11.07,32.81 -10.69,32.50 -10.31,32.19 -9.86,32.02 -9.40,31.84 -8.91,31.83 -8.42,31.81 -7.95,31.95 -7.49,32.09 -7.09,32.37 -6.69,32.65 -6.40,33.04 -6.11,33.44 -5.96,33.90 -5.81,34.37 -5.82,34.86 -5.83,35.35 -5.99,35.81 -6.16,36.27 -6.46,36.65 -6.76,37.04 -7.17,37.30 -7.58,37.57 -8.06,37.69 -8.53,37.82 -9.02,37.78 -9.50,37.75 -9.96,37.56 -10.41,37.37 -10.77,37.04 -11.14,36.72 -11.39,36.30 -11.63,35.87 -11.73,35.40 -11.82,34.92 -11.76,34.43 -11.70,33.95 -11.49,33.51 -11.27,33.07 -11.27,33.07 -11.27,33.07 -10.01,31.20 -8.74,29.33 -8.09,27.79 -7.43,26.26 -6.78,24.64 -6.12,23.03 -5.38,20.92 -4.64,18.81 -4.22,17.24 -3.81,15.66 -3.45,14.28 -3.08,12.91 -2.93,11.14 -2.77,9.36 -2.62,7.40 -2.47,5.43 -2.43,4.28 -2.39,3.13 -2.41,1.56 -2.42,0 -2.39,-0.29 -2.35,-0.58 -2.25,-0.85 -2.15,-1.12 -1.98,-1.36 -1.81,-1.61 -1.59,-1.80 -1.37,-1.99 -1.12,-2.13 -0.86,-2.27 -0.57,-2.34 -0.29,-2.41 0.00,-2.41 0.29,-2.41 0.57,-2.34 0.86,-2.27 1.12,-2.13 1.38,-1.99 1.59,-1.80 1.81,-1.61 1.98,-1.36 2.15,-1.12 2.25,-0.85 2.35,-0.58 2.39,-0.29 2.42,0.00 2.42,0.00 L 2.42,0 Z"></path></g><g transform="translate(489.5238395141838 116.30939790403826) rotate(0 -3.774671625062183 17.824838229460198)" stroke="none"><path fill="#d65d0e" d="M 2.30,0 Q 2.30,0 2.33,1.33 2.36,2.66 2.12,4.16 1.88,5.67 1.64,7.24 1.40,8.81 1.13,10.56 0.87,12.32 0.63,14.03 0.39,15.75 0.16,17.45 -0.06,19.14 -0.28,20.83 -0.50,22.51 -0.66,23.58 -0.82,24.65 -0.82,25.73 -0.82,26.81 -1.39,29.03 -1.97,31.26 -2.45,32.60 -2.92,33.94 -4.15,35.75 -5.38,37.55 -5.74,37.84 -6.10,38.14 -6.54,38.30 -6.98,38.47 -7.44,38.49 -7.91,38.50 -8.35,38.37 -8.80,38.24 -9.18,37.97 -9.56,37.70 -9.84,37.32 -10.11,36.95 -10.25,36.50 -10.40,36.06 -10.39,35.59 -10.38,35.13 -10.22,34.69 -10.07,34.25 -9.78,33.88 -9.49,33.52 -9.10,33.26 -8.71,33.01 -8.26,32.89 -7.80,32.78 -7.34,32.81 -6.87,32.84 -6.44,33.02 -6.01,33.20 -5.67,33.51 -5.32,33.82 -5.08,34.22 -4.85,34.63 -4.76,35.08 -4.66,35.54 -4.72,36.00 -4.78,36.47 -4.99,36.88 -5.19,37.30 -5.52,37.64 -5.84,37.97 -6.26,38.18 -6.67,38.39 -7.13,38.46 -7.60,38.53 -8.05,38.44 -8.51,38.36 -8.92,38.13 -9.33,37.91 -9.64,37.56 -9.96,37.22 -10.15,36.79 -10.33,36.37 -10.38,35.90 -10.42,35.44 -10.31,34.98 -10.20,34.53 -9.95,34.14 -9.71,33.74 -9.71,33.74 -9.71,33.74 -8.74,32.21 -7.78,30.68 -7.04,29.32 -6.30,27.96 -5.95,26.69 -5.60,25.42 -5.17,23.70 -4.74,21.98 -4.54,20.30 -4.34,18.61 -4.15,16.91 -3.96,15.22 -3.77,13.50 -3.59,11.77 -3.42,9.97 -3.26,8.17 -3.05,6.47 -2.85,4.78 -2.60,3.71 -2.36,2.64 -2.33,1.32 -2.30,0 -2.26,-0.27 -2.23,-0.55 -2.13,-0.81 -2.03,-1.07 -1.88,-1.29 -1.72,-1.52 -1.51,-1.71 -1.30,-1.89 -1.06,-2.02 -0.81,-2.15 -0.54,-2.21 -0.27,-2.28 0.00,-2.28 0.27,-2.28 0.54,-2.21 0.81,-2.15 1.06,-2.02 1.30,-1.89 1.51,-1.71 1.72,-1.52 1.88,-1.29 2.03,-1.06 2.13,-0.81 2.23,-0.55 2.26,-0.27 2.30,0.00 2.30,0.00 L 2.30,0 Z"></path></g><g transform="translate(519.3018045563408 115.88998994569803) rotate(0 -5.032895500082873 18.453950166970543)" stroke="none"><path fill="#d65d0e" d="M 2.57,-0.18 Q 2.57,-0.18 2.63,1.50 2.70,3.20 2.63,4.78 2.56,6.37 2.46,8.05 2.36,9.73 2.23,11.54 2.09,13.34 1.73,15.17 1.37,17.00 1.04,18.05 0.71,19.10 0.12,20.78 -0.47,22.45 -1.03,24.16 -1.59,25.87 -2.32,27.68 -3.05,29.49 -3.80,31.20 -4.55,32.90 -6.06,35.23 -7.57,37.55 -7.75,38.00 -7.93,38.44 -8.25,38.81 -8.56,39.18 -8.97,39.42 -9.39,39.67 -9.86,39.77 -10.33,39.88 -10.81,39.82 -11.28,39.77 -11.72,39.57 -12.16,39.36 -12.51,39.03 -12.86,38.70 -13.08,38.27 -13.30,37.85 -13.38,37.37 -13.46,36.89 -13.38,36.42 -13.30,35.94 -13.07,35.52 -12.85,35.09 -12.50,34.76 -12.14,34.43 -11.71,34.23 -11.27,34.03 -10.79,33.98 -10.31,33.93 -9.84,34.04 -9.37,34.14 -8.96,34.39 -8.55,34.64 -8.24,35.01 -7.92,35.37 -7.75,35.82 -7.57,36.27 -7.55,36.75 -7.52,37.23 -7.65,37.70 -7.78,38.16 -8.05,38.56 -8.32,38.96 -8.71,39.25 -9.09,39.54 -9.55,39.69 -10.01,39.84 -10.49,39.84 -10.97,39.84 -11.43,39.68 -11.88,39.53 -12.27,39.24 -12.65,38.94 -12.92,38.54 -13.19,38.15 -13.31,37.68 -13.44,37.22 -13.41,36.74 -13.39,36.25 -13.39,36.25 -13.39,36.26 -11.56,33.23 -9.74,30.21 -9.05,28.74 -8.37,27.28 -7.61,25.63 -6.86,23.97 -6.22,22.48 -5.59,20.99 -5.19,19.16 -4.78,17.33 -4.27,15.84 -3.75,14.34 -3.39,12.79 -3.02,11.23 -2.92,9.91 -2.81,8.60 -2.58,7.37 -2.36,6.13 -2.29,4.84 -2.22,3.54 -2.39,1.86 -2.57,0.18 -2.55,-0.12 -2.53,-0.43 -2.45,-0.73 -2.36,-1.03 -2.20,-1.29 -2.04,-1.56 -1.82,-1.78 -1.61,-2.01 -1.34,-2.17 -1.08,-2.33 -0.78,-2.43 -0.49,-2.52 -0.18,-2.55 0.12,-2.57 0.43,-2.52 0.73,-2.46 1.02,-2.34 1.30,-2.21 1.55,-2.03 1.80,-1.84 1.99,-1.59 2.19,-1.35 2.32,-1.07 2.45,-0.79 2.51,-0.48 2.57,-0.18 2.57,-0.18 L 2.57,-0.18 Z"></path></g><g transform="translate(308.69092425878534 214.00696744365183) rotate(0 64.23750305175781 18.193149942513614)"><text x="64.23750305175781" y="0" font-family="Virgil, Segoe UI Emoji" font-size="29.109039908021778px" fill="#076678" text-anchor="middle" style="white-space: pre;" direction="ltr" dominant-baseline="text-before-edge">Contract</text></g><g transform="translate(340.5659281663884 10) rotate(0 32.36249923706055 18.19314994251361)"><text x="32.36249923706055" y="0" font-family="Virgil, Segoe UI Emoji" font-size="29.109039908021778px" fill="#427b58" text-anchor="middle" style="white-space: pre;" direction="ltr" dominant-baseline="text-before-edge">Host</text></g><g stroke-linecap="round"><g transform="translate(351.7715794377773 103.05687410603429) rotate(0 0 -27.535002677906206)"><path d="M0 0 C0 -9.18, 0 -45.89, 0 -55.07 M0 0 C0 -9.18, 0 -45.89, 0 -55.07" stroke="#427b58" stroke-width="4" fill="none"></path></g><g transform="translate(351.7715794377773 103.05687410603429) rotate(0 0 -27.535002677906206)"><path d="M9.42 -29.2 C7.4 -34.73, 5.39 -40.27, 0 -55.07 M9.42 -29.2 C6.43 -37.41, 3.44 -45.62, 0 -55.07" stroke="#427b58" stroke-width="4" fill="none"></path></g><g transform="translate(351.7715794377773 103.05687410603429) rotate(0 0 -27.535002677906206)"><path d="M-9.42 -29.2 C-7.4 -34.73, -5.39 -40.27, 0 -55.07 M-9.42 -29.2 C-6.43 -37.41, -3.44 -45.62, 0 -55.07" stroke="#427b58" stroke-width="4" fill="none"></path></g></g><mask></mask><g stroke-linecap="round"><g transform="translate(351.771579016857 214.00696710937282) rotate(0 0 -27.535002677906206)"><path d="M0 0 C0 -9.18, 0 -45.89, 0 -55.07 M0 0 C0 -9.18, 0 -45.89, 0 -55.07" stroke="#076678" stroke-width="4" fill="none"></path></g><g transform="translate(351.771579016857 214.00696710937282) rotate(0 0 -27.535002677906206)"><path d="M9.42 -29.2 C6.22 -37.97, 3.03 -46.75, 0 -55.07 M9.42 -29.2 C6.41 -37.46, 3.4 -45.73, 0 -55.07" stroke="#076678" stroke-width="4" fill="none"></path></g><g transform="translate(351.771579016857 214.00696710937282) rotate(0 0 -27.535002677906206)"><path d="M-9.42 -29.2 C-6.22 -37.97, -3.03 -46.75, 0 -55.07 M-9.42 -29.2 C-6.41 -37.46, -3.4 -45.73, 0 -55.07" stroke="#076678" stroke-width="4" fill="none"></path></g></g><mask></mask><g stroke-linecap="round"><g transform="translate(395.61797198497436 47.98686875022181) rotate(0 0 27.385473926289137)"><path d="M0 0 C0 9.13, 0 45.64, 0 54.77 M0 0 C0 9.13, 0 45.64, 0 54.77" stroke="#427b58" stroke-width="1" fill="none"></path></g><g transform="translate(395.61797198497436 47.98686875022181) rotate(0 0 27.385473926289137)"><path d="M-9.37 29.04 C-7.41 34.42, -5.45 39.81, 0 54.77 M-9.37 29.04 C-6.6 36.64, -3.83 44.24, 0 54.77" stroke="#427b58" stroke-width="1" fill="none"></path></g><g transform="translate(395.61797198497436 47.98686875022181) rotate(0 0 27.385473926289137)"><path d="M9.37 29.04 C7.41 34.42, 5.45 39.81, 0 54.77 M9.37 29.04 C6.6 36.64, 3.83 44.24, 0 54.77" stroke="#427b58" stroke-width="1" fill="none"></path></g></g><mask></mask><g stroke-linecap="round"><g transform="translate(395.6179725805872 158.93696172031466) rotate(0 0 27.385473926289137)"><path d="M0 0 C0 9.13, 0 45.64, 0 54.77 M0 0 C0 9.13, 0 45.64, 0 54.77" stroke="#076678" stroke-width="1" fill="none"></path></g><g transform="translate(395.6179725805872 158.93696172031466) rotate(0 0 27.385473926289137)"><path d="M-9.37 29.04 C-6.63 36.56, -3.89 44.09, 0 54.77 M-9.37 29.04 C-6.31 37.45, -3.25 45.85, 0 54.77" stroke="#076678" stroke-width="1" fill="none"></path></g><g transform="translate(395.6179725805872 158.93696172031466) rotate(0 0 27.385473926289137)"><path d="M9.37 29.04 C6.63 36.56, 3.89 44.09, 0 54.77 M9.37 29.04 C6.31 37.45, 3.25 45.85, 0 54.77" stroke="#076678" stroke-width="1" fill="none"></path></g></g><mask></mask></svg>