<svg version="1.1" xmlns="http://www.w3.org/2000/svg" viewBox="0 0 1048.3852278092652 177.97063703233266" width="1048.3852278092652" height="177.97063703233266">
  <!-- svg-source:excalidraw -->
  
  <defs>
    <style class="style-fonts">
      @font-face {
        font-family: "Virgil";
        src: url("https://excalidraw.com/Virgil.woff2");
      }
      @font-face {
        font-family: "Cascadia";
        src: url("https://excalidraw.com/Cascadia.woff2");
      }
    </style>
    
  </defs>
  <g stroke-linecap="round" transform="translate(20.647854178105376 66.2501555083859) rotate(0 489.1363636363637 27.49999999999997)"><path d="M0 0 C202.15 0, 404.3 0, 978.27 0 M0 0 C265.71 0, 531.42 0, 978.27 0 M978.27 0 C978.27 15.65, 978.27 31.3, 978.27 55 M978.27 0 C978.27 17.2, 978.27 34.4, 978.27 55 M978.27 55 C700.89 55, 423.5 55, 0 55 M978.27 55 C714.59 55, 450.91 55, 0 55 M0 55 C0 43.27, 0 31.54, 0 0 M0 55 C0 37.43, 0 19.86, 0 0" stroke="#504945" stroke-width="4" fill="none"></path></g><g transform="translate(184.94999999999993 132.97063703233266) rotate(0 9.225000381469727 17.5)"><text x="0" y="0" font-family="Virgil, Segoe UI Emoji" font-size="28px" fill="#d65d0e" text-anchor="start" style="white-space: pre;" direction="ltr" dominant-baseline="text-before-edge">A</text></g><g transform="translate(479.510228 132.97063703233266) rotate(0 57.9375 17.5)"><text x="0" y="0" font-family="Virgil, Segoe UI Emoji" font-size="28px" fill="#d65d0e" text-anchor="start" style="white-space: pre;" direction="ltr" dominant-baseline="text-before-edge">A+64KiB</text></g><g transform="translate(10 132.97063703233266) rotate(0 9.675000190734863 17.5)"><text x="0" y="0" font-family="Virgil, Segoe UI Emoji" font-size="28px" fill="#504945" text-anchor="start" style="white-space: pre;" direction="ltr" dominant-baseline="text-before-edge">0</text></g><g transform="translate(957.5102278092652 132.97063703233266) rotate(0 40.4375 17.5)"><text x="0" y="0" font-family="Virgil, Segoe UI Emoji" font-size="28px" fill="#504945" text-anchor="start" style="white-space: pre;" direction="ltr" dominant-baseline="text-before-edge">4 GiB</text></g><g stroke-linecap="round" transform="translate(20.647854362800047 10.000000031016) rotate(0 489.13636363636374 27.49999999999997)"><path d="M0 0 C255.34 0, 510.67 0, 978.27 0 M0 0 C323.52 0, 647.04 0, 978.27 0 M978.27 0 C978.27 13.67, 978.27 27.35, 978.27 55 M978.27 0 C978.27 18.49, 978.27 36.98, 978.27 55 M978.27 55 C709.65 55, 441.02 55, 0 55 M978.27 55 C729.12 55, 479.96 55, 0 55 M0 55 C0 39.41, 0 23.82, 0 0 M0 55 C0 37.6, 0 20.2, 0 0" stroke="#504945" stroke-width="4" fill="none"></path></g><g stroke-linecap="round"><g transform="translate(324.2137972914485 65.40315714613915) rotate(0 0 28.261680159994356)"><path d="M0 0 C0 9.42, 0 47.1, 0 56.52 M0 0 C0 9.42, 0 47.1, 0 56.52" stroke="#076678" stroke-width="2" fill="none"></path></g></g><mask></mask><g stroke-linecap="round" transform="translate(194.17500059047438 66.25015589076087) rotate(0 171.63636363636368 27.499999999999915)"><path d="M0 0 C87.08 0, 174.16 0, 343.27 0 M0 0 C91.46 0, 182.91 0, 343.27 0 M343.27 0 C343.27 19.25, 343.27 38.49, 343.27 55 M343.27 0 C343.27 11.18, 343.27 22.35, 343.27 55 M343.27 55 C220.7 55, 98.13 55, 0 55 M343.27 55 C210.02 55, 76.76 55, 0 55 M0 55 C0 34.15, 0 13.3, 0 0 M0 55 C0 36.18, 0 17.35, 0 0" stroke="#d65d0e" stroke-width="4" fill="none"></path></g><g transform="translate(228.2326816950524 78.251513381847) rotate(0 -6.081415395933448 16.98602231277971)" stroke="none"><path fill="#d65d0e" d="M 2.42,0.60 Q 2.42,0.60 2.05,2.05 1.68,3.49 0.88,5.57 0.08,7.65 -0.26,8.91 -0.61,10.17 -0.84,11.25 -1.06,12.33 -1.45,13.84 -1.84,15.34 -2.22,16.83 -2.61,18.33 -3.62,20.87 -4.64,23.42 -5.50,25.18 -6.36,26.94 -6.92,28.11 -7.48,29.28 -8.00,30.57 -8.53,31.86 -9.02,33.02 -9.51,34.18 -9.63,34.59 -9.76,35.00 -10.00,35.35 -10.25,35.70 -10.60,35.96 -10.95,36.21 -11.36,36.34 -11.77,36.46 -12.20,36.45 -12.63,36.44 -13.04,36.30 -13.44,36.15 -13.78,35.88 -14.11,35.61 -14.34,35.25 -14.58,34.89 -14.68,34.47 -14.79,34.06 -14.75,33.63 -14.72,33.20 -14.55,32.80 -14.38,32.41 -14.10,32.09 -13.81,31.77 -13.44,31.55 -13.06,31.34 -12.64,31.26 -12.22,31.18 -11.79,31.23 -11.37,31.29 -10.98,31.48 -10.60,31.67 -10.29,31.97 -9.99,32.27 -9.79,32.66 -9.60,33.04 -9.54,33.47 -9.48,33.90 -9.56,34.32 -9.64,34.74 -9.85,35.12 -10.06,35.49 -10.38,35.78 -10.70,36.07 -11.10,36.24 -11.49,36.41 -11.92,36.44 -12.35,36.48 -12.76,36.38 -13.18,36.28 -13.55,36.05 -13.91,35.82 -14.18,35.48 -14.45,35.15 -14.60,34.74 -14.75,34.34 -14.76,33.91 -14.77,33.48 -14.77,33.48 -14.77,33.48 -14.14,31.81 -13.51,30.13 -12.67,28.59 -11.84,27.05 -11.29,26.04 -10.73,25.04 -10.11,23.38 -9.48,21.73 -8.95,19.86 -8.41,17.99 -7.93,16.85 -7.45,15.71 -7.09,14.71 -6.72,13.71 -6.18,12.44 -5.63,11.17 -5.28,9.99 -4.93,8.81 -4.50,7.59 -4.07,6.37 -3.60,4.33 -3.12,2.29 -2.77,0.84 -2.42,-0.60 -2.31,-0.88 -2.21,-1.16 -2.03,-1.41 -1.86,-1.66 -1.63,-1.86 -1.41,-2.06 -1.14,-2.20 -0.87,-2.34 -0.58,-2.41 -0.29,-2.48 0.00,-2.48 0.30,-2.48 0.60,-2.40 0.89,-2.33 1.16,-2.19 1.42,-2.05 1.65,-1.85 1.87,-1.65 2.04,-1.40 2.21,-1.15 2.32,-0.87 2.42,-0.59 2.46,-0.29 2.50,0.00 2.46,0.30 2.42,0.60 2.42,0.60 L 2.42,0.60 Z"></path></g><g transform="translate(259.68827857057045 79.50973725686775) rotate(0 -6.710527333443849 15.518094458588877)" stroke="none"><path fill="#d65d0e" d="M 1.95,1.15 Q 1.95,1.15 0.64,3.13 -0.66,5.12 -1.70,7.08 -2.74,9.04 -3.06,10.12 -3.37,11.20 -3.73,12.32 -4.09,13.43 -4.97,15.42 -5.86,17.40 -6.26,18.47 -6.66,19.55 -7.17,20.81 -7.67,22.07 -7.99,23.42 -8.32,24.77 -8.78,25.84 -9.24,26.91 -9.43,28.09 -9.62,29.27 -9.80,30.55 -9.98,31.84 -10.12,32.15 -10.26,32.46 -10.47,32.73 -10.67,33.00 -10.94,33.21 -11.21,33.42 -11.52,33.56 -11.83,33.70 -12.16,33.77 -12.50,33.83 -12.84,33.81 -13.17,33.79 -13.50,33.69 -13.83,33.59 -14.12,33.42 -14.41,33.24 -14.65,33.00 -14.89,32.76 -15.07,32.47 -15.25,32.18 -15.35,31.86 -15.45,31.53 -15.47,31.20 -15.50,30.86 -15.44,30.52 -15.38,30.19 -13.35,29.36 -11.33,28.54 -10.97,28.82 -10.61,29.10 -10.36,29.48 -10.11,29.86 -9.99,30.30 -9.87,30.74 -9.90,31.19 -9.93,31.65 -10.10,32.07 -10.28,32.49 -10.58,32.84 -10.88,33.18 -11.27,33.42 -11.66,33.65 -12.11,33.74 -12.56,33.83 -13.01,33.78 -13.46,33.72 -13.88,33.53 -14.29,33.33 -14.62,33.01 -14.94,32.70 -15.15,32.29 -15.36,31.88 -15.43,31.43 -15.50,30.98 -15.42,30.53 -15.34,30.08 -15.12,29.68 -14.91,29.28 -14.57,28.97 -14.24,28.66 -13.82,28.47 -13.40,28.29 -12.95,28.24 -12.49,28.20 -12.05,28.30 -11.60,28.40 -11.22,28.64 -10.83,28.88 -10.54,29.23 -10.24,29.59 -10.08,30.01 -9.92,30.44 -9.90,30.89 -9.88,31.35 -10.00,31.79 -10.13,32.23 -10.39,32.60 -10.65,32.98 -11.02,33.25 -11.39,33.52 -11.82,33.66 -12.25,33.80 -12.71,33.80 -13.17,33.79 -11.57,32.82 -9.98,31.84 -10.12,32.15 -10.26,32.46 -10.47,32.73 -10.67,33.00 -10.94,33.21 -11.21,33.42 -11.52,33.56 -11.83,33.70 -12.16,33.77 -12.50,33.83 -12.83,33.81 -13.17,33.79 -13.50,33.69 -13.82,33.59 -14.12,33.42 -14.41,33.24 -14.65,33.00 -14.89,32.76 -15.07,32.47 -15.25,32.18 -15.35,31.86 -15.45,31.53 -15.47,31.20 -15.50,30.86 -15.44,30.52 -15.38,30.19 -15.18,28.91 -14.98,27.62 -14.55,26.40 -14.11,25.17 -13.47,24.09 -12.83,23.02 -12.24,21.68 -11.65,20.33 -10.54,18.17 -9.44,16.02 -8.76,13.95 -8.07,11.88 -7.59,10.84 -7.11,9.79 -6.58,8.63 -6.05,7.46 -5.10,5.26 -4.15,3.07 -3.05,0.96 -1.95,-1.15 -1.79,-1.36 -1.62,-1.58 -1.41,-1.75 -1.19,-1.93 -0.95,-2.04 -0.70,-2.16 -0.43,-2.21 -0.16,-2.26 0.10,-2.25 0.38,-2.24 0.64,-2.16 0.90,-2.08 1.14,-1.94 1.38,-1.80 1.57,-1.61 1.77,-1.42 1.91,-1.19 2.06,-0.95 2.14,-0.69 2.23,-0.43 2.25,-0.16 2.27,0.11 2.22,0.38 2.17,0.65 2.06,0.90 1.95,1.15 1.95,1.15 L 1.95,1.15 Z"></path></g><g transform="translate(286.9497958626862 79.50973725686775) rotate(0 -6.500823354273734 17.40543027111994)" stroke="none"><path fill="#d65d0e" d="M 2.31,0.77 Q 2.31,0.77 1.63,2.55 0.94,4.33 0.43,5.91 -0.07,7.49 -0.70,9.68 -1.33,11.88 -1.73,13.32 -2.13,14.77 -2.89,17.10 -3.65,19.43 -4.29,21.02 -4.94,22.61 -5.66,23.91 -6.38,25.21 -7.00,26.38 -7.62,27.55 -8.11,28.54 -8.60,29.53 -9.01,30.54 -9.42,31.54 -9.59,32.99 -9.76,34.44 -9.86,34.78 -9.96,35.12 -10.13,35.42 -10.31,35.73 -10.55,35.98 -10.80,36.24 -11.09,36.42 -11.39,36.61 -11.73,36.72 -12.06,36.83 -12.41,36.86 -12.76,36.89 -13.11,36.83 -13.46,36.78 -13.78,36.64 -14.10,36.50 -14.38,36.29 -14.66,36.08 -14.89,35.80 -15.11,35.53 -15.26,35.21 -15.41,34.90 -15.48,34.55 -15.55,34.21 -15.54,33.85 -15.52,33.50 -13.76,32.31 -12.01,31.13 -11.57,31.30 -11.13,31.48 -10.77,31.78 -10.41,32.09 -10.17,32.50 -9.93,32.90 -9.83,33.36 -9.73,33.82 -9.78,34.29 -9.83,34.76 -10.03,35.19 -10.23,35.62 -10.56,35.96 -10.88,36.30 -11.30,36.52 -11.72,36.74 -12.18,36.82 -12.65,36.89 -13.11,36.81 -13.58,36.74 -14.00,36.51 -14.41,36.29 -14.74,35.95 -15.06,35.61 -15.26,35.18 -15.46,34.75 -15.51,34.28 -15.55,33.81 -15.45,33.35 -15.35,32.89 -15.10,32.48 -14.86,32.08 -14.50,31.77 -14.14,31.47 -13.70,31.30 -13.26,31.12 -12.79,31.10 -12.32,31.07 -11.86,31.20 -11.41,31.33 -11.02,31.59 -10.63,31.86 -10.34,32.24 -10.06,32.61 -9.91,33.06 -9.76,33.51 -9.76,33.98 -9.76,34.45 -9.91,34.90 -10.07,35.35 -10.35,35.72 -10.64,36.10 -11.03,36.36 -11.42,36.63 -11.88,36.75 -12.33,36.88 -11.05,35.66 -9.76,34.44 -9.86,34.78 -9.96,35.12 -10.13,35.42 -10.31,35.73 -10.55,35.98 -10.80,36.24 -11.09,36.42 -11.39,36.61 -11.73,36.72 -12.06,36.83 -12.41,36.86 -12.76,36.89 -13.11,36.83 -13.46,36.78 -13.78,36.64 -14.10,36.50 -14.38,36.29 -14.66,36.08 -14.89,35.80 -15.11,35.53 -15.26,35.21 -15.41,34.90 -15.48,34.55 -15.55,34.21 -15.54,33.85 -15.52,33.50 -15.13,31.61 -14.75,29.73 -14.06,28.40 -13.37,27.08 -12.83,26.08 -12.30,25.08 -11.65,23.84 -11.00,22.59 -10.43,21.63 -9.87,20.66 -9.09,19.19 -8.32,17.71 -7.53,15.62 -6.73,13.53 -6.33,11.99 -5.92,10.46 -5.12,8.32 -4.32,6.18 -3.84,4.54 -3.35,2.90 -2.83,1.06 -2.31,-0.77 -2.19,-1.03 -2.06,-1.30 -1.87,-1.53 -1.69,-1.76 -1.45,-1.93 -1.22,-2.11 -0.95,-2.22 -0.68,-2.34 -0.38,-2.39 -0.09,-2.43 0.19,-2.41 0.48,-2.39 0.76,-2.29 1.04,-2.20 1.29,-2.04 1.54,-1.89 1.74,-1.67 1.95,-1.46 2.09,-1.21 2.24,-0.95 2.32,-0.67 2.40,-0.39 2.42,-0.09 2.43,0.19 2.37,0.48 2.31,0.77 2.31,0.77 L 2.31,0.77 Z"></path></g><g transform="translate(317.56657682152354 77.41269746516654) rotate(0 -6.9202313126139074 17.824838229460198)" stroke="none"><path fill="#d65d0e" d="M 2.28,0.65 Q 2.28,0.65 1.18,3.99 0.09,7.33 -1.16,10.48 -2.41,13.64 -2.85,15.17 -3.29,16.70 -3.70,17.94 -4.10,19.18 -4.63,20.47 -5.16,21.76 -5.86,23.58 -6.55,25.41 -6.89,26.45 -7.22,27.49 -7.61,28.54 -8.01,29.59 -8.39,30.66 -8.77,31.74 -9.67,33.95 -10.57,36.17 -10.72,36.50 -10.87,36.84 -11.10,37.13 -11.33,37.41 -11.62,37.64 -11.91,37.86 -12.24,38.01 -12.58,38.16 -12.94,38.23 -13.30,38.29 -13.67,38.27 -14.03,38.25 -14.38,38.13 -14.73,38.02 -15.05,37.83 -15.36,37.64 -15.62,37.38 -15.88,37.12 -16.07,36.80 -16.26,36.49 -16.36,36.14 -16.47,35.79 -16.49,35.42 -16.51,35.05 -16.44,34.69 -16.38,34.33 -15.08,33.28 -13.78,32.22 -13.29,32.25 -12.79,32.28 -12.34,32.47 -11.88,32.65 -11.51,32.97 -11.13,33.30 -10.88,33.72 -10.63,34.14 -10.53,34.63 -10.43,35.11 -10.48,35.60 -10.54,36.09 -10.75,36.53 -10.96,36.98 -11.30,37.34 -11.65,37.69 -12.08,37.92 -12.52,38.15 -13.01,38.22 -13.50,38.30 -13.98,38.21 -14.47,38.13 -14.90,37.90 -15.33,37.66 -15.67,37.30 -16.01,36.94 -16.21,36.49 -16.41,36.04 -16.46,35.55 -16.51,35.06 -16.40,34.58 -16.29,34.10 -16.04,33.68 -15.78,33.26 -15.40,32.94 -15.02,32.63 -14.56,32.45 -14.10,32.27 -13.61,32.25 -13.12,32.22 -12.64,32.36 -12.17,32.50 -11.76,32.78 -11.36,33.06 -11.06,33.45 -10.77,33.84 -10.61,34.31 -10.46,34.78 -10.46,35.27 -10.47,35.77 -10.63,36.23 -10.79,36.70 -11.09,37.09 -11.39,37.48 -11.80,37.75 -12.21,38.03 -11.39,37.10 -10.57,36.17 -10.72,36.50 -10.87,36.84 -11.10,37.13 -11.33,37.41 -11.62,37.64 -11.91,37.86 -12.24,38.01 -12.58,38.16 -12.94,38.23 -13.30,38.29 -13.67,38.27 -14.03,38.25 -14.38,38.13 -14.73,38.02 -15.05,37.83 -15.36,37.64 -15.62,37.38 -15.88,37.12 -16.07,36.80 -16.26,36.49 -16.36,36.14 -16.47,35.79 -16.49,35.42 -16.51,35.05 -16.44,34.69 -16.38,34.33 -15.79,33.04 -15.19,31.74 -14.65,30.46 -14.11,29.17 -13.32,27.69 -12.53,26.21 -11.99,25.11 -11.44,24.01 -10.73,23.04 -10.03,22.07 -9.58,21.01 -9.14,19.95 -8.56,18.81 -7.99,17.67 -7.50,16.62 -7.02,15.56 -6.49,13.95 -5.97,12.35 -4.96,9.26 -3.94,6.17 -3.11,2.76 -2.28,-0.65 -2.17,-0.91 -2.06,-1.18 -1.89,-1.41 -1.72,-1.64 -1.50,-1.82 -1.27,-2.00 -1.02,-2.13 -0.76,-2.25 -0.48,-2.31 -0.20,-2.37 0.08,-2.36 0.37,-2.35 0.64,-2.27 0.92,-2.19 1.17,-2.05 1.42,-1.90 1.63,-1.70 1.83,-1.51 1.99,-1.26 2.14,-1.02 2.23,-0.75 2.32,-0.48 2.35,-0.19 2.37,0.08 2.33,0.37 2.28,0.65 2.28,0.65 L 2.28,0.65 Z"></path></g><g transform="translate(347.7639498220208 79.50973725686775) rotate(0 -5.662007437593218 16.14720639609922)" stroke="none"><path fill="#d65d0e" d="M 2.28,0.68 Q 2.28,0.68 1.95,1.90 1.61,3.11 1.04,5.28 0.47,7.46 0.05,9.06 -0.36,10.65 -0.71,11.91 -1.06,13.16 -1.86,15.23 -2.67,17.30 -3.04,18.48 -3.40,19.67 -3.95,21.05 -4.49,22.43 -4.93,23.60 -5.38,24.78 -5.76,25.95 -6.15,27.12 -6.61,28.21 -7.08,29.30 -7.80,31.13 -8.52,32.96 -8.73,33.38 -8.93,33.80 -9.26,34.13 -9.59,34.46 -10.00,34.66 -10.42,34.87 -10.88,34.93 -11.34,35.00 -11.80,34.91 -12.25,34.82 -12.66,34.60 -13.06,34.37 -13.37,34.02 -13.69,33.68 -13.87,33.25 -14.06,32.83 -14.09,32.36 -14.13,31.90 -14.02,31.45 -13.91,31.00 -13.66,30.61 -13.41,30.21 -13.05,29.92 -12.69,29.63 -12.25,29.47 -11.82,29.31 -11.35,29.29 -10.89,29.28 -10.44,29.42 -10.00,29.55 -9.62,29.82 -9.24,30.09 -8.97,30.47 -8.70,30.85 -8.56,31.29 -8.42,31.73 -8.44,32.20 -8.45,32.66 -8.61,33.10 -8.77,33.53 -9.06,33.90 -9.35,34.26 -9.74,34.51 -10.13,34.76 -10.58,34.88 -11.03,34.99 -11.49,34.95 -11.96,34.92 -12.38,34.73 -12.81,34.55 -13.16,34.24 -13.50,33.93 -13.73,33.53 -13.96,33.12 -14.05,32.67 -14.14,32.21 -14.08,31.75 -14.02,31.29 -14.02,31.29 -14.02,31.29 -13.12,29.07 -12.22,26.84 -11.68,25.84 -11.13,24.83 -10.58,23.88 -10.02,22.93 -9.53,21.78 -9.04,20.62 -8.53,19.35 -8.02,18.08 -7.62,17.01 -7.21,15.94 -6.76,13.82 -6.31,11.71 -5.98,10.50 -5.64,9.29 -5.04,7.60 -4.44,5.92 -3.75,3.81 -3.06,1.70 -2.67,0.51 -2.28,-0.68 -2.17,-0.94 -2.05,-1.21 -1.88,-1.44 -1.70,-1.67 -1.48,-1.85 -1.25,-2.03 -0.99,-2.15 -0.73,-2.27 -0.45,-2.32 -0.16,-2.38 0.11,-2.36 0.40,-2.35 0.68,-2.27 0.95,-2.18 1.20,-2.04 1.45,-1.89 1.65,-1.69 1.86,-1.49 2.01,-1.24 2.16,-1.00 2.25,-0.72 2.34,-0.45 2.36,-0.16 2.38,0.11 2.33,0.40 2.28,0.68 2.28,0.68 L 2.28,0.68 Z"></path></g><g transform="translate(377.96132282251824 78.251513381847) rotate(0 -5.032895500082873 15.937502416929135)" stroke="none"><path fill="#d65d0e" d="M 2.29,0 Q 2.29,0 2.31,1.44 2.32,2.89 2.13,5.29 1.94,7.70 1.23,10.28 0.51,12.85 -0.45,14.96 -1.43,17.06 -2.16,18.69 -2.90,20.31 -3.24,21.34 -3.59,22.37 -4.13,23.53 -4.67,24.69 -4.96,26.09 -5.25,27.50 -5.84,28.85 -6.43,30.20 -6.88,31.43 -7.32,32.66 -7.57,33.04 -7.81,33.43 -8.17,33.71 -8.53,34.00 -8.96,34.16 -9.39,34.32 -9.85,34.33 -10.30,34.34 -10.74,34.20 -11.18,34.07 -11.55,33.80 -11.92,33.53 -12.19,33.16 -12.45,32.79 -12.59,32.35 -12.72,31.91 -12.71,31.46 -12.69,31.00 -12.54,30.57 -12.38,30.14 -12.09,29.78 -11.80,29.43 -11.42,29.18 -11.03,28.93 -10.59,28.83 -10.14,28.72 -9.68,28.75 -9.23,28.79 -8.81,28.97 -8.39,29.15 -8.05,29.46 -7.71,29.77 -7.48,30.17 -7.26,30.57 -7.17,31.01 -7.09,31.46 -7.15,31.92 -7.21,32.37 -7.42,32.78 -7.62,33.19 -7.95,33.51 -8.27,33.84 -8.68,34.04 -9.09,34.24 -9.54,34.30 -10.00,34.36 -10.45,34.28 -10.90,34.19 -11.30,33.96 -11.69,33.74 -12.00,33.40 -12.30,33.05 -12.48,32.63 -12.66,32.21 -12.70,31.76 -12.74,31.30 -12.62,30.86 -12.51,30.41 -12.51,30.41 -12.51,30.41 -11.79,28.76 -11.06,27.11 -10.48,26.15 -9.89,25.20 -9.36,23.87 -8.83,22.54 -8.29,21.62 -7.75,20.69 -7.26,19.65 -6.77,18.60 -6.10,17.05 -5.43,15.49 -4.81,13.53 -4.19,11.56 -3.55,9.19 -2.91,6.82 -2.61,4.85 -2.32,2.89 -2.31,1.44 -2.29,0 -2.26,-0.27 -2.22,-0.54 -2.13,-0.80 -2.03,-1.06 -1.87,-1.29 -1.71,-1.52 -1.51,-1.70 -1.30,-1.88 -1.05,-2.01 -0.81,-2.14 -0.54,-2.21 -0.27,-2.27 0.00,-2.27 0.27,-2.27 0.54,-2.21 0.81,-2.14 1.05,-2.01 1.30,-1.88 1.51,-1.70 1.71,-1.52 1.87,-1.29 2.03,-1.06 2.13,-0.80 2.22,-0.54 2.26,-0.27 2.29,0.00 2.29,0.00 L 2.29,0 Z"></path></g><g transform="translate(408.15869582301525 79.09032929852752) rotate(0 -6.081415395933448 16.356910375269337)" stroke="none"><path fill="#d65d0e" d="M 2.06,0.77 Q 2.06,0.77 1.76,1.76 1.45,2.74 1.10,3.86 0.76,4.98 0.18,6.77 -0.38,8.56 -1.44,10.50 -2.50,12.43 -3.28,14.13 -4.06,15.82 -4.81,17.78 -5.56,19.75 -6.06,21.18 -6.56,22.61 -6.84,23.97 -7.13,25.32 -7.58,27.00 -8.03,28.67 -9.19,31.64 -10.35,34.60 -10.71,34.83 -11.07,35.05 -11.48,35.15 -11.89,35.24 -12.31,35.20 -12.73,35.16 -13.12,34.99 -13.51,34.82 -13.82,34.53 -14.13,34.25 -14.33,33.88 -14.54,33.50 -14.61,33.09 -14.69,32.67 -14.62,32.25 -14.56,31.83 -14.37,31.46 -14.18,31.08 -13.87,30.78 -13.57,30.49 -13.19,30.31 -12.81,30.12 -12.39,30.07 -11.97,30.02 -11.55,30.10 -11.14,30.19 -10.77,30.40 -10.41,30.61 -10.13,30.93 -9.85,31.25 -9.69,31.64 -9.52,32.03 -9.50,32.46 -9.47,32.88 -9.57,33.29 -9.68,33.70 -9.91,34.05 -10.15,34.40 -10.48,34.67 -10.81,34.93 -11.21,35.07 -11.61,35.21 -12.03,35.21 -12.46,35.22 -12.86,35.09 -13.26,34.96 -13.60,34.71 -13.94,34.46 -14.19,34.11 -14.43,33.77 -14.55,33.36 -14.67,32.95 -14.65,32.53 -14.63,32.11 -14.48,31.71 -14.33,31.32 -14.06,30.99 -13.79,30.66 -13.79,30.66 -13.79,30.66 -13.29,28.88 -12.79,27.09 -12.15,25.49 -11.51,23.89 -10.92,22.52 -10.33,21.16 -9.77,19.86 -9.21,18.56 -8.61,16.37 -8.02,14.18 -7.33,12.34 -6.64,10.50 -5.94,8.67 -5.25,6.84 -4.51,5.12 -3.78,3.40 -3.34,2.25 -2.90,1.11 -2.48,0.16 -2.06,-0.77 -1.94,-1.01 -1.82,-1.24 -1.64,-1.44 -1.46,-1.64 -1.25,-1.79 -1.03,-1.95 -0.78,-2.04 -0.53,-2.14 -0.27,-2.17 -0.00,-2.20 0.25,-2.17 0.52,-2.14 0.76,-2.05 1.01,-1.95 1.23,-1.80 1.45,-1.65 1.63,-1.45 1.81,-1.26 1.93,-1.02 2.06,-0.79 2.12,-0.53 2.19,-0.27 2.19,-0.00 2.19,0.25 2.12,0.51 2.06,0.77 2.06,0.77 L 2.06,0.77 Z"></path></g><g transform="translate(433.3231733234297 77.41269746516654) rotate(0 -5.662007437593218 16.776318333609595)" stroke="none"><path fill="#d65d0e" d="M 2.40,0 Q 2.40,0 2.45,0.96 2.50,1.92 2.57,3.92 2.64,5.93 2.22,8.13 1.81,10.34 1.39,11.89 0.98,13.44 0.38,15.13 -0.21,16.82 -0.68,18.15 -1.15,19.48 -1.73,20.92 -2.32,22.35 -3.28,24.08 -4.24,25.81 -4.85,26.89 -5.46,27.96 -5.84,29.01 -6.21,30.07 -6.90,31.05 -7.58,32.02 -8.08,33.14 -8.58,34.25 -8.79,34.65 -9.00,35.06 -9.33,35.37 -9.66,35.69 -10.07,35.89 -10.48,36.08 -10.94,36.14 -11.39,36.19 -11.83,36.10 -12.28,36.00 -12.67,35.77 -13.07,35.54 -13.36,35.20 -13.66,34.85 -13.83,34.43 -14.01,34.01 -14.04,33.55 -14.07,33.10 -13.95,32.66 -13.83,32.22 -13.58,31.84 -13.33,31.46 -12.97,31.18 -12.61,30.90 -12.18,30.75 -11.75,30.60 -11.29,30.60 -10.83,30.59 -10.40,30.73 -9.97,30.87 -9.60,31.15 -9.24,31.42 -8.98,31.79 -8.72,32.17 -8.59,32.61 -8.47,33.04 -8.49,33.50 -8.51,33.95 -8.67,34.38 -8.84,34.80 -9.13,35.15 -9.42,35.50 -9.81,35.74 -10.19,35.98 -10.64,36.08 -11.08,36.19 -11.54,36.14 -11.99,36.10 -12.41,35.91 -12.82,35.72 -13.15,35.41 -13.49,35.10 -13.71,34.70 -13.92,34.30 -14.00,33.85 -14.08,33.40 -14.01,32.95 -13.94,32.50 -13.94,32.50 -13.94,32.50 -13.00,30.76 -12.07,29.01 -11.21,28.03 -10.35,27.05 -9.36,25.40 -8.37,23.74 -7.65,22.12 -6.93,20.50 -6.40,19.15 -5.87,17.80 -5.42,16.55 -4.96,15.30 -4.53,13.76 -4.09,12.22 -3.78,10.70 -3.46,9.19 -3.05,7.54 -2.64,5.90 -2.57,3.91 -2.50,1.92 -2.45,0.96 -2.40,0 -2.37,-0.28 -2.33,-0.57 -2.23,-0.84 -2.13,-1.11 -1.96,-1.35 -1.80,-1.59 -1.58,-1.78 -1.36,-1.98 -1.10,-2.11 -0.85,-2.24 -0.57,-2.31 -0.28,-2.38 0.00,-2.38 0.29,-2.38 0.57,-2.31 0.85,-2.24 1.11,-2.11 1.36,-1.97 1.58,-1.78 1.80,-1.59 1.96,-1.35 2.13,-1.11 2.23,-0.84 2.33,-0.57 2.37,-0.28 2.40,0.00 2.40,0.00 L 2.40,0 Z"></path></g><g transform="translate(460.58469061554547 75.73506563180557) rotate(0 -4.403783562572528 17.405430271119968)" stroke="none"><path fill="#d65d0e" d="M 2.42,0 Q 2.42,0 2.41,1.56 2.39,3.13 2.43,4.28 2.47,5.43 2.38,7.60 2.29,9.78 2.30,11.44 2.31,13.09 1.69,15.09 1.07,17.09 0.58,18.63 0.10,20.18 -0.66,22.58 -1.43,24.98 -1.94,26.65 -2.45,28.32 -2.90,29.65 -3.35,30.97 -4.80,33.66 -6.26,36.34 -6.60,36.68 -6.93,37.03 -7.36,37.24 -7.79,37.46 -8.26,37.53 -8.74,37.60 -9.21,37.51 -9.68,37.43 -10.10,37.19 -10.52,36.96 -10.84,36.61 -11.16,36.26 -11.36,35.82 -11.55,35.38 -11.59,34.90 -11.64,34.43 -11.53,33.96 -11.41,33.49 -11.16,33.09 -10.91,32.68 -10.54,32.38 -10.17,32.08 -9.72,31.91 -9.27,31.74 -8.79,31.72 -8.31,31.70 -7.85,31.84 -7.39,31.97 -7.00,32.25 -6.61,32.53 -6.33,32.91 -6.05,33.30 -5.90,33.75 -5.76,34.21 -5.76,34.69 -5.77,35.17 -5.93,35.62 -6.09,36.07 -6.39,36.45 -6.69,36.82 -7.09,37.08 -7.49,37.35 -7.95,37.47 -8.42,37.59 -8.89,37.55 -9.37,37.52 -9.81,37.33 -10.26,37.15 -10.61,36.83 -10.97,36.51 -11.21,36.10 -11.45,35.68 -11.55,35.22 -11.64,34.75 -11.58,34.27 -11.52,33.80 -11.31,33.36 -11.10,32.93 -11.10,32.93 -11.10,32.93 -9.92,31.13 -8.74,29.33 -8.09,27.79 -7.43,26.26 -6.78,24.64 -6.12,23.03 -5.38,20.92 -4.64,18.81 -4.22,17.24 -3.81,15.66 -3.45,14.28 -3.08,12.91 -2.93,11.14 -2.77,9.36 -2.62,7.40 -2.47,5.43 -2.43,4.28 -2.39,3.13 -2.41,1.56 -2.42,0 -2.39,-0.29 -2.35,-0.58 -2.25,-0.85 -2.15,-1.12 -1.98,-1.36 -1.81,-1.61 -1.59,-1.80 -1.37,-1.99 -1.12,-2.13 -0.86,-2.27 -0.57,-2.34 -0.29,-2.41 0.00,-2.41 0.29,-2.41 0.57,-2.34 0.86,-2.27 1.12,-2.13 1.38,-1.99 1.59,-1.80 1.81,-1.61 1.98,-1.36 2.15,-1.12 2.25,-0.85 2.35,-0.58 2.39,-0.29 2.42,0.00 2.42,0.00 L 2.42,0 Z"></path></g><g transform="translate(489.5238397410219 77.83210542350677) rotate(0 -3.774671625062183 17.824838229460198)" stroke="none"><path fill="#d65d0e" d="M 2.30,0 Q 2.30,0 2.33,1.33 2.36,2.66 2.12,4.16 1.88,5.67 1.64,7.24 1.40,8.81 1.13,10.56 0.87,12.32 0.63,14.03 0.39,15.75 0.16,17.45 -0.06,19.14 -0.28,20.83 -0.50,22.51 -0.66,23.58 -0.82,24.65 -0.82,25.73 -0.82,26.81 -1.39,29.03 -1.97,31.26 -2.45,32.60 -2.92,33.94 -4.10,35.67 -5.27,37.40 -5.63,37.69 -5.99,37.99 -6.42,38.15 -6.85,38.32 -7.32,38.33 -7.78,38.35 -8.23,38.22 -8.67,38.09 -9.05,37.82 -9.43,37.55 -9.70,37.18 -9.98,36.80 -10.12,36.36 -10.26,35.92 -10.25,35.45 -10.24,34.99 -10.09,34.55 -9.93,34.12 -9.64,33.75 -9.36,33.39 -8.97,33.13 -8.58,32.88 -8.13,32.77 -7.68,32.65 -7.22,32.68 -6.75,32.72 -6.33,32.90 -5.90,33.07 -5.55,33.38 -5.20,33.69 -4.97,34.09 -4.74,34.49 -4.65,34.95 -4.56,35.40 -4.61,35.86 -4.67,36.32 -4.87,36.74 -5.08,37.16 -5.40,37.49 -5.73,37.82 -6.14,38.03 -6.55,38.24 -7.01,38.30 -7.47,38.37 -7.93,38.29 -8.39,38.21 -8.79,37.98 -9.20,37.76 -9.51,37.41 -9.82,37.07 -10.01,36.65 -10.20,36.22 -10.24,35.76 -10.28,35.30 -10.17,34.85 -10.07,34.40 -9.82,34.00 -9.57,33.61 -9.57,33.61 -9.57,33.61 -8.67,32.15 -7.78,30.68 -7.04,29.32 -6.30,27.96 -5.95,26.69 -5.60,25.42 -5.17,23.70 -4.74,21.98 -4.54,20.30 -4.34,18.61 -4.15,16.91 -3.96,15.22 -3.77,13.50 -3.59,11.77 -3.42,9.97 -3.26,8.17 -3.05,6.47 -2.85,4.78 -2.60,3.71 -2.36,2.64 -2.33,1.32 -2.30,0 -2.26,-0.27 -2.23,-0.55 -2.13,-0.81 -2.03,-1.07 -1.88,-1.29 -1.72,-1.52 -1.51,-1.71 -1.30,-1.89 -1.06,-2.02 -0.81,-2.15 -0.54,-2.21 -0.27,-2.28 0.00,-2.28 0.27,-2.28 0.54,-2.21 0.81,-2.15 1.06,-2.02 1.30,-1.89 1.51,-1.71 1.72,-1.52 1.88,-1.29 2.03,-1.06 2.13,-0.81 2.23,-0.55 2.26,-0.27 2.30,0.00 2.30,0.00 L 2.30,0 Z"></path></g><g transform="translate(519.301804783179 77.41269746516654) rotate(0 -5.032895500082873 18.453950166970543)" stroke="none"><path fill="#d65d0e" d="M 2.57,-0.18 Q 2.57,-0.18 2.63,1.50 2.70,3.20 2.63,4.78 2.56,6.37 2.46,8.05 2.36,9.73 2.23,11.54 2.09,13.34 1.73,15.17 1.37,17.00 1.04,18.05 0.71,19.10 0.12,20.78 -0.47,22.45 -1.03,24.16 -1.59,25.87 -2.32,27.68 -3.05,29.49 -3.80,31.20 -4.55,32.90 -6.05,35.16 -7.55,37.42 -7.73,37.87 -7.91,38.31 -8.22,38.68 -8.54,39.04 -8.95,39.29 -9.36,39.53 -9.83,39.64 -10.30,39.74 -10.78,39.69 -11.25,39.63 -11.69,39.43 -12.12,39.23 -12.47,38.90 -12.82,38.56 -13.04,38.14 -13.27,37.71 -13.34,37.24 -13.42,36.77 -13.34,36.29 -13.26,35.82 -13.04,35.40 -12.81,34.97 -12.46,34.64 -12.11,34.31 -11.67,34.11 -11.24,33.91 -10.76,33.86 -10.28,33.81 -9.81,33.92 -9.35,34.02 -8.93,34.27 -8.52,34.52 -8.21,34.88 -7.90,35.25 -7.73,35.70 -7.55,36.14 -7.53,36.62 -7.50,37.10 -7.63,37.57 -7.76,38.03 -8.03,38.43 -8.30,38.82 -8.69,39.11 -9.07,39.40 -9.52,39.55 -9.98,39.70 -10.46,39.70 -10.94,39.70 -11.39,39.55 -11.85,39.39 -12.23,39.10 -12.61,38.81 -12.88,38.41 -13.15,38.01 -13.28,37.55 -13.40,37.09 -13.38,36.61 -13.35,36.13 -13.35,36.13 -13.35,36.13 -11.54,33.17 -9.74,30.21 -9.05,28.74 -8.37,27.28 -7.61,25.63 -6.86,23.97 -6.22,22.48 -5.59,20.99 -5.19,19.16 -4.78,17.33 -4.27,15.84 -3.75,14.34 -3.39,12.79 -3.02,11.23 -2.92,9.91 -2.81,8.60 -2.58,7.37 -2.36,6.13 -2.29,4.84 -2.22,3.54 -2.39,1.86 -2.57,0.18 -2.55,-0.12 -2.53,-0.43 -2.45,-0.73 -2.36,-1.03 -2.20,-1.29 -2.04,-1.56 -1.82,-1.78 -1.61,-2.01 -1.34,-2.17 -1.08,-2.33 -0.78,-2.43 -0.49,-2.52 -0.18,-2.55 0.12,-2.57 0.43,-2.52 0.73,-2.46 1.02,-2.34 1.30,-2.21 1.55,-2.03 1.80,-1.84 1.99,-1.59 2.19,-1.35 2.32,-1.07 2.45,-0.79 2.51,-0.48 2.57,-0.18 2.57,-0.18 L 2.57,-0.18 Z"></path></g><g transform="translate(294.68879732515313 130.47063667534576) rotate(0 29.524999618530273 10)"><text x="59.04999923706055" y="0" font-family="Virgil, Segoe UI Emoji" font-size="16px" fill="#076678" text-anchor="end" style="white-space: pre;" direction="ltr" dominant-baseline="text-before-edge">arg_len</text></g><g transform="translate(212.25406454070037 79.32049152767495) rotate(0 7.6089138892292 14.1308400799972)" stroke="none"><path fill="#076678" d="M 4.76,-2.38 Q 4.76,-2.38 5.75,-0.52 6.73,1.32 7.98,3.65 9.22,5.98 11.25,8.96 13.27,11.95 15.15,14.36 17.03,16.78 18.44,19.28 19.84,21.78 19.45,22.34 19.06,22.89 19.82,23.64 20.57,24.40 21.05,25.36 21.52,26.31 21.67,27.37 21.81,28.43 21.61,29.48 21.41,30.53 20.89,31.46 20.36,32.39 19.57,33.10 18.77,33.82 17.79,34.24 16.81,34.66 15.75,34.75 14.68,34.84 13.65,34.58 12.61,34.33 11.71,33.75 10.81,33.18 10.14,32.34 9.47,31.51 9.10,30.51 8.73,29.51 8.70,28.44 8.67,27.37 8.98,26.35 9.29,25.33 9.92,24.46 10.54,23.59 11.41,22.97 12.27,22.34 13.29,22.03 14.32,21.71 15.38,21.74 16.45,21.77 17.45,22.14 18.46,22.51 19.29,23.17 20.12,23.84 20.70,24.74 21.28,25.64 21.54,26.68 21.79,27.72 21.71,28.78 21.62,29.85 21.20,30.83 20.78,31.81 20.07,32.60 19.35,33.40 18.42,33.93 17.49,34.45 16.45,34.66 15.40,34.86 14.34,34.71 13.28,34.57 12.32,34.10 11.36,33.62 11.36,33.62 11.37,33.62 10.26,30.87 9.16,28.11 7.59,25.16 6.02,22.21 4.36,19.39 2.70,16.57 1.00,14.07 -0.70,11.58 -1.84,8.88 -2.98,6.17 -3.87,4.27 -4.76,2.38 -4.98,1.77 -5.19,1.17 -5.26,0.53 -5.32,-0.10 -5.23,-0.74 -5.14,-1.37 -4.90,-1.97 -4.66,-2.56 -4.29,-3.09 -3.91,-3.61 -3.42,-4.02 -2.94,-4.44 -2.36,-4.73 -1.79,-5.01 -1.16,-5.16 -0.53,-5.30 0.10,-5.28 0.74,-5.27 1.36,-5.11 1.98,-4.94 2.55,-4.63 3.11,-4.32 3.58,-3.88 4.05,-3.45 4.41,-2.91 4.76,-2.38 4.76,-2.38 L 4.76,-2.38 Z"></path></g><g transform="translate(240.51574470069465 81.49446692459769) rotate(0 6.521926190767942 11.956864683074514)" stroke="none"><path fill="#076678" d="M 4.53,-2.72 Q 4.53,-2.72 5.53,-1.19 6.53,0.32 7.99,2.28 9.44,4.24 10.76,6.49 12.08,8.73 13.72,11.57 15.37,14.40 16.43,16.74 17.49,19.09 18.14,19.92 18.80,20.76 19.15,21.76 19.50,22.76 19.51,23.83 19.53,24.89 19.20,25.90 18.87,26.91 18.24,27.76 17.61,28.61 16.74,29.22 15.87,29.83 14.85,30.13 13.83,30.42 12.77,30.38 11.71,30.33 10.72,29.95 9.73,29.57 8.91,28.90 8.09,28.22 7.53,27.32 6.97,26.41 6.73,25.38 6.49,24.35 6.59,23.29 6.69,22.23 7.13,21.26 7.56,20.30 8.28,19.52 9.00,18.74 9.93,18.23 10.87,17.72 11.91,17.53 12.96,17.35 14.01,17.51 15.06,17.66 16.00,18.15 16.94,18.64 17.68,19.40 18.42,20.16 18.88,21.12 19.34,22.07 19.47,23.13 19.59,24.18 19.38,25.22 19.16,26.26 18.63,27.18 18.09,28.09 17.29,28.79 16.49,29.49 15.51,29.89 14.53,30.30 13.47,30.37 12.41,30.44 11.38,30.17 10.36,29.90 9.47,29.31 8.59,28.73 8.59,28.73 8.59,28.73 7.35,26.76 6.12,24.80 5.17,22.05 4.23,19.31 2.86,16.73 1.49,14.16 0.54,12.11 -0.39,10.06 -1.58,7.99 -2.78,5.92 -3.66,4.32 -4.53,2.72 -4.79,2.14 -5.05,1.55 -5.17,0.92 -5.28,0.30 -5.24,-0.33 -5.20,-0.97 -5.01,-1.57 -4.81,-2.18 -4.48,-2.73 -4.15,-3.27 -3.70,-3.72 -3.24,-4.17 -2.70,-4.50 -2.15,-4.83 -1.54,-5.02 -0.93,-5.20 -0.29,-5.24 0.33,-5.28 0.96,-5.16 1.59,-5.04 2.17,-4.78 2.75,-4.51 3.25,-4.12 3.75,-3.72 4.14,-3.22 4.53,-2.72 4.53,-2.72 L 4.53,-2.72 Z"></path></g><g transform="translate(267.6904371622277 79.32049152767495) rotate(0 8.695901587690571 14.1308400799972)" stroke="none"><path fill="#076678" d="M 4.19,-3.14 Q 4.19,-3.14 5.19,-1.94 6.20,-0.74 7.62,1.11 9.05,2.96 10.22,5.18 11.39,7.39 13.63,10.28 15.86,13.17 17.16,15.51 18.46,17.86 20.08,20.58 21.70,23.31 22.68,24.50 23.66,25.69 23.90,26.76 24.15,27.83 24.04,28.92 23.93,30.01 23.48,31.01 23.03,32.01 22.28,32.81 21.53,33.61 20.57,34.13 19.61,34.66 18.53,34.84 17.45,35.03 16.36,34.86 15.28,34.69 14.31,34.19 13.34,33.69 12.58,32.90 11.81,32.11 11.35,31.12 10.88,30.13 10.75,29.04 10.62,27.95 10.85,26.88 11.07,25.81 11.63,24.86 12.19,23.92 13.01,23.20 13.84,22.48 14.86,22.07 15.87,21.65 16.97,21.59 18.06,21.52 19.12,21.80 20.18,22.08 21.09,22.69 22.00,23.30 22.67,24.16 23.34,25.03 23.70,26.07 24.06,27.10 24.07,28.20 24.08,29.29 23.74,30.34 23.40,31.38 22.74,32.25 22.09,33.13 21.19,33.76 20.28,34.38 19.23,34.68 18.18,34.98 17.08,34.93 15.99,34.88 14.97,34.49 13.95,34.09 13.10,33.39 12.26,32.69 11.69,31.75 11.12,30.82 11.12,30.82 11.12,30.82 10.97,29.19 10.83,27.57 8.77,24.66 6.72,21.76 5.03,18.45 3.33,15.13 1.66,12.50 0.00,9.87 -1.22,7.80 -2.45,5.74 -3.32,4.44 -4.19,3.14 -4.51,2.59 -4.82,2.05 -5.00,1.44 -5.17,0.83 -5.20,0.20 -5.22,-0.42 -5.09,-1.04 -4.97,-1.66 -4.70,-2.23 -4.42,-2.80 -4.02,-3.29 -3.62,-3.78 -3.12,-4.16 -2.61,-4.54 -2.03,-4.79 -1.45,-5.03 -0.82,-5.13 -0.20,-5.23 0.42,-5.18 1.05,-5.13 1.65,-4.93 2.25,-4.73 2.78,-4.39 3.32,-4.05 3.75,-3.60 4.19,-3.14 4.19,-3.14 L 4.19,-3.14 Z"></path></g><g transform="translate(295.9521173222221 77.14651613075232) rotate(0 9.239395436921257 16.304815476919828)" stroke="none"><path fill="#076678" d="M 4.24,-3.03 Q 4.24,-3.03 5.80,-0.83 7.37,1.35 8.58,3.49 9.80,5.64 10.95,7.45 12.10,9.27 14.05,12.27 16.01,15.27 17.33,17.53 18.66,19.80 19.95,22.15 21.25,24.50 21.76,25.74 22.26,26.98 23.06,27.74 23.86,28.49 24.38,29.46 24.89,30.42 25.07,31.51 25.25,32.59 25.08,33.67 24.90,34.75 24.39,35.72 23.88,36.69 23.09,37.45 22.29,38.21 21.30,38.67 20.30,39.13 19.21,39.25 18.12,39.37 17.05,39.14 15.98,38.91 15.04,38.35 14.10,37.78 13.39,36.95 12.67,36.11 12.27,35.10 11.86,34.08 11.79,32.98 11.73,31.89 12.02,30.83 12.31,29.77 12.93,28.86 13.54,27.95 14.41,27.29 15.28,26.62 16.32,26.27 17.36,25.92 18.46,25.91 19.55,25.91 20.59,26.26 21.63,26.61 22.51,27.27 23.38,27.93 24.00,28.84 24.62,29.74 24.92,30.80 25.21,31.86 25.15,32.95 25.10,34.05 24.69,35.07 24.29,36.09 23.58,36.92 22.87,37.76 21.94,38.33 21.00,38.90 19.93,39.13 18.86,39.37 17.77,39.26 16.68,39.14 15.68,38.68 14.68,38.22 14.68,38.22 14.68,38.23 13.13,35.50 11.58,32.78 9.96,29.77 8.33,26.77 7.44,24.15 6.55,21.54 4.63,18.99 2.70,16.44 1.75,14.37 0.79,12.29 -0.16,9.84 -1.12,7.39 -2.68,5.21 -4.24,3.03 -4.54,2.47 -4.84,1.92 -5.00,1.31 -5.16,0.71 -5.17,0.08 -5.18,-0.54 -5.04,-1.15 -4.90,-1.77 -4.62,-2.33 -4.33,-2.89 -3.92,-3.36 -3.51,-3.84 -3.00,-4.21 -2.49,-4.57 -1.91,-4.80 -1.32,-5.04 -0.70,-5.12 -0.08,-5.21 0.54,-5.14 1.16,-5.08 1.75,-4.86 2.34,-4.65 2.87,-4.30 3.39,-3.95 3.81,-3.49 4.24,-3.02 4.24,-3.02 L 4.24,-3.03 Z"></path></g><g stroke-linecap="round"><g transform="translate(725.4240249313559 10) rotate(0 0 28.261680159994363)"><path d="M0 0 C0 9.42, 0 47.1, 0 56.52 M0 0 C0 9.42, 0 47.1, 0 56.52" stroke="#076678" stroke-width="2" fill="none"></path></g></g><mask></mask><g stroke-linecap="round" transform="translate(595.3852282303816 10.846998744621715) rotate(0 171.63636363636368 27.499999999999922)"><path d="M0 0 C130.11 0, 260.22 0, 343.27 0 M0 0 C101.01 0, 202.02 0, 343.27 0 M343.27 0 C343.27 12.46, 343.27 24.92, 343.27 55 M343.27 0 C343.27 16.35, 343.27 32.7, 343.27 55 M343.27 55 C250.82 55, 158.37 55, 0 55 M343.27 55 C207.74 55, 72.21 55, 0 55 M0 55 C0 41.31, 0 27.62, 0 0 M0 55 C0 37.67, 0 20.33, 0 0" stroke="#d65d0e" stroke-width="4" fill="none"></path></g><g transform="translate(629.4429093349596 22.848356235707854) rotate(0 -6.081415395933448 16.986022312779703)" stroke="none"><path fill="#d65d0e" d="M 2.42,0.60 Q 2.42,0.60 2.05,2.05 1.68,3.49 0.88,5.57 0.08,7.65 -0.26,8.91 -0.61,10.17 -0.84,11.25 -1.06,12.33 -1.45,13.84 -1.84,15.34 -2.22,16.83 -2.61,18.33 -3.62,20.87 -4.64,23.42 -5.50,25.18 -6.36,26.94 -6.92,28.11 -7.48,29.28 -8.00,30.57 -8.53,31.86 -9.02,33.02 -9.51,34.18 -9.63,34.59 -9.76,35.00 -10.00,35.35 -10.25,35.70 -10.60,35.96 -10.95,36.21 -11.36,36.34 -11.77,36.46 -12.20,36.45 -12.63,36.44 -13.04,36.30 -13.44,36.15 -13.78,35.88 -14.11,35.61 -14.34,35.25 -14.58,34.89 -14.68,34.47 -14.79,34.06 -14.75,33.63 -14.72,33.20 -14.55,32.80 -14.38,32.41 -14.10,32.09 -13.81,31.77 -13.44,31.55 -13.06,31.34 -12.64,31.26 -12.22,31.18 -11.79,31.23 -11.37,31.29 -10.98,31.48 -10.60,31.67 -10.29,31.97 -9.99,32.27 -9.79,32.66 -9.60,33.04 -9.54,33.47 -9.48,33.90 -9.56,34.32 -9.64,34.74 -9.85,35.12 -10.06,35.49 -10.38,35.78 -10.70,36.07 -11.10,36.24 -11.49,36.41 -11.92,36.44 -12.35,36.48 -12.76,36.38 -13.18,36.28 -13.55,36.05 -13.91,35.82 -14.18,35.48 -14.45,35.15 -14.60,34.74 -14.75,34.34 -14.76,33.91 -14.77,33.48 -14.77,33.48 -14.77,33.48 -14.14,31.81 -13.51,30.13 -12.67,28.59 -11.84,27.05 -11.29,26.04 -10.73,25.04 -10.11,23.38 -9.48,21.73 -8.95,19.86 -8.41,17.99 -7.93,16.85 -7.45,15.71 -7.09,14.71 -6.72,13.71 -6.18,12.44 -5.63,11.17 -5.28,9.99 -4.93,8.81 -4.50,7.59 -4.07,6.37 -3.60,4.33 -3.12,2.29 -2.77,0.84 -2.42,-0.60 -2.31,-0.88 -2.21,-1.16 -2.03,-1.41 -1.86,-1.66 -1.63,-1.86 -1.41,-2.06 -1.14,-2.20 -0.87,-2.34 -0.58,-2.41 -0.29,-2.48 0.00,-2.48 0.30,-2.48 0.60,-2.40 0.89,-2.33 1.16,-2.19 1.42,-2.05 1.65,-1.85 1.87,-1.65 2.04,-1.40 2.21,-1.15 2.32,-0.87 2.42,-0.59 2.46,-0.29 2.50,0.00 2.46,0.30 2.42,0.60 2.42,0.60 L 2.42,0.60 Z"></path></g><g transform="translate(660.8985062104776 24.1065801107286) rotate(0 -6.710527333443849 15.51809445858887)" stroke="none"><path fill="#d65d0e" d="M 1.95,1.15 Q 1.95,1.15 0.64,3.13 -0.66,5.12 -1.70,7.08 -2.74,9.04 -3.06,10.12 -3.37,11.20 -3.73,12.32 -4.09,13.43 -4.97,15.42 -5.86,17.40 -6.26,18.47 -6.66,19.55 -7.17,20.81 -7.67,22.07 -7.99,23.42 -8.32,24.77 -8.78,25.84 -9.24,26.91 -9.43,28.09 -9.62,29.27 -9.80,30.55 -9.98,31.84 -10.12,32.15 -10.26,32.46 -10.47,32.73 -10.67,33.00 -10.94,33.21 -11.21,33.42 -11.52,33.56 -11.83,33.70 -12.16,33.77 -12.50,33.83 -12.84,33.81 -13.17,33.79 -13.50,33.69 -13.83,33.59 -14.12,33.42 -14.41,33.24 -14.65,33.00 -14.89,32.76 -15.07,32.47 -15.25,32.18 -15.35,31.86 -15.45,31.53 -15.47,31.20 -15.50,30.86 -15.44,30.52 -15.38,30.19 -13.35,29.36 -11.33,28.54 -10.97,28.82 -10.61,29.10 -10.36,29.48 -10.11,29.86 -9.99,30.30 -9.87,30.74 -9.90,31.19 -9.93,31.65 -10.10,32.07 -10.28,32.49 -10.58,32.84 -10.88,33.18 -11.27,33.42 -11.66,33.65 -12.11,33.74 -12.56,33.83 -13.01,33.78 -13.46,33.72 -13.88,33.53 -14.29,33.33 -14.62,33.01 -14.94,32.70 -15.15,32.29 -15.36,31.88 -15.43,31.43 -15.50,30.98 -15.42,30.53 -15.34,30.08 -15.12,29.68 -14.91,29.28 -14.57,28.97 -14.24,28.66 -13.82,28.47 -13.40,28.29 -12.95,28.24 -12.49,28.20 -12.05,28.30 -11.60,28.40 -11.22,28.64 -10.83,28.88 -10.54,29.23 -10.24,29.59 -10.08,30.01 -9.92,30.44 -9.90,30.89 -9.88,31.35 -10.00,31.79 -10.13,32.23 -10.39,32.60 -10.65,32.98 -11.02,33.25 -11.39,33.52 -11.82,33.66 -12.25,33.80 -12.71,33.80 -13.17,33.79 -11.57,32.82 -9.98,31.84 -10.12,32.15 -10.26,32.46 -10.47,32.73 -10.67,33.00 -10.94,33.21 -11.21,33.42 -11.52,33.56 -11.83,33.70 -12.16,33.77 -12.50,33.83 -12.83,33.81 -13.17,33.79 -13.50,33.69 -13.82,33.59 -14.12,33.42 -14.41,33.24 -14.65,33.00 -14.89,32.76 -15.07,32.47 -15.25,32.18 -15.35,31.86 -15.45,31.53 -15.47,31.20 -15.50,30.86 -15.44,30.52 -15.38,30.19 -15.18,28.91 -14.98,27.62 -14.55,26.40 -14.11,25.17 -13.47,24.09 -12.83,23.02 -12.24,21.68 -11.65,20.33 -10.54,18.17 -9.44,16.02 -8.76,13.95 -8.07,11.88 -7.59,10.84 -7.11,9.79 -6.58,8.63 -6.05,7.46 -5.10,5.26 -4.15,3.07 -3.05,0.96 -1.95,-1.15 -1.79,-1.36 -1.62,-1.58 -1.41,-1.75 -1.19,-1.93 -0.95,-2.04 -0.70,-2.16 -0.43,-2.21 -0.16,-2.26 0.10,-2.25 0.38,-2.24 0.64,-2.16 0.90,-2.08 1.14,-1.94 1.38,-1.80 1.57,-1.61 1.77,-1.42 1.91,-1.19 2.06,-0.95 2.14,-0.69 2.23,-0.43 2.25,-0.16 2.27,0.11 2.22,0.38 2.17,0.65 2.06,0.90 1.95,1.15 1.95,1.15 L 1.95,1.15 Z"></path></g><g transform="translate(688.1600235025933 24.1065801107286) rotate(0 -6.500823354273734 17.405430271119933)" stroke="none"><path fill="#d65d0e" d="M 2.31,0.77 Q 2.31,0.77 1.63,2.55 0.94,4.33 0.43,5.91 -0.07,7.49 -0.70,9.68 -1.33,11.88 -1.73,13.32 -2.13,14.77 -2.89,17.10 -3.65,19.43 -4.29,21.02 -4.94,22.61 -5.66,23.91 -6.38,25.21 -7.00,26.38 -7.62,27.55 -8.11,28.54 -8.60,29.53 -9.01,30.54 -9.42,31.54 -9.59,32.99 -9.76,34.44 -9.86,34.78 -9.96,35.12 -10.13,35.42 -10.31,35.73 -10.55,35.98 -10.80,36.24 -11.09,36.42 -11.39,36.61 -11.73,36.72 -12.06,36.83 -12.41,36.86 -12.76,36.89 -13.11,36.83 -13.46,36.78 -13.78,36.64 -14.10,36.50 -14.38,36.29 -14.66,36.08 -14.89,35.80 -15.11,35.53 -15.26,35.21 -15.41,34.90 -15.48,34.55 -15.55,34.21 -15.54,33.85 -15.52,33.50 -13.76,32.31 -12.01,31.13 -11.57,31.30 -11.13,31.48 -10.77,31.78 -10.41,32.09 -10.17,32.50 -9.93,32.90 -9.83,33.36 -9.73,33.82 -9.78,34.29 -9.83,34.76 -10.03,35.19 -10.23,35.62 -10.56,35.96 -10.88,36.30 -11.30,36.52 -11.72,36.74 -12.18,36.82 -12.65,36.89 -13.11,36.81 -13.58,36.74 -14.00,36.51 -14.41,36.29 -14.74,35.95 -15.06,35.61 -15.26,35.18 -15.46,34.75 -15.51,34.28 -15.55,33.81 -15.45,33.35 -15.35,32.89 -15.10,32.48 -14.86,32.08 -14.50,31.77 -14.14,31.47 -13.70,31.30 -13.26,31.12 -12.79,31.10 -12.32,31.07 -11.86,31.20 -11.41,31.33 -11.02,31.59 -10.63,31.86 -10.34,32.24 -10.06,32.61 -9.91,33.06 -9.76,33.51 -9.76,33.98 -9.76,34.45 -9.91,34.90 -10.07,35.35 -10.35,35.72 -10.64,36.10 -11.03,36.36 -11.42,36.63 -11.88,36.75 -12.33,36.88 -11.05,35.66 -9.76,34.44 -9.86,34.78 -9.96,35.12 -10.13,35.42 -10.31,35.73 -10.55,35.98 -10.80,36.24 -11.09,36.42 -11.39,36.61 -11.73,36.72 -12.06,36.83 -12.41,36.86 -12.76,36.89 -13.11,36.83 -13.46,36.78 -13.78,36.64 -14.10,36.50 -14.38,36.29 -14.66,36.08 -14.89,35.80 -15.11,35.53 -15.26,35.21 -15.41,34.90 -15.48,34.55 -15.55,34.21 -15.54,33.85 -15.52,33.50 -15.13,31.61 -14.75,29.73 -14.06,28.40 -13.37,27.08 -12.83,26.08 -12.30,25.08 -11.65,23.84 -11.00,22.59 -10.43,21.63 -9.87,20.66 -9.09,19.19 -8.32,17.71 -7.53,15.62 -6.73,13.53 -6.33,11.99 -5.92,10.46 -5.12,8.32 -4.32,6.18 -3.84,4.54 -3.35,2.90 -2.83,1.06 -2.31,-0.77 -2.19,-1.03 -2.06,-1.30 -1.87,-1.53 -1.69,-1.76 -1.45,-1.93 -1.22,-2.11 -0.95,-2.22 -0.68,-2.34 -0.38,-2.39 -0.09,-2.43 0.19,-2.41 0.48,-2.39 0.76,-2.29 1.04,-2.20 1.29,-2.04 1.54,-1.89 1.74,-1.67 1.95,-1.46 2.09,-1.21 2.24,-0.95 2.32,-0.67 2.40,-0.39 2.42,-0.09 2.43,0.19 2.37,0.48 2.31,0.77 2.31,0.77 L 2.31,0.77 Z"></path></g><g transform="translate(718.7768044614306 22.009540319027394) rotate(0 -6.920231312613851 17.82483822946019)" stroke="none"><path fill="#d65d0e" d="M 2.28,0.65 Q 2.28,0.65 1.18,3.99 0.09,7.33 -1.16,10.48 -2.41,13.64 -2.85,15.17 -3.29,16.70 -3.70,17.94 -4.10,19.18 -4.63,20.47 -5.16,21.76 -5.86,23.58 -6.55,25.41 -6.89,26.45 -7.22,27.49 -7.61,28.54 -8.01,29.59 -8.39,30.66 -8.77,31.74 -9.67,33.95 -10.57,36.17 -10.72,36.50 -10.87,36.84 -11.10,37.13 -11.33,37.41 -11.62,37.64 -11.91,37.86 -12.24,38.01 -12.58,38.16 -12.94,38.23 -13.30,38.29 -13.67,38.27 -14.03,38.25 -14.38,38.13 -14.73,38.02 -15.05,37.83 -15.36,37.64 -15.62,37.38 -15.88,37.12 -16.07,36.80 -16.26,36.49 -16.36,36.14 -16.47,35.79 -16.49,35.42 -16.51,35.05 -16.44,34.69 -16.38,34.33 -15.08,33.28 -13.78,32.22 -13.29,32.25 -12.79,32.28 -12.34,32.47 -11.88,32.65 -11.51,32.97 -11.13,33.30 -10.88,33.72 -10.63,34.14 -10.53,34.63 -10.43,35.11 -10.48,35.60 -10.54,36.09 -10.75,36.53 -10.96,36.98 -11.30,37.34 -11.65,37.69 -12.08,37.92 -12.52,38.15 -13.01,38.22 -13.50,38.30 -13.98,38.21 -14.47,38.13 -14.90,37.90 -15.33,37.66 -15.67,37.30 -16.01,36.94 -16.21,36.49 -16.41,36.04 -16.46,35.55 -16.51,35.06 -16.40,34.58 -16.29,34.10 -16.04,33.68 -15.78,33.26 -15.40,32.94 -15.02,32.63 -14.56,32.45 -14.10,32.27 -13.61,32.25 -13.12,32.22 -12.64,32.36 -12.17,32.50 -11.76,32.78 -11.36,33.06 -11.06,33.45 -10.77,33.84 -10.61,34.31 -10.46,34.78 -10.46,35.27 -10.47,35.77 -10.63,36.23 -10.79,36.70 -11.09,37.09 -11.39,37.48 -11.80,37.75 -12.21,38.03 -11.39,37.10 -10.57,36.17 -10.72,36.50 -10.87,36.84 -11.10,37.13 -11.33,37.41 -11.62,37.64 -11.91,37.86 -12.24,38.01 -12.58,38.16 -12.94,38.23 -13.30,38.29 -13.67,38.27 -14.03,38.25 -14.38,38.13 -14.73,38.02 -15.05,37.83 -15.36,37.64 -15.62,37.38 -15.88,37.12 -16.07,36.80 -16.26,36.49 -16.36,36.14 -16.47,35.79 -16.49,35.42 -16.51,35.05 -16.44,34.69 -16.38,34.33 -15.79,33.04 -15.19,31.74 -14.65,30.46 -14.11,29.17 -13.32,27.69 -12.53,26.21 -11.99,25.11 -11.44,24.01 -10.73,23.04 -10.03,22.07 -9.58,21.01 -9.14,19.95 -8.56,18.81 -7.99,17.67 -7.50,16.62 -7.02,15.56 -6.49,13.95 -5.97,12.35 -4.96,9.26 -3.94,6.17 -3.11,2.76 -2.28,-0.65 -2.17,-0.91 -2.06,-1.18 -1.89,-1.41 -1.72,-1.64 -1.50,-1.82 -1.27,-2.00 -1.02,-2.13 -0.76,-2.25 -0.48,-2.31 -0.20,-2.37 0.08,-2.36 0.37,-2.35 0.64,-2.27 0.92,-2.19 1.17,-2.05 1.42,-1.90 1.63,-1.70 1.83,-1.51 1.99,-1.26 2.14,-1.02 2.23,-0.75 2.32,-0.48 2.35,-0.19 2.37,0.08 2.33,0.37 2.28,0.65 2.28,0.65 L 2.28,0.65 Z"></path></g><g transform="translate(748.9741774619281 24.1065801107286) rotate(0 -5.6620074375932745 16.147206396099214)" stroke="none"><path fill="#d65d0e" d="M 2.28,0.68 Q 2.28,0.68 1.95,1.90 1.61,3.11 1.04,5.28 0.47,7.46 0.05,9.06 -0.36,10.65 -0.71,11.91 -1.06,13.16 -1.86,15.23 -2.67,17.30 -3.04,18.48 -3.40,19.67 -3.95,21.05 -4.49,22.43 -4.93,23.60 -5.38,24.78 -5.76,25.95 -6.15,27.12 -6.61,28.21 -7.08,29.30 -7.80,31.13 -8.52,32.96 -8.73,33.38 -8.93,33.80 -9.26,34.13 -9.59,34.46 -10.00,34.66 -10.42,34.87 -10.88,34.93 -11.34,35.00 -11.80,34.91 -12.25,34.82 -12.66,34.60 -13.06,34.37 -13.37,34.02 -13.69,33.68 -13.87,33.25 -14.06,32.83 -14.09,32.36 -14.13,31.90 -14.02,31.45 -13.91,31.00 -13.66,30.61 -13.41,30.21 -13.05,29.92 -12.69,29.63 -12.25,29.47 -11.82,29.31 -11.35,29.29 -10.89,29.28 -10.44,29.42 -10.00,29.55 -9.62,29.82 -9.24,30.09 -8.97,30.47 -8.70,30.85 -8.56,31.29 -8.42,31.73 -8.44,32.20 -8.45,32.66 -8.61,33.10 -8.77,33.53 -9.06,33.90 -9.35,34.26 -9.74,34.51 -10.13,34.76 -10.58,34.88 -11.03,34.99 -11.49,34.95 -11.96,34.92 -12.38,34.73 -12.81,34.55 -13.16,34.24 -13.50,33.93 -13.73,33.53 -13.96,33.12 -14.05,32.67 -14.14,32.21 -14.08,31.75 -14.02,31.29 -14.02,31.29 -14.02,31.29 -13.12,29.07 -12.22,26.84 -11.68,25.84 -11.13,24.83 -10.58,23.88 -10.02,22.93 -9.53,21.78 -9.04,20.62 -8.53,19.35 -8.02,18.08 -7.62,17.01 -7.21,15.94 -6.76,13.82 -6.31,11.71 -5.98,10.50 -5.64,9.29 -5.04,7.60 -4.44,5.92 -3.75,3.81 -3.06,1.70 -2.67,0.51 -2.28,-0.68 -2.17,-0.94 -2.05,-1.21 -1.88,-1.44 -1.70,-1.67 -1.48,-1.85 -1.25,-2.03 -0.99,-2.15 -0.73,-2.27 -0.45,-2.32 -0.16,-2.38 0.11,-2.36 0.40,-2.35 0.68,-2.27 0.95,-2.18 1.20,-2.04 1.45,-1.89 1.65,-1.69 1.86,-1.49 2.01,-1.24 2.16,-1.00 2.25,-0.72 2.34,-0.45 2.36,-0.16 2.38,0.11 2.33,0.40 2.28,0.68 2.28,0.68 L 2.28,0.68 Z"></path></g><g transform="translate(779.1715504624256 22.848356235707854) rotate(0 -5.032895500082873 15.937502416929128)" stroke="none"><path fill="#d65d0e" d="M 2.29,0 Q 2.29,0 2.31,1.44 2.32,2.89 2.13,5.29 1.94,7.70 1.23,10.28 0.51,12.85 -0.45,14.96 -1.43,17.06 -2.16,18.69 -2.90,20.31 -3.24,21.34 -3.59,22.37 -4.13,23.53 -4.67,24.69 -4.96,26.09 -5.25,27.50 -5.84,28.85 -6.43,30.20 -6.88,31.43 -7.32,32.66 -7.57,33.04 -7.81,33.43 -8.17,33.71 -8.53,34.00 -8.96,34.16 -9.39,34.32 -9.85,34.33 -10.30,34.34 -10.74,34.20 -11.18,34.07 -11.55,33.80 -11.92,33.53 -12.19,33.16 -12.45,32.79 -12.59,32.35 -12.72,31.91 -12.71,31.46 -12.69,31.00 -12.54,30.57 -12.38,30.14 -12.09,29.78 -11.80,29.43 -11.42,29.18 -11.03,28.93 -10.59,28.83 -10.14,28.72 -9.68,28.75 -9.23,28.79 -8.81,28.97 -8.39,29.15 -8.05,29.46 -7.71,29.77 -7.48,30.17 -7.26,30.57 -7.17,31.01 -7.09,31.46 -7.15,31.92 -7.21,32.37 -7.42,32.78 -7.62,33.19 -7.95,33.51 -8.27,33.84 -8.68,34.04 -9.09,34.24 -9.54,34.30 -10.00,34.36 -10.45,34.28 -10.90,34.19 -11.30,33.96 -11.69,33.74 -12.00,33.40 -12.30,33.05 -12.48,32.63 -12.66,32.21 -12.70,31.76 -12.74,31.30 -12.62,30.86 -12.51,30.41 -12.51,30.41 -12.51,30.41 -11.79,28.76 -11.06,27.11 -10.48,26.15 -9.89,25.20 -9.36,23.87 -8.83,22.54 -8.29,21.62 -7.75,20.69 -7.26,19.65 -6.77,18.60 -6.10,17.05 -5.43,15.49 -4.81,13.53 -4.19,11.56 -3.55,9.19 -2.91,6.82 -2.61,4.85 -2.32,2.89 -2.31,1.44 -2.29,0 -2.26,-0.27 -2.22,-0.54 -2.13,-0.80 -2.03,-1.06 -1.87,-1.29 -1.71,-1.52 -1.51,-1.70 -1.30,-1.88 -1.05,-2.01 -0.81,-2.14 -0.54,-2.21 -0.27,-2.27 0.00,-2.27 0.27,-2.27 0.54,-2.21 0.81,-2.14 1.05,-2.01 1.30,-1.88 1.51,-1.70 1.71,-1.52 1.87,-1.29 2.03,-1.06 2.13,-0.80 2.22,-0.54 2.26,-0.27 2.29,0.00 2.29,0.00 L 2.29,0 Z"></path></g><g transform="translate(809.3689234629226 23.68717215238837) rotate(0 -6.081415395933391 16.35691037526933)" stroke="none"><path fill="#d65d0e" d="M 2.06,0.77 Q 2.06,0.77 1.76,1.76 1.45,2.74 1.10,3.86 0.76,4.98 0.18,6.77 -0.38,8.56 -1.44,10.50 -2.50,12.43 -3.28,14.13 -4.06,15.82 -4.81,17.78 -5.56,19.75 -6.06,21.18 -6.56,22.61 -6.84,23.97 -7.13,25.32 -7.58,27.00 -8.03,28.67 -9.19,31.64 -10.35,34.60 -10.71,34.83 -11.07,35.05 -11.48,35.15 -11.89,35.24 -12.31,35.20 -12.73,35.16 -13.12,34.99 -13.51,34.82 -13.82,34.53 -14.13,34.25 -14.33,33.88 -14.54,33.50 -14.61,33.09 -14.69,32.67 -14.62,32.25 -14.56,31.83 -14.37,31.46 -14.18,31.08 -13.87,30.78 -13.57,30.49 -13.19,30.31 -12.81,30.12 -12.39,30.07 -11.97,30.02 -11.55,30.10 -11.14,30.19 -10.77,30.40 -10.41,30.61 -10.13,30.93 -9.85,31.25 -9.69,31.64 -9.52,32.03 -9.50,32.46 -9.47,32.88 -9.57,33.29 -9.68,33.70 -9.91,34.05 -10.15,34.40 -10.48,34.67 -10.81,34.93 -11.21,35.07 -11.61,35.21 -12.03,35.21 -12.46,35.22 -12.86,35.09 -13.26,34.96 -13.60,34.71 -13.94,34.46 -14.19,34.11 -14.43,33.77 -14.55,33.36 -14.67,32.95 -14.65,32.53 -14.63,32.11 -14.48,31.71 -14.33,31.32 -14.06,30.99 -13.79,30.66 -13.79,30.66 -13.79,30.66 -13.29,28.88 -12.79,27.09 -12.15,25.49 -11.51,23.89 -10.92,22.52 -10.33,21.16 -9.77,19.86 -9.21,18.56 -8.61,16.37 -8.02,14.18 -7.33,12.34 -6.64,10.50 -5.94,8.67 -5.25,6.84 -4.51,5.12 -3.78,3.40 -3.34,2.25 -2.90,1.11 -2.48,0.16 -2.06,-0.77 -1.94,-1.01 -1.82,-1.24 -1.64,-1.44 -1.46,-1.64 -1.25,-1.79 -1.03,-1.95 -0.78,-2.04 -0.53,-2.14 -0.27,-2.17 -0.00,-2.20 0.25,-2.17 0.52,-2.14 0.76,-2.05 1.01,-1.95 1.23,-1.80 1.45,-1.65 1.63,-1.45 1.81,-1.26 1.93,-1.02 2.06,-0.79 2.12,-0.53 2.19,-0.27 2.19,-0.00 2.19,0.25 2.12,0.51 2.06,0.77 2.06,0.77 L 2.06,0.77 Z"></path></g><g transform="translate(834.5334009633368 22.009540319027394) rotate(0 -5.6620074375932745 16.776318333609588)" stroke="none"><path fill="#d65d0e" d="M 2.40,0 Q 2.40,0 2.45,0.96 2.50,1.92 2.57,3.92 2.64,5.93 2.22,8.13 1.81,10.34 1.39,11.89 0.98,13.44 0.38,15.13 -0.21,16.82 -0.68,18.15 -1.15,19.48 -1.73,20.92 -2.32,22.35 -3.28,24.08 -4.24,25.81 -4.85,26.89 -5.46,27.96 -5.84,29.01 -6.21,30.07 -6.90,31.05 -7.58,32.02 -8.08,33.14 -8.58,34.25 -8.79,34.65 -9.00,35.06 -9.33,35.37 -9.66,35.69 -10.07,35.89 -10.48,36.08 -10.94,36.14 -11.39,36.19 -11.83,36.10 -12.28,36.00 -12.67,35.77 -13.07,35.54 -13.36,35.20 -13.66,34.85 -13.83,34.43 -14.01,34.01 -14.04,33.55 -14.07,33.10 -13.95,32.66 -13.83,32.22 -13.58,31.84 -13.33,31.46 -12.97,31.18 -12.61,30.90 -12.18,30.75 -11.75,30.60 -11.29,30.60 -10.83,30.59 -10.40,30.73 -9.97,30.87 -9.60,31.15 -9.24,31.42 -8.98,31.79 -8.72,32.17 -8.59,32.61 -8.47,33.04 -8.49,33.50 -8.51,33.95 -8.67,34.38 -8.84,34.80 -9.13,35.15 -9.42,35.50 -9.81,35.74 -10.19,35.98 -10.64,36.08 -11.08,36.19 -11.54,36.14 -11.99,36.10 -12.41,35.91 -12.82,35.72 -13.15,35.41 -13.49,35.10 -13.71,34.70 -13.92,34.30 -14.00,33.85 -14.08,33.40 -14.01,32.95 -13.94,32.50 -13.94,32.50 -13.94,32.50 -13.00,30.76 -12.07,29.01 -11.21,28.03 -10.35,27.05 -9.36,25.40 -8.37,23.74 -7.65,22.12 -6.93,20.50 -6.40,19.15 -5.87,17.80 -5.42,16.55 -4.96,15.30 -4.53,13.76 -4.09,12.22 -3.78,10.70 -3.46,9.19 -3.05,7.54 -2.64,5.90 -2.57,3.91 -2.50,1.92 -2.45,0.96 -2.40,0 -2.37,-0.28 -2.33,-0.57 -2.23,-0.84 -2.13,-1.11 -1.96,-1.35 -1.80,-1.59 -1.58,-1.78 -1.36,-1.98 -1.10,-2.11 -0.85,-2.24 -0.57,-2.31 -0.28,-2.38 0.00,-2.38 0.29,-2.38 0.57,-2.31 0.85,-2.24 1.11,-2.11 1.36,-1.97 1.58,-1.78 1.80,-1.59 1.96,-1.35 2.13,-1.11 2.23,-0.84 2.33,-0.57 2.37,-0.28 2.40,0.00 2.40,0.00 L 2.40,0 Z"></path></g><g transform="translate(861.7949182554528 20.331908485666418) rotate(0 -4.403783562572471 17.40543027111996)" stroke="none"><path fill="#d65d0e" d="M 2.42,0 Q 2.42,0 2.41,1.56 2.39,3.13 2.43,4.28 2.47,5.43 2.38,7.60 2.29,9.78 2.30,11.44 2.31,13.09 1.69,15.09 1.07,17.09 0.58,18.63 0.10,20.18 -0.66,22.58 -1.43,24.98 -1.94,26.65 -2.45,28.32 -2.90,29.65 -3.35,30.97 -4.80,33.66 -6.26,36.34 -6.60,36.68 -6.93,37.03 -7.36,37.24 -7.79,37.46 -8.26,37.53 -8.74,37.60 -9.21,37.51 -9.68,37.43 -10.10,37.19 -10.52,36.96 -10.84,36.61 -11.16,36.26 -11.36,35.82 -11.55,35.38 -11.59,34.90 -11.64,34.43 -11.53,33.96 -11.41,33.49 -11.16,33.09 -10.91,32.68 -10.54,32.38 -10.17,32.08 -9.72,31.91 -9.27,31.74 -8.79,31.72 -8.31,31.70 -7.85,31.84 -7.39,31.97 -7.00,32.25 -6.61,32.53 -6.33,32.91 -6.05,33.30 -5.90,33.75 -5.76,34.21 -5.76,34.69 -5.77,35.17 -5.93,35.62 -6.09,36.07 -6.39,36.45 -6.69,36.82 -7.09,37.08 -7.49,37.35 -7.95,37.47 -8.42,37.59 -8.89,37.55 -9.37,37.52 -9.81,37.33 -10.26,37.15 -10.61,36.83 -10.97,36.51 -11.21,36.10 -11.45,35.68 -11.55,35.22 -11.64,34.75 -11.58,34.27 -11.52,33.80 -11.31,33.36 -11.10,32.93 -11.10,32.93 -11.10,32.93 -9.92,31.13 -8.74,29.33 -8.09,27.79 -7.43,26.26 -6.78,24.64 -6.12,23.03 -5.38,20.92 -4.64,18.81 -4.22,17.24 -3.81,15.66 -3.45,14.28 -3.08,12.91 -2.93,11.14 -2.77,9.36 -2.62,7.40 -2.47,5.43 -2.43,4.28 -2.39,3.13 -2.41,1.56 -2.42,0 -2.39,-0.29 -2.35,-0.58 -2.25,-0.85 -2.15,-1.12 -1.98,-1.36 -1.81,-1.61 -1.59,-1.80 -1.37,-1.99 -1.12,-2.13 -0.86,-2.27 -0.57,-2.34 -0.29,-2.41 0.00,-2.41 0.29,-2.41 0.57,-2.34 0.86,-2.27 1.12,-2.13 1.38,-1.99 1.59,-1.80 1.81,-1.61 1.98,-1.36 2.15,-1.12 2.25,-0.85 2.35,-0.58 2.39,-0.29 2.42,0.00 2.42,0.00 L 2.42,0 Z"></path></g><g transform="translate(890.7340673809292 22.428948277367624) rotate(0 -3.774671625062183 17.82483822946019)" stroke="none"><path fill="#d65d0e" d="M 2.30,0 Q 2.30,0 2.33,1.33 2.36,2.66 2.12,4.16 1.88,5.67 1.64,7.24 1.40,8.81 1.13,10.56 0.87,12.32 0.63,14.03 0.39,15.75 0.16,17.45 -0.06,19.14 -0.28,20.83 -0.50,22.51 -0.66,23.58 -0.82,24.65 -0.82,25.73 -0.82,26.81 -1.39,29.03 -1.97,31.26 -2.45,32.60 -2.92,33.94 -4.10,35.67 -5.27,37.40 -5.63,37.69 -5.99,37.99 -6.42,38.15 -6.85,38.32 -7.32,38.33 -7.78,38.35 -8.23,38.22 -8.67,38.09 -9.05,37.82 -9.43,37.55 -9.70,37.18 -9.98,36.80 -10.12,36.36 -10.26,35.92 -10.25,35.45 -10.24,34.99 -10.09,34.55 -9.93,34.12 -9.64,33.75 -9.36,33.39 -8.97,33.13 -8.58,32.88 -8.13,32.77 -7.68,32.65 -7.22,32.68 -6.75,32.72 -6.33,32.90 -5.90,33.07 -5.55,33.38 -5.20,33.69 -4.97,34.09 -4.74,34.49 -4.65,34.95 -4.56,35.40 -4.61,35.86 -4.67,36.32 -4.87,36.74 -5.08,37.16 -5.40,37.49 -5.73,37.82 -6.14,38.03 -6.55,38.24 -7.01,38.30 -7.47,38.37 -7.93,38.29 -8.39,38.21 -8.79,37.98 -9.20,37.76 -9.51,37.41 -9.82,37.07 -10.01,36.65 -10.20,36.22 -10.24,35.76 -10.28,35.30 -10.17,34.85 -10.07,34.40 -9.82,34.00 -9.57,33.61 -9.57,33.61 -9.57,33.61 -8.67,32.15 -7.78,30.68 -7.04,29.32 -6.30,27.96 -5.95,26.69 -5.60,25.42 -5.17,23.70 -4.74,21.98 -4.54,20.30 -4.34,18.61 -4.15,16.91 -3.96,15.22 -3.77,13.50 -3.59,11.77 -3.42,9.97 -3.26,8.17 -3.05,6.47 -2.85,4.78 -2.60,3.71 -2.36,2.64 -2.33,1.32 -2.30,0 -2.26,-0.27 -2.23,-0.55 -2.13,-0.81 -2.03,-1.07 -1.88,-1.29 -1.72,-1.52 -1.51,-1.71 -1.30,-1.89 -1.06,-2.02 -0.81,-2.15 -0.54,-2.21 -0.27,-2.28 0.00,-2.28 0.27,-2.28 0.54,-2.21 0.81,-2.15 1.06,-2.02 1.30,-1.89 1.51,-1.71 1.72,-1.52 1.88,-1.29 2.03,-1.06 2.13,-0.81 2.23,-0.55 2.26,-0.27 2.30,0.00 2.30,0.00 L 2.30,0 Z"></path></g><g transform="translate(920.5120324230863 22.009540319027394) rotate(0 -5.032895500082759 18.453950166970536)" stroke="none"><path fill="#d65d0e" d="M 2.57,-0.18 Q 2.57,-0.18 2.63,1.50 2.70,3.20 2.63,4.78 2.56,6.37 2.46,8.05 2.36,9.73 2.23,11.54 2.09,13.34 1.73,15.17 1.37,17.00 1.04,18.05 0.71,19.10 0.12,20.78 -0.47,22.45 -1.03,24.16 -1.59,25.87 -2.32,27.68 -3.05,29.49 -3.80,31.20 -4.55,32.90 -6.05,35.16 -7.55,37.42 -7.73,37.87 -7.91,38.31 -8.22,38.68 -8.54,39.04 -8.95,39.29 -9.36,39.53 -9.83,39.64 -10.30,39.74 -10.78,39.69 -11.25,39.63 -11.69,39.43 -12.12,39.23 -12.47,38.90 -12.82,38.56 -13.04,38.14 -13.27,37.71 -13.34,37.24 -13.42,36.77 -13.34,36.29 -13.26,35.82 -13.04,35.40 -12.81,34.97 -12.46,34.64 -12.11,34.31 -11.67,34.11 -11.24,33.91 -10.76,33.86 -10.28,33.81 -9.81,33.92 -9.35,34.02 -8.93,34.27 -8.52,34.52 -8.21,34.88 -7.90,35.25 -7.73,35.70 -7.55,36.14 -7.53,36.62 -7.50,37.10 -7.63,37.57 -7.76,38.03 -8.03,38.43 -8.30,38.82 -8.69,39.11 -9.07,39.40 -9.52,39.55 -9.98,39.70 -10.46,39.70 -10.94,39.70 -11.39,39.55 -11.85,39.39 -12.23,39.10 -12.61,38.81 -12.88,38.41 -13.15,38.01 -13.28,37.55 -13.40,37.09 -13.38,36.61 -13.35,36.13 -13.35,36.13 -13.35,36.13 -11.54,33.17 -9.74,30.21 -9.05,28.74 -8.37,27.28 -7.61,25.63 -6.86,23.97 -6.22,22.48 -5.59,20.99 -5.19,19.16 -4.78,17.33 -4.27,15.84 -3.75,14.34 -3.39,12.79 -3.02,11.23 -2.92,9.91 -2.81,8.60 -2.58,7.37 -2.36,6.13 -2.29,4.84 -2.22,3.54 -2.39,1.86 -2.57,0.18 -2.55,-0.12 -2.53,-0.43 -2.45,-0.73 -2.36,-1.03 -2.20,-1.29 -2.04,-1.56 -1.82,-1.78 -1.61,-2.01 -1.34,-2.17 -1.08,-2.33 -0.78,-2.43 -0.49,-2.52 -0.18,-2.55 0.12,-2.57 0.43,-2.52 0.73,-2.46 1.02,-2.34 1.30,-2.21 1.55,-2.03 1.80,-1.84 1.99,-1.59 2.19,-1.35 2.32,-1.07 2.45,-0.79 2.51,-0.48 2.57,-0.18 2.57,-0.18 L 2.57,-0.18 Z"></path></g><g transform="translate(695.8990249650603 75.06747952920658) rotate(0 29.524999618530273 10)"><text x="59.04999923706055" y="0" font-family="Virgil, Segoe UI Emoji" font-size="16px" fill="#076678" text-anchor="end" style="white-space: pre;" direction="ltr" dominant-baseline="text-before-edge">arg_len</text></g><g transform="translate(613.4642921806075 23.917334381535795) rotate(0 7.6089138892292 14.1308400799972)" stroke="none"><path fill="#076678" d="M 4.76,-2.38 Q 4.76,-2.38 5.75,-0.52 6.73,1.32 7.98,3.65 9.22,5.98 11.25,8.96 13.27,11.95 15.15,14.36 17.03,16.78 18.44,19.28 19.84,21.78 19.35,22.27 18.85,22.75 19.61,23.51 20.36,24.26 20.84,25.22 21.31,26.17 21.46,27.23 21.60,28.28 21.40,29.33 21.20,30.38 20.68,31.31 20.15,32.24 19.36,32.95 18.57,33.66 17.59,34.09 16.61,34.51 15.55,34.60 14.48,34.68 13.45,34.43 12.41,34.17 11.51,33.60 10.61,33.02 9.95,32.19 9.28,31.36 8.91,30.36 8.54,29.36 8.51,28.30 8.48,27.23 8.79,26.21 9.10,25.19 9.73,24.32 10.35,23.46 11.21,22.83 12.08,22.21 13.10,21.90 14.12,21.58 15.18,21.61 16.25,21.64 17.25,22.00 18.25,22.37 19.08,23.04 19.92,23.71 20.49,24.60 21.07,25.50 21.32,26.54 21.58,27.57 21.50,28.64 21.41,29.70 20.99,30.68 20.57,31.66 19.86,32.45 19.15,33.25 18.22,33.77 17.29,34.30 16.24,34.50 15.20,34.70 14.14,34.56 13.08,34.42 12.13,33.94 11.17,33.47 11.17,33.47 11.17,33.47 10.17,30.79 9.16,28.11 7.59,25.16 6.02,22.21 4.36,19.39 2.70,16.57 1.00,14.07 -0.70,11.58 -1.84,8.88 -2.98,6.17 -3.87,4.27 -4.76,2.38 -4.98,1.77 -5.19,1.17 -5.26,0.53 -5.32,-0.10 -5.23,-0.74 -5.14,-1.37 -4.90,-1.97 -4.66,-2.56 -4.29,-3.09 -3.91,-3.61 -3.42,-4.02 -2.94,-4.44 -2.36,-4.73 -1.79,-5.01 -1.16,-5.16 -0.53,-5.30 0.10,-5.28 0.74,-5.27 1.36,-5.11 1.98,-4.94 2.55,-4.63 3.11,-4.32 3.58,-3.88 4.05,-3.45 4.41,-2.91 4.76,-2.38 4.76,-2.38 L 4.76,-2.38 Z"></path></g><g transform="translate(641.7259723406017 26.091309778458537) rotate(0 6.521926190767942 11.956864683074514)" stroke="none"><path fill="#076678" d="M 4.53,-2.72 Q 4.53,-2.72 5.53,-1.19 6.53,0.32 7.99,2.28 9.44,4.24 10.76,6.49 12.08,8.73 13.72,11.57 15.37,14.40 16.30,16.64 17.23,18.87 17.88,19.70 18.54,20.54 18.89,21.54 19.24,22.54 19.25,23.60 19.27,24.66 18.94,25.66 18.61,26.67 17.98,27.52 17.35,28.38 16.49,28.98 15.62,29.59 14.60,29.88 13.58,30.18 12.52,30.14 11.47,30.09 10.48,29.71 9.49,29.33 8.67,28.66 7.86,27.98 7.30,27.08 6.74,26.18 6.50,25.15 6.26,24.12 6.36,23.06 6.46,22.01 6.89,21.04 7.33,20.07 8.04,19.30 8.76,18.52 9.69,18.01 10.62,17.50 11.67,17.32 12.71,17.13 13.76,17.29 14.80,17.45 15.75,17.93 16.69,18.42 17.43,19.18 18.16,19.94 18.62,20.89 19.08,21.85 19.21,22.90 19.33,23.95 19.12,24.99 18.90,26.03 18.37,26.94 17.83,27.86 17.04,28.55 16.24,29.25 15.26,29.65 14.28,30.06 13.22,30.13 12.16,30.20 11.14,29.93 10.12,29.66 9.23,29.07 8.35,28.49 8.35,28.49 8.35,28.49 7.24,26.64 6.12,24.80 5.17,22.05 4.23,19.31 2.86,16.73 1.49,14.16 0.54,12.11 -0.39,10.06 -1.58,7.99 -2.78,5.92 -3.66,4.32 -4.53,2.72 -4.79,2.14 -5.05,1.55 -5.17,0.92 -5.28,0.30 -5.24,-0.33 -5.20,-0.97 -5.01,-1.57 -4.81,-2.18 -4.48,-2.73 -4.15,-3.27 -3.70,-3.72 -3.24,-4.17 -2.70,-4.50 -2.15,-4.83 -1.54,-5.02 -0.93,-5.20 -0.29,-5.24 0.33,-5.28 0.96,-5.16 1.59,-5.04 2.17,-4.78 2.75,-4.51 3.25,-4.12 3.75,-3.72 4.14,-3.22 4.53,-2.72 4.53,-2.72 L 4.53,-2.72 Z"></path></g><g transform="translate(668.9006648021347 23.917334381535795) rotate(0 8.695901587690571 14.1308400799972)" stroke="none"><path fill="#076678" d="M 4.19,-3.14 Q 4.19,-3.14 5.19,-1.94 6.20,-0.74 7.62,1.11 9.05,2.96 10.22,5.18 11.39,7.39 13.63,10.28 15.86,13.17 17.16,15.51 18.46,17.86 20.08,20.58 21.70,23.31 22.61,24.39 23.52,25.47 23.76,26.53 24.00,27.59 23.90,28.67 23.79,29.76 23.34,30.75 22.89,31.74 22.15,32.54 21.41,33.33 20.45,33.85 19.49,34.37 18.42,34.56 17.35,34.74 16.27,34.58 15.20,34.41 14.23,33.91 13.26,33.41 12.51,32.62 11.75,31.84 11.29,30.86 10.82,29.87 10.69,28.79 10.56,27.71 10.79,26.64 11.01,25.58 11.57,24.64 12.12,23.70 12.94,22.99 13.77,22.28 14.77,21.87 15.78,21.46 16.87,21.39 17.96,21.32 19.01,21.60 20.06,21.88 20.97,22.48 21.87,23.09 22.54,23.95 23.21,24.81 23.56,25.84 23.92,26.87 23.93,27.96 23.94,29.04 23.60,30.08 23.26,31.11 22.61,31.99 21.96,32.86 21.06,33.48 20.17,34.10 19.12,34.40 18.07,34.70 16.99,34.65 15.90,34.60 14.88,34.20 13.87,33.81 13.03,33.11 12.20,32.42 11.63,31.49 11.06,30.56 11.06,30.56 11.06,30.56 10.94,29.06 10.83,27.57 8.77,24.66 6.72,21.76 5.03,18.45 3.33,15.13 1.66,12.50 0.00,9.87 -1.22,7.80 -2.45,5.74 -3.32,4.44 -4.19,3.14 -4.51,2.59 -4.82,2.05 -5.00,1.44 -5.17,0.83 -5.20,0.20 -5.22,-0.42 -5.09,-1.04 -4.97,-1.66 -4.70,-2.23 -4.42,-2.80 -4.02,-3.29 -3.62,-3.78 -3.12,-4.16 -2.61,-4.54 -2.03,-4.79 -1.45,-5.03 -0.82,-5.13 -0.20,-5.23 0.42,-5.18 1.05,-5.13 1.65,-4.93 2.25,-4.73 2.78,-4.39 3.32,-4.05 3.75,-3.60 4.19,-3.14 4.19,-3.14 L 4.19,-3.14 Z"></path></g><g transform="translate(697.1623449621295 21.743358984613167) rotate(0 9.239395436921313 16.304815476919828)" stroke="none"><path fill="#076678" d="M 4.24,-3.03 Q 4.24,-3.03 5.80,-0.83 7.37,1.35 8.58,3.49 9.80,5.64 10.95,7.45 12.10,9.27 14.05,12.27 16.01,15.27 17.33,17.53 18.66,19.80 19.95,22.15 21.25,24.50 21.65,25.67 22.05,26.85 22.85,27.61 23.65,28.36 24.16,29.32 24.68,30.29 24.86,31.37 25.04,32.45 24.86,33.53 24.69,34.61 24.18,35.58 23.67,36.55 22.88,37.31 22.08,38.06 21.09,38.52 20.10,38.99 19.01,39.11 17.92,39.23 16.85,38.99 15.78,38.76 14.84,38.20 13.90,37.64 13.19,36.80 12.48,35.97 12.07,34.95 11.66,33.94 11.60,32.85 11.54,31.75 11.83,30.70 12.12,29.64 12.73,28.73 13.34,27.82 14.21,27.16 15.08,26.49 16.12,26.14 17.16,25.79 18.25,25.79 19.35,25.78 20.39,26.13 21.43,26.48 22.30,27.14 23.17,27.80 23.79,28.71 24.41,29.61 24.70,30.66 25.00,31.72 24.94,32.81 24.88,33.91 24.48,34.93 24.08,35.94 23.37,36.78 22.66,37.62 21.73,38.18 20.79,38.75 19.72,38.99 18.65,39.23 17.56,39.11 16.47,38.99 15.48,38.54 14.48,38.08 14.48,38.08 14.49,38.08 13.03,35.43 11.58,32.78 9.96,29.77 8.33,26.77 7.44,24.15 6.55,21.54 4.63,18.99 2.70,16.44 1.75,14.37 0.79,12.29 -0.16,9.84 -1.12,7.39 -2.68,5.21 -4.24,3.03 -4.54,2.47 -4.84,1.92 -5.00,1.31 -5.16,0.71 -5.17,0.08 -5.18,-0.54 -5.04,-1.15 -4.90,-1.77 -4.62,-2.33 -4.33,-2.89 -3.92,-3.36 -3.51,-3.84 -3.00,-4.21 -2.49,-4.57 -1.91,-4.80 -1.32,-5.04 -0.70,-5.12 -0.08,-5.21 0.54,-5.14 1.16,-5.08 1.75,-4.86 2.34,-4.65 2.87,-4.30 3.39,-3.95 3.81,-3.49 4.24,-3.02 4.24,-3.02 L 4.24,-3.03 Z"></path></g><g stroke-linecap="round"><g transform="translate(260.0815232729984 56.49374985998729) rotate(0 164.29932475994377 -9.089185926222335)"><path d="M0.63 1.2 C26.33 -1.56, 99.75 -12.68, 154.49 -16.11 C209.23 -19.54, 300.07 -19, 329.09 -19.38 M-0.49 0.78 C25.54 -1.89, 101.92 -11.82, 156.7 -15.04 C211.48 -18.26, 299.55 -18.17, 328.19 -18.53" stroke="#076678" stroke-width="2" fill="none"></path></g><g transform="translate(260.0815232729984 56.49374985998729) rotate(0 164.29932475994377 -9.089185926222335)"><path d="M302.07 -9.64 C307.75 -12.07, 316.95 -16.27, 328.4 -17.01 M299.29 -8.11 C307.28 -10.43, 315.11 -13.94, 327.97 -17.95" stroke="#076678" stroke-width="2" fill="none"></path></g><g transform="translate(260.0815232729984 56.49374985998729) rotate(0 164.29932475994377 -9.089185926222335)"><path d="M301.91 -30.16 C307.72 -25.88, 316.97 -23.35, 328.4 -17.01 M299.14 -28.63 C307.35 -25.61, 315.23 -23.77, 327.97 -17.95" stroke="#076678" stroke-width="2" fill="none"></path></g></g><mask></mask></svg>