<?xml version="1.0" encoding="utf-8"?>
<svg xmlns="http://www.w3.org/2000/svg" xmlns:xlink="http://www.w3.org/1999/xlink" xml:space="preserve" width="990" height="990" viewBox="0 0 990 990"><g fill="#edeaf3">
<g transform="translate(220,44) scale(3.7766666666667)"><circle cx="3" cy="3" r="3"/></g>
<g transform="translate(264,44) scale(3.7766666666667)"><circle cx="3" cy="3" r="3"/></g>
<g transform="translate(286,44) scale(3.7766666666667)"><circle cx="3" cy="3" r="3"/></g>
<g transform="translate(308,44) scale(3.7766666666667)"><circle cx="3" cy="3" r="3"/></g>
<g transform="translate(352,44) scale(3.7766666666667)"><circle cx="3" cy="3" r="3"/></g>
<g transform="translate(374,44) scale(3.7766666666667)"><circle cx="3" cy="3" r="3"/></g>
<g transform="translate(418,44) scale(3.7766666666667)"><circle cx="3" cy="3" r="3"/></g>
<g transform="translate(462,44) scale(3.7766666666667)"><circle cx="3" cy="3" r="3"/></g>
<g transform="translate(660,44) scale(3.7766666666667)"><circle cx="3" cy="3" r="3"/></g>
<g transform="translate(682,44) scale(3.7766666666667)"><circle cx="3" cy="3" r="3"/></g>
<g transform="translate(726,44) scale(3.7766666666667)"><circle cx="3" cy="3" r="3"/></g>
<g transform="translate(748,44) scale(3.7766666666667)"><circle cx="3" cy="3" r="3"/></g>
<g transform="translate(220,66) scale(3.7766666666667)"><circle cx="3" cy="3" r="3"/></g>
<g transform="translate(264,66) scale(3.7766666666667)"><circle cx="3" cy="3" r="3"/></g>
<g transform="translate(308,66) scale(3.7766666666667)"><circle cx="3" cy="3" r="3"/></g>
<g transform="translate(352,66) scale(3.7766666666667)"><circle cx="3" cy="3" r="3"/></g>
<g transform="translate(374,66) scale(3.7766666666667)"><circle cx="3" cy="3" r="3"/></g>
<g transform="translate(396,66) scale(3.7766666666667)"><circle cx="3" cy="3" r="3"/></g>
<g transform="translate(440,66) scale(3.7766666666667)"><circle cx="3" cy="3" r="3"/></g>
<g transform="translate(462,66) scale(3.7766666666667)"><circle cx="3" cy="3" r="3"/></g>
<g transform="translate(484,66) scale(3.7766666666667)"><circle cx="3" cy="3" r="3"/></g>
<g transform="translate(550,66) scale(3.7766666666667)"><circle cx="3" cy="3" r="3"/></g>
<g transform="translate(638,66) scale(3.7766666666667)"><circle cx="3" cy="3" r="3"/></g>
<g transform="translate(660,66) scale(3.7766666666667)"><circle cx="3" cy="3" r="3"/></g>
<g transform="translate(704,66) scale(3.7766666666667)"><circle cx="3" cy="3" r="3"/></g>
<g transform="translate(220,88) scale(3.7766666666667)"><circle cx="3" cy="3" r="3"/></g>
<g transform="translate(264,88) scale(3.7766666666667)"><circle cx="3" cy="3" r="3"/></g>
<g transform="translate(286,88) scale(3.7766666666667)"><circle cx="3" cy="3" r="3"/></g>
<g transform="translate(352,88) scale(3.7766666666667)"><circle cx="3" cy="3" r="3"/></g>
<g transform="translate(374,88) scale(3.7766666666667)"><circle cx="3" cy="3" r="3"/></g>
<g transform="translate(418,88) scale(3.7766666666667)"><circle cx="3" cy="3" r="3"/></g>
<g transform="translate(484,88) scale(3.7766666666667)"><circle cx="3" cy="3" r="3"/></g>
<g transform="translate(528,88) scale(3.7766666666667)"><circle cx="3" cy="3" r="3"/></g>
<g transform="translate(616,88) scale(3.7766666666667)"><circle cx="3" cy="3" r="3"/></g>
<g transform="translate(638,88) scale(3.7766666666667)"><circle cx="3" cy="3" r="3"/></g>
<g transform="translate(660,88) scale(3.7766666666667)"><circle cx="3" cy="3" r="3"/></g>
<g transform="translate(704,88) scale(3.7766666666667)"><circle cx="3" cy="3" r="3"/></g>
<g transform="translate(726,88) scale(3.7766666666667)"><circle cx="3" cy="3" r="3"/></g>
<g transform="translate(748,88) scale(3.7766666666667)"><circle cx="3" cy="3" r="3"/></g>
<g transform="translate(286,110) scale(3.7766666666667)"><circle cx="3" cy="3" r="3"/></g>
<g transform="translate(330,110) scale(3.7766666666667)"><circle cx="3" cy="3" r="3"/></g>
<g transform="translate(352,110) scale(3.7766666666667)"><circle cx="3" cy="3" r="3"/></g>
<g transform="translate(374,110) scale(3.7766666666667)"><circle cx="3" cy="3" r="3"/></g>
<g transform="translate(396,110) scale(3.7766666666667)"><circle cx="3" cy="3" r="3"/></g>
<g transform="translate(440,110) scale(3.7766666666667)"><circle cx="3" cy="3" r="3"/></g>
<g transform="translate(462,110) scale(3.7766666666667)"><circle cx="3" cy="3" r="3"/></g>
<g transform="translate(484,110) scale(3.7766666666667)"><circle cx="3" cy="3" r="3"/></g>
<g transform="translate(506,110) scale(3.7766666666667)"><circle cx="3" cy="3" r="3"/></g>
<g transform="translate(528,110) scale(3.7766666666667)"><circle cx="3" cy="3" r="3"/></g>
<g transform="translate(572,110) scale(3.7766666666667)"><circle cx="3" cy="3" r="3"/></g>
<g transform="translate(682,110) scale(3.7766666666667)"><circle cx="3" cy="3" r="3"/></g>
<g transform="translate(726,110) scale(3.7766666666667)"><circle cx="3" cy="3" r="3"/></g>
<g transform="translate(242,132) scale(3.7766666666667)"><circle cx="3" cy="3" r="3"/></g>
<g transform="translate(264,132) scale(3.7766666666667)"><circle cx="3" cy="3" r="3"/></g>
<g transform="translate(286,132) scale(3.7766666666667)"><circle cx="3" cy="3" r="3"/></g>
<g transform="translate(374,132) scale(3.7766666666667)"><circle cx="3" cy="3" r="3"/></g>
<g transform="translate(418,132) scale(3.7766666666667)"><circle cx="3" cy="3" r="3"/></g>
<g transform="translate(462,132) scale(3.7766666666667)"><circle cx="3" cy="3" r="3"/></g>
<g transform="translate(506,132) scale(3.7766666666667)"><circle cx="3" cy="3" r="3"/></g>
<g transform="translate(550,132) scale(3.7766666666667)"><circle cx="3" cy="3" r="3"/></g>
<g transform="translate(572,132) scale(3.7766666666667)"><circle cx="3" cy="3" r="3"/></g>
<g transform="translate(616,132) scale(3.7766666666667)"><circle cx="3" cy="3" r="3"/></g>
<g transform="translate(660,132) scale(3.7766666666667)"><circle cx="3" cy="3" r="3"/></g>
<g transform="translate(726,132) scale(3.7766666666667)"><circle cx="3" cy="3" r="3"/></g>
<g transform="translate(748,132) scale(3.7766666666667)"><circle cx="3" cy="3" r="3"/></g>
<g transform="translate(220,154) scale(3.7766666666667)"><circle cx="3" cy="3" r="3"/></g>
<g transform="translate(242,154) scale(3.7766666666667)"><circle cx="3" cy="3" r="3"/></g>
<g transform="translate(264,154) scale(3.7766666666667)"><circle cx="3" cy="3" r="3"/></g>
<g transform="translate(308,154) scale(3.7766666666667)"><circle cx="3" cy="3" r="3"/></g>
<g transform="translate(330,154) scale(3.7766666666667)"><circle cx="3" cy="3" r="3"/></g>
<g transform="translate(352,154) scale(3.7766666666667)"><circle cx="3" cy="3" r="3"/></g>
<g transform="translate(374,154) scale(3.7766666666667)"><circle cx="3" cy="3" r="3"/></g>
<g transform="translate(418,154) scale(3.7766666666667)"><circle cx="3" cy="3" r="3"/></g>
<g transform="translate(462,154) scale(3.7766666666667)"><circle cx="3" cy="3" r="3"/></g>
<g transform="translate(484,154) scale(3.7766666666667)"><circle cx="3" cy="3" r="3"/></g>
<g transform="translate(506,154) scale(3.7766666666667)"><circle cx="3" cy="3" r="3"/></g>
<g transform="translate(572,154) scale(3.7766666666667)"><circle cx="3" cy="3" r="3"/></g>
<g transform="translate(638,154) scale(3.7766666666667)"><circle cx="3" cy="3" r="3"/></g>
<g transform="translate(220,176) scale(3.7766666666667)"><circle cx="3" cy="3" r="3"/></g>
<g transform="translate(264,176) scale(3.7766666666667)"><circle cx="3" cy="3" r="3"/></g>
<g transform="translate(308,176) scale(3.7766666666667)"><circle cx="3" cy="3" r="3"/></g>
<g transform="translate(352,176) scale(3.7766666666667)"><circle cx="3" cy="3" r="3"/></g>
<g transform="translate(396,176) scale(3.7766666666667)"><circle cx="3" cy="3" r="3"/></g>
<g transform="translate(440,176) scale(3.7766666666667)"><circle cx="3" cy="3" r="3"/></g>
<g transform="translate(484,176) scale(3.7766666666667)"><circle cx="3" cy="3" r="3"/></g>
<g transform="translate(528,176) scale(3.7766666666667)"><circle cx="3" cy="3" r="3"/></g>
<g transform="translate(572,176) scale(3.7766666666667)"><circle cx="3" cy="3" r="3"/></g>
<g transform="translate(616,176) scale(3.7766666666667)"><circle cx="3" cy="3" r="3"/></g>
<g transform="translate(660,176) scale(3.7766666666667)"><circle cx="3" cy="3" r="3"/></g>
<g transform="translate(704,176) scale(3.7766666666667)"><circle cx="3" cy="3" r="3"/></g>
<g transform="translate(748,176) scale(3.7766666666667)"><circle cx="3" cy="3" r="3"/></g>
<g transform="translate(220,198) scale(3.7766666666667)"><circle cx="3" cy="3" r="3"/></g>
<g transform="translate(264,198) scale(3.7766666666667)"><circle cx="3" cy="3" r="3"/></g>
<g transform="translate(286,198) scale(3.7766666666667)"><circle cx="3" cy="3" r="3"/></g>
<g transform="translate(308,198) scale(3.7766666666667)"><circle cx="3" cy="3" r="3"/></g>
<g transform="translate(330,198) scale(3.7766666666667)"><circle cx="3" cy="3" r="3"/></g>
<g transform="translate(374,198) scale(3.7766666666667)"><circle cx="3" cy="3" r="3"/></g>
<g transform="translate(418,198) scale(3.7766666666667)"><circle cx="3" cy="3" r="3"/></g>
<g transform="translate(440,198) scale(3.7766666666667)"><circle cx="3" cy="3" r="3"/></g>
<g transform="translate(462,198) scale(3.7766666666667)"><circle cx="3" cy="3" r="3"/></g>
<g transform="translate(484,198) scale(3.7766666666667)"><circle cx="3" cy="3" r="3"/></g>
<g transform="translate(528,198) scale(3.7766666666667)"><circle cx="3" cy="3" r="3"/></g>
<g transform="translate(594,198) scale(3.7766666666667)"><circle cx="3" cy="3" r="3"/></g>
<g transform="translate(726,198) scale(3.7766666666667)"><circle cx="3" cy="3" r="3"/></g>
<g transform="translate(748,198) scale(3.7766666666667)"><circle cx="3" cy="3" r="3"/></g>
<g transform="translate(88,220) scale(3.7766666666667)"><circle cx="3" cy="3" r="3"/></g>
<g transform="translate(110,220) scale(3.7766666666667)"><circle cx="3" cy="3" r="3"/></g>
<g transform="translate(132,220) scale(3.7766666666667)"><circle cx="3" cy="3" r="3"/></g>
<g transform="translate(176,220) scale(3.7766666666667)"><circle cx="3" cy="3" r="3"/></g>
<g transform="translate(220,220) scale(3.7766666666667)"><circle cx="3" cy="3" r="3"/></g>
<g transform="translate(264,220) scale(3.7766666666667)"><circle cx="3" cy="3" r="3"/></g>
<g transform="translate(308,220) scale(3.7766666666667)"><circle cx="3" cy="3" r="3"/></g>
<g transform="translate(330,220) scale(3.7766666666667)"><circle cx="3" cy="3" r="3"/></g>
<g transform="translate(352,220) scale(3.7766666666667)"><circle cx="3" cy="3" r="3"/></g>
<g transform="translate(374,220) scale(3.7766666666667)"><circle cx="3" cy="3" r="3"/></g>
<g transform="translate(396,220) scale(3.7766666666667)"><circle cx="3" cy="3" r="3"/></g>
<g transform="translate(418,220) scale(3.7766666666667)"><circle cx="3" cy="3" r="3"/></g>
<g transform="translate(440,220) scale(3.7766666666667)"><circle cx="3" cy="3" r="3"/></g>
<g transform="translate(462,220) scale(3.7766666666667)"><circle cx="3" cy="3" r="3"/></g>
<g transform="translate(484,220) scale(3.7766666666667)"><circle cx="3" cy="3" r="3"/></g>
<g transform="translate(528,220) scale(3.7766666666667)"><circle cx="3" cy="3" r="3"/></g>
<g transform="translate(594,220) scale(3.7766666666667)"><circle cx="3" cy="3" r="3"/></g>
<g transform="translate(616,220) scale(3.7766666666667)"><circle cx="3" cy="3" r="3"/></g>
<g transform="translate(638,220) scale(3.7766666666667)"><circle cx="3" cy="3" r="3"/></g>
<g transform="translate(682,220) scale(3.7766666666667)"><circle cx="3" cy="3" r="3"/></g>
<g transform="translate(726,220) scale(3.7766666666667)"><circle cx="3" cy="3" r="3"/></g>
<g transform="translate(748,220) scale(3.7766666666667)"><circle cx="3" cy="3" r="3"/></g>
<g transform="translate(770,220) scale(3.7766666666667)"><circle cx="3" cy="3" r="3"/></g>
<g transform="translate(792,220) scale(3.7766666666667)"><circle cx="3" cy="3" r="3"/></g>
<g transform="translate(814,220) scale(3.7766666666667)"><circle cx="3" cy="3" r="3"/></g>
<g transform="translate(880,220) scale(3.7766666666667)"><circle cx="3" cy="3" r="3"/></g>
<g transform="translate(902,220) scale(3.7766666666667)"><circle cx="3" cy="3" r="3"/></g>
<g transform="translate(924,220) scale(3.7766666666667)"><circle cx="3" cy="3" r="3"/></g>
<g transform="translate(44,242) scale(3.7766666666667)"><circle cx="3" cy="3" r="3"/></g>
<g transform="translate(198,242) scale(3.7766666666667)"><circle cx="3" cy="3" r="3"/></g>
<g transform="translate(220,242) scale(3.7766666666667)"><circle cx="3" cy="3" r="3"/></g>
<g transform="translate(242,242) scale(3.7766666666667)"><circle cx="3" cy="3" r="3"/></g>
<g transform="translate(264,242) scale(3.7766666666667)"><circle cx="3" cy="3" r="3"/></g>
<g transform="translate(286,242) scale(3.7766666666667)"><circle cx="3" cy="3" r="3"/></g>
<g transform="translate(308,242) scale(3.7766666666667)"><circle cx="3" cy="3" r="3"/></g>
<g transform="translate(330,242) scale(3.7766666666667)"><circle cx="3" cy="3" r="3"/></g>
<g transform="translate(396,242) scale(3.7766666666667)"><circle cx="3" cy="3" r="3"/></g>
<g transform="translate(440,242) scale(3.7766666666667)"><circle cx="3" cy="3" r="3"/></g>
<g transform="translate(506,242) scale(3.7766666666667)"><circle cx="3" cy="3" r="3"/></g>
<g transform="translate(528,242) scale(3.7766666666667)"><circle cx="3" cy="3" r="3"/></g>
<g transform="translate(550,242) scale(3.7766666666667)"><circle cx="3" cy="3" r="3"/></g>
<g transform="translate(594,242) scale(3.7766666666667)"><circle cx="3" cy="3" r="3"/></g>
<g transform="translate(616,242) scale(3.7766666666667)"><circle cx="3" cy="3" r="3"/></g>
<g transform="translate(660,242) scale(3.7766666666667)"><circle cx="3" cy="3" r="3"/></g>
<g transform="translate(682,242) scale(3.7766666666667)"><circle cx="3" cy="3" r="3"/></g>
<g transform="translate(726,242) scale(3.7766666666667)"><circle cx="3" cy="3" r="3"/></g>
<g transform="translate(748,242) scale(3.7766666666667)"><circle cx="3" cy="3" r="3"/></g>
<g transform="translate(792,242) scale(3.7766666666667)"><circle cx="3" cy="3" r="3"/></g>
<g transform="translate(814,242) scale(3.7766666666667)"><circle cx="3" cy="3" r="3"/></g>
<g transform="translate(836,242) scale(3.7766666666667)"><circle cx="3" cy="3" r="3"/></g>
<g transform="translate(880,242) scale(3.7766666666667)"><circle cx="3" cy="3" r="3"/></g>
<g transform="translate(902,242) scale(3.7766666666667)"><circle cx="3" cy="3" r="3"/></g>
<g transform="translate(924,242) scale(3.7766666666667)"><circle cx="3" cy="3" r="3"/></g>
<g transform="translate(44,264) scale(3.7766666666667)"><circle cx="3" cy="3" r="3"/></g>
<g transform="translate(66,264) scale(3.7766666666667)"><circle cx="3" cy="3" r="3"/></g>
<g transform="translate(176,264) scale(3.7766666666667)"><circle cx="3" cy="3" r="3"/></g>
<g transform="translate(198,264) scale(3.7766666666667)"><circle cx="3" cy="3" r="3"/></g>
<g transform="translate(242,264) scale(3.7766666666667)"><circle cx="3" cy="3" r="3"/></g>
<g transform="translate(308,264) scale(3.7766666666667)"><circle cx="3" cy="3" r="3"/></g>
<g transform="translate(330,264) scale(3.7766666666667)"><circle cx="3" cy="3" r="3"/></g>
<g transform="translate(352,264) scale(3.7766666666667)"><circle cx="3" cy="3" r="3"/></g>
<g transform="translate(396,264) scale(3.7766666666667)"><circle cx="3" cy="3" r="3"/></g>
<g transform="translate(440,264) scale(3.7766666666667)"><circle cx="3" cy="3" r="3"/></g>
<g transform="translate(528,264) scale(3.7766666666667)"><circle cx="3" cy="3" r="3"/></g>
<g transform="translate(550,264) scale(3.7766666666667)"><circle cx="3" cy="3" r="3"/></g>
<g transform="translate(572,264) scale(3.7766666666667)"><circle cx="3" cy="3" r="3"/></g>
<g transform="translate(616,264) scale(3.7766666666667)"><circle cx="3" cy="3" r="3"/></g>
<g transform="translate(638,264) scale(3.7766666666667)"><circle cx="3" cy="3" r="3"/></g>
<g transform="translate(704,264) scale(3.7766666666667)"><circle cx="3" cy="3" r="3"/></g>
<g transform="translate(748,264) scale(3.7766666666667)"><circle cx="3" cy="3" r="3"/></g>
<g transform="translate(814,264) scale(3.7766666666667)"><circle cx="3" cy="3" r="3"/></g>
<g transform="translate(836,264) scale(3.7766666666667)"><circle cx="3" cy="3" r="3"/></g>
<g transform="translate(88,286) scale(3.7766666666667)"><circle cx="3" cy="3" r="3"/></g>
<g transform="translate(110,286) scale(3.7766666666667)"><circle cx="3" cy="3" r="3"/></g>
<g transform="translate(132,286) scale(3.7766666666667)"><circle cx="3" cy="3" r="3"/></g>
<g transform="translate(154,286) scale(3.7766666666667)"><circle cx="3" cy="3" r="3"/></g>
<g transform="translate(198,286) scale(3.7766666666667)"><circle cx="3" cy="3" r="3"/></g>
<g transform="translate(242,286) scale(3.7766666666667)"><circle cx="3" cy="3" r="3"/></g>
<g transform="translate(264,286) scale(3.7766666666667)"><circle cx="3" cy="3" r="3"/></g>
<g transform="translate(308,286) scale(3.7766666666667)"><circle cx="3" cy="3" r="3"/></g>
<g transform="translate(330,286) scale(3.7766666666667)"><circle cx="3" cy="3" r="3"/></g>
<g transform="translate(396,286) scale(3.7766666666667)"><circle cx="3" cy="3" r="3"/></g>
<g transform="translate(418,286) scale(3.7766666666667)"><circle cx="3" cy="3" r="3"/></g>
<g transform="translate(440,286) scale(3.7766666666667)"><circle cx="3" cy="3" r="3"/></g>
<g transform="translate(528,286) scale(3.7766666666667)"><circle cx="3" cy="3" r="3"/></g>
<g transform="translate(550,286) scale(3.7766666666667)"><circle cx="3" cy="3" r="3"/></g>
<g transform="translate(594,286) scale(3.7766666666667)"><circle cx="3" cy="3" r="3"/></g>
<g transform="translate(616,286) scale(3.7766666666667)"><circle cx="3" cy="3" r="3"/></g>
<g transform="translate(660,286) scale(3.7766666666667)"><circle cx="3" cy="3" r="3"/></g>
<g transform="translate(726,286) scale(3.7766666666667)"><circle cx="3" cy="3" r="3"/></g>
<g transform="translate(748,286) scale(3.7766666666667)"><circle cx="3" cy="3" r="3"/></g>
<g transform="translate(770,286) scale(3.7766666666667)"><circle cx="3" cy="3" r="3"/></g>
<g transform="translate(836,286) scale(3.7766666666667)"><circle cx="3" cy="3" r="3"/></g>
<g transform="translate(858,286) scale(3.7766666666667)"><circle cx="3" cy="3" r="3"/></g>
<g transform="translate(924,286) scale(3.7766666666667)"><circle cx="3" cy="3" r="3"/></g>
<g transform="translate(132,308) scale(3.7766666666667)"><circle cx="3" cy="3" r="3"/></g>
<g transform="translate(176,308) scale(3.7766666666667)"><circle cx="3" cy="3" r="3"/></g>
<g transform="translate(242,308) scale(3.7766666666667)"><circle cx="3" cy="3" r="3"/></g>
<g transform="translate(286,308) scale(3.7766666666667)"><circle cx="3" cy="3" r="3"/></g>
<g transform="translate(308,308) scale(3.7766666666667)"><circle cx="3" cy="3" r="3"/></g>
<g transform="translate(330,308) scale(3.7766666666667)"><circle cx="3" cy="3" r="3"/></g>
<g transform="translate(352,308) scale(3.7766666666667)"><circle cx="3" cy="3" r="3"/></g>
<g transform="translate(374,308) scale(3.7766666666667)"><circle cx="3" cy="3" r="3"/></g>
<g transform="translate(396,308) scale(3.7766666666667)"><circle cx="3" cy="3" r="3"/></g>
<g transform="translate(418,308) scale(3.7766666666667)"><circle cx="3" cy="3" r="3"/></g>
<g transform="translate(440,308) scale(3.7766666666667)"><circle cx="3" cy="3" r="3"/></g>
<g transform="translate(484,308) scale(3.7766666666667)"><circle cx="3" cy="3" r="3"/></g>
<g transform="translate(550,308) scale(3.7766666666667)"><circle cx="3" cy="3" r="3"/></g>
<g transform="translate(616,308) scale(3.7766666666667)"><circle cx="3" cy="3" r="3"/></g>
<g transform="translate(638,308) scale(3.7766666666667)"><circle cx="3" cy="3" r="3"/></g>
<g transform="translate(682,308) scale(3.7766666666667)"><circle cx="3" cy="3" r="3"/></g>
<g transform="translate(726,308) scale(3.7766666666667)"><circle cx="3" cy="3" r="3"/></g>
<g transform="translate(858,308) scale(3.7766666666667)"><circle cx="3" cy="3" r="3"/></g>
<g transform="translate(880,308) scale(3.7766666666667)"><circle cx="3" cy="3" r="3"/></g>
<g transform="translate(924,308) scale(3.7766666666667)"><circle cx="3" cy="3" r="3"/></g>
<g transform="translate(44,330) scale(3.7766666666667)"><circle cx="3" cy="3" r="3"/></g>
<g transform="translate(66,330) scale(3.7766666666667)"><circle cx="3" cy="3" r="3"/></g>
<g transform="translate(88,330) scale(3.7766666666667)"><circle cx="3" cy="3" r="3"/></g>
<g transform="translate(110,330) scale(3.7766666666667)"><circle cx="3" cy="3" r="3"/></g>
<g transform="translate(132,330) scale(3.7766666666667)"><circle cx="3" cy="3" r="3"/></g>
<g transform="translate(198,330) scale(3.7766666666667)"><circle cx="3" cy="3" r="3"/></g>
<g transform="translate(242,330) scale(3.7766666666667)"><circle cx="3" cy="3" r="3"/></g>
<g transform="translate(352,330) scale(3.7766666666667)"><circle cx="3" cy="3" r="3"/></g>
<g transform="translate(418,330) scale(3.7766666666667)"><circle cx="3" cy="3" r="3"/></g>
<g transform="translate(484,330) scale(3.7766666666667)"><circle cx="3" cy="3" r="3"/></g>
<g transform="translate(506,330) scale(3.7766666666667)"><circle cx="3" cy="3" r="3"/></g>
<g transform="translate(550,330) scale(3.7766666666667)"><circle cx="3" cy="3" r="3"/></g>
<g transform="translate(616,330) scale(3.7766666666667)"><circle cx="3" cy="3" r="3"/></g>
<g transform="translate(638,330) scale(3.7766666666667)"><circle cx="3" cy="3" r="3"/></g>
<g transform="translate(660,330) scale(3.7766666666667)"><circle cx="3" cy="3" r="3"/></g>
<g transform="translate(704,330) scale(3.7766666666667)"><circle cx="3" cy="3" r="3"/></g>
<g transform="translate(726,330) scale(3.7766666666667)"><circle cx="3" cy="3" r="3"/></g>
<g transform="translate(748,330) scale(3.7766666666667)"><circle cx="3" cy="3" r="3"/></g>
<g transform="translate(792,330) scale(3.7766666666667)"><circle cx="3" cy="3" r="3"/></g>
<g transform="translate(814,330) scale(3.7766666666667)"><circle cx="3" cy="3" r="3"/></g>
<g transform="translate(836,330) scale(3.7766666666667)"><circle cx="3" cy="3" r="3"/></g>
<g transform="translate(858,330) scale(3.7766666666667)"><circle cx="3" cy="3" r="3"/></g>
<g transform="translate(880,330) scale(3.7766666666667)"><circle cx="3" cy="3" r="3"/></g>
<g transform="translate(902,330) scale(3.7766666666667)"><circle cx="3" cy="3" r="3"/></g>
<g transform="translate(924,330) scale(3.7766666666667)"><circle cx="3" cy="3" r="3"/></g>
<g transform="translate(66,352) scale(3.7766666666667)"><circle cx="3" cy="3" r="3"/></g>
<g transform="translate(110,352) scale(3.7766666666667)"><circle cx="3" cy="3" r="3"/></g>
<g transform="translate(154,352) scale(3.7766666666667)"><circle cx="3" cy="3" r="3"/></g>
<g transform="translate(176,352) scale(3.7766666666667)"><circle cx="3" cy="3" r="3"/></g>
<g transform="translate(220,352) scale(3.7766666666667)"><circle cx="3" cy="3" r="3"/></g>
<g transform="translate(286,352) scale(3.7766666666667)"><circle cx="3" cy="3" r="3"/></g>
<g transform="translate(352,352) scale(3.7766666666667)"><circle cx="3" cy="3" r="3"/></g>
<g transform="translate(374,352) scale(3.7766666666667)"><circle cx="3" cy="3" r="3"/></g>
<g transform="translate(396,352) scale(3.7766666666667)"><circle cx="3" cy="3" r="3"/></g>
<g transform="translate(418,352) scale(3.7766666666667)"><circle cx="3" cy="3" r="3"/></g>
<g transform="translate(462,352) scale(3.7766666666667)"><circle cx="3" cy="3" r="3"/></g>
<g transform="translate(506,352) scale(3.7766666666667)"><circle cx="3" cy="3" r="3"/></g>
<g transform="translate(528,352) scale(3.7766666666667)"><circle cx="3" cy="3" r="3"/></g>
<g transform="translate(594,352) scale(3.7766666666667)"><circle cx="3" cy="3" r="3"/></g>
<g transform="translate(616,352) scale(3.7766666666667)"><circle cx="3" cy="3" r="3"/></g>
<g transform="translate(682,352) scale(3.7766666666667)"><circle cx="3" cy="3" r="3"/></g>
<g transform="translate(704,352) scale(3.7766666666667)"><circle cx="3" cy="3" r="3"/></g>
<g transform="translate(770,352) scale(3.7766666666667)"><circle cx="3" cy="3" r="3"/></g>
<g transform="translate(836,352) scale(3.7766666666667)"><circle cx="3" cy="3" r="3"/></g>
<g transform="translate(880,352) scale(3.7766666666667)"><circle cx="3" cy="3" r="3"/></g>
<g transform="translate(66,374) scale(3.7766666666667)"><circle cx="3" cy="3" r="3"/></g>
<g transform="translate(88,374) scale(3.7766666666667)"><circle cx="3" cy="3" r="3"/></g>
<g transform="translate(154,374) scale(3.7766666666667)"><circle cx="3" cy="3" r="3"/></g>
<g transform="translate(198,374) scale(3.7766666666667)"><circle cx="3" cy="3" r="3"/></g>
<g transform="translate(220,374) scale(3.7766666666667)"><circle cx="3" cy="3" r="3"/></g>
<g transform="translate(242,374) scale(3.7766666666667)"><circle cx="3" cy="3" r="3"/></g>
<g transform="translate(286,374) scale(3.7766666666667)"><circle cx="3" cy="3" r="3"/></g>
<g transform="translate(352,374) scale(3.7766666666667)"><circle cx="3" cy="3" r="3"/></g>
<g transform="translate(374,374) scale(3.7766666666667)"><circle cx="3" cy="3" r="3"/></g>
<g transform="translate(396,374) scale(3.7766666666667)"><circle cx="3" cy="3" r="3"/></g>
<g transform="translate(440,374) scale(3.7766666666667)"><circle cx="3" cy="3" r="3"/></g>
<g transform="translate(484,374) scale(3.7766666666667)"><circle cx="3" cy="3" r="3"/></g>
<g transform="translate(550,374) scale(3.7766666666667)"><circle cx="3" cy="3" r="3"/></g>
<g transform="translate(572,374) scale(3.7766666666667)"><circle cx="3" cy="3" r="3"/></g>
<g transform="translate(616,374) scale(3.7766666666667)"><circle cx="3" cy="3" r="3"/></g>
<g transform="translate(660,374) scale(3.7766666666667)"><circle cx="3" cy="3" r="3"/></g>
<g transform="translate(726,374) scale(3.7766666666667)"><circle cx="3" cy="3" r="3"/></g>
<g transform="translate(748,374) scale(3.7766666666667)"><circle cx="3" cy="3" r="3"/></g>
<g transform="translate(792,374) scale(3.7766666666667)"><circle cx="3" cy="3" r="3"/></g>
<g transform="translate(814,374) scale(3.7766666666667)"><circle cx="3" cy="3" r="3"/></g>
<g transform="translate(836,374) scale(3.7766666666667)"><circle cx="3" cy="3" r="3"/></g>
<g transform="translate(858,374) scale(3.7766666666667)"><circle cx="3" cy="3" r="3"/></g>
<g transform="translate(924,374) scale(3.7766666666667)"><circle cx="3" cy="3" r="3"/></g>
<g transform="translate(66,396) scale(3.7766666666667)"><circle cx="3" cy="3" r="3"/></g>
<g transform="translate(132,396) scale(3.7766666666667)"><circle cx="3" cy="3" r="3"/></g>
<g transform="translate(154,396) scale(3.7766666666667)"><circle cx="3" cy="3" r="3"/></g>
<g transform="translate(176,396) scale(3.7766666666667)"><circle cx="3" cy="3" r="3"/></g>
<g transform="translate(264,396) scale(3.7766666666667)"><circle cx="3" cy="3" r="3"/></g>
<g transform="translate(308,396) scale(3.7766666666667)"><circle cx="3" cy="3" r="3"/></g>
<g transform="translate(330,396) scale(3.7766666666667)"><circle cx="3" cy="3" r="3"/></g>
<g transform="translate(352,396) scale(3.7766666666667)"><circle cx="3" cy="3" r="3"/></g>
<g transform="translate(374,396) scale(3.7766666666667)"><circle cx="3" cy="3" r="3"/></g>
<g transform="translate(396,396) scale(3.7766666666667)"><circle cx="3" cy="3" r="3"/></g>
<g transform="translate(440,396) scale(3.7766666666667)"><circle cx="3" cy="3" r="3"/></g>
<g transform="translate(462,396) scale(3.7766666666667)"><circle cx="3" cy="3" r="3"/></g>
<g transform="translate(506,396) scale(3.7766666666667)"><circle cx="3" cy="3" r="3"/></g>
<g transform="translate(528,396) scale(3.7766666666667)"><circle cx="3" cy="3" r="3"/></g>
<g transform="translate(616,396) scale(3.7766666666667)"><circle cx="3" cy="3" r="3"/></g>
<g transform="translate(682,396) scale(3.7766666666667)"><circle cx="3" cy="3" r="3"/></g>
<g transform="translate(704,396) scale(3.7766666666667)"><circle cx="3" cy="3" r="3"/></g>
<g transform="translate(726,396) scale(3.7766666666667)"><circle cx="3" cy="3" r="3"/></g>
<g transform="translate(770,396) scale(3.7766666666667)"><circle cx="3" cy="3" r="3"/></g>
<g transform="translate(814,396) scale(3.7766666666667)"><circle cx="3" cy="3" r="3"/></g>
<g transform="translate(880,396) scale(3.7766666666667)"><circle cx="3" cy="3" r="3"/></g>
<g transform="translate(902,396) scale(3.7766666666667)"><circle cx="3" cy="3" r="3"/></g>
<g transform="translate(88,418) scale(3.7766666666667)"><circle cx="3" cy="3" r="3"/></g>
<g transform="translate(132,418) scale(3.7766666666667)"><circle cx="3" cy="3" r="3"/></g>
<g transform="translate(264,418) scale(3.7766666666667)"><circle cx="3" cy="3" r="3"/></g>
<g transform="translate(462,418) scale(3.7766666666667)"><circle cx="3" cy="3" r="3"/></g>
<g transform="translate(484,418) scale(3.7766666666667)"><circle cx="3" cy="3" r="3"/></g>
<g transform="translate(506,418) scale(3.7766666666667)"><circle cx="3" cy="3" r="3"/></g>
<g transform="translate(528,418) scale(3.7766666666667)"><circle cx="3" cy="3" r="3"/></g>
<g transform="translate(550,418) scale(3.7766666666667)"><circle cx="3" cy="3" r="3"/></g>
<g transform="translate(594,418) scale(3.7766666666667)"><circle cx="3" cy="3" r="3"/></g>
<g transform="translate(660,418) scale(3.7766666666667)"><circle cx="3" cy="3" r="3"/></g>
<g transform="translate(704,418) scale(3.7766666666667)"><circle cx="3" cy="3" r="3"/></g>
<g transform="translate(726,418) scale(3.7766666666667)"><circle cx="3" cy="3" r="3"/></g>
<g transform="translate(748,418) scale(3.7766666666667)"><circle cx="3" cy="3" r="3"/></g>
<g transform="translate(792,418) scale(3.7766666666667)"><circle cx="3" cy="3" r="3"/></g>
<g transform="translate(814,418) scale(3.7766666666667)"><circle cx="3" cy="3" r="3"/></g>
<g transform="translate(836,418) scale(3.7766666666667)"><circle cx="3" cy="3" r="3"/></g>
<g transform="translate(858,418) scale(3.7766666666667)"><circle cx="3" cy="3" r="3"/></g>
<g transform="translate(902,418) scale(3.7766666666667)"><circle cx="3" cy="3" r="3"/></g>
<g transform="translate(924,418) scale(3.7766666666667)"><circle cx="3" cy="3" r="3"/></g>
<g transform="translate(44,440) scale(3.7766666666667)"><circle cx="3" cy="3" r="3"/></g>
<g transform="translate(88,440) scale(3.7766666666667)"><circle cx="3" cy="3" r="3"/></g>
<g transform="translate(110,440) scale(3.7766666666667)"><circle cx="3" cy="3" r="3"/></g>
<g transform="translate(132,440) scale(3.7766666666667)"><circle cx="3" cy="3" r="3"/></g>
<g transform="translate(154,440) scale(3.7766666666667)"><circle cx="3" cy="3" r="3"/></g>
<g transform="translate(176,440) scale(3.7766666666667)"><circle cx="3" cy="3" r="3"/></g>
<g transform="translate(220,440) scale(3.7766666666667)"><circle cx="3" cy="3" r="3"/></g>
<g transform="translate(352,440) scale(3.7766666666667)"><circle cx="3" cy="3" r="3"/></g>
<g transform="translate(396,440) scale(3.7766666666667)"><circle cx="3" cy="3" r="3"/></g>
<g transform="translate(440,440) scale(3.7766666666667)"><circle cx="3" cy="3" r="3"/></g>
<g transform="translate(484,440) scale(3.7766666666667)"><circle cx="3" cy="3" r="3"/></g>
<g transform="translate(506,440) scale(3.7766666666667)"><circle cx="3" cy="3" r="3"/></g>
<g transform="translate(528,440) scale(3.7766666666667)"><circle cx="3" cy="3" r="3"/></g>
<g transform="translate(594,440) scale(3.7766666666667)"><circle cx="3" cy="3" r="3"/></g>
<g transform="translate(638,440) scale(3.7766666666667)"><circle cx="3" cy="3" r="3"/></g>
<g transform="translate(748,440) scale(3.7766666666667)"><circle cx="3" cy="3" r="3"/></g>
<g transform="translate(770,440) scale(3.7766666666667)"><circle cx="3" cy="3" r="3"/></g>
<g transform="translate(792,440) scale(3.7766666666667)"><circle cx="3" cy="3" r="3"/></g>
<g transform="translate(836,440) scale(3.7766666666667)"><circle cx="3" cy="3" r="3"/></g>
<g transform="translate(858,440) scale(3.7766666666667)"><circle cx="3" cy="3" r="3"/></g>
<g transform="translate(902,440) scale(3.7766666666667)"><circle cx="3" cy="3" r="3"/></g>
<g transform="translate(44,462) scale(3.7766666666667)"><circle cx="3" cy="3" r="3"/></g>
<g transform="translate(110,462) scale(3.7766666666667)"><circle cx="3" cy="3" r="3"/></g>
<g transform="translate(154,462) scale(3.7766666666667)"><circle cx="3" cy="3" r="3"/></g>
<g transform="translate(198,462) scale(3.7766666666667)"><circle cx="3" cy="3" r="3"/></g>
<g transform="translate(242,462) scale(3.7766666666667)"><circle cx="3" cy="3" r="3"/></g>
<g transform="translate(264,462) scale(3.7766666666667)"><circle cx="3" cy="3" r="3"/></g>
<g transform="translate(308,462) scale(3.7766666666667)"><circle cx="3" cy="3" r="3"/></g>
<g transform="translate(352,462) scale(3.7766666666667)"><circle cx="3" cy="3" r="3"/></g>
<g transform="translate(396,462) scale(3.7766666666667)"><circle cx="3" cy="3" r="3"/></g>
<g transform="translate(462,462) scale(3.7766666666667)"><circle cx="3" cy="3" r="3"/></g>
<g transform="translate(506,462) scale(3.7766666666667)"><circle cx="3" cy="3" r="3"/></g>
<g transform="translate(550,462) scale(3.7766666666667)"><circle cx="3" cy="3" r="3"/></g>
<g transform="translate(572,462) scale(3.7766666666667)"><circle cx="3" cy="3" r="3"/></g>
<g transform="translate(638,462) scale(3.7766666666667)"><circle cx="3" cy="3" r="3"/></g>
<g transform="translate(660,462) scale(3.7766666666667)"><circle cx="3" cy="3" r="3"/></g>
<g transform="translate(704,462) scale(3.7766666666667)"><circle cx="3" cy="3" r="3"/></g>
<g transform="translate(726,462) scale(3.7766666666667)"><circle cx="3" cy="3" r="3"/></g>
<g transform="translate(748,462) scale(3.7766666666667)"><circle cx="3" cy="3" r="3"/></g>
<g transform="translate(770,462) scale(3.7766666666667)"><circle cx="3" cy="3" r="3"/></g>
<g transform="translate(836,462) scale(3.7766666666667)"><circle cx="3" cy="3" r="3"/></g>
<g transform="translate(858,462) scale(3.7766666666667)"><circle cx="3" cy="3" r="3"/></g>
<g transform="translate(924,462) scale(3.7766666666667)"><circle cx="3" cy="3" r="3"/></g>
<g transform="translate(132,484) scale(3.7766666666667)"><circle cx="3" cy="3" r="3"/></g>
<g transform="translate(176,484) scale(3.7766666666667)"><circle cx="3" cy="3" r="3"/></g>
<g transform="translate(198,484) scale(3.7766666666667)"><circle cx="3" cy="3" r="3"/></g>
<g transform="translate(220,484) scale(3.7766666666667)"><circle cx="3" cy="3" r="3"/></g>
<g transform="translate(242,484) scale(3.7766666666667)"><circle cx="3" cy="3" r="3"/></g>
<g transform="translate(308,484) scale(3.7766666666667)"><circle cx="3" cy="3" r="3"/></g>
<g transform="translate(330,484) scale(3.7766666666667)"><circle cx="3" cy="3" r="3"/></g>
<g transform="translate(396,484) scale(3.7766666666667)"><circle cx="3" cy="3" r="3"/></g>
<g transform="translate(462,484) scale(3.7766666666667)"><circle cx="3" cy="3" r="3"/></g>
<g transform="translate(484,484) scale(3.7766666666667)"><circle cx="3" cy="3" r="3"/></g>
<g transform="translate(506,484) scale(3.7766666666667)"><circle cx="3" cy="3" r="3"/></g>
<g transform="translate(528,484) scale(3.7766666666667)"><circle cx="3" cy="3" r="3"/></g>
<g transform="translate(572,484) scale(3.7766666666667)"><circle cx="3" cy="3" r="3"/></g>
<g transform="translate(594,484) scale(3.7766666666667)"><circle cx="3" cy="3" r="3"/></g>
<g transform="translate(638,484) scale(3.7766666666667)"><circle cx="3" cy="3" r="3"/></g>
<g transform="translate(660,484) scale(3.7766666666667)"><circle cx="3" cy="3" r="3"/></g>
<g transform="translate(682,484) scale(3.7766666666667)"><circle cx="3" cy="3" r="3"/></g>
<g transform="translate(726,484) scale(3.7766666666667)"><circle cx="3" cy="3" r="3"/></g>
<g transform="translate(814,484) scale(3.7766666666667)"><circle cx="3" cy="3" r="3"/></g>
<g transform="translate(880,484) scale(3.7766666666667)"><circle cx="3" cy="3" r="3"/></g>
<g transform="translate(902,484) scale(3.7766666666667)"><circle cx="3" cy="3" r="3"/></g>
<g transform="translate(110,506) scale(3.7766666666667)"><circle cx="3" cy="3" r="3"/></g>
<g transform="translate(132,506) scale(3.7766666666667)"><circle cx="3" cy="3" r="3"/></g>
<g transform="translate(154,506) scale(3.7766666666667)"><circle cx="3" cy="3" r="3"/></g>
<g transform="translate(198,506) scale(3.7766666666667)"><circle cx="3" cy="3" r="3"/></g>
<g transform="translate(242,506) scale(3.7766666666667)"><circle cx="3" cy="3" r="3"/></g>
<g transform="translate(308,506) scale(3.7766666666667)"><circle cx="3" cy="3" r="3"/></g>
<g transform="translate(352,506) scale(3.7766666666667)"><circle cx="3" cy="3" r="3"/></g>
<g transform="translate(418,506) scale(3.7766666666667)"><circle cx="3" cy="3" r="3"/></g>
<g transform="translate(440,506) scale(3.7766666666667)"><circle cx="3" cy="3" r="3"/></g>
<g transform="translate(462,506) scale(3.7766666666667)"><circle cx="3" cy="3" r="3"/></g>
<g transform="translate(484,506) scale(3.7766666666667)"><circle cx="3" cy="3" r="3"/></g>
<g transform="translate(528,506) scale(3.7766666666667)"><circle cx="3" cy="3" r="3"/></g>
<g transform="translate(572,506) scale(3.7766666666667)"><circle cx="3" cy="3" r="3"/></g>
<g transform="translate(660,506) scale(3.7766666666667)"><circle cx="3" cy="3" r="3"/></g>
<g transform="translate(704,506) scale(3.7766666666667)"><circle cx="3" cy="3" r="3"/></g>
<g transform="translate(726,506) scale(3.7766666666667)"><circle cx="3" cy="3" r="3"/></g>
<g transform="translate(792,506) scale(3.7766666666667)"><circle cx="3" cy="3" r="3"/></g>
<g transform="translate(814,506) scale(3.7766666666667)"><circle cx="3" cy="3" r="3"/></g>
<g transform="translate(836,506) scale(3.7766666666667)"><circle cx="3" cy="3" r="3"/></g>
<g transform="translate(858,506) scale(3.7766666666667)"><circle cx="3" cy="3" r="3"/></g>
<g transform="translate(880,506) scale(3.7766666666667)"><circle cx="3" cy="3" r="3"/></g>
<g transform="translate(902,506) scale(3.7766666666667)"><circle cx="3" cy="3" r="3"/></g>
<g transform="translate(924,506) scale(3.7766666666667)"><circle cx="3" cy="3" r="3"/></g>
<g transform="translate(44,528) scale(3.7766666666667)"><circle cx="3" cy="3" r="3"/></g>
<g transform="translate(66,528) scale(3.7766666666667)"><circle cx="3" cy="3" r="3"/></g>
<g transform="translate(88,528) scale(3.7766666666667)"><circle cx="3" cy="3" r="3"/></g>
<g transform="translate(110,528) scale(3.7766666666667)"><circle cx="3" cy="3" r="3"/></g>
<g transform="translate(132,528) scale(3.7766666666667)"><circle cx="3" cy="3" r="3"/></g>
<g transform="translate(154,528) scale(3.7766666666667)"><circle cx="3" cy="3" r="3"/></g>
<g transform="translate(176,528) scale(3.7766666666667)"><circle cx="3" cy="3" r="3"/></g>
<g transform="translate(198,528) scale(3.7766666666667)"><circle cx="3" cy="3" r="3"/></g>
<g transform="translate(220,528) scale(3.7766666666667)"><circle cx="3" cy="3" r="3"/></g>
<g transform="translate(242,528) scale(3.7766666666667)"><circle cx="3" cy="3" r="3"/></g>
<g transform="translate(330,528) scale(3.7766666666667)"><circle cx="3" cy="3" r="3"/></g>
<g transform="translate(374,528) scale(3.7766666666667)"><circle cx="3" cy="3" r="3"/></g>
<g transform="translate(638,528) scale(3.7766666666667)"><circle cx="3" cy="3" r="3"/></g>
<g transform="translate(682,528) scale(3.7766666666667)"><circle cx="3" cy="3" r="3"/></g>
<g transform="translate(704,528) scale(3.7766666666667)"><circle cx="3" cy="3" r="3"/></g>
<g transform="translate(814,528) scale(3.7766666666667)"><circle cx="3" cy="3" r="3"/></g>
<g transform="translate(836,528) scale(3.7766666666667)"><circle cx="3" cy="3" r="3"/></g>
<g transform="translate(858,528) scale(3.7766666666667)"><circle cx="3" cy="3" r="3"/></g>
<g transform="translate(66,550) scale(3.7766666666667)"><circle cx="3" cy="3" r="3"/></g>
<g transform="translate(154,550) scale(3.7766666666667)"><circle cx="3" cy="3" r="3"/></g>
<g transform="translate(198,550) scale(3.7766666666667)"><circle cx="3" cy="3" r="3"/></g>
<g transform="translate(242,550) scale(3.7766666666667)"><circle cx="3" cy="3" r="3"/></g>
<g transform="translate(264,550) scale(3.7766666666667)"><circle cx="3" cy="3" r="3"/></g>
<g transform="translate(352,550) scale(3.7766666666667)"><circle cx="3" cy="3" r="3"/></g>
<g transform="translate(374,550) scale(3.7766666666667)"><circle cx="3" cy="3" r="3"/></g>
<g transform="translate(396,550) scale(3.7766666666667)"><circle cx="3" cy="3" r="3"/></g>
<g transform="translate(418,550) scale(3.7766666666667)"><circle cx="3" cy="3" r="3"/></g>
<g transform="translate(506,550) scale(3.7766666666667)"><circle cx="3" cy="3" r="3"/></g>
<g transform="translate(550,550) scale(3.7766666666667)"><circle cx="3" cy="3" r="3"/></g>
<g transform="translate(572,550) scale(3.7766666666667)"><circle cx="3" cy="3" r="3"/></g>
<g transform="translate(638,550) scale(3.7766666666667)"><circle cx="3" cy="3" r="3"/></g>
<g transform="translate(704,550) scale(3.7766666666667)"><circle cx="3" cy="3" r="3"/></g>
<g transform="translate(726,550) scale(3.7766666666667)"><circle cx="3" cy="3" r="3"/></g>
<g transform="translate(770,550) scale(3.7766666666667)"><circle cx="3" cy="3" r="3"/></g>
<g transform="translate(814,550) scale(3.7766666666667)"><circle cx="3" cy="3" r="3"/></g>
<g transform="translate(836,550) scale(3.7766666666667)"><circle cx="3" cy="3" r="3"/></g>
<g transform="translate(858,550) scale(3.7766666666667)"><circle cx="3" cy="3" r="3"/></g>
<g transform="translate(902,550) scale(3.7766666666667)"><circle cx="3" cy="3" r="3"/></g>
<g transform="translate(44,572) scale(3.7766666666667)"><circle cx="3" cy="3" r="3"/></g>
<g transform="translate(88,572) scale(3.7766666666667)"><circle cx="3" cy="3" r="3"/></g>
<g transform="translate(154,572) scale(3.7766666666667)"><circle cx="3" cy="3" r="3"/></g>
<g transform="translate(176,572) scale(3.7766666666667)"><circle cx="3" cy="3" r="3"/></g>
<g transform="translate(308,572) scale(3.7766666666667)"><circle cx="3" cy="3" r="3"/></g>
<g transform="translate(330,572) scale(3.7766666666667)"><circle cx="3" cy="3" r="3"/></g>
<g transform="translate(352,572) scale(3.7766666666667)"><circle cx="3" cy="3" r="3"/></g>
<g transform="translate(374,572) scale(3.7766666666667)"><circle cx="3" cy="3" r="3"/></g>
<g transform="translate(462,572) scale(3.7766666666667)"><circle cx="3" cy="3" r="3"/></g>
<g transform="translate(506,572) scale(3.7766666666667)"><circle cx="3" cy="3" r="3"/></g>
<g transform="translate(550,572) scale(3.7766666666667)"><circle cx="3" cy="3" r="3"/></g>
<g transform="translate(594,572) scale(3.7766666666667)"><circle cx="3" cy="3" r="3"/></g>
<g transform="translate(616,572) scale(3.7766666666667)"><circle cx="3" cy="3" r="3"/></g>
<g transform="translate(638,572) scale(3.7766666666667)"><circle cx="3" cy="3" r="3"/></g>
<g transform="translate(660,572) scale(3.7766666666667)"><circle cx="3" cy="3" r="3"/></g>
<g transform="translate(682,572) scale(3.7766666666667)"><circle cx="3" cy="3" r="3"/></g>
<g transform="translate(880,572) scale(3.7766666666667)"><circle cx="3" cy="3" r="3"/></g>
<g transform="translate(902,572) scale(3.7766666666667)"><circle cx="3" cy="3" r="3"/></g>
<g transform="translate(924,572) scale(3.7766666666667)"><circle cx="3" cy="3" r="3"/></g>
<g transform="translate(66,594) scale(3.7766666666667)"><circle cx="3" cy="3" r="3"/></g>
<g transform="translate(88,594) scale(3.7766666666667)"><circle cx="3" cy="3" r="3"/></g>
<g transform="translate(132,594) scale(3.7766666666667)"><circle cx="3" cy="3" r="3"/></g>
<g transform="translate(154,594) scale(3.7766666666667)"><circle cx="3" cy="3" r="3"/></g>
<g transform="translate(220,594) scale(3.7766666666667)"><circle cx="3" cy="3" r="3"/></g>
<g transform="translate(242,594) scale(3.7766666666667)"><circle cx="3" cy="3" r="3"/></g>
<g transform="translate(264,594) scale(3.7766666666667)"><circle cx="3" cy="3" r="3"/></g>
<g transform="translate(352,594) scale(3.7766666666667)"><circle cx="3" cy="3" r="3"/></g>
<g transform="translate(396,594) scale(3.7766666666667)"><circle cx="3" cy="3" r="3"/></g>
<g transform="translate(440,594) scale(3.7766666666667)"><circle cx="3" cy="3" r="3"/></g>
<g transform="translate(462,594) scale(3.7766666666667)"><circle cx="3" cy="3" r="3"/></g>
<g transform="translate(484,594) scale(3.7766666666667)"><circle cx="3" cy="3" r="3"/></g>
<g transform="translate(506,594) scale(3.7766666666667)"><circle cx="3" cy="3" r="3"/></g>
<g transform="translate(528,594) scale(3.7766666666667)"><circle cx="3" cy="3" r="3"/></g>
<g transform="translate(572,594) scale(3.7766666666667)"><circle cx="3" cy="3" r="3"/></g>
<g transform="translate(594,594) scale(3.7766666666667)"><circle cx="3" cy="3" r="3"/></g>
<g transform="translate(616,594) scale(3.7766666666667)"><circle cx="3" cy="3" r="3"/></g>
<g transform="translate(660,594) scale(3.7766666666667)"><circle cx="3" cy="3" r="3"/></g>
<g transform="translate(682,594) scale(3.7766666666667)"><circle cx="3" cy="3" r="3"/></g>
<g transform="translate(704,594) scale(3.7766666666667)"><circle cx="3" cy="3" r="3"/></g>
<g transform="translate(726,594) scale(3.7766666666667)"><circle cx="3" cy="3" r="3"/></g>
<g transform="translate(770,594) scale(3.7766666666667)"><circle cx="3" cy="3" r="3"/></g>
<g transform="translate(792,594) scale(3.7766666666667)"><circle cx="3" cy="3" r="3"/></g>
<g transform="translate(814,594) scale(3.7766666666667)"><circle cx="3" cy="3" r="3"/></g>
<g transform="translate(836,594) scale(3.7766666666667)"><circle cx="3" cy="3" r="3"/></g>
<g transform="translate(858,594) scale(3.7766666666667)"><circle cx="3" cy="3" r="3"/></g>
<g transform="translate(902,594) scale(3.7766666666667)"><circle cx="3" cy="3" r="3"/></g>
<g transform="translate(924,594) scale(3.7766666666667)"><circle cx="3" cy="3" r="3"/></g>
<g transform="translate(44,616) scale(3.7766666666667)"><circle cx="3" cy="3" r="3"/></g>
<g transform="translate(88,616) scale(3.7766666666667)"><circle cx="3" cy="3" r="3"/></g>
<g transform="translate(110,616) scale(3.7766666666667)"><circle cx="3" cy="3" r="3"/></g>
<g transform="translate(132,616) scale(3.7766666666667)"><circle cx="3" cy="3" r="3"/></g>
<g transform="translate(154,616) scale(3.7766666666667)"><circle cx="3" cy="3" r="3"/></g>
<g transform="translate(176,616) scale(3.7766666666667)"><circle cx="3" cy="3" r="3"/></g>
<g transform="translate(198,616) scale(3.7766666666667)"><circle cx="3" cy="3" r="3"/></g>
<g transform="translate(220,616) scale(3.7766666666667)"><circle cx="3" cy="3" r="3"/></g>
<g transform="translate(242,616) scale(3.7766666666667)"><circle cx="3" cy="3" r="3"/></g>
<g transform="translate(286,616) scale(3.7766666666667)"><circle cx="3" cy="3" r="3"/></g>
<g transform="translate(308,616) scale(3.7766666666667)"><circle cx="3" cy="3" r="3"/></g>
<g transform="translate(374,616) scale(3.7766666666667)"><circle cx="3" cy="3" r="3"/></g>
<g transform="translate(396,616) scale(3.7766666666667)"><circle cx="3" cy="3" r="3"/></g>
<g transform="translate(418,616) scale(3.7766666666667)"><circle cx="3" cy="3" r="3"/></g>
<g transform="translate(484,616) scale(3.7766666666667)"><circle cx="3" cy="3" r="3"/></g>
<g transform="translate(506,616) scale(3.7766666666667)"><circle cx="3" cy="3" r="3"/></g>
<g transform="translate(528,616) scale(3.7766666666667)"><circle cx="3" cy="3" r="3"/></g>
<g transform="translate(594,616) scale(3.7766666666667)"><circle cx="3" cy="3" r="3"/></g>
<g transform="translate(638,616) scale(3.7766666666667)"><circle cx="3" cy="3" r="3"/></g>
<g transform="translate(660,616) scale(3.7766666666667)"><circle cx="3" cy="3" r="3"/></g>
<g transform="translate(682,616) scale(3.7766666666667)"><circle cx="3" cy="3" r="3"/></g>
<g transform="translate(748,616) scale(3.7766666666667)"><circle cx="3" cy="3" r="3"/></g>
<g transform="translate(836,616) scale(3.7766666666667)"><circle cx="3" cy="3" r="3"/></g>
<g transform="translate(902,616) scale(3.7766666666667)"><circle cx="3" cy="3" r="3"/></g>
<g transform="translate(66,638) scale(3.7766666666667)"><circle cx="3" cy="3" r="3"/></g>
<g transform="translate(88,638) scale(3.7766666666667)"><circle cx="3" cy="3" r="3"/></g>
<g transform="translate(154,638) scale(3.7766666666667)"><circle cx="3" cy="3" r="3"/></g>
<g transform="translate(242,638) scale(3.7766666666667)"><circle cx="3" cy="3" r="3"/></g>
<g transform="translate(264,638) scale(3.7766666666667)"><circle cx="3" cy="3" r="3"/></g>
<g transform="translate(286,638) scale(3.7766666666667)"><circle cx="3" cy="3" r="3"/></g>
<g transform="translate(308,638) scale(3.7766666666667)"><circle cx="3" cy="3" r="3"/></g>
<g transform="translate(330,638) scale(3.7766666666667)"><circle cx="3" cy="3" r="3"/></g>
<g transform="translate(352,638) scale(3.7766666666667)"><circle cx="3" cy="3" r="3"/></g>
<g transform="translate(396,638) scale(3.7766666666667)"><circle cx="3" cy="3" r="3"/></g>
<g transform="translate(418,638) scale(3.7766666666667)"><circle cx="3" cy="3" r="3"/></g>
<g transform="translate(462,638) scale(3.7766666666667)"><circle cx="3" cy="3" r="3"/></g>
<g transform="translate(594,638) scale(3.7766666666667)"><circle cx="3" cy="3" r="3"/></g>
<g transform="translate(616,638) scale(3.7766666666667)"><circle cx="3" cy="3" r="3"/></g>
<g transform="translate(638,638) scale(3.7766666666667)"><circle cx="3" cy="3" r="3"/></g>
<g transform="translate(660,638) scale(3.7766666666667)"><circle cx="3" cy="3" r="3"/></g>
<g transform="translate(726,638) scale(3.7766666666667)"><circle cx="3" cy="3" r="3"/></g>
<g transform="translate(748,638) scale(3.7766666666667)"><circle cx="3" cy="3" r="3"/></g>
<g transform="translate(814,638) scale(3.7766666666667)"><circle cx="3" cy="3" r="3"/></g>
<g transform="translate(836,638) scale(3.7766666666667)"><circle cx="3" cy="3" r="3"/></g>
<g transform="translate(858,638) scale(3.7766666666667)"><circle cx="3" cy="3" r="3"/></g>
<g transform="translate(902,638) scale(3.7766666666667)"><circle cx="3" cy="3" r="3"/></g>
<g transform="translate(44,660) scale(3.7766666666667)"><circle cx="3" cy="3" r="3"/></g>
<g transform="translate(88,660) scale(3.7766666666667)"><circle cx="3" cy="3" r="3"/></g>
<g transform="translate(110,660) scale(3.7766666666667)"><circle cx="3" cy="3" r="3"/></g>
<g transform="translate(132,660) scale(3.7766666666667)"><circle cx="3" cy="3" r="3"/></g>
<g transform="translate(154,660) scale(3.7766666666667)"><circle cx="3" cy="3" r="3"/></g>
<g transform="translate(176,660) scale(3.7766666666667)"><circle cx="3" cy="3" r="3"/></g>
<g transform="translate(220,660) scale(3.7766666666667)"><circle cx="3" cy="3" r="3"/></g>
<g transform="translate(242,660) scale(3.7766666666667)"><circle cx="3" cy="3" r="3"/></g>
<g transform="translate(286,660) scale(3.7766666666667)"><circle cx="3" cy="3" r="3"/></g>
<g transform="translate(308,660) scale(3.7766666666667)"><circle cx="3" cy="3" r="3"/></g>
<g transform="translate(352,660) scale(3.7766666666667)"><circle cx="3" cy="3" r="3"/></g>
<g transform="translate(396,660) scale(3.7766666666667)"><circle cx="3" cy="3" r="3"/></g>
<g transform="translate(440,660) scale(3.7766666666667)"><circle cx="3" cy="3" r="3"/></g>
<g transform="translate(484,660) scale(3.7766666666667)"><circle cx="3" cy="3" r="3"/></g>
<g transform="translate(506,660) scale(3.7766666666667)"><circle cx="3" cy="3" r="3"/></g>
<g transform="translate(528,660) scale(3.7766666666667)"><circle cx="3" cy="3" r="3"/></g>
<g transform="translate(594,660) scale(3.7766666666667)"><circle cx="3" cy="3" r="3"/></g>
<g transform="translate(616,660) scale(3.7766666666667)"><circle cx="3" cy="3" r="3"/></g>
<g transform="translate(638,660) scale(3.7766666666667)"><circle cx="3" cy="3" r="3"/></g>
<g transform="translate(682,660) scale(3.7766666666667)"><circle cx="3" cy="3" r="3"/></g>
<g transform="translate(704,660) scale(3.7766666666667)"><circle cx="3" cy="3" r="3"/></g>
<g transform="translate(726,660) scale(3.7766666666667)"><circle cx="3" cy="3" r="3"/></g>
<g transform="translate(814,660) scale(3.7766666666667)"><circle cx="3" cy="3" r="3"/></g>
<g transform="translate(858,660) scale(3.7766666666667)"><circle cx="3" cy="3" r="3"/></g>
<g transform="translate(880,660) scale(3.7766666666667)"><circle cx="3" cy="3" r="3"/></g>
<g transform="translate(924,660) scale(3.7766666666667)"><circle cx="3" cy="3" r="3"/></g>
<g transform="translate(44,682) scale(3.7766666666667)"><circle cx="3" cy="3" r="3"/></g>
<g transform="translate(66,682) scale(3.7766666666667)"><circle cx="3" cy="3" r="3"/></g>
<g transform="translate(88,682) scale(3.7766666666667)"><circle cx="3" cy="3" r="3"/></g>
<g transform="translate(110,682) scale(3.7766666666667)"><circle cx="3" cy="3" r="3"/></g>
<g transform="translate(132,682) scale(3.7766666666667)"><circle cx="3" cy="3" r="3"/></g>
<g transform="translate(154,682) scale(3.7766666666667)"><circle cx="3" cy="3" r="3"/></g>
<g transform="translate(198,682) scale(3.7766666666667)"><circle cx="3" cy="3" r="3"/></g>
<g transform="translate(242,682) scale(3.7766666666667)"><circle cx="3" cy="3" r="3"/></g>
<g transform="translate(264,682) scale(3.7766666666667)"><circle cx="3" cy="3" r="3"/></g>
<g transform="translate(308,682) scale(3.7766666666667)"><circle cx="3" cy="3" r="3"/></g>
<g transform="translate(330,682) scale(3.7766666666667)"><circle cx="3" cy="3" r="3"/></g>
<g transform="translate(418,682) scale(3.7766666666667)"><circle cx="3" cy="3" r="3"/></g>
<g transform="translate(440,682) scale(3.7766666666667)"><circle cx="3" cy="3" r="3"/></g>
<g transform="translate(462,682) scale(3.7766666666667)"><circle cx="3" cy="3" r="3"/></g>
<g transform="translate(484,682) scale(3.7766666666667)"><circle cx="3" cy="3" r="3"/></g>
<g transform="translate(506,682) scale(3.7766666666667)"><circle cx="3" cy="3" r="3"/></g>
<g transform="translate(528,682) scale(3.7766666666667)"><circle cx="3" cy="3" r="3"/></g>
<g transform="translate(550,682) scale(3.7766666666667)"><circle cx="3" cy="3" r="3"/></g>
<g transform="translate(572,682) scale(3.7766666666667)"><circle cx="3" cy="3" r="3"/></g>
<g transform="translate(594,682) scale(3.7766666666667)"><circle cx="3" cy="3" r="3"/></g>
<g transform="translate(638,682) scale(3.7766666666667)"><circle cx="3" cy="3" r="3"/></g>
<g transform="translate(682,682) scale(3.7766666666667)"><circle cx="3" cy="3" r="3"/></g>
<g transform="translate(704,682) scale(3.7766666666667)"><circle cx="3" cy="3" r="3"/></g>
<g transform="translate(726,682) scale(3.7766666666667)"><circle cx="3" cy="3" r="3"/></g>
<g transform="translate(792,682) scale(3.7766666666667)"><circle cx="3" cy="3" r="3"/></g>
<g transform="translate(814,682) scale(3.7766666666667)"><circle cx="3" cy="3" r="3"/></g>
<g transform="translate(836,682) scale(3.7766666666667)"><circle cx="3" cy="3" r="3"/></g>
<g transform="translate(858,682) scale(3.7766666666667)"><circle cx="3" cy="3" r="3"/></g>
<g transform="translate(924,682) scale(3.7766666666667)"><circle cx="3" cy="3" r="3"/></g>
<g transform="translate(44,704) scale(3.7766666666667)"><circle cx="3" cy="3" r="3"/></g>
<g transform="translate(132,704) scale(3.7766666666667)"><circle cx="3" cy="3" r="3"/></g>
<g transform="translate(176,704) scale(3.7766666666667)"><circle cx="3" cy="3" r="3"/></g>
<g transform="translate(198,704) scale(3.7766666666667)"><circle cx="3" cy="3" r="3"/></g>
<g transform="translate(264,704) scale(3.7766666666667)"><circle cx="3" cy="3" r="3"/></g>
<g transform="translate(330,704) scale(3.7766666666667)"><circle cx="3" cy="3" r="3"/></g>
<g transform="translate(352,704) scale(3.7766666666667)"><circle cx="3" cy="3" r="3"/></g>
<g transform="translate(374,704) scale(3.7766666666667)"><circle cx="3" cy="3" r="3"/></g>
<g transform="translate(396,704) scale(3.7766666666667)"><circle cx="3" cy="3" r="3"/></g>
<g transform="translate(418,704) scale(3.7766666666667)"><circle cx="3" cy="3" r="3"/></g>
<g transform="translate(440,704) scale(3.7766666666667)"><circle cx="3" cy="3" r="3"/></g>
<g transform="translate(484,704) scale(3.7766666666667)"><circle cx="3" cy="3" r="3"/></g>
<g transform="translate(550,704) scale(3.7766666666667)"><circle cx="3" cy="3" r="3"/></g>
<g transform="translate(638,704) scale(3.7766666666667)"><circle cx="3" cy="3" r="3"/></g>
<g transform="translate(682,704) scale(3.7766666666667)"><circle cx="3" cy="3" r="3"/></g>
<g transform="translate(770,704) scale(3.7766666666667)"><circle cx="3" cy="3" r="3"/></g>
<g transform="translate(792,704) scale(3.7766666666667)"><circle cx="3" cy="3" r="3"/></g>
<g transform="translate(814,704) scale(3.7766666666667)"><circle cx="3" cy="3" r="3"/></g>
<g transform="translate(836,704) scale(3.7766666666667)"><circle cx="3" cy="3" r="3"/></g>
<g transform="translate(858,704) scale(3.7766666666667)"><circle cx="3" cy="3" r="3"/></g>
<g transform="translate(880,704) scale(3.7766666666667)"><circle cx="3" cy="3" r="3"/></g>
<g transform="translate(44,726) scale(3.7766666666667)"><circle cx="3" cy="3" r="3"/></g>
<g transform="translate(154,726) scale(3.7766666666667)"><circle cx="3" cy="3" r="3"/></g>
<g transform="translate(198,726) scale(3.7766666666667)"><circle cx="3" cy="3" r="3"/></g>
<g transform="translate(286,726) scale(3.7766666666667)"><circle cx="3" cy="3" r="3"/></g>
<g transform="translate(330,726) scale(3.7766666666667)"><circle cx="3" cy="3" r="3"/></g>
<g transform="translate(352,726) scale(3.7766666666667)"><circle cx="3" cy="3" r="3"/></g>
<g transform="translate(374,726) scale(3.7766666666667)"><circle cx="3" cy="3" r="3"/></g>
<g transform="translate(484,726) scale(3.7766666666667)"><circle cx="3" cy="3" r="3"/></g>
<g transform="translate(528,726) scale(3.7766666666667)"><circle cx="3" cy="3" r="3"/></g>
<g transform="translate(550,726) scale(3.7766666666667)"><circle cx="3" cy="3" r="3"/></g>
<g transform="translate(594,726) scale(3.7766666666667)"><circle cx="3" cy="3" r="3"/></g>
<g transform="translate(638,726) scale(3.7766666666667)"><circle cx="3" cy="3" r="3"/></g>
<g transform="translate(660,726) scale(3.7766666666667)"><circle cx="3" cy="3" r="3"/></g>
<g transform="translate(770,726) scale(3.7766666666667)"><circle cx="3" cy="3" r="3"/></g>
<g transform="translate(792,726) scale(3.7766666666667)"><circle cx="3" cy="3" r="3"/></g>
<g transform="translate(858,726) scale(3.7766666666667)"><circle cx="3" cy="3" r="3"/></g>
<g transform="translate(44,748) scale(3.7766666666667)"><circle cx="3" cy="3" r="3"/></g>
<g transform="translate(110,748) scale(3.7766666666667)"><circle cx="3" cy="3" r="3"/></g>
<g transform="translate(154,748) scale(3.7766666666667)"><circle cx="3" cy="3" r="3"/></g>
<g transform="translate(176,748) scale(3.7766666666667)"><circle cx="3" cy="3" r="3"/></g>
<g transform="translate(220,748) scale(3.7766666666667)"><circle cx="3" cy="3" r="3"/></g>
<g transform="translate(242,748) scale(3.7766666666667)"><circle cx="3" cy="3" r="3"/></g>
<g transform="translate(264,748) scale(3.7766666666667)"><circle cx="3" cy="3" r="3"/></g>
<g transform="translate(286,748) scale(3.7766666666667)"><circle cx="3" cy="3" r="3"/></g>
<g transform="translate(528,748) scale(3.7766666666667)"><circle cx="3" cy="3" r="3"/></g>
<g transform="translate(550,748) scale(3.7766666666667)"><circle cx="3" cy="3" r="3"/></g>
<g transform="translate(594,748) scale(3.7766666666667)"><circle cx="3" cy="3" r="3"/></g>
<g transform="translate(616,748) scale(3.7766666666667)"><circle cx="3" cy="3" r="3"/></g>
<g transform="translate(660,748) scale(3.7766666666667)"><circle cx="3" cy="3" r="3"/></g>
<g transform="translate(682,748) scale(3.7766666666667)"><circle cx="3" cy="3" r="3"/></g>
<g transform="translate(748,748) scale(3.7766666666667)"><circle cx="3" cy="3" r="3"/></g>
<g transform="translate(770,748) scale(3.7766666666667)"><circle cx="3" cy="3" r="3"/></g>
<g transform="translate(792,748) scale(3.7766666666667)"><circle cx="3" cy="3" r="3"/></g>
<g transform="translate(814,748) scale(3.7766666666667)"><circle cx="3" cy="3" r="3"/></g>
<g transform="translate(836,748) scale(3.7766666666667)"><circle cx="3" cy="3" r="3"/></g>
<g transform="translate(880,748) scale(3.7766666666667)"><circle cx="3" cy="3" r="3"/></g>
<g transform="translate(220,770) scale(3.7766666666667)"><circle cx="3" cy="3" r="3"/></g>
<g transform="translate(242,770) scale(3.7766666666667)"><circle cx="3" cy="3" r="3"/></g>
<g transform="translate(330,770) scale(3.7766666666667)"><circle cx="3" cy="3" r="3"/></g>
<g transform="translate(374,770) scale(3.7766666666667)"><circle cx="3" cy="3" r="3"/></g>
<g transform="translate(396,770) scale(3.7766666666667)"><circle cx="3" cy="3" r="3"/></g>
<g transform="translate(418,770) scale(3.7766666666667)"><circle cx="3" cy="3" r="3"/></g>
<g transform="translate(462,770) scale(3.7766666666667)"><circle cx="3" cy="3" r="3"/></g>
<g transform="translate(484,770) scale(3.7766666666667)"><circle cx="3" cy="3" r="3"/></g>
<g transform="translate(506,770) scale(3.7766666666667)"><circle cx="3" cy="3" r="3"/></g>
<g transform="translate(550,770) scale(3.7766666666667)"><circle cx="3" cy="3" r="3"/></g>
<g transform="translate(572,770) scale(3.7766666666667)"><circle cx="3" cy="3" r="3"/></g>
<g transform="translate(616,770) scale(3.7766666666667)"><circle cx="3" cy="3" r="3"/></g>
<g transform="translate(660,770) scale(3.7766666666667)"><circle cx="3" cy="3" r="3"/></g>
<g transform="translate(682,770) scale(3.7766666666667)"><circle cx="3" cy="3" r="3"/></g>
<g transform="translate(704,770) scale(3.7766666666667)"><circle cx="3" cy="3" r="3"/></g>
<g transform="translate(748,770) scale(3.7766666666667)"><circle cx="3" cy="3" r="3"/></g>
<g transform="translate(836,770) scale(3.7766666666667)"><circle cx="3" cy="3" r="3"/></g>
<g transform="translate(858,770) scale(3.7766666666667)"><circle cx="3" cy="3" r="3"/></g>
<g transform="translate(880,770) scale(3.7766666666667)"><circle cx="3" cy="3" r="3"/></g>
<g transform="translate(924,770) scale(3.7766666666667)"><circle cx="3" cy="3" r="3"/></g>
<g transform="translate(286,792) scale(3.7766666666667)"><circle cx="3" cy="3" r="3"/></g>
<g transform="translate(308,792) scale(3.7766666666667)"><circle cx="3" cy="3" r="3"/></g>
<g transform="translate(330,792) scale(3.7766666666667)"><circle cx="3" cy="3" r="3"/></g>
<g transform="translate(440,792) scale(3.7766666666667)"><circle cx="3" cy="3" r="3"/></g>
<g transform="translate(484,792) scale(3.7766666666667)"><circle cx="3" cy="3" r="3"/></g>
<g transform="translate(506,792) scale(3.7766666666667)"><circle cx="3" cy="3" r="3"/></g>
<g transform="translate(572,792) scale(3.7766666666667)"><circle cx="3" cy="3" r="3"/></g>
<g transform="translate(594,792) scale(3.7766666666667)"><circle cx="3" cy="3" r="3"/></g>
<g transform="translate(616,792) scale(3.7766666666667)"><circle cx="3" cy="3" r="3"/></g>
<g transform="translate(638,792) scale(3.7766666666667)"><circle cx="3" cy="3" r="3"/></g>
<g transform="translate(726,792) scale(3.7766666666667)"><circle cx="3" cy="3" r="3"/></g>
<g transform="translate(748,792) scale(3.7766666666667)"><circle cx="3" cy="3" r="3"/></g>
<g transform="translate(792,792) scale(3.7766666666667)"><circle cx="3" cy="3" r="3"/></g>
<g transform="translate(836,792) scale(3.7766666666667)"><circle cx="3" cy="3" r="3"/></g>
<g transform="translate(880,792) scale(3.7766666666667)"><circle cx="3" cy="3" r="3"/></g>
<g transform="translate(242,814) scale(3.7766666666667)"><circle cx="3" cy="3" r="3"/></g>
<g transform="translate(264,814) scale(3.7766666666667)"><circle cx="3" cy="3" r="3"/></g>
<g transform="translate(308,814) scale(3.7766666666667)"><circle cx="3" cy="3" r="3"/></g>
<g transform="translate(462,814) scale(3.7766666666667)"><circle cx="3" cy="3" r="3"/></g>
<g transform="translate(484,814) scale(3.7766666666667)"><circle cx="3" cy="3" r="3"/></g>
<g transform="translate(506,814) scale(3.7766666666667)"><circle cx="3" cy="3" r="3"/></g>
<g transform="translate(550,814) scale(3.7766666666667)"><circle cx="3" cy="3" r="3"/></g>
<g transform="translate(572,814) scale(3.7766666666667)"><circle cx="3" cy="3" r="3"/></g>
<g transform="translate(616,814) scale(3.7766666666667)"><circle cx="3" cy="3" r="3"/></g>
<g transform="translate(638,814) scale(3.7766666666667)"><circle cx="3" cy="3" r="3"/></g>
<g transform="translate(726,814) scale(3.7766666666667)"><circle cx="3" cy="3" r="3"/></g>
<g transform="translate(748,814) scale(3.7766666666667)"><circle cx="3" cy="3" r="3"/></g>
<g transform="translate(836,814) scale(3.7766666666667)"><circle cx="3" cy="3" r="3"/></g>
<g transform="translate(858,814) scale(3.7766666666667)"><circle cx="3" cy="3" r="3"/></g>
<g transform="translate(220,836) scale(3.7766666666667)"><circle cx="3" cy="3" r="3"/></g>
<g transform="translate(242,836) scale(3.7766666666667)"><circle cx="3" cy="3" r="3"/></g>
<g transform="translate(264,836) scale(3.7766666666667)"><circle cx="3" cy="3" r="3"/></g>
<g transform="translate(352,836) scale(3.7766666666667)"><circle cx="3" cy="3" r="3"/></g>
<g transform="translate(396,836) scale(3.7766666666667)"><circle cx="3" cy="3" r="3"/></g>
<g transform="translate(418,836) scale(3.7766666666667)"><circle cx="3" cy="3" r="3"/></g>
<g transform="translate(440,836) scale(3.7766666666667)"><circle cx="3" cy="3" r="3"/></g>
<g transform="translate(462,836) scale(3.7766666666667)"><circle cx="3" cy="3" r="3"/></g>
<g transform="translate(484,836) scale(3.7766666666667)"><circle cx="3" cy="3" r="3"/></g>
<g transform="translate(528,836) scale(3.7766666666667)"><circle cx="3" cy="3" r="3"/></g>
<g transform="translate(594,836) scale(3.7766666666667)"><circle cx="3" cy="3" r="3"/></g>
<g transform="translate(616,836) scale(3.7766666666667)"><circle cx="3" cy="3" r="3"/></g>
<g transform="translate(660,836) scale(3.7766666666667)"><circle cx="3" cy="3" r="3"/></g>
<g transform="translate(682,836) scale(3.7766666666667)"><circle cx="3" cy="3" r="3"/></g>
<g transform="translate(748,836) scale(3.7766666666667)"><circle cx="3" cy="3" r="3"/></g>
<g transform="translate(770,836) scale(3.7766666666667)"><circle cx="3" cy="3" r="3"/></g>
<g transform="translate(792,836) scale(3.7766666666667)"><circle cx="3" cy="3" r="3"/></g>
<g transform="translate(814,836) scale(3.7766666666667)"><circle cx="3" cy="3" r="3"/></g>
<g transform="translate(836,836) scale(3.7766666666667)"><circle cx="3" cy="3" r="3"/></g>
<g transform="translate(858,836) scale(3.7766666666667)"><circle cx="3" cy="3" r="3"/></g>
<g transform="translate(880,836) scale(3.7766666666667)"><circle cx="3" cy="3" r="3"/></g>
<g transform="translate(220,858) scale(3.7766666666667)"><circle cx="3" cy="3" r="3"/></g>
<g transform="translate(242,858) scale(3.7766666666667)"><circle cx="3" cy="3" r="3"/></g>
<g transform="translate(264,858) scale(3.7766666666667)"><circle cx="3" cy="3" r="3"/></g>
<g transform="translate(308,858) scale(3.7766666666667)"><circle cx="3" cy="3" r="3"/></g>
<g transform="translate(352,858) scale(3.7766666666667)"><circle cx="3" cy="3" r="3"/></g>
<g transform="translate(440,858) scale(3.7766666666667)"><circle cx="3" cy="3" r="3"/></g>
<g transform="translate(506,858) scale(3.7766666666667)"><circle cx="3" cy="3" r="3"/></g>
<g transform="translate(550,858) scale(3.7766666666667)"><circle cx="3" cy="3" r="3"/></g>
<g transform="translate(594,858) scale(3.7766666666667)"><circle cx="3" cy="3" r="3"/></g>
<g transform="translate(660,858) scale(3.7766666666667)"><circle cx="3" cy="3" r="3"/></g>
<g transform="translate(704,858) scale(3.7766666666667)"><circle cx="3" cy="3" r="3"/></g>
<g transform="translate(726,858) scale(3.7766666666667)"><circle cx="3" cy="3" r="3"/></g>
<g transform="translate(770,858) scale(3.7766666666667)"><circle cx="3" cy="3" r="3"/></g>
<g transform="translate(814,858) scale(3.7766666666667)"><circle cx="3" cy="3" r="3"/></g>
<g transform="translate(858,858) scale(3.7766666666667)"><circle cx="3" cy="3" r="3"/></g>
<g transform="translate(924,858) scale(3.7766666666667)"><circle cx="3" cy="3" r="3"/></g>
<g transform="translate(220,880) scale(3.7766666666667)"><circle cx="3" cy="3" r="3"/></g>
<g transform="translate(264,880) scale(3.7766666666667)"><circle cx="3" cy="3" r="3"/></g>
<g transform="translate(374,880) scale(3.7766666666667)"><circle cx="3" cy="3" r="3"/></g>
<g transform="translate(418,880) scale(3.7766666666667)"><circle cx="3" cy="3" r="3"/></g>
<g transform="translate(572,880) scale(3.7766666666667)"><circle cx="3" cy="3" r="3"/></g>
<g transform="translate(594,880) scale(3.7766666666667)"><circle cx="3" cy="3" r="3"/></g>
<g transform="translate(616,880) scale(3.7766666666667)"><circle cx="3" cy="3" r="3"/></g>
<g transform="translate(638,880) scale(3.7766666666667)"><circle cx="3" cy="3" r="3"/></g>
<g transform="translate(660,880) scale(3.7766666666667)"><circle cx="3" cy="3" r="3"/></g>
<g transform="translate(748,880) scale(3.7766666666667)"><circle cx="3" cy="3" r="3"/></g>
<g transform="translate(770,880) scale(3.7766666666667)"><circle cx="3" cy="3" r="3"/></g>
<g transform="translate(792,880) scale(3.7766666666667)"><circle cx="3" cy="3" r="3"/></g>
<g transform="translate(814,880) scale(3.7766666666667)"><circle cx="3" cy="3" r="3"/></g>
<g transform="translate(836,880) scale(3.7766666666667)"><circle cx="3" cy="3" r="3"/></g>
<g transform="translate(858,880) scale(3.7766666666667)"><circle cx="3" cy="3" r="3"/></g>
<g transform="translate(902,880) scale(3.7766666666667)"><circle cx="3" cy="3" r="3"/></g>
<g transform="translate(242,902) scale(3.7766666666667)"><circle cx="3" cy="3" r="3"/></g>
<g transform="translate(462,902) scale(3.7766666666667)"><circle cx="3" cy="3" r="3"/></g>
<g transform="translate(506,902) scale(3.7766666666667)"><circle cx="3" cy="3" r="3"/></g>
<g transform="translate(528,902) scale(3.7766666666667)"><circle cx="3" cy="3" r="3"/></g>
<g transform="translate(550,902) scale(3.7766666666667)"><circle cx="3" cy="3" r="3"/></g>
<g transform="translate(572,902) scale(3.7766666666667)"><circle cx="3" cy="3" r="3"/></g>
<g transform="translate(594,902) scale(3.7766666666667)"><circle cx="3" cy="3" r="3"/></g>
<g transform="translate(616,902) scale(3.7766666666667)"><circle cx="3" cy="3" r="3"/></g>
<g transform="translate(660,902) scale(3.7766666666667)"><circle cx="3" cy="3" r="3"/></g>
<g transform="translate(748,902) scale(3.7766666666667)"><circle cx="3" cy="3" r="3"/></g>
<g transform="translate(836,902) scale(3.7766666666667)"><circle cx="3" cy="3" r="3"/></g>
<g transform="translate(858,902) scale(3.7766666666667)"><circle cx="3" cy="3" r="3"/></g>
<g transform="translate(902,902) scale(3.7766666666667)"><circle cx="3" cy="3" r="3"/></g>
<g transform="translate(242,924) scale(3.7766666666667)"><circle cx="3" cy="3" r="3"/></g>
<g transform="translate(308,924) scale(3.7766666666667)"><circle cx="3" cy="3" r="3"/></g>
<g transform="translate(396,924) scale(3.7766666666667)"><circle cx="3" cy="3" r="3"/></g>
<g transform="translate(418,924) scale(3.7766666666667)"><circle cx="3" cy="3" r="3"/></g>
<g transform="translate(440,924) scale(3.7766666666667)"><circle cx="3" cy="3" r="3"/></g>
<g transform="translate(462,924) scale(3.7766666666667)"><circle cx="3" cy="3" r="3"/></g>
<g transform="translate(528,924) scale(3.7766666666667)"><circle cx="3" cy="3" r="3"/></g>
<g transform="translate(550,924) scale(3.7766666666667)"><circle cx="3" cy="3" r="3"/></g>
<g transform="translate(594,924) scale(3.7766666666667)"><circle cx="3" cy="3" r="3"/></g>
<g transform="translate(682,924) scale(3.7766666666667)"><circle cx="3" cy="3" r="3"/></g>
<g transform="translate(726,924) scale(3.7766666666667)"><circle cx="3" cy="3" r="3"/></g>
<g transform="translate(814,924) scale(3.7766666666667)"><circle cx="3" cy="3" r="3"/></g>
<g transform="translate(836,924) scale(3.7766666666667)"><circle cx="3" cy="3" r="3"/></g>
<g transform="translate(880,924) scale(3.7766666666667)"><circle cx="3" cy="3" r="3"/></g>
<g transform="translate(44,44)"><g transform="scale(11)"><path d="M0,7L0,7c0,3.9,3.1,7,7,7h0c3.9,0,7-3.1,7-7v0c0-3.9-3.1-7-7-7h0C3.1,0,0,3.1,0,7z M7,12L7,12c-2.8,0-5-2.2-5-5v0 c0-2.8,2.2-5,5-5h0c2.8,0,5,2.2,5,5v0C12,9.8,9.8,12,7,12z"/></g></g>
<g transform="translate(792,44)"><g transform="scale(11)"><path d="M0,7L0,7c0,3.9,3.1,7,7,7h0c3.9,0,7-3.1,7-7v0c0-3.9-3.1-7-7-7h0C3.1,0,0,3.1,0,7z M7,12L7,12c-2.8,0-5-2.2-5-5v0 c0-2.8,2.2-5,5-5h0c2.8,0,5,2.2,5,5v0C12,9.8,9.8,12,7,12z"/></g></g>
<g transform="translate(44,792)"><g transform="scale(11)"><path d="M0,7L0,7c0,3.9,3.1,7,7,7h0c3.9,0,7-3.1,7-7v0c0-3.9-3.1-7-7-7h0C3.1,0,0,3.1,0,7z M7,12L7,12c-2.8,0-5-2.2-5-5v0 c0-2.8,2.2-5,5-5h0c2.8,0,5,2.2,5,5v0C12,9.8,9.8,12,7,12z"/></g></g>
<g transform="translate(88,88)"><g transform="scale(11)"><path d="M6,6H3C1.3,6,0,4.7,0,3v0c0-1.7,1.3-3,3-3h0c1.7,0,3,1.3,3,3V6z"/></g></g>
<g transform="translate(836,88)"><g transform="scale(11) rotate(90 3 3)"><path d="M6,6H3C1.3,6,0,4.7,0,3v0c0-1.7,1.3-3,3-3h0c1.7,0,3,1.3,3,3V6z"/></g></g>
<g transform="translate(88,836)"><g transform="scale(11) rotate(-90 3 3)"><path d="M6,6H3C1.3,6,0,4.7,0,3v0c0-1.7,1.3-3,3-3h0c1.7,0,3,1.3,3,3V6z"/></g></g>
</g></svg>
