<svg version="1.1" xmlns="http://www.w3.org/2000/svg" viewBox="0 0 788.9151463597111 574.0209032075105" width="788.9151463597111" height="574.0209032075105">
  <!-- svg-source:excalidraw -->
  
  <defs>
    <style class="style-fonts">
      @font-face {
        font-family: "Virgil";
        src: url("https://excalidraw.com/Virgil.woff2");
      }
      @font-face {
        font-family: "Cascadia";
        src: url("https://excalidraw.com/Cascadia.woff2");
      }
    </style>
    
  </defs>
  <g stroke-linecap="round" transform="translate(50.39534034123159 431.1560644085731) rotate(0 344.0622334778386 38.68742713704779)"><path d="M0 0 C215.56 0, 431.13 0, 688.12 0 M0 0 C224.16 0, 448.33 0, 688.12 0 M688.12 0 C688.12 21.38, 688.12 42.76, 688.12 77.37 M688.12 0 C688.12 15.68, 688.12 31.36, 688.12 77.37 M688.12 77.37 C418.53 77.37, 148.94 77.37, 0 77.37 M688.12 77.37 C468.89 77.37, 249.66 77.37, 0 77.37 M0 77.37 C0 56.06, 0 34.75, 0 0 M0 77.37 C0 61.55, 0 45.73, 0 0" stroke="#504945" stroke-width="4" fill="none"></path></g><g stroke-linecap="round" transform="translate(50.39534030268487 431.1560645170366) rotate(0 21.503893993766575 38.68742713704793)"><path d="M0 0 C16.42 0, 32.83 0, 43.01 0 M0 0 C9.94 0, 19.88 0, 43.01 0 M43.01 0 C43.01 22.51, 43.01 45.02, 43.01 77.37 M43.01 0 C43.01 30.87, 43.01 61.73, 43.01 77.37 M43.01 77.37 C28 77.37, 12.99 77.37, 0 77.37 M43.01 77.37 C33.81 77.37, 24.62 77.37, 0 77.37 M0 77.37 C0 56.82, 0 36.26, 0 0 M0 77.37 C0 51.28, 0 25.18, 0 0" stroke="#504945" stroke-width="1" fill="none"></path></g><g stroke-linecap="round" transform="translate(93.40312797445006 431.1560645216141) rotate(0 21.50389399376658 38.68742713704793)"><path d="M0 0 C10.32 0, 20.64 0, 43.01 0 M0 0 C8.93 0, 17.87 0, 43.01 0 M43.01 0 C43.01 28.33, 43.01 56.66, 43.01 77.37 M43.01 0 C43.01 23.15, 43.01 46.3, 43.01 77.37 M43.01 77.37 C29.31 77.37, 15.61 77.37, 0 77.37 M43.01 77.37 C27.74 77.37, 12.47 77.37, 0 77.37 M0 77.37 C0 56.12, 0 34.86, 0 0 M0 77.37 C0 47.01, 0 16.65, 0 0" stroke="#504945" stroke-width="1" fill="none"></path></g><g stroke-linecap="round" transform="translate(136.41091682972143 431.1560644679205) rotate(0 21.50389399376658 38.68742713704793)"><path d="M0 0 C10.62 0, 21.23 0, 43.01 0 M0 0 C9.12 0, 18.24 0, 43.01 0 M43.01 0 C43.01 19.6, 43.01 39.21, 43.01 77.37 M43.01 0 C43.01 17.32, 43.01 34.63, 43.01 77.37 M43.01 77.37 C28.65 77.37, 14.29 77.37, 0 77.37 M43.01 77.37 C32.43 77.37, 21.85 77.37, 0 77.37 M0 77.37 C0 54.15, 0 30.92, 0 0 M0 77.37 C0 47.41, 0 17.45, 0 0" stroke="#504945" stroke-width="1" fill="none"></path></g><g stroke-linecap="round" transform="translate(179.41870450148656 431.15606447249786) rotate(0 21.50389399376658 38.68742713704793)"><path d="M0 0 C14.16 0, 28.32 0, 43.01 0 M0 0 C12.45 0, 24.9 0, 43.01 0 M43.01 0 C43.01 28.32, 43.01 56.65, 43.01 77.37 M43.01 0 C43.01 26.97, 43.01 53.95, 43.01 77.37 M43.01 77.37 C31.53 77.37, 20.05 77.37, 0 77.37 M43.01 77.37 C28.71 77.37, 14.42 77.37, 0 77.37 M0 77.37 C0 54.04, 0 30.71, 0 0 M0 77.37 C0 50.6, 0 23.82, 0 0" stroke="#504945" stroke-width="1" fill="none"></path></g><g stroke-linecap="round" transform="translate(222.42649221576318 431.1560646469684) rotate(0 21.50389399376658 38.68742713704793)"><path d="M0 0 C16.7 0, 33.39 0, 43.01 0 M0 0 C9.67 0, 19.35 0, 43.01 0 M43.01 0 C43.01 22.82, 43.01 45.63, 43.01 77.37 M43.01 0 C43.01 17.6, 43.01 35.2, 43.01 77.37 M43.01 77.37 C29.67 77.37, 16.33 77.37, 0 77.37 M43.01 77.37 C34.39 77.37, 25.77 77.37, 0 77.37 M0 77.37 C0 53.03, 0 28.69, 0 0 M0 77.37 C0 58.6, 0 39.83, 0 0" stroke="#504945" stroke-width="1" fill="none"></path></g><g stroke-linecap="round" transform="translate(265.4342798875281 431.1560646515462) rotate(0 21.50389399376658 38.68742713704793)"><path d="M0 0 C17.03 0, 34.06 0, 43.01 0 M0 0 C15.07 0, 30.13 0, 43.01 0 M43.01 0 C43.01 27.43, 43.01 54.86, 43.01 77.37 M43.01 0 C43.01 17.37, 43.01 34.73, 43.01 77.37 M43.01 77.37 C30.38 77.37, 17.76 77.37, 0 77.37 M43.01 77.37 C30.99 77.37, 18.98 77.37, 0 77.37 M0 77.37 C0 50.65, 0 23.92, 0 0 M0 77.37 C0 52.84, 0 28.31, 0 0" stroke="#504945" stroke-width="1" fill="none"></path></g><g stroke-linecap="round" transform="translate(308.4420687427996 431.1560645978526) rotate(0 21.50389399376658 38.68742713704793)"><path d="M0 0 C10.96 0, 21.92 0, 43.01 0 M0 0 C12.02 0, 24.04 0, 43.01 0 M43.01 0 C43.01 24.86, 43.01 49.71, 43.01 77.37 M43.01 0 C43.01 19.15, 43.01 38.31, 43.01 77.37 M43.01 77.37 C33.01 77.37, 23 77.37, 0 77.37 M43.01 77.37 C31.03 77.37, 19.06 77.37, 0 77.37 M0 77.37 C0 52.65, 0 27.92, 0 0 M0 77.37 C0 47.95, 0 18.52, 0 0" stroke="#504945" stroke-width="1" fill="none"></path></g><g stroke-linecap="round" transform="translate(351.4498564145647 431.15606460243) rotate(0 21.50389399376658 38.68742713704793)"><path d="M0 0 C13.05 0, 26.1 0, 43.01 0 M0 0 C8.72 0, 17.43 0, 43.01 0 M43.01 0 C43.01 17.3, 43.01 34.61, 43.01 77.37 M43.01 0 C43.01 30.12, 43.01 60.24, 43.01 77.37 M43.01 77.37 C30.7 77.37, 18.39 77.37, 0 77.37 M43.01 77.37 C30.03 77.37, 17.05 77.37, 0 77.37 M0 77.37 C0 56.68, 0 35.99, 0 0 M0 77.37 C0 49.72, 0 22.06, 0 0" stroke="#504945" stroke-width="1" fill="none"></path></g><g stroke-linecap="round" transform="translate(394.4576438670499 431.1560651824625) rotate(0 21.50389399376658 38.68742713704793)"><path d="M0 0 C11.77 0, 23.54 0, 43.01 0 M0 0 C10.6 0, 21.2 0, 43.01 0 M43.01 0 C43.01 18.67, 43.01 37.34, 43.01 77.37 M43.01 0 C43.01 21.01, 43.01 42.02, 43.01 77.37 M43.01 77.37 C28.95 77.37, 14.89 77.37, 0 77.37 M43.01 77.37 C32.67 77.37, 22.32 77.37, 0 77.37 M0 77.37 C0 47.93, 0 18.48, 0 0 M0 77.37 C0 54.19, 0 31, 0 0" stroke="#504945" stroke-width="1" fill="none"></path></g><g stroke-linecap="round" transform="translate(437.46543153881476 431.1560651870401) rotate(0 21.50389399376658 38.68742713704793)"><path d="M0 0 C14.59 0, 29.19 0, 43.01 0 M0 0 C10.11 0, 20.22 0, 43.01 0 M43.01 0 C43.01 29.41, 43.01 58.82, 43.01 77.37 M43.01 0 C43.01 18.57, 43.01 37.14, 43.01 77.37 M43.01 77.37 C31.95 77.37, 20.89 77.37, 0 77.37 M43.01 77.37 C34.22 77.37, 25.42 77.37, 0 77.37 M0 77.37 C0 58.49, 0 39.61, 0 0 M0 77.37 C0 57.57, 0 37.77, 0 0" stroke="#504945" stroke-width="1" fill="none"></path></g><g stroke-linecap="round" transform="translate(480.4732203940864 431.1560651333466) rotate(0 21.503893993766553 38.68742713704793)"><path d="M0 0 C15.05 0, 30.1 0, 43.01 0 M0 0 C11.44 0, 22.89 0, 43.01 0 M43.01 0 C43.01 21, 43.01 42.01, 43.01 77.37 M43.01 0 C43.01 21.38, 43.01 42.76, 43.01 77.37 M43.01 77.37 C32.02 77.37, 21.02 77.37, 0 77.37 M43.01 77.37 C27.2 77.37, 11.39 77.37, 0 77.37 M0 77.37 C0 58.3, 0 39.22, 0 0 M0 77.37 C0 57.89, 0 38.41, 0 0" stroke="#504945" stroke-width="1" fill="none"></path></g><g stroke-linecap="round" transform="translate(523.4810080658511 431.15606513792386) rotate(0 21.503893993766553 38.68742713704793)"><path d="M0 0 C14.47 0, 28.94 0, 43.01 0 M0 0 C12.96 0, 25.91 0, 43.01 0 M43.01 0 C43.01 29.65, 43.01 59.3, 43.01 77.37 M43.01 0 C43.01 26.89, 43.01 53.77, 43.01 77.37 M43.01 77.37 C27.19 77.37, 11.38 77.37, 0 77.37 M43.01 77.37 C29.6 77.37, 16.19 77.37, 0 77.37 M0 77.37 C0 57.92, 0 38.46, 0 0 M0 77.37 C0 46.94, 0 16.51, 0 0" stroke="#504945" stroke-width="1" fill="none"></path></g><g stroke-linecap="round" transform="translate(566.488795780128 431.1560653123944) rotate(0 21.503893993766553 38.68742713704793)"><path d="M0 0 C16.26 0, 32.52 0, 43.01 0 M0 0 C16.38 0, 32.77 0, 43.01 0 M43.01 0 C43.01 19.59, 43.01 39.19, 43.01 77.37 M43.01 0 C43.01 25.34, 43.01 50.69, 43.01 77.37 M43.01 77.37 C33.09 77.37, 23.17 77.37, 0 77.37 M43.01 77.37 C32.09 77.37, 21.18 77.37, 0 77.37 M0 77.37 C0 51.39, 0 25.41, 0 0 M0 77.37 C0 58.07, 0 38.77, 0 0" stroke="#504945" stroke-width="1" fill="none"></path></g><g stroke-linecap="round" transform="translate(609.4965834518928 431.1560653169722) rotate(0 21.503893993766553 38.68742713704793)"><path d="M0 0 C11.5 0, 23 0, 43.01 0 M0 0 C13.27 0, 26.55 0, 43.01 0 M43.01 0 C43.01 19.7, 43.01 39.41, 43.01 77.37 M43.01 0 C43.01 29.52, 43.01 59.03, 43.01 77.37 M43.01 77.37 C28.45 77.37, 13.89 77.37, 0 77.37 M43.01 77.37 C28.83 77.37, 14.65 77.37, 0 77.37 M0 77.37 C0 49.84, 0 22.31, 0 0 M0 77.37 C0 59.06, 0 40.75, 0 0" stroke="#504945" stroke-width="1" fill="none"></path></g><g stroke-linecap="round" transform="translate(652.5043723071644 431.1560652632785) rotate(0 21.503893993766553 38.68742713704793)"><path d="M0 0 C11.89 0, 23.77 0, 43.01 0 M0 0 C10.11 0, 20.21 0, 43.01 0 M43.01 0 C43.01 20.25, 43.01 40.51, 43.01 77.37 M43.01 0 C43.01 19.33, 43.01 38.65, 43.01 77.37 M43.01 77.37 C34.02 77.37, 25.03 77.37, 0 77.37 M43.01 77.37 C26.71 77.37, 10.41 77.37, 0 77.37 M0 77.37 C0 60.93, 0 44.48, 0 0 M0 77.37 C0 53.93, 0 30.48, 0 0" stroke="#504945" stroke-width="1" fill="none"></path></g><g stroke-linecap="round" transform="translate(695.5121599789295 431.156065267856) rotate(0 21.503893993766553 38.68742713704793)"><path d="M0 0 C9.53 0, 19.05 0, 43.01 0 M0 0 C14.74 0, 29.47 0, 43.01 0 M43.01 0 C43.01 16.68, 43.01 33.36, 43.01 77.37 M43.01 0 C43.01 18.02, 43.01 36.03, 43.01 77.37 M43.01 77.37 C32.35 77.37, 21.69 77.37, 0 77.37 M43.01 77.37 C33.14 77.37, 23.27 77.37, 0 77.37 M0 77.37 C0 60.55, 0 43.72, 0 0 M0 77.37 C0 53.17, 0 28.96, 0 0" stroke="#504945" stroke-width="1" fill="none"></path></g><g transform="translate(71.89923527386634 469.84320975421724) rotate(0 0.00007034077660961202 0.0000703407766309283)" stroke="none"><path fill="#504945" d="M 3.14,-3.14 Q 3.14,-3.14 3.55,-2.55 3.97,-1.97 4.18,-1.28 4.40,-0.59 4.38,0.11 4.36,0.83 4.11,1.51 3.86,2.18 3.41,2.74 2.96,3.30 2.36,3.69 1.75,4.07 1.05,4.25 0.36,4.42 -0.35,4.36 -1.07,4.30 -1.73,4.02 -2.39,3.74 -2.92,3.26 -3.46,2.78 -3.81,2.15 -4.16,1.53 -4.30,0.82 -4.43,0.11 -4.34,-0.59 -4.24,-1.30 -3.92,-1.94 -3.60,-2.59 -3.09,-3.09 -2.59,-3.60 -1.94,-3.92 -1.30,-4.24 -0.59,-4.34 0.12,-4.43 0.82,-4.30 1.53,-4.16 2.15,-3.81 2.78,-3.46 3.26,-2.92 3.74,-2.39 4.02,-1.73 4.31,-1.07 4.36,-0.35 4.42,0.36 4.25,1.05 4.07,1.75 3.69,2.36 3.30,2.96 2.74,3.41 2.18,3.86 1.51,4.11 0.83,4.36 0.11,4.38 -0.60,4.40 -1.28,4.18 -1.97,3.97 -2.55,3.55 -3.14,3.13 -3.14,3.14 -3.14,3.14 -3.47,2.71 -3.80,2.29 -4.02,1.80 -4.24,1.32 -4.33,0.79 -4.43,0.26 -4.40,-0.26 -4.36,-0.80 -4.20,-1.31 -4.04,-1.82 -3.77,-2.28 -3.49,-2.73 -3.11,-3.11 -2.73,-3.49 -2.28,-3.77 -1.82,-4.05 -1.31,-4.20 -0.80,-4.36 -0.26,-4.40 0.26,-4.43 0.79,-4.33 1.32,-4.24 1.80,-4.02 2.29,-3.80 2.71,-3.47 3.14,-3.14 3.14,-3.14 L 3.14,-3.14 Z"></path></g><g transform="translate(114.90716344857776 469.8433505038512) rotate(0 0.00007034077661671745 0.0000703407766309283)" stroke="none"><path fill="#504945" d="M 3.14,-3.14 Q 3.14,-3.14 3.55,-2.55 3.97,-1.97 4.18,-1.28 4.40,-0.59 4.38,0.11 4.36,0.83 4.11,1.51 3.86,2.18 3.41,2.74 2.96,3.30 2.36,3.69 1.75,4.07 1.05,4.25 0.36,4.42 -0.35,4.36 -1.07,4.30 -1.73,4.02 -2.39,3.74 -2.92,3.26 -3.46,2.78 -3.81,2.15 -4.16,1.53 -4.30,0.82 -4.43,0.11 -4.34,-0.59 -4.24,-1.30 -3.92,-1.94 -3.60,-2.59 -3.09,-3.09 -2.59,-3.60 -1.94,-3.92 -1.30,-4.24 -0.59,-4.34 0.12,-4.43 0.82,-4.30 1.53,-4.16 2.15,-3.81 2.78,-3.46 3.26,-2.92 3.74,-2.39 4.02,-1.73 4.31,-1.07 4.36,-0.35 4.42,0.36 4.25,1.05 4.07,1.75 3.69,2.36 3.30,2.96 2.74,3.41 2.18,3.86 1.51,4.11 0.83,4.36 0.11,4.38 -0.60,4.40 -1.28,4.18 -1.97,3.97 -2.55,3.55 -3.14,3.13 -3.14,3.14 -3.14,3.14 -3.47,2.71 -3.80,2.29 -4.02,1.80 -4.24,1.32 -4.33,0.79 -4.43,0.26 -4.40,-0.26 -4.36,-0.80 -4.20,-1.31 -4.04,-1.82 -3.77,-2.28 -3.49,-2.73 -3.11,-3.11 -2.73,-3.49 -2.28,-3.77 -1.82,-4.05 -1.31,-4.20 -0.80,-4.36 -0.26,-4.40 0.26,-4.43 0.79,-4.33 1.32,-4.24 1.80,-4.02 2.29,-3.80 2.71,-3.47 3.14,-3.14 3.14,-3.14 L 3.14,-3.14 Z"></path></g><g transform="translate(157.9145300414027 469.84320938938424) rotate(0 0.00007034077661671745 0.0000703407766309283)" stroke="none"><path fill="#504945" d="M 3.14,-3.14 Q 3.14,-3.14 3.55,-2.55 3.97,-1.97 4.18,-1.28 4.40,-0.59 4.38,0.11 4.36,0.83 4.11,1.51 3.86,2.18 3.41,2.74 2.96,3.30 2.36,3.69 1.75,4.07 1.05,4.25 0.36,4.42 -0.35,4.36 -1.07,4.30 -1.73,4.02 -2.39,3.74 -2.92,3.26 -3.46,2.78 -3.81,2.15 -4.16,1.53 -4.30,0.82 -4.43,0.11 -4.34,-0.59 -4.24,-1.30 -3.92,-1.94 -3.60,-2.59 -3.09,-3.09 -2.59,-3.60 -1.94,-3.92 -1.30,-4.24 -0.59,-4.34 0.12,-4.43 0.82,-4.30 1.53,-4.16 2.15,-3.81 2.78,-3.46 3.26,-2.92 3.74,-2.39 4.02,-1.73 4.31,-1.07 4.36,-0.35 4.42,0.36 4.25,1.05 4.07,1.75 3.69,2.36 3.30,2.96 2.74,3.41 2.18,3.86 1.51,4.11 0.83,4.36 0.11,4.38 -0.60,4.40 -1.28,4.18 -1.97,3.97 -2.55,3.55 -3.14,3.13 -3.14,3.14 -3.14,3.14 -3.47,2.71 -3.80,2.29 -4.02,1.80 -4.24,1.32 -4.33,0.79 -4.43,0.26 -4.40,-0.26 -4.36,-0.80 -4.20,-1.31 -4.04,-1.82 -3.77,-2.28 -3.49,-2.73 -3.11,-3.11 -2.73,-3.49 -2.28,-3.77 -1.82,-4.05 -1.31,-4.20 -0.80,-4.36 -0.26,-4.40 0.26,-4.43 0.79,-4.33 1.32,-4.24 1.80,-4.02 2.29,-3.80 2.71,-3.47 3.14,-3.14 3.14,-3.14 L 3.14,-3.14 Z"></path></g><g transform="translate(200.92245821611414 469.8433501390182) rotate(0 0.00007034077661671745 0.0000703407766309283)" stroke="none"><path fill="#d65d0e" d="M 3.14,-3.14 Q 3.14,-3.14 3.55,-2.55 3.97,-1.97 4.18,-1.28 4.40,-0.59 4.38,0.11 4.36,0.83 4.11,1.51 3.86,2.18 3.41,2.74 2.96,3.30 2.36,3.69 1.75,4.07 1.05,4.25 0.36,4.42 -0.35,4.36 -1.07,4.30 -1.73,4.02 -2.39,3.74 -2.92,3.26 -3.46,2.78 -3.81,2.15 -4.16,1.53 -4.30,0.82 -4.43,0.11 -4.34,-0.59 -4.24,-1.30 -3.92,-1.94 -3.60,-2.59 -3.09,-3.09 -2.59,-3.60 -1.94,-3.92 -1.30,-4.24 -0.59,-4.34 0.12,-4.43 0.82,-4.30 1.53,-4.16 2.15,-3.81 2.78,-3.46 3.26,-2.92 3.74,-2.39 4.02,-1.73 4.31,-1.07 4.36,-0.35 4.42,0.36 4.25,1.05 4.07,1.75 3.69,2.36 3.30,2.96 2.74,3.41 2.18,3.86 1.51,4.11 0.83,4.36 0.11,4.38 -0.60,4.40 -1.28,4.18 -1.97,3.97 -2.55,3.55 -3.14,3.13 -3.14,3.14 -3.14,3.14 -3.47,2.71 -3.80,2.29 -4.02,1.80 -4.24,1.32 -4.33,0.79 -4.43,0.26 -4.40,-0.26 -4.36,-0.80 -4.20,-1.31 -4.04,-1.82 -3.77,-2.28 -3.49,-2.73 -3.11,-3.11 -2.73,-3.49 -2.28,-3.77 -1.82,-4.05 -1.31,-4.20 -0.80,-4.36 -0.26,-4.40 0.26,-4.43 0.79,-4.33 1.32,-4.24 1.80,-4.02 2.29,-3.80 2.71,-3.47 3.14,-3.14 3.14,-3.14 L 3.14,-3.14 Z"></path></g><g transform="translate(243.93038645523137 469.84335248850573) rotate(0 0.0000703407766025066 0.0000703407766309283)" stroke="none"><path fill="#504945" d="M 3.14,-3.14 Q 3.14,-3.14 3.55,-2.55 3.97,-1.97 4.18,-1.28 4.40,-0.59 4.38,0.11 4.36,0.83 4.11,1.51 3.86,2.18 3.41,2.74 2.96,3.30 2.36,3.69 1.75,4.07 1.05,4.25 0.36,4.42 -0.35,4.36 -1.07,4.30 -1.73,4.02 -2.39,3.74 -2.92,3.26 -3.46,2.78 -3.81,2.15 -4.16,1.53 -4.30,0.82 -4.43,0.11 -4.34,-0.59 -4.24,-1.30 -3.92,-1.94 -3.60,-2.59 -3.09,-3.09 -2.59,-3.60 -1.94,-3.92 -1.30,-4.24 -0.59,-4.34 0.12,-4.43 0.82,-4.30 1.53,-4.16 2.15,-3.81 2.78,-3.46 3.26,-2.92 3.74,-2.39 4.02,-1.73 4.31,-1.07 4.36,-0.35 4.42,0.36 4.25,1.05 4.07,1.75 3.69,2.36 3.30,2.96 2.74,3.41 2.18,3.86 1.51,4.11 0.83,4.36 0.11,4.38 -0.60,4.40 -1.28,4.18 -1.97,3.97 -2.55,3.55 -3.14,3.13 -3.14,3.14 -3.14,3.14 -3.47,2.71 -3.80,2.29 -4.02,1.80 -4.24,1.32 -4.33,0.79 -4.43,0.26 -4.40,-0.26 -4.36,-0.80 -4.20,-1.31 -4.04,-1.82 -3.77,-2.28 -3.49,-2.73 -3.11,-3.11 -2.73,-3.49 -2.28,-3.77 -1.82,-4.05 -1.31,-4.20 -0.80,-4.36 -0.26,-4.40 0.26,-4.43 0.79,-4.33 1.32,-4.24 1.80,-4.02 2.29,-3.80 2.71,-3.47 3.14,-3.14 3.14,-3.14 L 3.14,-3.14 Z"></path></g><g transform="translate(286.93831462994274 469.8434932381398) rotate(0 0.0000703407766025066 0.0000703407766309283)" stroke="none"><path fill="#d65d0e" d="M 3.14,-3.14 Q 3.14,-3.14 3.55,-2.55 3.97,-1.97 4.18,-1.28 4.40,-0.59 4.38,0.11 4.36,0.83 4.11,1.51 3.86,2.18 3.41,2.74 2.96,3.30 2.36,3.69 1.75,4.07 1.05,4.25 0.36,4.42 -0.35,4.36 -1.07,4.30 -1.73,4.02 -2.39,3.74 -2.92,3.26 -3.46,2.78 -3.81,2.15 -4.16,1.53 -4.30,0.82 -4.43,0.11 -4.34,-0.59 -4.24,-1.30 -3.92,-1.94 -3.60,-2.59 -3.09,-3.09 -2.59,-3.60 -1.94,-3.92 -1.30,-4.24 -0.59,-4.34 0.12,-4.43 0.82,-4.30 1.53,-4.16 2.15,-3.81 2.78,-3.46 3.26,-2.92 3.74,-2.39 4.02,-1.73 4.31,-1.07 4.36,-0.35 4.42,0.36 4.25,1.05 4.07,1.75 3.69,2.36 3.30,2.96 2.74,3.41 2.18,3.86 1.51,4.11 0.83,4.36 0.11,4.38 -0.60,4.40 -1.28,4.18 -1.97,3.97 -2.55,3.55 -3.14,3.13 -3.14,3.14 -3.14,3.14 -3.47,2.71 -3.80,2.29 -4.02,1.80 -4.24,1.32 -4.33,0.79 -4.43,0.26 -4.40,-0.26 -4.36,-0.80 -4.20,-1.31 -4.04,-1.82 -3.77,-2.28 -3.49,-2.73 -3.11,-3.11 -2.73,-3.49 -2.28,-3.77 -1.82,-4.05 -1.31,-4.20 -0.80,-4.36 -0.26,-4.40 0.26,-4.43 0.79,-4.33 1.32,-4.24 1.80,-4.02 2.29,-3.80 2.71,-3.47 3.14,-3.14 3.14,-3.14 L 3.14,-3.14 Z"></path></g><g transform="translate(329.9462416697402 469.8433533712931) rotate(0 0.0000703407766025066 0.0000703407766309283)" stroke="none"><path fill="#504945" d="M 3.14,-3.14 Q 3.14,-3.14 3.55,-2.55 3.97,-1.97 4.18,-1.28 4.40,-0.59 4.38,0.11 4.36,0.83 4.11,1.51 3.86,2.18 3.41,2.74 2.96,3.30 2.36,3.69 1.75,4.07 1.05,4.25 0.36,4.42 -0.35,4.36 -1.07,4.30 -1.73,4.02 -2.39,3.74 -2.92,3.26 -3.46,2.78 -3.81,2.15 -4.16,1.53 -4.30,0.82 -4.43,0.11 -4.34,-0.59 -4.24,-1.30 -3.92,-1.94 -3.60,-2.59 -3.09,-3.09 -2.59,-3.60 -1.94,-3.92 -1.30,-4.24 -0.59,-4.34 0.12,-4.43 0.82,-4.30 1.53,-4.16 2.15,-3.81 2.78,-3.46 3.26,-2.92 3.74,-2.39 4.02,-1.73 4.31,-1.07 4.36,-0.35 4.42,0.36 4.25,1.05 4.07,1.75 3.69,2.36 3.30,2.96 2.74,3.41 2.18,3.86 1.51,4.11 0.83,4.36 0.11,4.38 -0.60,4.40 -1.28,4.18 -1.97,3.97 -2.55,3.55 -3.14,3.13 -3.14,3.14 -3.14,3.14 -3.47,2.71 -3.80,2.29 -4.02,1.80 -4.24,1.32 -4.33,0.79 -4.43,0.26 -4.40,-0.26 -4.36,-0.80 -4.20,-1.31 -4.04,-1.82 -3.77,-2.28 -3.49,-2.73 -3.11,-3.11 -2.73,-3.49 -2.28,-3.77 -1.82,-4.05 -1.31,-4.20 -0.80,-4.36 -0.26,-4.40 0.26,-4.43 0.79,-4.33 1.32,-4.24 1.80,-4.02 2.29,-3.80 2.71,-3.47 3.14,-3.14 3.14,-3.14 L 3.14,-3.14 Z"></path></g><g transform="translate(372.9541698444516 469.84349412092706) rotate(0 0.0000703407766025066 0.0000703407766309283)" stroke="none"><path fill="#504945" d="M 3.14,-3.14 Q 3.14,-3.14 3.55,-2.55 3.97,-1.97 4.18,-1.28 4.40,-0.59 4.38,0.11 4.36,0.83 4.11,1.51 3.86,2.18 3.41,2.74 2.96,3.30 2.36,3.69 1.75,4.07 1.05,4.25 0.36,4.42 -0.35,4.36 -1.07,4.30 -1.73,4.02 -2.39,3.74 -2.92,3.26 -3.46,2.78 -3.81,2.15 -4.16,1.53 -4.30,0.82 -4.43,0.11 -4.34,-0.59 -4.24,-1.30 -3.92,-1.94 -3.60,-2.59 -3.09,-3.09 -2.59,-3.60 -1.94,-3.92 -1.30,-4.24 -0.59,-4.34 0.12,-4.43 0.82,-4.30 1.53,-4.16 2.15,-3.81 2.78,-3.46 3.26,-2.92 3.74,-2.39 4.02,-1.73 4.31,-1.07 4.36,-0.35 4.42,0.36 4.25,1.05 4.07,1.75 3.69,2.36 3.30,2.96 2.74,3.41 2.18,3.86 1.51,4.11 0.83,4.36 0.11,4.38 -0.60,4.40 -1.28,4.18 -1.97,3.97 -2.55,3.55 -3.14,3.13 -3.14,3.14 -3.14,3.14 -3.47,2.71 -3.80,2.29 -4.02,1.80 -4.24,1.32 -4.33,0.79 -4.43,0.26 -4.40,-0.26 -4.36,-0.80 -4.20,-1.31 -4.04,-1.82 -3.77,-2.28 -3.49,-2.73 -3.11,-3.11 -2.73,-3.49 -2.28,-3.77 -1.82,-4.05 -1.31,-4.20 -0.80,-4.36 -0.26,-4.40 0.26,-4.43 0.79,-4.33 1.32,-4.24 1.80,-4.02 2.29,-3.80 2.71,-3.47 3.14,-3.14 3.14,-3.14 L 3.14,-3.14 Z"></path></g><g transform="translate(415.9620974594444 469.84335301981037) rotate(0 0.0000703407766025066 0.0000703407766309283)" stroke="none"><path fill="#504945" d="M 3.14,-3.14 Q 3.14,-3.14 3.55,-2.55 3.97,-1.97 4.18,-1.28 4.40,-0.59 4.38,0.11 4.36,0.83 4.11,1.51 3.86,2.18 3.41,2.74 2.96,3.30 2.36,3.69 1.75,4.07 1.05,4.25 0.36,4.42 -0.35,4.36 -1.07,4.30 -1.73,4.02 -2.39,3.74 -2.92,3.26 -3.46,2.78 -3.81,2.15 -4.16,1.53 -4.30,0.82 -4.43,0.11 -4.34,-0.59 -4.24,-1.30 -3.92,-1.94 -3.60,-2.59 -3.09,-3.09 -2.59,-3.60 -1.94,-3.92 -1.30,-4.24 -0.59,-4.34 0.12,-4.43 0.82,-4.30 1.53,-4.16 2.15,-3.81 2.78,-3.46 3.26,-2.92 3.74,-2.39 4.02,-1.73 4.31,-1.07 4.36,-0.35 4.42,0.36 4.25,1.05 4.07,1.75 3.69,2.36 3.30,2.96 2.74,3.41 2.18,3.86 1.51,4.11 0.83,4.36 0.11,4.38 -0.60,4.40 -1.28,4.18 -1.97,3.97 -2.55,3.55 -3.14,3.13 -3.14,3.14 -3.14,3.14 -3.47,2.71 -3.80,2.29 -4.02,1.80 -4.24,1.32 -4.33,0.79 -4.43,0.26 -4.40,-0.26 -4.36,-0.80 -4.20,-1.31 -4.04,-1.82 -3.77,-2.28 -3.49,-2.73 -3.11,-3.11 -2.73,-3.49 -2.28,-3.77 -1.82,-4.05 -1.31,-4.20 -0.80,-4.36 -0.26,-4.40 0.26,-4.43 0.79,-4.33 1.32,-4.24 1.80,-4.02 2.29,-3.80 2.71,-3.47 3.14,-3.14 3.14,-3.14 L 3.14,-3.14 Z"></path></g><g transform="translate(458.9700256341557 469.8434937694443) rotate(0 0.0000703407766025066 0.0000703407766309283)" stroke="none"><path fill="#504945" d="M 3.14,-3.14 Q 3.14,-3.14 3.55,-2.55 3.97,-1.97 4.18,-1.28 4.40,-0.59 4.38,0.11 4.36,0.83 4.11,1.51 3.86,2.18 3.41,2.74 2.96,3.30 2.36,3.69 1.75,4.07 1.05,4.25 0.36,4.42 -0.35,4.36 -1.07,4.30 -1.73,4.02 -2.39,3.74 -2.92,3.26 -3.46,2.78 -3.81,2.15 -4.16,1.53 -4.30,0.82 -4.43,0.11 -4.34,-0.59 -4.24,-1.30 -3.92,-1.94 -3.60,-2.59 -3.09,-3.09 -2.59,-3.60 -1.94,-3.92 -1.30,-4.24 -0.59,-4.34 0.12,-4.43 0.82,-4.30 1.53,-4.16 2.15,-3.81 2.78,-3.46 3.26,-2.92 3.74,-2.39 4.02,-1.73 4.31,-1.07 4.36,-0.35 4.42,0.36 4.25,1.05 4.07,1.75 3.69,2.36 3.30,2.96 2.74,3.41 2.18,3.86 1.51,4.11 0.83,4.36 0.11,4.38 -0.60,4.40 -1.28,4.18 -1.97,3.97 -2.55,3.55 -3.14,3.13 -3.14,3.14 -3.14,3.14 -3.47,2.71 -3.80,2.29 -4.02,1.80 -4.24,1.32 -4.33,0.79 -4.43,0.26 -4.40,-0.26 -4.36,-0.80 -4.20,-1.31 -4.04,-1.82 -3.77,-2.28 -3.49,-2.73 -3.11,-3.11 -2.73,-3.49 -2.28,-3.77 -1.82,-4.05 -1.31,-4.20 -0.80,-4.36 -0.26,-4.40 0.26,-4.43 0.79,-4.33 1.32,-4.24 1.80,-4.02 2.29,-3.80 2.71,-3.47 3.14,-3.14 3.14,-3.14 L 3.14,-3.14 Z"></path></g><g transform="translate(501.9773922269809 469.8433526549775) rotate(0 0.0000703407766309283 0.0000703407766309283)" stroke="none"><path fill="#504945" d="M 3.14,-3.14 Q 3.14,-3.14 3.55,-2.55 3.97,-1.97 4.18,-1.28 4.40,-0.59 4.38,0.11 4.36,0.83 4.11,1.51 3.86,2.18 3.41,2.74 2.96,3.30 2.36,3.69 1.75,4.07 1.05,4.25 0.36,4.42 -0.35,4.36 -1.07,4.30 -1.73,4.02 -2.39,3.74 -2.92,3.26 -3.46,2.78 -3.81,2.15 -4.16,1.53 -4.30,0.82 -4.43,0.11 -4.34,-0.59 -4.24,-1.30 -3.92,-1.94 -3.60,-2.59 -3.09,-3.09 -2.59,-3.60 -1.94,-3.92 -1.30,-4.24 -0.59,-4.34 0.12,-4.43 0.82,-4.30 1.53,-4.16 2.15,-3.81 2.78,-3.46 3.26,-2.92 3.74,-2.39 4.02,-1.73 4.31,-1.07 4.36,-0.35 4.42,0.36 4.25,1.05 4.07,1.75 3.69,2.36 3.30,2.96 2.74,3.41 2.18,3.86 1.51,4.11 0.83,4.36 0.11,4.38 -0.60,4.40 -1.28,4.18 -1.97,3.97 -2.55,3.55 -3.14,3.13 -3.14,3.14 -3.14,3.14 -3.47,2.71 -3.80,2.29 -4.02,1.80 -4.24,1.32 -4.33,0.79 -4.43,0.26 -4.40,-0.26 -4.36,-0.80 -4.20,-1.31 -4.04,-1.82 -3.77,-2.28 -3.49,-2.73 -3.11,-3.11 -2.73,-3.49 -2.28,-3.77 -1.82,-4.05 -1.31,-4.20 -0.80,-4.36 -0.26,-4.40 0.26,-4.43 0.79,-4.33 1.32,-4.24 1.80,-4.02 2.29,-3.80 2.71,-3.47 3.14,-3.14 3.14,-3.14 L 3.14,-3.14 Z"></path></g><g transform="translate(544.985320401692 469.8434934046114) rotate(0 0.0000703407766309283 0.0000703407766309283)" stroke="none"><path fill="#d65d0e" d="M 3.14,-3.14 Q 3.14,-3.14 3.55,-2.55 3.97,-1.97 4.18,-1.28 4.40,-0.59 4.38,0.11 4.36,0.83 4.11,1.51 3.86,2.18 3.41,2.74 2.96,3.30 2.36,3.69 1.75,4.07 1.05,4.25 0.36,4.42 -0.35,4.36 -1.07,4.30 -1.73,4.02 -2.39,3.74 -2.92,3.26 -3.46,2.78 -3.81,2.15 -4.16,1.53 -4.30,0.82 -4.43,0.11 -4.34,-0.59 -4.24,-1.30 -3.92,-1.94 -3.60,-2.59 -3.09,-3.09 -2.59,-3.60 -1.94,-3.92 -1.30,-4.24 -0.59,-4.34 0.12,-4.43 0.82,-4.30 1.53,-4.16 2.15,-3.81 2.78,-3.46 3.26,-2.92 3.74,-2.39 4.02,-1.73 4.31,-1.07 4.36,-0.35 4.42,0.36 4.25,1.05 4.07,1.75 3.69,2.36 3.30,2.96 2.74,3.41 2.18,3.86 1.51,4.11 0.83,4.36 0.11,4.38 -0.60,4.40 -1.28,4.18 -1.97,3.97 -2.55,3.55 -3.14,3.13 -3.14,3.14 -3.14,3.14 -3.47,2.71 -3.80,2.29 -4.02,1.80 -4.24,1.32 -4.33,0.79 -4.43,0.26 -4.40,-0.26 -4.36,-0.80 -4.20,-1.31 -4.04,-1.82 -3.77,-2.28 -3.49,-2.73 -3.11,-3.11 -2.73,-3.49 -2.28,-3.77 -1.82,-4.05 -1.31,-4.20 -0.80,-4.36 -0.26,-4.40 0.26,-4.43 0.79,-4.33 1.32,-4.24 1.80,-4.02 2.29,-3.80 2.71,-3.47 3.14,-3.14 3.14,-3.14 L 3.14,-3.14 Z"></path></g><g transform="translate(587.9932486408093 469.8434957540991) rotate(0 0.0000703407766309283 0.0000703407766309283)" stroke="none"><path fill="#504945" d="M 3.14,-3.14 Q 3.14,-3.14 3.55,-2.55 3.97,-1.97 4.18,-1.28 4.40,-0.59 4.38,0.11 4.36,0.83 4.11,1.51 3.86,2.18 3.41,2.74 2.96,3.30 2.36,3.69 1.75,4.07 1.05,4.25 0.36,4.42 -0.35,4.36 -1.07,4.30 -1.73,4.02 -2.39,3.74 -2.92,3.26 -3.46,2.78 -3.81,2.15 -4.16,1.53 -4.30,0.82 -4.43,0.11 -4.34,-0.59 -4.24,-1.30 -3.92,-1.94 -3.60,-2.59 -3.09,-3.09 -2.59,-3.60 -1.94,-3.92 -1.30,-4.24 -0.59,-4.34 0.12,-4.43 0.82,-4.30 1.53,-4.16 2.15,-3.81 2.78,-3.46 3.26,-2.92 3.74,-2.39 4.02,-1.73 4.31,-1.07 4.36,-0.35 4.42,0.36 4.25,1.05 4.07,1.75 3.69,2.36 3.30,2.96 2.74,3.41 2.18,3.86 1.51,4.11 0.83,4.36 0.11,4.38 -0.60,4.40 -1.28,4.18 -1.97,3.97 -2.55,3.55 -3.14,3.13 -3.14,3.14 -3.14,3.14 -3.47,2.71 -3.80,2.29 -4.02,1.80 -4.24,1.32 -4.33,0.79 -4.43,0.26 -4.40,-0.26 -4.36,-0.80 -4.20,-1.31 -4.04,-1.82 -3.77,-2.28 -3.49,-2.73 -3.11,-3.11 -2.73,-3.49 -2.28,-3.77 -1.82,-4.05 -1.31,-4.20 -0.80,-4.36 -0.26,-4.40 0.26,-4.43 0.79,-4.33 1.32,-4.24 1.80,-4.02 2.29,-3.80 2.71,-3.47 3.14,-3.14 3.14,-3.14 L 3.14,-3.14 Z"></path></g><g transform="translate(631.0011768155209 469.843636503733) rotate(0 0.0000703407766309283 0.0000703407766309283)" stroke="none"><path fill="#504945" d="M 3.14,-3.14 Q 3.14,-3.14 3.55,-2.55 3.97,-1.97 4.18,-1.28 4.40,-0.59 4.38,0.11 4.36,0.83 4.11,1.51 3.86,2.18 3.41,2.74 2.96,3.30 2.36,3.69 1.75,4.07 1.05,4.25 0.36,4.42 -0.35,4.36 -1.07,4.30 -1.73,4.02 -2.39,3.74 -2.92,3.26 -3.46,2.78 -3.81,2.15 -4.16,1.53 -4.30,0.82 -4.43,0.11 -4.34,-0.59 -4.24,-1.30 -3.92,-1.94 -3.60,-2.59 -3.09,-3.09 -2.59,-3.60 -1.94,-3.92 -1.30,-4.24 -0.59,-4.34 0.12,-4.43 0.82,-4.30 1.53,-4.16 2.15,-3.81 2.78,-3.46 3.26,-2.92 3.74,-2.39 4.02,-1.73 4.31,-1.07 4.36,-0.35 4.42,0.36 4.25,1.05 4.07,1.75 3.69,2.36 3.30,2.96 2.74,3.41 2.18,3.86 1.51,4.11 0.83,4.36 0.11,4.38 -0.60,4.40 -1.28,4.18 -1.97,3.97 -2.55,3.55 -3.14,3.13 -3.14,3.14 -3.14,3.14 -3.47,2.71 -3.80,2.29 -4.02,1.80 -4.24,1.32 -4.33,0.79 -4.43,0.26 -4.40,-0.26 -4.36,-0.80 -4.20,-1.31 -4.04,-1.82 -3.77,-2.28 -3.49,-2.73 -3.11,-3.11 -2.73,-3.49 -2.28,-3.77 -1.82,-4.05 -1.31,-4.20 -0.80,-4.36 -0.26,-4.40 0.26,-4.43 0.79,-4.33 1.32,-4.24 1.80,-4.02 2.29,-3.80 2.71,-3.47 3.14,-3.14 3.14,-3.14 L 3.14,-3.14 Z"></path></g><g transform="translate(674.0091038553184 469.84349663688624) rotate(0 0.0000703407766309283 0.0000703407766309283)" stroke="none"><path fill="#504945" d="M 3.14,-3.14 Q 3.14,-3.14 3.55,-2.55 3.97,-1.97 4.18,-1.28 4.40,-0.59 4.38,0.11 4.36,0.83 4.11,1.51 3.86,2.18 3.41,2.74 2.96,3.30 2.36,3.69 1.75,4.07 1.05,4.25 0.36,4.42 -0.35,4.36 -1.07,4.30 -1.73,4.02 -2.39,3.74 -2.92,3.26 -3.46,2.78 -3.81,2.15 -4.16,1.53 -4.30,0.82 -4.43,0.11 -4.34,-0.59 -4.24,-1.30 -3.92,-1.94 -3.60,-2.59 -3.09,-3.09 -2.59,-3.60 -1.94,-3.92 -1.30,-4.24 -0.59,-4.34 0.12,-4.43 0.82,-4.30 1.53,-4.16 2.15,-3.81 2.78,-3.46 3.26,-2.92 3.74,-2.39 4.02,-1.73 4.31,-1.07 4.36,-0.35 4.42,0.36 4.25,1.05 4.07,1.75 3.69,2.36 3.30,2.96 2.74,3.41 2.18,3.86 1.51,4.11 0.83,4.36 0.11,4.38 -0.60,4.40 -1.28,4.18 -1.97,3.97 -2.55,3.55 -3.14,3.13 -3.14,3.14 -3.14,3.14 -3.47,2.71 -3.80,2.29 -4.02,1.80 -4.24,1.32 -4.33,0.79 -4.43,0.26 -4.40,-0.26 -4.36,-0.80 -4.20,-1.31 -4.04,-1.82 -3.77,-2.28 -3.49,-2.73 -3.11,-3.11 -2.73,-3.49 -2.28,-3.77 -1.82,-4.05 -1.31,-4.20 -0.80,-4.36 -0.26,-4.40 0.26,-4.43 0.79,-4.33 1.32,-4.24 1.80,-4.02 2.29,-3.80 2.71,-3.47 3.14,-3.14 3.14,-3.14 L 3.14,-3.14 Z"></path></g><g transform="translate(717.0170320300298 469.8436373865202) rotate(0 0.0000703407766309283 0.0000703407766309283)" stroke="none"><path fill="#504945" d="M 3.14,-3.14 Q 3.14,-3.14 3.55,-2.55 3.97,-1.97 4.18,-1.28 4.40,-0.59 4.38,0.11 4.36,0.83 4.11,1.51 3.86,2.18 3.41,2.74 2.96,3.30 2.36,3.69 1.75,4.07 1.05,4.25 0.36,4.42 -0.35,4.36 -1.07,4.30 -1.73,4.02 -2.39,3.74 -2.92,3.26 -3.46,2.78 -3.81,2.15 -4.16,1.53 -4.30,0.82 -4.43,0.11 -4.34,-0.59 -4.24,-1.30 -3.92,-1.94 -3.60,-2.59 -3.09,-3.09 -2.59,-3.60 -1.94,-3.92 -1.30,-4.24 -0.59,-4.34 0.12,-4.43 0.82,-4.30 1.53,-4.16 2.15,-3.81 2.78,-3.46 3.26,-2.92 3.74,-2.39 4.02,-1.73 4.31,-1.07 4.36,-0.35 4.42,0.36 4.25,1.05 4.07,1.75 3.69,2.36 3.30,2.96 2.74,3.41 2.18,3.86 1.51,4.11 0.83,4.36 0.11,4.38 -0.60,4.40 -1.28,4.18 -1.97,3.97 -2.55,3.55 -3.14,3.13 -3.14,3.14 -3.14,3.14 -3.47,2.71 -3.80,2.29 -4.02,1.80 -4.24,1.32 -4.33,0.79 -4.43,0.26 -4.40,-0.26 -4.36,-0.80 -4.20,-1.31 -4.04,-1.82 -3.77,-2.28 -3.49,-2.73 -3.11,-3.11 -2.73,-3.49 -2.28,-3.77 -1.82,-4.05 -1.31,-4.20 -0.80,-4.36 -0.26,-4.40 0.26,-4.43 0.79,-4.33 1.32,-4.24 1.80,-4.02 2.29,-3.80 2.71,-3.47 3.14,-3.14 3.14,-3.14 L 3.14,-3.14 Z"></path></g><g transform="translate(136.30723615268448 315.0940716688783) rotate(0 0.00007034077661671745 0.0000703407766309283)" stroke="none"><path fill="#d65d0e" d="M 3.14,-3.14 Q 3.14,-3.14 3.55,-2.55 3.97,-1.97 4.18,-1.28 4.40,-0.59 4.38,0.11 4.36,0.83 4.11,1.51 3.86,2.18 3.41,2.74 2.96,3.30 2.36,3.69 1.75,4.07 1.05,4.25 0.36,4.42 -0.35,4.36 -1.07,4.30 -1.73,4.02 -2.39,3.74 -2.92,3.26 -3.46,2.78 -3.81,2.15 -4.16,1.53 -4.30,0.82 -4.43,0.11 -4.34,-0.59 -4.24,-1.30 -3.92,-1.94 -3.60,-2.59 -3.09,-3.09 -2.59,-3.60 -1.94,-3.92 -1.30,-4.24 -0.59,-4.34 0.12,-4.43 0.82,-4.30 1.53,-4.16 2.15,-3.81 2.78,-3.46 3.26,-2.92 3.74,-2.39 4.02,-1.73 4.31,-1.07 4.36,-0.35 4.42,0.36 4.25,1.05 4.07,1.75 3.69,2.36 3.30,2.96 2.74,3.41 2.18,3.86 1.51,4.11 0.83,4.36 0.11,4.38 -0.60,4.40 -1.28,4.18 -1.97,3.97 -2.55,3.55 -3.14,3.13 -3.14,3.14 -3.14,3.14 -3.47,2.71 -3.80,2.29 -4.02,1.80 -4.24,1.32 -4.33,0.79 -4.43,0.26 -4.40,-0.26 -4.36,-0.80 -4.20,-1.31 -4.04,-1.82 -3.77,-2.28 -3.49,-2.73 -3.11,-3.11 -2.73,-3.49 -2.28,-3.77 -1.82,-4.05 -1.31,-4.20 -0.80,-4.36 -0.26,-4.40 0.26,-4.43 0.79,-4.33 1.32,-4.24 1.80,-4.02 2.29,-3.80 2.71,-3.47 3.14,-3.14 3.14,-3.14 L 3.14,-3.14 Z"></path></g><g transform="translate(179.4185642454542 392.4683572604489) rotate(0 0.00007034077661671745 0.0000703407766309283)" stroke="none"><path fill="#d65d0e" d="M 3.14,-3.14 Q 3.14,-3.14 3.55,-2.55 3.97,-1.97 4.18,-1.28 4.40,-0.59 4.38,0.11 4.36,0.83 4.11,1.51 3.86,2.18 3.41,2.74 2.96,3.30 2.36,3.69 1.75,4.07 1.05,4.25 0.36,4.42 -0.35,4.36 -1.07,4.30 -1.73,4.02 -2.39,3.74 -2.92,3.26 -3.46,2.78 -3.81,2.15 -4.16,1.53 -4.30,0.82 -4.43,0.11 -4.34,-0.59 -4.24,-1.30 -3.92,-1.94 -3.60,-2.59 -3.09,-3.09 -2.59,-3.60 -1.94,-3.92 -1.30,-4.24 -0.59,-4.34 0.12,-4.43 0.82,-4.30 1.53,-4.16 2.15,-3.81 2.78,-3.46 3.26,-2.92 3.74,-2.39 4.02,-1.73 4.31,-1.07 4.36,-0.35 4.42,0.36 4.25,1.05 4.07,1.75 3.69,2.36 3.30,2.96 2.74,3.41 2.18,3.86 1.51,4.11 0.83,4.36 0.11,4.38 -0.60,4.40 -1.28,4.18 -1.97,3.97 -2.55,3.55 -3.14,3.13 -3.14,3.14 -3.14,3.14 -3.47,2.71 -3.80,2.29 -4.02,1.80 -4.24,1.32 -4.33,0.79 -4.43,0.26 -4.40,-0.26 -4.36,-0.80 -4.20,-1.31 -4.04,-1.82 -3.77,-2.28 -3.49,-2.73 -3.11,-3.11 -2.73,-3.49 -2.28,-3.77 -1.82,-4.05 -1.31,-4.20 -0.80,-4.36 -0.26,-4.40 0.26,-4.43 0.79,-4.33 1.32,-4.24 1.80,-4.02 2.29,-3.80 2.71,-3.47 3.14,-3.14 3.14,-3.14 L 3.14,-3.14 Z"></path></g><g transform="translate(93.40355260144071 392.46878282752766) rotate(0 0.00007034077660961202 0.0000703407766309283)" stroke="none"><path fill="#504945" d="M 3.14,-3.14 Q 3.14,-3.14 3.55,-2.55 3.97,-1.97 4.18,-1.28 4.40,-0.59 4.38,0.11 4.36,0.83 4.11,1.51 3.86,2.18 3.41,2.74 2.96,3.30 2.36,3.69 1.75,4.07 1.05,4.25 0.36,4.42 -0.35,4.36 -1.07,4.30 -1.73,4.02 -2.39,3.74 -2.92,3.26 -3.46,2.78 -3.81,2.15 -4.16,1.53 -4.30,0.82 -4.43,0.11 -4.34,-0.59 -4.24,-1.30 -3.92,-1.94 -3.60,-2.59 -3.09,-3.09 -2.59,-3.60 -1.94,-3.92 -1.30,-4.24 -0.59,-4.34 0.12,-4.43 0.82,-4.30 1.53,-4.16 2.15,-3.81 2.78,-3.46 3.26,-2.92 3.74,-2.39 4.02,-1.73 4.31,-1.07 4.36,-0.35 4.42,0.36 4.25,1.05 4.07,1.75 3.69,2.36 3.30,2.96 2.74,3.41 2.18,3.86 1.51,4.11 0.83,4.36 0.11,4.38 -0.60,4.40 -1.28,4.18 -1.97,3.97 -2.55,3.55 -3.14,3.13 -3.14,3.14 -3.14,3.14 -3.47,2.71 -3.80,2.29 -4.02,1.80 -4.24,1.32 -4.33,0.79 -4.43,0.26 -4.40,-0.26 -4.36,-0.80 -4.20,-1.31 -4.04,-1.82 -3.77,-2.28 -3.49,-2.73 -3.11,-3.11 -2.73,-3.49 -2.28,-3.77 -1.82,-4.05 -1.31,-4.20 -0.80,-4.36 -0.26,-4.40 0.26,-4.43 0.79,-4.33 1.32,-4.24 1.80,-4.02 2.29,-3.80 2.71,-3.47 3.14,-3.14 3.14,-3.14 L 3.14,-3.14 Z"></path></g><g stroke-linecap="round"><g transform="translate(179.18929926249723 392.555556538814) rotate(0 -21.823881575083107 -38.706506944486875)"><path d="M0 0 C-13.43 -23.82, -26.86 -47.64, -43.65 -77.41 M0 0 C-15.88 -28.17, -31.77 -56.34, -43.65 -77.41" stroke="#d65d0e" stroke-width="1" fill="none"></path></g></g><mask></mask><g stroke-linecap="round"><g transform="translate(135.12976476185815 315.96608535078656) rotate(0 -21.000338874136688 38.70650694448699)"><path d="M0 0 C-11.47 21.13, -22.93 42.27, -42 77.41 M0 0 C-9.55 17.6, -19.1 35.21, -42 77.41" stroke="#504945" stroke-width="1" fill="none"></path></g></g><mask></mask><g stroke-linecap="round"><g transform="translate(93.54085836405812 392.555556538814) rotate(0 -11.529597813251463 38.70650694448693)"><path d="M0 0 C-6.73 22.6, -13.46 45.2, -23.06 77.41 M0 0 C-8.52 28.62, -17.05 57.23, -23.06 77.41" stroke="#504945" stroke-width="1" fill="none"></path></g></g><mask></mask><g stroke-linecap="round"><g transform="translate(93.54085836405812 392.555556538814) rotate(0 10.294283761831565 38.70650694448693)"><path d="M0 0 C4.59 17.24, 9.17 34.48, 20.59 77.41 M0 0 C4.88 18.34, 9.76 36.69, 20.59 77.41" stroke="#504945" stroke-width="1" fill="none"></path></g></g><mask></mask><g stroke-linecap="round"><g transform="translate(178.77752791202403 392.555556538814) rotate(0 -10.294283761831721 38.7065069444871)"><path d="M0 0 C-6.6 24.83, -13.21 49.65, -20.59 77.41 M0 0 C-4.78 17.98, -9.56 35.95, -20.59 77.41" stroke="#504945" stroke-width="1" fill="none"></path></g></g><mask></mask><g stroke-linecap="round"><g transform="translate(179.18929926249723 392.555556538814) rotate(0 10.706055112304881 38.70650694448693)"><path d="M0 0 C8.56 30.96, 17.13 61.93, 21.41 77.41 M0 0 C5.78 20.9, 11.56 41.8, 21.41 77.41" stroke="#d65d0e" stroke-width="1" fill="none"></path></g></g><mask></mask><g transform="translate(264.60939669225195 392.3429964820401) rotate(0 0.0000703407766025066 0.0000703407766309283)" stroke="none"><path fill="#d65d0e" d="M 3.14,-3.14 Q 3.14,-3.14 3.55,-2.55 3.97,-1.97 4.18,-1.28 4.40,-0.59 4.38,0.11 4.36,0.83 4.11,1.51 3.86,2.18 3.41,2.74 2.96,3.30 2.36,3.69 1.75,4.07 1.05,4.25 0.36,4.42 -0.35,4.36 -1.07,4.30 -1.73,4.02 -2.39,3.74 -2.92,3.26 -3.46,2.78 -3.81,2.15 -4.16,1.53 -4.30,0.82 -4.43,0.11 -4.34,-0.59 -4.24,-1.30 -3.92,-1.94 -3.60,-2.59 -3.09,-3.09 -2.59,-3.60 -1.94,-3.92 -1.30,-4.24 -0.59,-4.34 0.12,-4.43 0.82,-4.30 1.53,-4.16 2.15,-3.81 2.78,-3.46 3.26,-2.92 3.74,-2.39 4.02,-1.73 4.31,-1.07 4.36,-0.35 4.42,0.36 4.25,1.05 4.07,1.75 3.69,2.36 3.30,2.96 2.74,3.41 2.18,3.86 1.51,4.11 0.83,4.36 0.11,4.38 -0.60,4.40 -1.28,4.18 -1.97,3.97 -2.55,3.55 -3.14,3.13 -3.14,3.14 -3.14,3.14 -3.47,2.71 -3.80,2.29 -4.02,1.80 -4.24,1.32 -4.33,0.79 -4.43,0.26 -4.40,-0.26 -4.36,-0.80 -4.20,-1.31 -4.04,-1.82 -3.77,-2.28 -3.49,-2.73 -3.11,-3.11 -2.73,-3.49 -2.28,-3.77 -1.82,-4.05 -1.31,-4.20 -0.80,-4.36 -0.26,-4.40 0.26,-4.43 0.79,-4.33 1.32,-4.24 1.80,-4.02 2.29,-3.80 2.71,-3.47 3.14,-3.14 3.14,-3.14 L 3.14,-3.14 Z"></path></g><g stroke-linecap="round"><g transform="translate(263.96836035882177 392.43019576040535) rotate(0 -10.294283761831707 38.7065069444871)"><path d="M0 0 C-4.65 17.47, -9.29 34.94, -20.59 77.41 M0 0 C-4.44 16.69, -8.88 33.38, -20.59 77.41" stroke="#504945" stroke-width="1" fill="none"></path></g></g><mask></mask><g stroke-linecap="round"><g transform="translate(264.38013170929503 392.43019576040535) rotate(0 10.706055112304881 38.70650694448693)"><path d="M0 0 C7.21 26.07, 14.42 52.13, 21.41 77.41 M0 0 C7.97 28.83, 15.95 57.66, 21.41 77.41" stroke="#d65d0e" stroke-width="1" fill="none"></path></g></g><mask></mask><g transform="translate(351.4730952148584 392.3429954414976) rotate(0 0.0000703407766025066 0.0000703407766309283)" stroke="none"><path fill="#504945" d="M 3.14,-3.14 Q 3.14,-3.14 3.55,-2.55 3.97,-1.97 4.18,-1.28 4.40,-0.59 4.38,0.11 4.36,0.83 4.11,1.51 3.86,2.18 3.41,2.74 2.96,3.30 2.36,3.69 1.75,4.07 1.05,4.25 0.36,4.42 -0.35,4.36 -1.07,4.30 -1.73,4.02 -2.39,3.74 -2.92,3.26 -3.46,2.78 -3.81,2.15 -4.16,1.53 -4.30,0.82 -4.43,0.11 -4.34,-0.59 -4.24,-1.30 -3.92,-1.94 -3.60,-2.59 -3.09,-3.09 -2.59,-3.60 -1.94,-3.92 -1.30,-4.24 -0.59,-4.34 0.12,-4.43 0.82,-4.30 1.53,-4.16 2.15,-3.81 2.78,-3.46 3.26,-2.92 3.74,-2.39 4.02,-1.73 4.31,-1.07 4.36,-0.35 4.42,0.36 4.25,1.05 4.07,1.75 3.69,2.36 3.30,2.96 2.74,3.41 2.18,3.86 1.51,4.11 0.83,4.36 0.11,4.38 -0.60,4.40 -1.28,4.18 -1.97,3.97 -2.55,3.55 -3.14,3.13 -3.14,3.14 -3.14,3.14 -3.47,2.71 -3.80,2.29 -4.02,1.80 -4.24,1.32 -4.33,0.79 -4.43,0.26 -4.40,-0.26 -4.36,-0.80 -4.20,-1.31 -4.04,-1.82 -3.77,-2.28 -3.49,-2.73 -3.11,-3.11 -2.73,-3.49 -2.28,-3.77 -1.82,-4.05 -1.31,-4.20 -0.80,-4.36 -0.26,-4.40 0.26,-4.43 0.79,-4.33 1.32,-4.24 1.80,-4.02 2.29,-3.80 2.71,-3.47 3.14,-3.14 3.14,-3.14 L 3.14,-3.14 Z"></path></g><g stroke-linecap="round"><g transform="translate(350.83205888142834 392.4301947198626) rotate(0 -10.294283761831707 38.7065069444871)"><path d="M0 0 C-7.39 27.79, -14.78 55.58, -20.59 77.41 M0 0 C-7.05 26.51, -14.1 53.03, -20.59 77.41" stroke="#504945" stroke-width="1" fill="none"></path></g></g><mask></mask><g stroke-linecap="round"><g transform="translate(351.2438302319015 392.4301947198626) rotate(0 10.706055112304881 38.70650694448693)"><path d="M0 0 C7.05 25.48, 14.1 50.96, 21.41 77.41 M0 0 C6.78 24.5, 13.55 49, 21.41 77.41" stroke="#504945" stroke-width="1" fill="none"></path></g></g><mask></mask><g transform="translate(437.7873204249049 392.3429940907205) rotate(0 0.0000703407766025066 0.0000703407766309283)" stroke="none"><path fill="#504945" d="M 3.14,-3.14 Q 3.14,-3.14 3.55,-2.55 3.97,-1.97 4.18,-1.28 4.40,-0.59 4.38,0.11 4.36,0.83 4.11,1.51 3.86,2.18 3.41,2.74 2.96,3.30 2.36,3.69 1.75,4.07 1.05,4.25 0.36,4.42 -0.35,4.36 -1.07,4.30 -1.73,4.02 -2.39,3.74 -2.92,3.26 -3.46,2.78 -3.81,2.15 -4.16,1.53 -4.30,0.82 -4.43,0.11 -4.34,-0.59 -4.24,-1.30 -3.92,-1.94 -3.60,-2.59 -3.09,-3.09 -2.59,-3.60 -1.94,-3.92 -1.30,-4.24 -0.59,-4.34 0.12,-4.43 0.82,-4.30 1.53,-4.16 2.15,-3.81 2.78,-3.46 3.26,-2.92 3.74,-2.39 4.02,-1.73 4.31,-1.07 4.36,-0.35 4.42,0.36 4.25,1.05 4.07,1.75 3.69,2.36 3.30,2.96 2.74,3.41 2.18,3.86 1.51,4.11 0.83,4.36 0.11,4.38 -0.60,4.40 -1.28,4.18 -1.97,3.97 -2.55,3.55 -3.14,3.13 -3.14,3.14 -3.14,3.14 -3.47,2.71 -3.80,2.29 -4.02,1.80 -4.24,1.32 -4.33,0.79 -4.43,0.26 -4.40,-0.26 -4.36,-0.80 -4.20,-1.31 -4.04,-1.82 -3.77,-2.28 -3.49,-2.73 -3.11,-3.11 -2.73,-3.49 -2.28,-3.77 -1.82,-4.05 -1.31,-4.20 -0.80,-4.36 -0.26,-4.40 0.26,-4.43 0.79,-4.33 1.32,-4.24 1.80,-4.02 2.29,-3.80 2.71,-3.47 3.14,-3.14 3.14,-3.14 L 3.14,-3.14 Z"></path></g><g stroke-linecap="round"><g transform="translate(437.1462840914746 392.4301933690857) rotate(0 -10.294283761831707 38.7065069444871)"><path d="M0 0 C-5.02 18.89, -10.05 37.78, -20.59 77.41 M0 0 C-6.79 25.52, -13.58 51.05, -20.59 77.41" stroke="#504945" stroke-width="1" fill="none"></path></g></g><mask></mask><g stroke-linecap="round"><g transform="translate(437.5580554419479 392.4301933690857) rotate(0 10.706055112304881 38.70650694448693)"><path d="M0 0 C5.92 21.42, 11.85 42.84, 21.41 77.41 M0 0 C5.94 21.46, 11.87 42.92, 21.41 77.41" stroke="#504945" stroke-width="1" fill="none"></path></g></g><mask></mask><g transform="translate(524.1015466669714 392.3429947219497) rotate(0 0.0000703407766309283 0.0000703407766309283)" stroke="none"><path fill="#d65d0e" d="M 3.14,-3.14 Q 3.14,-3.14 3.55,-2.55 3.97,-1.97 4.18,-1.28 4.40,-0.59 4.38,0.11 4.36,0.83 4.11,1.51 3.86,2.18 3.41,2.74 2.96,3.30 2.36,3.69 1.75,4.07 1.05,4.25 0.36,4.42 -0.35,4.36 -1.07,4.30 -1.73,4.02 -2.39,3.74 -2.92,3.26 -3.46,2.78 -3.81,2.15 -4.16,1.53 -4.30,0.82 -4.43,0.11 -4.34,-0.59 -4.24,-1.30 -3.92,-1.94 -3.60,-2.59 -3.09,-3.09 -2.59,-3.60 -1.94,-3.92 -1.30,-4.24 -0.59,-4.34 0.12,-4.43 0.82,-4.30 1.53,-4.16 2.15,-3.81 2.78,-3.46 3.26,-2.92 3.74,-2.39 4.02,-1.73 4.31,-1.07 4.36,-0.35 4.42,0.36 4.25,1.05 4.07,1.75 3.69,2.36 3.30,2.96 2.74,3.41 2.18,3.86 1.51,4.11 0.83,4.36 0.11,4.38 -0.60,4.40 -1.28,4.18 -1.97,3.97 -2.55,3.55 -3.14,3.13 -3.14,3.14 -3.14,3.14 -3.47,2.71 -3.80,2.29 -4.02,1.80 -4.24,1.32 -4.33,0.79 -4.43,0.26 -4.40,-0.26 -4.36,-0.80 -4.20,-1.31 -4.04,-1.82 -3.77,-2.28 -3.49,-2.73 -3.11,-3.11 -2.73,-3.49 -2.28,-3.77 -1.82,-4.05 -1.31,-4.20 -0.80,-4.36 -0.26,-4.40 0.26,-4.43 0.79,-4.33 1.32,-4.24 1.80,-4.02 2.29,-3.80 2.71,-3.47 3.14,-3.14 3.14,-3.14 L 3.14,-3.14 Z"></path></g><g stroke-linecap="round"><g transform="translate(523.4605103335409 392.43019400031494) rotate(0 -10.294283761831707 38.7065069444871)"><path d="M0 0 C-4.2 15.8, -8.4 31.59, -20.59 77.41 M0 0 C-5.4 20.31, -10.8 40.61, -20.59 77.41" stroke="#504945" stroke-width="1" fill="none"></path></g></g><mask></mask><g stroke-linecap="round"><g transform="translate(523.8722816840142 392.43019400031494) rotate(0 10.70605511230491 38.70650694448693)"><path d="M0 0 C7.21 26.08, 14.43 52.16, 21.41 77.41 M0 0 C5.81 21.01, 11.62 42.03, 21.41 77.41" stroke="#d65d0e" stroke-width="1" fill="none"></path></g></g><mask></mask><g transform="translate(609.5199644317182 392.34299459911267) rotate(0 0.0000703407766309283 0.0000703407766309283)" stroke="none"><path fill="#504945" d="M 3.14,-3.14 Q 3.14,-3.14 3.55,-2.55 3.97,-1.97 4.18,-1.28 4.40,-0.59 4.38,0.11 4.36,0.83 4.11,1.51 3.86,2.18 3.41,2.74 2.96,3.30 2.36,3.69 1.75,4.07 1.05,4.25 0.36,4.42 -0.35,4.36 -1.07,4.30 -1.73,4.02 -2.39,3.74 -2.92,3.26 -3.46,2.78 -3.81,2.15 -4.16,1.53 -4.30,0.82 -4.43,0.11 -4.34,-0.59 -4.24,-1.30 -3.92,-1.94 -3.60,-2.59 -3.09,-3.09 -2.59,-3.60 -1.94,-3.92 -1.30,-4.24 -0.59,-4.34 0.12,-4.43 0.82,-4.30 1.53,-4.16 2.15,-3.81 2.78,-3.46 3.26,-2.92 3.74,-2.39 4.02,-1.73 4.31,-1.07 4.36,-0.35 4.42,0.36 4.25,1.05 4.07,1.75 3.69,2.36 3.30,2.96 2.74,3.41 2.18,3.86 1.51,4.11 0.83,4.36 0.11,4.38 -0.60,4.40 -1.28,4.18 -1.97,3.97 -2.55,3.55 -3.14,3.13 -3.14,3.14 -3.14,3.14 -3.47,2.71 -3.80,2.29 -4.02,1.80 -4.24,1.32 -4.33,0.79 -4.43,0.26 -4.40,-0.26 -4.36,-0.80 -4.20,-1.31 -4.04,-1.82 -3.77,-2.28 -3.49,-2.73 -3.11,-3.11 -2.73,-3.49 -2.28,-3.77 -1.82,-4.05 -1.31,-4.20 -0.80,-4.36 -0.26,-4.40 0.26,-4.43 0.79,-4.33 1.32,-4.24 1.80,-4.02 2.29,-3.80 2.71,-3.47 3.14,-3.14 3.14,-3.14 L 3.14,-3.14 Z"></path></g><g stroke-linecap="round"><g transform="translate(608.8789280982883 392.4301938774777) rotate(0 -10.294283761831707 38.7065069444871)"><path d="M0 0 C-6.31 23.74, -12.63 47.48, -20.59 77.41 M0 0 C-5.92 22.25, -11.83 44.49, -20.59 77.41" stroke="#504945" stroke-width="1" fill="none"></path></g></g><mask></mask><g stroke-linecap="round"><g transform="translate(609.2906994487614 392.4301938774777) rotate(0 10.70605511230491 38.70650694448693)"><path d="M0 0 C6.95 25.14, 13.91 50.28, 21.41 77.41 M0 0 C7.88 28.48, 15.75 56.96, 21.41 77.41" stroke="#504945" stroke-width="1" fill="none"></path></g></g><mask></mask><g transform="translate(695.5355405167564 392.3429938020064) rotate(0 0.0000703407766309283 0.0000703407766309283)" stroke="none"><path fill="#504945" d="M 3.14,-3.14 Q 3.14,-3.14 3.55,-2.55 3.97,-1.97 4.18,-1.28 4.40,-0.59 4.38,0.11 4.36,0.83 4.11,1.51 3.86,2.18 3.41,2.74 2.96,3.30 2.36,3.69 1.75,4.07 1.05,4.25 0.36,4.42 -0.35,4.36 -1.07,4.30 -1.73,4.02 -2.39,3.74 -2.92,3.26 -3.46,2.78 -3.81,2.15 -4.16,1.53 -4.30,0.82 -4.43,0.11 -4.34,-0.59 -4.24,-1.30 -3.92,-1.94 -3.60,-2.59 -3.09,-3.09 -2.59,-3.60 -1.94,-3.92 -1.30,-4.24 -0.59,-4.34 0.12,-4.43 0.82,-4.30 1.53,-4.16 2.15,-3.81 2.78,-3.46 3.26,-2.92 3.74,-2.39 4.02,-1.73 4.31,-1.07 4.36,-0.35 4.42,0.36 4.25,1.05 4.07,1.75 3.69,2.36 3.30,2.96 2.74,3.41 2.18,3.86 1.51,4.11 0.83,4.36 0.11,4.38 -0.60,4.40 -1.28,4.18 -1.97,3.97 -2.55,3.55 -3.14,3.13 -3.14,3.14 -3.14,3.14 -3.47,2.71 -3.80,2.29 -4.02,1.80 -4.24,1.32 -4.33,0.79 -4.43,0.26 -4.40,-0.26 -4.36,-0.80 -4.20,-1.31 -4.04,-1.82 -3.77,-2.28 -3.49,-2.73 -3.11,-3.11 -2.73,-3.49 -2.28,-3.77 -1.82,-4.05 -1.31,-4.20 -0.80,-4.36 -0.26,-4.40 0.26,-4.43 0.79,-4.33 1.32,-4.24 1.80,-4.02 2.29,-3.80 2.71,-3.47 3.14,-3.14 3.14,-3.14 L 3.14,-3.14 Z"></path></g><g stroke-linecap="round"><g transform="translate(694.894504183326 392.4301930803713) rotate(0 -10.294283761831707 38.7065069444871)"><path d="M0 0 C-5.89 22.16, -11.78 44.31, -20.59 77.41 M0 0 C-5.12 19.23, -10.23 38.47, -20.59 77.41" stroke="#504945" stroke-width="1" fill="none"></path></g></g><mask></mask><g stroke-linecap="round"><g transform="translate(695.3062755337992 392.4301930803713) rotate(0 10.70605511230491 38.70650694448693)"><path d="M0 0 C7.91 28.61, 15.83 57.22, 21.41 77.41 M0 0 C6.78 24.52, 13.56 49.04, 21.41 77.41" stroke="#504945" stroke-width="1" fill="none"></path></g></g><mask></mask><g transform="translate(308.7489333549836 314.79445028281077) rotate(0 0.0000703407766025066 0.0000703407766309283)" stroke="none"><path fill="#d65d0e" d="M 3.14,-3.14 Q 3.14,-3.14 3.55,-2.55 3.97,-1.97 4.18,-1.28 4.40,-0.59 4.38,0.11 4.36,0.83 4.11,1.51 3.86,2.18 3.41,2.74 2.96,3.30 2.36,3.69 1.75,4.07 1.05,4.25 0.36,4.42 -0.35,4.36 -1.07,4.30 -1.73,4.02 -2.39,3.74 -2.92,3.26 -3.46,2.78 -3.81,2.15 -4.16,1.53 -4.30,0.82 -4.43,0.11 -4.34,-0.59 -4.24,-1.30 -3.92,-1.94 -3.60,-2.59 -3.09,-3.09 -2.59,-3.60 -1.94,-3.92 -1.30,-4.24 -0.59,-4.34 0.12,-4.43 0.82,-4.30 1.53,-4.16 2.15,-3.81 2.78,-3.46 3.26,-2.92 3.74,-2.39 4.02,-1.73 4.31,-1.07 4.36,-0.35 4.42,0.36 4.25,1.05 4.07,1.75 3.69,2.36 3.30,2.96 2.74,3.41 2.18,3.86 1.51,4.11 0.83,4.36 0.11,4.38 -0.60,4.40 -1.28,4.18 -1.97,3.97 -2.55,3.55 -3.14,3.13 -3.14,3.14 -3.14,3.14 -3.47,2.71 -3.80,2.29 -4.02,1.80 -4.24,1.32 -4.33,0.79 -4.43,0.26 -4.40,-0.26 -4.36,-0.80 -4.20,-1.31 -4.04,-1.82 -3.77,-2.28 -3.49,-2.73 -3.11,-3.11 -2.73,-3.49 -2.28,-3.77 -1.82,-4.05 -1.31,-4.20 -0.80,-4.36 -0.26,-4.40 0.26,-4.43 0.79,-4.33 1.32,-4.24 1.80,-4.02 2.29,-3.80 2.71,-3.47 3.14,-3.14 3.14,-3.14 L 3.14,-3.14 Z"></path></g><g stroke-linecap="round"><g transform="translate(351.6309964647962 392.2559351527467) rotate(0 -21.823881575083107 -38.706506944486875)"><path d="M0 0 C-10.53 -18.67, -21.05 -37.34, -43.65 -77.41 M0 0 C-12.79 -22.68, -25.57 -45.36, -43.65 -77.41" stroke="#504945" stroke-width="1" fill="none"></path></g></g><mask></mask><g stroke-linecap="round"><g transform="translate(307.57146196415715 314.84292126377215) rotate(0 -21.000338874136702 38.70650694448699)"><path d="M0 0 C-12.15 22.4, -24.3 44.79, -42 77.41 M0 0 C-11.33 20.88, -22.66 41.76, -42 77.41" stroke="#d65d0e" stroke-width="1" fill="none"></path></g></g><mask></mask><g transform="translate(480.7362045142487 315.2394835815029) rotate(0 0.0000703407766025066 0.0000703407766309283)" stroke="none"><path fill="#d65d0e" d="M 3.14,-3.14 Q 3.14,-3.14 3.55,-2.55 3.97,-1.97 4.18,-1.28 4.40,-0.59 4.38,0.11 4.36,0.83 4.11,1.51 3.86,2.18 3.41,2.74 2.96,3.30 2.36,3.69 1.75,4.07 1.05,4.25 0.36,4.42 -0.35,4.36 -1.07,4.30 -1.73,4.02 -2.39,3.74 -2.92,3.26 -3.46,2.78 -3.81,2.15 -4.16,1.53 -4.30,0.82 -4.43,0.11 -4.34,-0.59 -4.24,-1.30 -3.92,-1.94 -3.60,-2.59 -3.09,-3.09 -2.59,-3.60 -1.94,-3.92 -1.30,-4.24 -0.59,-4.34 0.12,-4.43 0.82,-4.30 1.53,-4.16 2.15,-3.81 2.78,-3.46 3.26,-2.92 3.74,-2.39 4.02,-1.73 4.31,-1.07 4.36,-0.35 4.42,0.36 4.25,1.05 4.07,1.75 3.69,2.36 3.30,2.96 2.74,3.41 2.18,3.86 1.51,4.11 0.83,4.36 0.11,4.38 -0.60,4.40 -1.28,4.18 -1.97,3.97 -2.55,3.55 -3.14,3.13 -3.14,3.14 -3.14,3.14 -3.47,2.71 -3.80,2.29 -4.02,1.80 -4.24,1.32 -4.33,0.79 -4.43,0.26 -4.40,-0.26 -4.36,-0.80 -4.20,-1.31 -4.04,-1.82 -3.77,-2.28 -3.49,-2.73 -3.11,-3.11 -2.73,-3.49 -2.28,-3.77 -1.82,-4.05 -1.31,-4.20 -0.80,-4.36 -0.26,-4.40 0.26,-4.43 0.79,-4.33 1.32,-4.24 1.80,-4.02 2.29,-3.80 2.71,-3.47 3.14,-3.14 3.14,-3.14 L 3.14,-3.14 Z"></path></g><g stroke-linecap="round"><g transform="translate(523.6182676240613 392.7009684514388) rotate(0 -21.823881575083107 -38.706506944486875)"><path d="M0 0 C-14.95 -26.51, -29.89 -53.02, -43.65 -77.41 M0 0 C-17.32 -30.72, -34.64 -61.44, -43.65 -77.41" stroke="#d65d0e" stroke-width="1" fill="none"></path></g></g><mask></mask><g stroke-linecap="round"><g transform="translate(479.55873312342237 315.2879545624643) rotate(0 -21.000338874136702 38.70650694448699)"><path d="M0 0 C-14.61 26.93, -29.22 53.86, -42 77.41 M0 0 C-12.32 22.71, -24.65 45.43, -42 77.41" stroke="#504945" stroke-width="1" fill="none"></path></g></g><mask></mask><g transform="translate(652.948495352547 315.11830739203515) rotate(0 0.0000703407766309283 0.0000703407766309283)" stroke="none"><path fill="#504945" d="M 3.14,-3.14 Q 3.14,-3.14 3.55,-2.55 3.97,-1.97 4.18,-1.28 4.40,-0.59 4.38,0.11 4.36,0.83 4.11,1.51 3.86,2.18 3.41,2.74 2.96,3.30 2.36,3.69 1.75,4.07 1.05,4.25 0.36,4.42 -0.35,4.36 -1.07,4.30 -1.73,4.02 -2.39,3.74 -2.92,3.26 -3.46,2.78 -3.81,2.15 -4.16,1.53 -4.30,0.82 -4.43,0.11 -4.34,-0.59 -4.24,-1.30 -3.92,-1.94 -3.60,-2.59 -3.09,-3.09 -2.59,-3.60 -1.94,-3.92 -1.30,-4.24 -0.59,-4.34 0.12,-4.43 0.82,-4.30 1.53,-4.16 2.15,-3.81 2.78,-3.46 3.26,-2.92 3.74,-2.39 4.02,-1.73 4.31,-1.07 4.36,-0.35 4.42,0.36 4.25,1.05 4.07,1.75 3.69,2.36 3.30,2.96 2.74,3.41 2.18,3.86 1.51,4.11 0.83,4.36 0.11,4.38 -0.60,4.40 -1.28,4.18 -1.97,3.97 -2.55,3.55 -3.14,3.13 -3.14,3.14 -3.14,3.14 -3.47,2.71 -3.80,2.29 -4.02,1.80 -4.24,1.32 -4.33,0.79 -4.43,0.26 -4.40,-0.26 -4.36,-0.80 -4.20,-1.31 -4.04,-1.82 -3.77,-2.28 -3.49,-2.73 -3.11,-3.11 -2.73,-3.49 -2.28,-3.77 -1.82,-4.05 -1.31,-4.20 -0.80,-4.36 -0.26,-4.40 0.26,-4.43 0.79,-4.33 1.32,-4.24 1.80,-4.02 2.29,-3.80 2.71,-3.47 3.14,-3.14 3.14,-3.14 L 3.14,-3.14 Z"></path></g><g stroke-linecap="round"><g transform="translate(695.8305584623594 392.57979226197085) rotate(0 -21.823881575083078 -38.706506944486875)"><path d="M0 0 C-14.82 -26.28, -29.64 -52.56, -43.65 -77.41 M0 0 C-14.3 -25.37, -28.61 -50.74, -43.65 -77.41" stroke="#504945" stroke-width="1" fill="none"></path></g></g><mask></mask><g stroke-linecap="round"><g transform="translate(651.7710239617204 315.1667783729964) rotate(0 -21.000338874136673 38.70650694448699)"><path d="M0 0 C-11.59 21.36, -23.18 42.72, -42 77.41 M0 0 C-11.93 21.99, -23.87 43.99, -42 77.41" stroke="#504945" stroke-width="1" fill="none"></path></g></g><mask></mask><g transform="translate(396.25987846979865 155.8538464558775) rotate(0 0.0000703407766025066 0.0000703407766309283)" stroke="none"><path fill="#d65d0e" d="M 3.14,-3.14 Q 3.14,-3.14 3.55,-2.55 3.97,-1.97 4.18,-1.28 4.40,-0.59 4.38,0.11 4.36,0.83 4.11,1.51 3.86,2.18 3.41,2.74 2.96,3.30 2.36,3.69 1.75,4.07 1.05,4.25 0.36,4.42 -0.35,4.36 -1.07,4.30 -1.73,4.02 -2.39,3.74 -2.92,3.26 -3.46,2.78 -3.81,2.15 -4.16,1.53 -4.30,0.82 -4.43,0.11 -4.34,-0.59 -4.24,-1.30 -3.92,-1.94 -3.60,-2.59 -3.09,-3.09 -2.59,-3.60 -1.94,-3.92 -1.30,-4.24 -0.59,-4.34 0.12,-4.43 0.82,-4.30 1.53,-4.16 2.15,-3.81 2.78,-3.46 3.26,-2.92 3.74,-2.39 4.02,-1.73 4.31,-1.07 4.36,-0.35 4.42,0.36 4.25,1.05 4.07,1.75 3.69,2.36 3.30,2.96 2.74,3.41 2.18,3.86 1.51,4.11 0.83,4.36 0.11,4.38 -0.60,4.40 -1.28,4.18 -1.97,3.97 -2.55,3.55 -3.14,3.13 -3.14,3.14 -3.14,3.14 -3.47,2.71 -3.80,2.29 -4.02,1.80 -4.24,1.32 -4.33,0.79 -4.43,0.26 -4.40,-0.26 -4.36,-0.80 -4.20,-1.31 -4.04,-1.82 -3.77,-2.28 -3.49,-2.73 -3.11,-3.11 -2.73,-3.49 -2.28,-3.77 -1.82,-4.05 -1.31,-4.20 -0.80,-4.36 -0.26,-4.40 0.26,-4.43 0.79,-4.33 1.32,-4.24 1.80,-4.02 2.29,-3.80 2.71,-3.47 3.14,-3.14 3.14,-3.14 L 3.14,-3.14 Z"></path></g><g stroke-linecap="round" transform="translate(10 106.64825590905457) rotate(0 384.45757317985556 228.68632364922797)"><path d="M0 0 C277.92 0, 555.85 0, 768.92 0 M0 0 C299.55 0, 599.11 0, 768.92 0 M768.92 0 C768.92 168.41, 768.92 336.82, 768.92 457.37 M768.92 0 C768.92 107.52, 768.92 215.05, 768.92 457.37 M768.92 457.37 C503.94 457.37, 238.97 457.37, 0 457.37 M768.92 457.37 C473.14 457.37, 177.36 457.37, 0 457.37 M0 457.37 C0 329.93, 0 202.48, 0 0 M0 457.37 C0 326.53, 0 195.68, 0 0" stroke="transparent" stroke-width="1" fill="none"></path></g><g transform="translate(222.1096345672666 236.08387094959517) rotate(0 0.00007034077661671745 0.0000703407766309283)" stroke="none"><path fill="#d65d0e" d="M 3.14,-3.14 Q 3.14,-3.14 3.55,-2.55 3.97,-1.97 4.18,-1.28 4.40,-0.59 4.38,0.11 4.36,0.83 4.11,1.51 3.86,2.18 3.41,2.74 2.96,3.30 2.36,3.69 1.75,4.07 1.05,4.25 0.36,4.42 -0.35,4.36 -1.07,4.30 -1.73,4.02 -2.39,3.74 -2.92,3.26 -3.46,2.78 -3.81,2.15 -4.16,1.53 -4.30,0.82 -4.43,0.11 -4.34,-0.59 -4.24,-1.30 -3.92,-1.94 -3.60,-2.59 -3.09,-3.09 -2.59,-3.60 -1.94,-3.92 -1.30,-4.24 -0.59,-4.34 0.12,-4.43 0.82,-4.30 1.53,-4.16 2.15,-3.81 2.78,-3.46 3.26,-2.92 3.74,-2.39 4.02,-1.73 4.31,-1.07 4.36,-0.35 4.42,0.36 4.25,1.05 4.07,1.75 3.69,2.36 3.30,2.96 2.74,3.41 2.18,3.86 1.51,4.11 0.83,4.36 0.11,4.38 -0.60,4.40 -1.28,4.18 -1.97,3.97 -2.55,3.55 -3.14,3.13 -3.14,3.14 -3.14,3.14 -3.47,2.71 -3.80,2.29 -4.02,1.80 -4.24,1.32 -4.33,0.79 -4.43,0.26 -4.40,-0.26 -4.36,-0.80 -4.20,-1.31 -4.04,-1.82 -3.77,-2.28 -3.49,-2.73 -3.11,-3.11 -2.73,-3.49 -2.28,-3.77 -1.82,-4.05 -1.31,-4.20 -0.80,-4.36 -0.26,-4.40 0.26,-4.43 0.79,-4.33 1.32,-4.24 1.80,-4.02 2.29,-3.80 2.71,-3.47 3.14,-3.14 3.14,-3.14 L 3.14,-3.14 Z"></path></g><g stroke-linecap="round"><g transform="translate(136.13061272391585 314.8585073980197) rotate(0 42.854410538239705 -39.85460180056293)"><path d="M0 0 C32.58 -30.3, 65.15 -60.59, 85.71 -79.71 M0 0 C30.44 -28.31, 60.88 -56.62, 85.71 -79.71" stroke="#d65d0e" stroke-width="1" fill="none"></path></g></g><mask></mask><g stroke-linecap="round"><g transform="translate(221.83943380039526 236.00639200765863) rotate(0 43.28295464362206 39.42605769518053)"><path d="M0 0 C18.33 16.7, 36.67 33.4, 86.57 78.85 M0 0 C17.88 16.29, 35.76 32.57, 86.57 78.85" stroke="#d65d0e" stroke-width="1" fill="none"></path></g></g><mask></mask><g transform="translate(568.2472904114235 236.52918530823854) rotate(0 0.0000703407766309283 0.0000703407766309283)" stroke="none"><path fill="#d65d0e" d="M 3.14,-3.14 Q 3.14,-3.14 3.55,-2.55 3.97,-1.97 4.18,-1.28 4.40,-0.59 4.38,0.11 4.36,0.83 4.11,1.51 3.86,2.18 3.41,2.74 2.96,3.30 2.36,3.69 1.75,4.07 1.05,4.25 0.36,4.42 -0.35,4.36 -1.07,4.30 -1.73,4.02 -2.39,3.74 -2.92,3.26 -3.46,2.78 -3.81,2.15 -4.16,1.53 -4.30,0.82 -4.43,0.11 -4.34,-0.59 -4.24,-1.30 -3.92,-1.94 -3.60,-2.59 -3.09,-3.09 -2.59,-3.60 -1.94,-3.92 -1.30,-4.24 -0.59,-4.34 0.12,-4.43 0.82,-4.30 1.53,-4.16 2.15,-3.81 2.78,-3.46 3.26,-2.92 3.74,-2.39 4.02,-1.73 4.31,-1.07 4.36,-0.35 4.42,0.36 4.25,1.05 4.07,1.75 3.69,2.36 3.30,2.96 2.74,3.41 2.18,3.86 1.51,4.11 0.83,4.36 0.11,4.38 -0.60,4.40 -1.28,4.18 -1.97,3.97 -2.55,3.55 -3.14,3.13 -3.14,3.14 -3.14,3.14 -3.47,2.71 -3.80,2.29 -4.02,1.80 -4.24,1.32 -4.33,0.79 -4.43,0.26 -4.40,-0.26 -4.36,-0.80 -4.20,-1.31 -4.04,-1.82 -3.77,-2.28 -3.49,-2.73 -3.11,-3.11 -2.73,-3.49 -2.28,-3.77 -1.82,-4.05 -1.31,-4.20 -0.80,-4.36 -0.26,-4.40 0.26,-4.43 0.79,-4.33 1.32,-4.24 1.80,-4.02 2.29,-3.80 2.71,-3.47 3.14,-3.14 3.14,-3.14 L 3.14,-3.14 Z"></path></g><g stroke-linecap="round"><g transform="translate(480.680073451363 314.8585073980197) rotate(0 43.71149874900448 -39.85460180056293)"><path d="M0 0 C23.67 -21.58, 47.34 -43.17, 87.42 -79.71 M0 0 C18.03 -16.44, 36.05 -32.87, 87.42 -79.71" stroke="#d65d0e" stroke-width="1" fill="none"></path></g></g><mask></mask><g stroke-linecap="round"><g transform="translate(652.0977156043217 314.8585073980197) rotate(0 -41.997322327474876 -39.85460180056293)"><path d="M0 0 C-28.77 -27.3, -57.53 -54.6, -83.99 -79.71 M0 0 C-21.9 -20.78, -43.8 -41.57, -83.99 -79.71" stroke="#504945" stroke-width="1" fill="none"></path></g></g><mask></mask><g stroke-linecap="round"><g transform="translate(220.98234558963046 235.14930379689383) rotate(0 87.42299749800894 -39.854601800562875)"><path d="M0 0 C47.36 -21.59, 94.71 -43.18, 174.85 -79.71 M0 0 C66.89 -30.49, 133.78 -60.99, 174.85 -79.71" stroke="#d65d0e" stroke-width="1" fill="none"></path></g></g><mask></mask><g stroke-linecap="round"><g transform="translate(567.2459827386072 236.00639200765863) rotate(0 -85.70882107647941 -39.85460180056293)"><path d="M0 0 C-39.26 -18.26, -78.52 -36.51, -171.42 -79.71 M0 0 C-48.32 -22.47, -96.64 -44.94, -171.42 -79.71" stroke="#d65d0e" stroke-width="1" fill="none"></path></g></g><mask></mask><g transform="translate(361.281486961776 10) rotate(0 0.00004999999998744897 0.00004999999998744897)" stroke="none"><path fill="transparent" d="M 1.57,-1.57 Q 1.57,-1.57 1.77,-1.27 1.98,-0.98 2.09,-0.64 2.20,-0.29 2.19,0.05 2.18,0.41 2.05,0.75 1.93,1.09 1.70,1.37 1.48,1.65 1.18,1.84 0.87,2.04 0.52,2.12 0.18,2.21 -0.17,2.18 -0.53,2.15 -0.86,2.01 -1.19,1.87 -1.46,1.63 -1.73,1.39 -1.90,1.07 -2.08,0.76 -2.15,0.41 -2.21,0.05 -2.17,-0.29 -2.12,-0.65 -1.96,-0.97 -1.80,-1.29 -1.54,-1.54 -1.29,-1.80 -0.97,-1.96 -0.65,-2.12 -0.29,-2.17 0.06,-2.21 0.41,-2.15 0.76,-2.08 1.07,-1.90 1.39,-1.73 1.63,-1.46 1.87,-1.19 2.01,-0.86 2.15,-0.53 2.18,-0.17 2.21,0.18 2.12,0.52 2.03,0.87 1.84,1.18 1.65,1.48 1.37,1.70 1.09,1.93 0.75,2.05 0.41,2.18 0.05,2.19 -0.30,2.20 -0.64,2.09 -0.98,1.98 -1.27,1.77 -1.57,1.56 -1.57,1.57 -1.57,1.57 -1.73,1.35 -1.90,1.14 -2.01,0.90 -2.12,0.66 -2.16,0.39 -2.21,0.13 -2.20,-0.13 -2.18,-0.40 -2.10,-0.65 -2.02,-0.91 -1.88,-1.14 -1.74,-1.36 -1.55,-1.55 -1.36,-1.74 -1.14,-1.88 -0.91,-2.02 -0.65,-2.10 -0.40,-2.18 -0.13,-2.20 0.13,-2.21 0.39,-2.16 0.66,-2.12 0.90,-2.01 1.14,-1.90 1.35,-1.73 1.57,-1.57 1.57,-1.57 L 1.57,-1.57 Z"></path></g><g transform="translate(360.4757287478796 67.2088331866446) rotate(0 34.24472409059706 8.460461245912256)" stroke="none"><path fill="transparent" d="M 0.81,-1.62 Q 0.81,-1.62 2.64,-0.65 4.47,0.32 7.97,1.90 11.48,3.48 15.24,4.85 19.01,6.22 24.76,7.97 30.52,9.72 37.98,10.92 45.44,12.12 51.44,13.11 57.43,14.10 60.42,14.52 63.42,14.95 66.04,15.13 68.67,15.31 68.92,15.38 69.18,15.45 69.39,15.60 69.61,15.75 69.76,15.96 69.92,16.17 70.00,16.42 70.09,16.67 70.08,16.93 70.08,17.19 70.00,17.44 69.91,17.69 69.75,17.89 69.59,18.10 69.37,18.25 69.15,18.39 68.90,18.46 68.65,18.53 68.39,18.51 68.12,18.50 67.88,18.40 67.64,18.30 67.44,18.13 67.24,17.96 67.11,17.73 66.97,17.50 66.92,17.25 66.87,16.99 66.90,16.73 66.93,16.47 67.04,16.23 67.15,16.00 67.33,15.81 67.51,15.62 67.75,15.50 67.98,15.38 68.24,15.34 68.50,15.30 68.76,15.34 69.01,15.38 69.24,15.51 69.47,15.63 69.65,15.83 69.83,16.02 69.94,16.26 70.05,16.49 70.08,16.76 70.10,17.02 70.04,17.27 69.98,17.53 69.85,17.75 69.71,17.97 69.51,18.14 69.31,18.31 69.06,18.41 68.82,18.50 68.56,18.51 68.30,18.53 68.30,18.53 68.30,18.53 65.67,18.09 63.04,17.66 60.01,17.26 56.98,16.85 50.99,15.89 45.00,14.94 37.34,13.74 29.68,12.53 23.84,10.82 17.99,9.10 14.10,7.76 10.20,6.42 6.57,4.90 2.94,3.38 1.06,2.50 -0.81,1.62 -0.99,1.50 -1.17,1.38 -1.32,1.22 -1.47,1.06 -1.58,0.87 -1.68,0.67 -1.74,0.46 -1.80,0.25 -1.80,0.03 -1.80,-0.18 -1.76,-0.39 -1.71,-0.61 -1.61,-0.80 -1.51,-1.00 -1.37,-1.17 -1.23,-1.33 -1.05,-1.46 -0.87,-1.59 -0.67,-1.67 -0.46,-1.75 -0.25,-1.78 -0.03,-1.81 0.18,-1.79 0.40,-1.77 0.60,-1.70 0.81,-1.62 0.81,-1.62 L 0.81,-1.62 Z"></path></g><g transform="translate(188.84922918794598 499.0952358351159) rotate(0 13.295010529290636 -2.4172746416891755)" stroke="none"><path fill="#d65d0e" d="M -0.52,-2.61 Q -0.52,-2.61 0.63,-2.85 1.78,-3.10 2.86,-3.25 3.94,-3.39 5.75,-3.52 7.57,-3.64 9.44,-4.19 11.31,-4.74 12.60,-5.19 13.90,-5.64 15.23,-5.94 16.57,-6.24 17.61,-6.64 18.65,-7.04 19.80,-7.15 20.95,-7.27 22.17,-7.31 23.39,-7.34 24.80,-7.75 26.20,-8.15 26.74,-8.13 27.28,-8.10 27.79,-7.90 28.29,-7.71 28.71,-7.36 29.12,-7.01 29.40,-6.55 29.68,-6.09 29.80,-5.56 29.92,-5.03 29.87,-4.49 29.81,-3.95 29.59,-3.46 29.36,-2.97 29.00,-2.57 28.63,-2.18 28.15,-1.92 27.67,-1.67 27.14,-1.58 26.61,-1.49 26.07,-1.57 25.54,-1.65 25.06,-1.90 24.58,-2.15 24.20,-2.55 23.83,-2.94 23.60,-3.43 23.37,-3.92 23.31,-4.45 23.24,-4.99 23.36,-5.52 23.47,-6.05 23.75,-6.51 24.02,-6.98 24.43,-7.33 24.84,-7.68 25.34,-7.89 25.85,-8.09 26.39,-8.12 26.93,-8.16 27.45,-8.02 27.97,-7.87 28.42,-7.57 28.87,-7.27 29.20,-6.84 29.53,-6.41 29.71,-5.90 29.88,-5.39 29.89,-4.85 29.89,-4.31 29.72,-3.79 29.55,-3.28 29.22,-2.85 28.90,-2.42 28.45,-2.11 28.01,-1.80 27.49,-1.65 26.97,-1.51 26.97,-1.51 26.97,-1.51 24.70,-1.11 22.44,-0.71 20.94,-0.80 19.45,-0.88 18.13,-0.44 16.80,-0.00 15.52,0.37 14.23,0.75 12.88,1.12 11.54,1.49 10.45,1.80 9.36,2.10 7.73,2.08 6.10,2.06 4.47,2.12 2.84,2.17 1.68,2.39 0.52,2.61 0.20,2.63 -0.11,2.66 -0.43,2.61 -0.75,2.55 -1.04,2.43 -1.34,2.30 -1.59,2.10 -1.85,1.91 -2.05,1.66 -2.25,1.41 -2.39,1.12 -2.53,0.83 -2.59,0.51 -2.65,0.20 -2.64,-0.11 -2.63,-0.43 -2.53,-0.74 -2.44,-1.05 -2.28,-1.33 -2.12,-1.61 -1.90,-1.84 -1.67,-2.07 -1.40,-2.24 -1.13,-2.41 -0.82,-2.51 -0.52,-2.61 -0.52,-2.61 L -0.52,-2.61 Z"></path></g><g transform="translate(188.04347097404963 488.62037905446266) rotate(0 13.295010529290607 -2.4172746416891755)" stroke="none"><path fill="#d65d0e" d="M -0.63,-2.53 Q -0.63,-2.53 0.28,-2.79 1.20,-3.06 3.39,-3.47 5.58,-3.87 7.23,-3.99 8.89,-4.10 10.40,-4.24 11.91,-4.39 12.95,-4.78 13.99,-5.17 15.16,-5.64 16.33,-6.12 17.44,-6.25 18.56,-6.38 19.87,-6.73 21.17,-7.09 22.30,-7.22 23.42,-7.35 24.60,-7.73 25.77,-8.11 26.32,-8.16 26.86,-8.20 27.39,-8.07 27.92,-7.93 28.38,-7.64 28.85,-7.34 29.19,-6.92 29.53,-6.49 29.72,-5.98 29.91,-5.46 29.92,-4.92 29.94,-4.37 29.77,-3.85 29.61,-3.32 29.29,-2.88 28.97,-2.44 28.53,-2.12 28.08,-1.80 27.56,-1.64 27.04,-1.48 26.49,-1.49 25.94,-1.51 25.43,-1.70 24.92,-1.89 24.49,-2.23 24.07,-2.57 23.77,-3.04 23.48,-3.50 23.35,-4.03 23.21,-4.56 23.26,-5.10 23.30,-5.65 23.52,-6.15 23.74,-6.65 24.10,-7.06 24.47,-7.47 24.95,-7.74 25.42,-8.01 25.96,-8.11 26.50,-8.21 27.04,-8.14 27.58,-8.06 28.07,-7.82 28.56,-7.57 28.95,-7.19 29.33,-6.80 29.58,-6.31 29.82,-5.82 29.89,-5.28 29.97,-4.73 29.86,-4.20 29.76,-3.66 29.49,-3.18 29.22,-2.71 28.81,-2.34 28.40,-1.98 27.90,-1.76 27.40,-1.55 27.40,-1.55 27.40,-1.55 25.08,-1.18 22.76,-0.82 21.67,-0.42 20.58,-0.01 19.21,-0.38 17.83,-0.74 16.53,-0.11 15.22,0.52 13.66,0.87 12.10,1.23 10.70,1.22 9.30,1.22 8.01,1.34 6.71,1.46 4.60,1.80 2.50,2.13 1.56,2.33 0.63,2.53 0.32,2.56 0.00,2.60 -0.30,2.57 -0.61,2.53 -0.91,2.42 -1.20,2.31 -1.46,2.13 -1.72,1.95 -1.93,1.72 -2.14,1.48 -2.28,1.21 -2.43,0.93 -2.51,0.62 -2.58,0.32 -2.58,0.00 -2.59,-0.30 -2.51,-0.61 -2.44,-0.91 -2.29,-1.19 -2.15,-1.47 -1.94,-1.71 -1.73,-1.94 -1.47,-2.12 -1.21,-2.30 -0.92,-2.41 -0.63,-2.53 -0.63,-2.53 L -0.63,-2.53 Z"></path></g><g transform="translate(186.4319545462568 477.339764059913) rotate(0 14.100768743187018 -3.6259119625337917)" stroke="none"><path fill="#d65d0e" d="M -0.30,-2.44 Q -0.30,-2.44 1.55,-2.59 3.42,-2.74 5.83,-2.94 8.24,-3.14 9.52,-3.34 10.79,-3.55 11.87,-3.86 12.96,-4.17 14.52,-4.81 16.09,-5.44 17.41,-6.11 18.73,-6.78 19.81,-7.07 20.88,-7.37 22.39,-8.11 23.89,-8.85 25.60,-9.45 27.31,-10.05 27.78,-10.11 28.25,-10.18 28.72,-10.10 29.19,-10.01 29.60,-9.78 30.02,-9.55 30.34,-9.20 30.66,-8.85 30.85,-8.41 31.04,-7.98 31.08,-7.50 31.12,-7.03 31.01,-6.57 30.90,-6.11 30.65,-5.71 30.40,-5.30 30.03,-5.00 29.66,-4.70 29.22,-4.54 28.77,-4.37 28.30,-4.35 27.82,-4.33 27.37,-4.47 26.91,-4.61 26.52,-4.88 26.14,-5.15 25.86,-5.54 25.58,-5.92 25.43,-6.38 25.29,-6.83 25.30,-7.30 25.31,-7.78 25.47,-8.22 25.63,-8.67 25.92,-9.04 26.22,-9.42 26.62,-9.68 27.02,-9.93 27.48,-10.05 27.94,-10.17 28.41,-10.14 28.88,-10.10 29.32,-9.92 29.76,-9.73 30.11,-9.42 30.47,-9.10 30.71,-8.69 30.94,-8.28 31.04,-7.81 31.13,-7.35 31.07,-6.88 31.01,-6.41 30.80,-5.98 30.59,-5.55 30.26,-5.21 29.93,-4.88 29.50,-4.66 29.08,-4.45 29.08,-4.45 29.08,-4.45 26.93,-3.80 24.78,-3.15 23.40,-2.50 22.02,-1.86 20.97,-1.58 19.92,-1.30 18.48,-0.92 17.03,-0.55 15.53,-0.17 14.02,0.20 12.65,0.47 11.27,0.74 10.04,0.82 8.80,0.90 6.39,1.36 3.99,1.82 2.14,2.13 0.30,2.44 0.00,2.44 -0.28,2.44 -0.57,2.37 -0.86,2.30 -1.12,2.16 -1.39,2.03 -1.61,1.83 -1.83,1.64 -2.00,1.39 -2.17,1.15 -2.28,0.87 -2.38,0.59 -2.42,0.30 -2.46,0.00 -2.42,-0.28 -2.39,-0.58 -2.28,-0.85 -2.18,-1.13 -2.01,-1.38 -1.84,-1.62 -1.62,-1.82 -1.40,-2.02 -1.14,-2.16 -0.88,-2.30 -0.59,-2.37 -0.30,-2.44 -0.30,-2.44 L -0.30,-2.44 Z"></path></g><g transform="translate(187.23771276015322 466.0591490653634) rotate(0 14.100768743187018 -4.4316701764302024)" stroke="none"><path fill="#d65d0e" d="M -0.70,-2.45 Q -0.70,-2.45 0.93,-2.87 2.56,-3.28 3.92,-3.70 5.28,-4.12 6.43,-4.61 7.58,-5.10 9.21,-5.51 10.84,-5.92 12.03,-6.60 13.21,-7.28 14.48,-7.82 15.76,-8.36 17.10,-8.68 18.45,-9.00 20.20,-10.00 21.95,-11.00 23.05,-11.12 24.15,-11.24 26.02,-11.67 27.88,-12.10 28.41,-12.07 28.93,-12.04 29.42,-11.83 29.91,-11.63 30.31,-11.29 30.71,-10.94 30.97,-10.49 31.24,-10.03 31.35,-9.51 31.46,-9.00 31.39,-8.47 31.33,-7.95 31.10,-7.47 30.87,-7.00 30.51,-6.62 30.14,-6.24 29.67,-6.00 29.20,-5.76 28.68,-5.68 28.16,-5.60 27.64,-5.69 27.12,-5.78 26.66,-6.03 26.19,-6.28 25.83,-6.67 25.48,-7.06 25.26,-7.54 25.04,-8.02 24.99,-8.55 24.94,-9.07 25.06,-9.59 25.18,-10.10 25.46,-10.55 25.74,-11.00 26.14,-11.34 26.55,-11.67 27.04,-11.86 27.53,-12.05 28.06,-12.07 28.59,-12.10 29.09,-11.95 29.60,-11.80 30.03,-11.50 30.47,-11.20 30.78,-10.78 31.10,-10.35 31.26,-9.85 31.42,-9.35 31.42,-8.82 31.41,-8.29 31.23,-7.79 31.06,-7.30 30.74,-6.88 30.41,-6.46 29.97,-6.17 29.53,-5.88 29.02,-5.75 28.51,-5.61 28.51,-5.61 28.51,-5.61 26.52,-5.21 24.54,-4.80 23.23,-4.79 21.92,-4.78 20.50,-4.06 19.08,-3.35 17.55,-2.82 16.02,-2.30 14.77,-1.62 13.52,-0.95 11.78,-0.68 10.04,-0.42 8.38,0.06 6.73,0.56 5.32,0.99 3.91,1.43 2.30,1.94 0.70,2.45 0.39,2.50 0.09,2.55 -0.21,2.52 -0.52,2.50 -0.81,2.40 -1.10,2.30 -1.36,2.14 -1.62,1.97 -1.83,1.75 -2.04,1.52 -2.20,1.26 -2.35,0.99 -2.44,0.69 -2.52,0.40 -2.53,0.09 -2.54,-0.21 -2.48,-0.51 -2.42,-0.81 -2.28,-1.09 -2.15,-1.37 -1.96,-1.61 -1.76,-1.85 -1.51,-2.03 -1.27,-2.21 -0.98,-2.33 -0.70,-2.45 -0.70,-2.45 L -0.70,-2.45 Z"></path></g><g transform="translate(187.23771276015322 453.16701764302104) rotate(0 15.309406064031634 -3.223032855585643)" stroke="none"><path fill="#d65d0e" d="M 0,-2.61 Q 0,-2.61 1.62,-2.57 3.24,-2.52 4.61,-2.52 5.98,-2.52 7.46,-2.93 8.93,-3.33 10.52,-3.79 12.10,-4.24 13.47,-4.54 14.85,-4.84 16.95,-5.55 19.05,-6.26 20.56,-6.61 22.08,-6.96 23.66,-7.31 25.24,-7.65 27.49,-8.38 29.74,-9.11 30.19,-9.18 30.64,-9.24 31.09,-9.17 31.54,-9.09 31.93,-8.87 32.33,-8.66 32.64,-8.32 32.95,-7.99 33.14,-7.58 33.32,-7.16 33.37,-6.71 33.41,-6.26 33.31,-5.82 33.21,-5.38 32.97,-4.99 32.73,-4.60 32.38,-4.31 32.04,-4.02 31.61,-3.86 31.19,-3.70 30.74,-3.68 30.28,-3.66 29.85,-3.78 29.41,-3.91 29.04,-4.17 28.67,-4.42 28.39,-4.79 28.12,-5.15 27.98,-5.58 27.84,-6.02 27.85,-6.47 27.85,-6.92 28.00,-7.35 28.15,-7.78 28.43,-8.14 28.71,-8.50 29.08,-8.75 29.46,-9.00 29.90,-9.11 30.34,-9.23 30.79,-9.20 31.24,-9.17 31.66,-9.00 32.08,-8.83 32.43,-8.53 32.77,-8.23 33.00,-7.84 33.23,-7.45 33.32,-7.01 33.42,-6.56 33.36,-6.11 33.31,-5.66 33.11,-5.25 32.92,-4.84 32.60,-4.52 32.29,-4.19 31.89,-3.98 31.48,-3.77 31.48,-3.78 31.48,-3.78 29.03,-3.11 26.57,-2.44 25.05,-1.99 23.53,-1.54 22.12,-1.11 20.70,-0.67 18.65,0.03 16.60,0.75 15.46,1.04 14.31,1.33 13.04,1.37 11.77,1.41 10.06,1.73 8.35,2.05 7.19,2.29 6.03,2.52 4.64,2.52 3.24,2.52 1.62,2.57 0,2.61 -0.31,2.57 -0.62,2.53 -0.92,2.42 -1.21,2.31 -1.47,2.13 -1.73,1.95 -1.94,1.72 -2.15,1.48 -2.29,1.20 -2.44,0.92 -2.52,0.62 -2.59,0.31 -2.59,-0.00 -2.59,-0.31 -2.52,-0.62 -2.44,-0.92 -2.29,-1.20 -2.15,-1.48 -1.94,-1.72 -1.73,-1.95 -1.47,-2.13 -1.21,-2.31 -0.92,-2.42 -0.62,-2.53 -0.31,-2.57 0.00,-2.61 0.00,-2.61 L 0,-2.61 Z"></path></g><g transform="translate(189.6549874018424 444.30367729016064) rotate(0 4.431670176430231 -2.014395534741027)" stroke="none"><path fill="#d65d0e" d="M -1.04,-2.08 Q -1.04,-2.08 0.34,-2.77 1.74,-3.46 3.27,-4.20 4.80,-4.93 6.42,-5.60 8.03,-6.27 8.41,-6.34 8.79,-6.41 9.18,-6.36 9.56,-6.31 9.91,-6.14 10.25,-5.96 10.52,-5.69 10.80,-5.42 10.97,-5.07 11.14,-4.73 11.19,-4.34 11.25,-3.96 11.17,-3.58 11.10,-3.20 10.91,-2.86 10.72,-2.53 10.43,-2.27 10.15,-2.01 9.79,-1.86 9.44,-1.71 9.05,-1.67 8.67,-1.64 8.29,-1.74 7.91,-1.83 7.59,-2.04 7.26,-2.24 7.02,-2.55 6.78,-2.85 6.65,-3.21 6.51,-3.57 6.50,-3.96 6.49,-4.35 6.60,-4.72 6.72,-5.08 6.94,-5.40 7.17,-5.71 7.48,-5.94 7.80,-6.16 8.17,-6.28 8.54,-6.39 8.92,-6.38 9.31,-6.37 9.67,-6.24 10.03,-6.10 10.34,-5.86 10.64,-5.62 10.84,-5.29 11.05,-4.97 11.15,-4.59 11.24,-4.22 11.21,-3.83 11.18,-3.45 11.02,-3.09 10.87,-2.74 10.61,-2.45 10.36,-2.16 10.02,-1.97 9.68,-1.78 9.68,-1.78 9.68,-1.78 8.25,-1.33 6.82,-0.87 5.32,-0.09 3.81,0.68 2.43,1.38 1.04,2.08 0.77,2.18 0.51,2.27 0.23,2.30 -0.04,2.33 -0.32,2.29 -0.60,2.25 -0.86,2.15 -1.12,2.04 -1.35,1.88 -1.58,1.71 -1.76,1.50 -1.94,1.28 -2.07,1.03 -2.19,0.78 -2.26,0.51 -2.32,0.23 -2.31,-0.04 -2.31,-0.32 -2.23,-0.59 -2.16,-0.87 -2.03,-1.11 -1.89,-1.36 -1.70,-1.57 -1.51,-1.77 -1.27,-1.93 -1.04,-2.08 -1.04,-2.08 L -1.04,-2.08 Z"></path></g><g transform="translate(273.71202928944376 499.0952355892035) rotate(0 13.295010529290636 -2.4172746416891755)" stroke="none"><path fill="#d65d0e" d="M -0.52,-2.61 Q -0.52,-2.61 0.63,-2.85 1.78,-3.10 2.86,-3.25 3.94,-3.39 5.75,-3.52 7.57,-3.64 9.44,-4.19 11.31,-4.74 12.60,-5.19 13.90,-5.64 15.23,-5.94 16.57,-6.24 17.61,-6.64 18.65,-7.04 19.80,-7.15 20.95,-7.27 22.17,-7.31 23.39,-7.34 24.68,-7.73 25.97,-8.12 26.51,-8.09 27.05,-8.07 27.56,-7.87 28.06,-7.67 28.47,-7.33 28.89,-6.98 29.17,-6.52 29.45,-6.06 29.57,-5.53 29.69,-5.00 29.63,-4.47 29.58,-3.93 29.35,-3.44 29.13,-2.95 28.76,-2.55 28.39,-2.16 27.92,-1.90 27.44,-1.65 26.91,-1.56 26.38,-1.47 25.84,-1.55 25.31,-1.63 24.83,-1.88 24.35,-2.13 23.98,-2.52 23.60,-2.91 23.38,-3.40 23.15,-3.89 23.08,-4.43 23.02,-4.96 23.13,-5.49 23.25,-6.02 23.52,-6.48 23.80,-6.95 24.21,-7.30 24.62,-7.65 25.12,-7.86 25.62,-8.06 26.16,-8.09 26.70,-8.12 27.22,-7.98 27.74,-7.84 28.19,-7.54 28.64,-7.24 28.97,-6.81 29.30,-6.38 29.47,-5.87 29.65,-5.36 29.65,-4.82 29.65,-4.28 29.48,-3.77 29.31,-3.26 28.99,-2.83 28.67,-2.39 28.22,-2.09 27.78,-1.78 27.26,-1.63 26.74,-1.49 26.74,-1.49 26.74,-1.49 24.59,-1.10 22.44,-0.71 20.94,-0.80 19.45,-0.88 18.13,-0.44 16.80,-0.00 15.52,0.37 14.23,0.75 12.88,1.12 11.54,1.49 10.45,1.80 9.36,2.10 7.73,2.08 6.10,2.06 4.47,2.12 2.84,2.17 1.68,2.39 0.52,2.61 0.20,2.63 -0.11,2.66 -0.43,2.61 -0.75,2.55 -1.04,2.43 -1.34,2.30 -1.59,2.10 -1.85,1.91 -2.05,1.66 -2.25,1.41 -2.39,1.12 -2.53,0.83 -2.59,0.51 -2.65,0.20 -2.64,-0.11 -2.63,-0.43 -2.53,-0.74 -2.44,-1.05 -2.28,-1.33 -2.12,-1.61 -1.90,-1.84 -1.67,-2.07 -1.40,-2.24 -1.13,-2.41 -0.82,-2.51 -0.52,-2.61 -0.52,-2.61 L -0.52,-2.61 Z"></path></g><g transform="translate(272.9062710755474 488.6203788085503) rotate(0 13.295010529290607 -2.4172746416891755)" stroke="none"><path fill="#d65d0e" d="M -0.63,-2.53 Q -0.63,-2.53 0.28,-2.79 1.20,-3.06 3.39,-3.47 5.58,-3.87 7.23,-3.99 8.89,-4.10 10.40,-4.24 11.91,-4.39 12.95,-4.78 13.99,-5.17 15.16,-5.64 16.33,-6.12 17.44,-6.25 18.56,-6.38 19.87,-6.73 21.17,-7.09 23.35,-7.56 25.53,-8.02 26.07,-8.06 26.61,-8.11 27.13,-7.98 27.66,-7.85 28.12,-7.55 28.57,-7.26 28.91,-6.84 29.25,-6.41 29.44,-5.91 29.63,-5.40 29.64,-4.85 29.65,-4.31 29.49,-3.79 29.33,-3.27 29.02,-2.83 28.70,-2.39 28.26,-2.08 27.82,-1.76 27.30,-1.60 26.78,-1.44 26.24,-1.46 25.70,-1.47 25.19,-1.66 24.68,-1.85 24.26,-2.19 23.83,-2.53 23.54,-2.99 23.25,-3.44 23.12,-3.97 22.99,-4.50 23.03,-5.04 23.08,-5.58 23.29,-6.08 23.51,-6.58 23.87,-6.98 24.23,-7.38 24.71,-7.65 25.18,-7.92 25.71,-8.02 26.24,-8.12 26.78,-8.04 27.32,-7.97 27.81,-7.73 28.29,-7.49 28.67,-7.10 29.06,-6.72 29.30,-6.23 29.54,-5.75 29.61,-5.21 29.68,-4.67 29.58,-4.14 29.48,-3.61 29.21,-3.14 28.94,-2.66 28.54,-2.30 28.13,-1.94 27.64,-1.73 27.14,-1.51 27.14,-1.51 27.14,-1.51 24.95,-1.17 22.76,-0.82 21.67,-0.42 20.58,-0.01 19.21,-0.38 17.83,-0.74 16.53,-0.11 15.22,0.52 13.66,0.87 12.10,1.23 10.70,1.22 9.30,1.22 8.01,1.34 6.71,1.46 4.60,1.80 2.50,2.13 1.56,2.33 0.63,2.53 0.32,2.56 0.00,2.60 -0.30,2.57 -0.61,2.53 -0.91,2.42 -1.20,2.31 -1.46,2.13 -1.72,1.95 -1.93,1.72 -2.14,1.48 -2.28,1.21 -2.43,0.93 -2.51,0.62 -2.58,0.32 -2.58,0.00 -2.59,-0.30 -2.51,-0.61 -2.44,-0.91 -2.29,-1.19 -2.15,-1.47 -1.94,-1.71 -1.73,-1.94 -1.47,-2.12 -1.21,-2.30 -0.92,-2.41 -0.63,-2.53 -0.63,-2.53 L -0.63,-2.53 Z"></path></g><g transform="translate(271.2947546477546 477.3397638140008) rotate(0 14.100768743187018 -3.6259119625337917)" stroke="none"><path fill="#d65d0e" d="M -0.30,-2.44 Q -0.30,-2.44 1.55,-2.59 3.42,-2.74 5.83,-2.94 8.24,-3.14 9.52,-3.34 10.79,-3.55 11.87,-3.86 12.96,-4.17 14.52,-4.81 16.09,-5.44 17.41,-6.11 18.73,-6.78 19.81,-7.07 20.88,-7.37 22.39,-8.11 23.89,-8.85 25.49,-9.41 27.09,-9.96 27.55,-10.03 28.02,-10.09 28.49,-10.01 28.95,-9.92 29.37,-9.69 29.78,-9.47 30.10,-9.12 30.42,-8.77 30.61,-8.33 30.80,-7.90 30.84,-7.43 30.88,-6.96 30.77,-6.50 30.66,-6.04 30.41,-5.64 30.16,-5.24 29.79,-4.94 29.42,-4.64 28.98,-4.48 28.54,-4.31 28.07,-4.29 27.59,-4.28 27.14,-4.41 26.69,-4.55 26.30,-4.82 25.92,-5.09 25.64,-5.47 25.36,-5.86 25.22,-6.31 25.08,-6.76 25.08,-7.23 25.09,-7.70 25.25,-8.15 25.41,-8.59 25.71,-8.96 26.00,-9.33 26.40,-9.59 26.79,-9.85 27.25,-9.97 27.71,-10.08 28.18,-10.05 28.65,-10.01 29.09,-9.83 29.52,-9.65 29.87,-9.33 30.23,-9.02 30.46,-8.61 30.70,-8.20 30.79,-7.74 30.89,-7.28 30.83,-6.81 30.77,-6.34 30.56,-5.91 30.35,-5.49 30.02,-5.15 29.69,-4.81 29.27,-4.60 28.85,-4.39 28.85,-4.39 28.85,-4.39 26.81,-3.77 24.78,-3.15 23.40,-2.50 22.02,-1.86 20.97,-1.58 19.92,-1.30 18.48,-0.92 17.03,-0.55 15.53,-0.17 14.02,0.20 12.65,0.47 11.27,0.74 10.04,0.82 8.80,0.90 6.39,1.36 3.99,1.82 2.14,2.13 0.30,2.44 0.00,2.44 -0.28,2.44 -0.57,2.37 -0.86,2.30 -1.12,2.16 -1.39,2.03 -1.61,1.83 -1.83,1.64 -2.00,1.39 -2.17,1.15 -2.28,0.87 -2.38,0.59 -2.42,0.30 -2.46,0.00 -2.42,-0.28 -2.39,-0.58 -2.28,-0.85 -2.18,-1.13 -2.01,-1.38 -1.84,-1.62 -1.62,-1.82 -1.40,-2.02 -1.14,-2.16 -0.88,-2.30 -0.59,-2.37 -0.30,-2.44 -0.30,-2.44 L -0.30,-2.44 Z"></path></g><g transform="translate(272.100512861651 466.05914881945125) rotate(0 14.100768743187018 -4.4316701764302024)" stroke="none"><path fill="#d65d0e" d="M -0.70,-2.45 Q -0.70,-2.45 0.93,-2.87 2.56,-3.28 3.92,-3.70 5.28,-4.12 6.43,-4.61 7.58,-5.10 9.21,-5.51 10.84,-5.92 12.03,-6.60 13.21,-7.28 14.48,-7.82 15.76,-8.36 17.10,-8.68 18.45,-9.00 20.20,-10.00 21.95,-11.00 23.05,-11.12 24.15,-11.24 25.88,-11.66 27.60,-12.07 28.13,-12.04 28.65,-12.00 29.14,-11.80 29.63,-11.60 30.02,-11.25 30.42,-10.91 30.69,-10.45 30.95,-10.00 31.06,-9.48 31.17,-8.97 31.10,-8.45 31.04,-7.92 30.81,-7.45 30.59,-6.97 30.22,-6.60 29.85,-6.22 29.39,-5.98 28.92,-5.74 28.40,-5.66 27.88,-5.58 27.36,-5.67 26.84,-5.76 26.38,-6.01 25.92,-6.26 25.56,-6.65 25.20,-7.04 24.99,-7.52 24.77,-8.00 24.72,-8.52 24.67,-9.05 24.79,-9.56 24.91,-10.07 25.18,-10.52 25.46,-10.97 25.87,-11.30 26.27,-11.64 26.76,-11.83 27.25,-12.02 27.78,-12.04 28.31,-12.06 28.81,-11.91 29.32,-11.77 29.75,-11.47 30.18,-11.17 30.50,-10.74 30.81,-10.32 30.97,-9.82 31.13,-9.32 31.13,-8.79 31.12,-8.27 30.95,-7.77 30.77,-7.27 30.45,-6.86 30.13,-6.44 29.69,-6.15 29.25,-5.86 28.74,-5.73 28.23,-5.59 28.23,-5.59 28.23,-5.59 26.38,-5.20 24.54,-4.80 23.23,-4.79 21.92,-4.78 20.50,-4.06 19.08,-3.35 17.55,-2.82 16.02,-2.30 14.77,-1.62 13.52,-0.95 11.78,-0.68 10.04,-0.42 8.38,0.06 6.73,0.56 5.32,0.99 3.91,1.43 2.30,1.94 0.70,2.45 0.39,2.50 0.09,2.55 -0.21,2.52 -0.52,2.50 -0.81,2.40 -1.10,2.30 -1.36,2.14 -1.62,1.97 -1.83,1.75 -2.04,1.52 -2.20,1.26 -2.35,0.99 -2.44,0.69 -2.52,0.40 -2.53,0.09 -2.54,-0.21 -2.48,-0.51 -2.42,-0.81 -2.28,-1.09 -2.15,-1.37 -1.96,-1.61 -1.76,-1.85 -1.51,-2.03 -1.27,-2.21 -0.98,-2.33 -0.70,-2.45 -0.70,-2.45 L -0.70,-2.45 Z"></path></g><g transform="translate(272.100512861651 453.1670173971087) rotate(0 15.309406064031634 -3.223032855585643)" stroke="none"><path fill="#d65d0e" d="M 0,-2.61 Q 0,-2.61 1.62,-2.57 3.24,-2.52 4.61,-2.52 5.98,-2.52 7.46,-2.93 8.93,-3.33 10.52,-3.79 12.10,-4.24 13.47,-4.54 14.85,-4.84 16.95,-5.55 19.05,-6.26 20.56,-6.61 22.08,-6.96 23.66,-7.31 25.24,-7.65 27.40,-8.31 29.55,-8.96 29.99,-9.03 30.43,-9.09 30.86,-9.02 31.29,-8.94 31.68,-8.73 32.07,-8.52 32.37,-8.20 32.67,-7.88 32.85,-7.48 33.03,-7.07 33.07,-6.64 33.12,-6.20 33.02,-5.77 32.92,-5.34 32.69,-4.96 32.46,-4.59 32.12,-4.31 31.78,-4.02 31.37,-3.86 30.96,-3.70 30.52,-3.69 30.08,-3.67 29.65,-3.79 29.23,-3.91 28.87,-4.16 28.51,-4.41 28.24,-4.77 27.98,-5.12 27.84,-5.54 27.71,-5.96 27.71,-6.40 27.72,-6.84 27.86,-7.25 28.01,-7.67 28.28,-8.02 28.55,-8.37 28.91,-8.61 29.28,-8.85 29.71,-8.97 30.13,-9.08 30.57,-9.05 31.01,-9.03 31.42,-8.86 31.83,-8.69 32.16,-8.40 32.49,-8.11 32.72,-7.73 32.94,-7.35 33.03,-6.92 33.12,-6.49 33.07,-6.05 33.02,-5.62 32.83,-5.22 32.64,-4.82 32.33,-4.50 32.03,-4.19 31.63,-3.98 31.24,-3.78 31.24,-3.78 31.24,-3.78 28.91,-3.11 26.57,-2.44 25.05,-1.99 23.53,-1.54 22.12,-1.11 20.70,-0.67 18.65,0.03 16.60,0.75 15.46,1.04 14.31,1.33 13.04,1.37 11.77,1.41 10.06,1.73 8.35,2.05 7.19,2.29 6.03,2.52 4.64,2.52 3.24,2.52 1.62,2.57 0,2.61 -0.31,2.57 -0.62,2.53 -0.92,2.42 -1.21,2.31 -1.47,2.13 -1.73,1.95 -1.94,1.72 -2.15,1.48 -2.29,1.20 -2.44,0.92 -2.52,0.62 -2.59,0.31 -2.59,-0.00 -2.59,-0.31 -2.52,-0.62 -2.44,-0.92 -2.29,-1.20 -2.15,-1.48 -1.94,-1.72 -1.73,-1.95 -1.47,-2.13 -1.21,-2.31 -0.92,-2.42 -0.62,-2.53 -0.31,-2.57 0.00,-2.61 0.00,-2.61 L 0,-2.61 Z"></path></g><g transform="translate(274.5177875033402 444.3036770442485) rotate(0 4.431670176430231 -2.014395534741027)" stroke="none"><path fill="#d65d0e" d="M -1.03,-2.07 Q -1.03,-2.07 0.35,-2.76 1.74,-3.45 4.61,-4.77 7.48,-6.08 7.86,-6.15 8.24,-6.23 8.63,-6.17 9.01,-6.12 9.36,-5.95 9.71,-5.77 9.99,-5.50 10.26,-5.22 10.43,-4.88 10.61,-4.53 10.66,-4.14 10.71,-3.76 10.64,-3.37 10.57,-2.99 10.37,-2.65 10.18,-2.32 9.89,-2.06 9.60,-1.80 9.25,-1.64 8.89,-1.49 8.50,-1.46 8.11,-1.42 7.74,-1.52 7.36,-1.61 7.03,-1.82 6.70,-2.03 6.46,-2.33 6.21,-2.64 6.08,-3.00 5.95,-3.37 5.94,-3.76 5.92,-4.15 6.04,-4.52 6.15,-4.89 6.38,-5.21 6.61,-5.52 6.92,-5.75 7.24,-5.98 7.61,-6.09 7.98,-6.20 8.37,-6.19 8.76,-6.18 9.13,-6.05 9.49,-5.91 9.79,-5.67 10.10,-5.43 10.31,-5.10 10.52,-4.77 10.61,-4.39 10.70,-4.02 10.67,-3.63 10.64,-3.24 10.49,-2.88 10.33,-2.53 10.07,-2.24 9.81,-1.95 9.48,-1.76 9.14,-1.56 9.14,-1.56 9.14,-1.56 6.47,-0.44 3.81,0.67 2.42,1.37 1.03,2.07 0.77,2.16 0.51,2.26 0.23,2.29 -0.04,2.31 -0.32,2.28 -0.59,2.24 -0.85,2.13 -1.11,2.03 -1.34,1.86 -1.57,1.70 -1.75,1.49 -1.93,1.28 -2.06,1.02 -2.18,0.77 -2.24,0.50 -2.30,0.23 -2.30,-0.04 -2.29,-0.32 -2.22,-0.59 -2.15,-0.86 -2.01,-1.11 -1.88,-1.35 -1.69,-1.56 -1.50,-1.76 -1.27,-1.92 -1.03,-2.07 -1.03,-2.07 L -1.03,-2.07 Z"></path></g><g transform="translate(530.4682496191298 501.10963112870854) rotate(0 13.295010529290664 -2.4172746416891755)" stroke="none"><path fill="#d65d0e" d="M -0.52,-2.61 Q -0.52,-2.61 0.63,-2.85 1.78,-3.10 2.86,-3.25 3.94,-3.39 5.75,-3.52 7.57,-3.64 9.44,-4.19 11.31,-4.74 12.60,-5.19 13.90,-5.64 15.23,-5.94 16.57,-6.24 17.61,-6.64 18.65,-7.04 19.80,-7.15 20.95,-7.27 22.17,-7.31 23.39,-7.34 24.68,-7.73 25.97,-8.12 26.51,-8.09 27.05,-8.07 27.56,-7.87 28.06,-7.67 28.47,-7.33 28.89,-6.98 29.17,-6.52 29.45,-6.06 29.57,-5.53 29.69,-5.00 29.63,-4.47 29.58,-3.93 29.35,-3.44 29.13,-2.95 28.76,-2.55 28.39,-2.16 27.92,-1.90 27.44,-1.65 26.91,-1.56 26.38,-1.47 25.84,-1.55 25.31,-1.63 24.83,-1.88 24.35,-2.13 23.98,-2.52 23.60,-2.91 23.38,-3.40 23.15,-3.89 23.08,-4.43 23.02,-4.96 23.13,-5.49 23.25,-6.02 23.52,-6.48 23.80,-6.95 24.21,-7.30 24.62,-7.65 25.12,-7.86 25.62,-8.06 26.16,-8.09 26.70,-8.12 27.22,-7.98 27.74,-7.84 28.19,-7.54 28.64,-7.24 28.97,-6.81 29.30,-6.38 29.47,-5.87 29.65,-5.36 29.65,-4.82 29.65,-4.28 29.48,-3.77 29.31,-3.26 28.99,-2.83 28.67,-2.39 28.22,-2.09 27.78,-1.78 27.26,-1.63 26.74,-1.49 26.74,-1.49 26.74,-1.49 24.59,-1.10 22.44,-0.71 20.94,-0.80 19.45,-0.88 18.13,-0.44 16.80,-0.00 15.52,0.37 14.23,0.75 12.88,1.12 11.54,1.49 10.45,1.80 9.36,2.10 7.73,2.08 6.10,2.06 4.47,2.12 2.84,2.17 1.68,2.39 0.52,2.61 0.20,2.63 -0.11,2.66 -0.43,2.61 -0.75,2.55 -1.04,2.43 -1.34,2.30 -1.59,2.10 -1.85,1.91 -2.05,1.66 -2.25,1.41 -2.39,1.12 -2.53,0.83 -2.59,0.51 -2.65,0.20 -2.64,-0.11 -2.63,-0.43 -2.53,-0.74 -2.44,-1.05 -2.28,-1.33 -2.12,-1.61 -1.90,-1.84 -1.67,-2.07 -1.40,-2.24 -1.13,-2.41 -0.82,-2.51 -0.52,-2.61 -0.52,-2.61 L -0.52,-2.61 Z"></path></g><g transform="translate(529.6624914052335 490.6347743480553) rotate(0 13.295010529290607 -2.4172746416891755)" stroke="none"><path fill="#d65d0e" d="M -0.63,-2.53 Q -0.63,-2.53 0.28,-2.79 1.20,-3.06 3.39,-3.47 5.58,-3.87 7.23,-3.99 8.89,-4.10 10.40,-4.24 11.91,-4.39 12.95,-4.78 13.99,-5.17 15.16,-5.64 16.33,-6.12 17.44,-6.25 18.56,-6.38 19.87,-6.73 21.17,-7.09 23.35,-7.56 25.53,-8.02 26.07,-8.06 26.61,-8.11 27.13,-7.98 27.66,-7.85 28.12,-7.55 28.57,-7.26 28.91,-6.84 29.25,-6.41 29.44,-5.91 29.63,-5.40 29.64,-4.85 29.65,-4.31 29.49,-3.79 29.33,-3.27 29.02,-2.83 28.70,-2.39 28.26,-2.08 27.82,-1.76 27.30,-1.60 26.78,-1.44 26.24,-1.46 25.70,-1.47 25.19,-1.66 24.68,-1.85 24.26,-2.19 23.83,-2.53 23.54,-2.99 23.25,-3.44 23.12,-3.97 22.99,-4.50 23.03,-5.04 23.08,-5.58 23.29,-6.08 23.51,-6.58 23.87,-6.98 24.23,-7.38 24.71,-7.65 25.18,-7.92 25.71,-8.02 26.24,-8.12 26.78,-8.04 27.32,-7.97 27.81,-7.73 28.29,-7.49 28.67,-7.10 29.06,-6.72 29.30,-6.23 29.54,-5.75 29.61,-5.21 29.68,-4.67 29.58,-4.14 29.48,-3.61 29.21,-3.14 28.94,-2.66 28.54,-2.30 28.13,-1.94 27.64,-1.73 27.14,-1.51 27.14,-1.51 27.14,-1.51 24.95,-1.17 22.76,-0.82 21.67,-0.42 20.58,-0.01 19.21,-0.38 17.83,-0.74 16.53,-0.11 15.22,0.52 13.66,0.87 12.10,1.23 10.70,1.22 9.30,1.22 8.01,1.34 6.71,1.46 4.60,1.80 2.50,2.13 1.56,2.33 0.63,2.53 0.32,2.56 0.00,2.60 -0.30,2.57 -0.61,2.53 -0.91,2.42 -1.20,2.31 -1.46,2.13 -1.72,1.95 -1.93,1.72 -2.14,1.48 -2.28,1.21 -2.43,0.93 -2.51,0.62 -2.58,0.32 -2.58,0.00 -2.59,-0.30 -2.51,-0.61 -2.44,-0.91 -2.29,-1.19 -2.15,-1.47 -1.94,-1.71 -1.73,-1.94 -1.47,-2.12 -1.21,-2.30 -0.92,-2.41 -0.63,-2.53 -0.63,-2.53 L -0.63,-2.53 Z"></path></g><g transform="translate(528.0509749774407 479.3541593535058) rotate(0 14.100768743187018 -3.6259119625337917)" stroke="none"><path fill="#d65d0e" d="M -0.30,-2.44 Q -0.30,-2.44 1.55,-2.59 3.42,-2.74 5.83,-2.94 8.24,-3.14 9.52,-3.34 10.79,-3.55 11.87,-3.86 12.96,-4.17 14.52,-4.81 16.09,-5.44 17.41,-6.11 18.73,-6.78 19.81,-7.07 20.88,-7.37 22.39,-8.11 23.89,-8.85 25.49,-9.41 27.09,-9.96 27.55,-10.03 28.02,-10.09 28.49,-10.01 28.95,-9.92 29.37,-9.69 29.78,-9.47 30.10,-9.12 30.42,-8.77 30.61,-8.33 30.80,-7.90 30.84,-7.43 30.88,-6.96 30.77,-6.50 30.66,-6.04 30.41,-5.64 30.16,-5.24 29.79,-4.94 29.42,-4.64 28.98,-4.48 28.54,-4.31 28.07,-4.29 27.59,-4.28 27.14,-4.41 26.69,-4.55 26.30,-4.82 25.92,-5.09 25.64,-5.47 25.36,-5.86 25.22,-6.31 25.08,-6.76 25.08,-7.23 25.09,-7.70 25.25,-8.15 25.41,-8.59 25.71,-8.96 26.00,-9.33 26.40,-9.59 26.79,-9.85 27.25,-9.97 27.71,-10.08 28.18,-10.05 28.65,-10.01 29.09,-9.83 29.52,-9.65 29.87,-9.33 30.23,-9.02 30.46,-8.61 30.70,-8.20 30.79,-7.74 30.89,-7.28 30.83,-6.81 30.77,-6.34 30.56,-5.91 30.35,-5.49 30.02,-5.15 29.69,-4.81 29.27,-4.60 28.85,-4.39 28.85,-4.39 28.85,-4.39 26.81,-3.77 24.78,-3.15 23.40,-2.50 22.02,-1.86 20.97,-1.58 19.92,-1.30 18.48,-0.92 17.03,-0.55 15.53,-0.17 14.02,0.20 12.65,0.47 11.27,0.74 10.04,0.82 8.80,0.90 6.39,1.36 3.99,1.82 2.14,2.13 0.30,2.44 0.00,2.44 -0.28,2.44 -0.57,2.37 -0.86,2.30 -1.12,2.16 -1.39,2.03 -1.61,1.83 -1.83,1.64 -2.00,1.39 -2.17,1.15 -2.28,0.87 -2.38,0.59 -2.42,0.30 -2.46,0.00 -2.42,-0.28 -2.39,-0.58 -2.28,-0.85 -2.18,-1.13 -2.01,-1.38 -1.84,-1.62 -1.62,-1.82 -1.40,-2.02 -1.14,-2.16 -0.88,-2.30 -0.59,-2.37 -0.30,-2.44 -0.30,-2.44 L -0.30,-2.44 Z"></path></g><g transform="translate(528.8567331913371 468.07354435895627) rotate(0 14.100768743187018 -4.4316701764302024)" stroke="none"><path fill="#d65d0e" d="M -0.70,-2.45 Q -0.70,-2.45 0.93,-2.87 2.56,-3.28 3.92,-3.70 5.28,-4.12 6.43,-4.61 7.58,-5.10 9.21,-5.51 10.84,-5.92 12.03,-6.60 13.21,-7.28 14.48,-7.82 15.76,-8.36 17.10,-8.68 18.45,-9.00 20.20,-10.00 21.95,-11.00 23.05,-11.12 24.15,-11.24 25.88,-11.66 27.60,-12.07 28.13,-12.04 28.65,-12.00 29.14,-11.80 29.63,-11.60 30.02,-11.25 30.42,-10.91 30.69,-10.45 30.95,-10.00 31.06,-9.48 31.17,-8.97 31.10,-8.45 31.04,-7.92 30.81,-7.45 30.59,-6.97 30.22,-6.60 29.85,-6.22 29.39,-5.98 28.92,-5.74 28.40,-5.66 27.88,-5.58 27.36,-5.67 26.84,-5.76 26.38,-6.01 25.92,-6.26 25.56,-6.65 25.20,-7.04 24.99,-7.52 24.77,-8.00 24.72,-8.52 24.67,-9.05 24.79,-9.56 24.91,-10.07 25.18,-10.52 25.46,-10.97 25.87,-11.30 26.27,-11.64 26.76,-11.83 27.25,-12.02 27.78,-12.04 28.31,-12.06 28.81,-11.91 29.32,-11.77 29.75,-11.47 30.18,-11.17 30.50,-10.74 30.81,-10.32 30.97,-9.82 31.13,-9.32 31.13,-8.79 31.12,-8.27 30.95,-7.77 30.77,-7.27 30.45,-6.86 30.13,-6.44 29.69,-6.15 29.25,-5.86 28.74,-5.73 28.23,-5.59 28.23,-5.59 28.23,-5.59 26.38,-5.20 24.54,-4.80 23.23,-4.79 21.92,-4.78 20.50,-4.06 19.08,-3.35 17.55,-2.82 16.02,-2.30 14.77,-1.62 13.52,-0.95 11.78,-0.68 10.04,-0.42 8.38,0.06 6.73,0.56 5.32,0.99 3.91,1.43 2.30,1.94 0.70,2.45 0.39,2.50 0.09,2.55 -0.21,2.52 -0.52,2.50 -0.81,2.40 -1.10,2.30 -1.36,2.14 -1.62,1.97 -1.83,1.75 -2.04,1.52 -2.20,1.26 -2.35,0.99 -2.44,0.69 -2.52,0.40 -2.53,0.09 -2.54,-0.21 -2.48,-0.51 -2.42,-0.81 -2.28,-1.09 -2.15,-1.37 -1.96,-1.61 -1.76,-1.85 -1.51,-2.03 -1.27,-2.21 -0.98,-2.33 -0.70,-2.45 -0.70,-2.45 L -0.70,-2.45 Z"></path></g><g transform="translate(528.8567331913371 455.1814129366137) rotate(0 15.309406064031634 -3.223032855585643)" stroke="none"><path fill="#d65d0e" d="M 0,-2.61 Q 0,-2.61 1.62,-2.57 3.24,-2.52 4.61,-2.52 5.98,-2.52 7.46,-2.93 8.93,-3.33 10.52,-3.79 12.10,-4.24 13.47,-4.54 14.85,-4.84 16.95,-5.55 19.05,-6.26 20.56,-6.61 22.08,-6.96 23.66,-7.31 25.24,-7.65 27.40,-8.31 29.55,-8.96 29.99,-9.03 30.43,-9.09 30.86,-9.02 31.29,-8.94 31.68,-8.73 32.07,-8.52 32.37,-8.20 32.67,-7.88 32.85,-7.48 33.03,-7.07 33.07,-6.64 33.12,-6.20 33.02,-5.77 32.92,-5.34 32.69,-4.96 32.46,-4.59 32.12,-4.31 31.78,-4.02 31.37,-3.86 30.96,-3.70 30.52,-3.69 30.08,-3.67 29.65,-3.79 29.23,-3.91 28.87,-4.16 28.51,-4.41 28.24,-4.77 27.98,-5.12 27.84,-5.54 27.71,-5.96 27.71,-6.40 27.72,-6.84 27.86,-7.25 28.01,-7.67 28.28,-8.02 28.55,-8.37 28.91,-8.61 29.28,-8.85 29.71,-8.97 30.13,-9.08 30.57,-9.05 31.01,-9.03 31.42,-8.86 31.83,-8.69 32.16,-8.40 32.49,-8.11 32.72,-7.73 32.94,-7.35 33.03,-6.92 33.12,-6.49 33.07,-6.05 33.02,-5.62 32.83,-5.22 32.64,-4.82 32.33,-4.50 32.03,-4.19 31.63,-3.98 31.24,-3.78 31.24,-3.78 31.24,-3.78 28.91,-3.11 26.57,-2.44 25.05,-1.99 23.53,-1.54 22.12,-1.11 20.70,-0.67 18.65,0.03 16.60,0.75 15.46,1.04 14.31,1.33 13.04,1.37 11.77,1.41 10.06,1.73 8.35,2.05 7.19,2.29 6.03,2.52 4.64,2.52 3.24,2.52 1.62,2.57 0,2.61 -0.31,2.57 -0.62,2.53 -0.92,2.42 -1.21,2.31 -1.47,2.13 -1.73,1.95 -1.94,1.72 -2.15,1.48 -2.29,1.20 -2.44,0.92 -2.52,0.62 -2.59,0.31 -2.59,-0.00 -2.59,-0.31 -2.52,-0.62 -2.44,-0.92 -2.29,-1.20 -2.15,-1.48 -1.94,-1.72 -1.73,-1.95 -1.47,-2.13 -1.21,-2.31 -0.92,-2.42 -0.62,-2.53 -0.31,-2.57 0.00,-2.61 0.00,-2.61 L 0,-2.61 Z"></path></g><g transform="translate(531.2740078330263 446.3180725837535) rotate(0 4.431670176430259 -2.014395534741027)" stroke="none"><path fill="#d65d0e" d="M -1.03,-2.07 Q -1.03,-2.07 0.35,-2.76 1.74,-3.45 4.61,-4.77 7.48,-6.08 7.86,-6.15 8.24,-6.23 8.63,-6.17 9.01,-6.12 9.36,-5.95 9.71,-5.77 9.99,-5.50 10.26,-5.22 10.43,-4.88 10.61,-4.53 10.66,-4.14 10.71,-3.76 10.64,-3.37 10.57,-2.99 10.37,-2.65 10.18,-2.32 9.89,-2.06 9.60,-1.80 9.25,-1.64 8.89,-1.49 8.50,-1.46 8.11,-1.42 7.74,-1.52 7.36,-1.61 7.03,-1.82 6.70,-2.03 6.46,-2.33 6.21,-2.64 6.08,-3.00 5.95,-3.37 5.94,-3.76 5.92,-4.15 6.04,-4.52 6.15,-4.89 6.38,-5.21 6.61,-5.52 6.92,-5.75 7.24,-5.98 7.61,-6.09 7.98,-6.20 8.37,-6.19 8.76,-6.18 9.13,-6.05 9.49,-5.91 9.79,-5.67 10.10,-5.43 10.31,-5.10 10.52,-4.77 10.61,-4.39 10.70,-4.02 10.67,-3.63 10.64,-3.24 10.49,-2.88 10.33,-2.53 10.07,-2.24 9.81,-1.95 9.48,-1.76 9.14,-1.56 9.14,-1.56 9.14,-1.56 6.47,-0.44 3.81,0.67 2.42,1.37 1.03,2.07 0.77,2.16 0.51,2.26 0.23,2.29 -0.04,2.31 -0.32,2.28 -0.59,2.24 -0.85,2.13 -1.11,2.03 -1.34,1.86 -1.57,1.70 -1.75,1.49 -1.93,1.28 -2.06,1.02 -2.18,0.77 -2.24,0.50 -2.30,0.23 -2.30,-0.04 -2.29,-0.32 -2.22,-0.59 -2.15,-0.86 -2.01,-1.11 -1.88,-1.35 -1.69,-1.56 -1.50,-1.76 -1.27,-1.92 -1.03,-2.07 -1.03,-2.07 L -1.03,-2.07 Z"></path></g></svg>