<svg version="1.1" xmlns="http://www.w3.org/2000/svg" viewBox="0 0 788.9151463597111 574.0209032075105" width="788.9151463597111" height="574.0209032075105">
  <!-- svg-source:excalidraw -->
  
  <defs>
    <style class="style-fonts">
      @font-face {
        font-family: "Virgil";
        src: url("https://excalidraw.com/Virgil.woff2");
      }
      @font-face {
        font-family: "Cascadia";
        src: url("https://excalidraw.com/Cascadia.woff2");
      }
    </style>
    
  </defs>
  <g stroke-linecap="round" transform="translate(50.39534034123159 431.1560644085731) rotate(0 344.0622334778386 38.68742713704779)"><path d="M0 0 C215.56 0, 431.13 0, 688.12 0 M0 0 C224.16 0, 448.33 0, 688.12 0 M688.12 0 C688.12 21.38, 688.12 42.76, 688.12 77.37 M688.12 0 C688.12 15.68, 688.12 31.36, 688.12 77.37 M688.12 77.37 C418.53 77.37, 148.94 77.37, 0 77.37 M688.12 77.37 C468.89 77.37, 249.66 77.37, 0 77.37 M0 77.37 C0 56.06, 0 34.75, 0 0 M0 77.37 C0 61.55, 0 45.73, 0 0" stroke="#504945" stroke-width="4" fill="none"></path></g><g stroke-linecap="round" transform="translate(50.39534030268487 431.1560645170366) rotate(0 21.503893993766575 38.68742713704793)"><path d="M0 0 C16.42 0, 32.83 0, 43.01 0 M0 0 C9.94 0, 19.88 0, 43.01 0 M43.01 0 C43.01 22.51, 43.01 45.02, 43.01 77.37 M43.01 0 C43.01 30.87, 43.01 61.73, 43.01 77.37 M43.01 77.37 C28 77.37, 12.99 77.37, 0 77.37 M43.01 77.37 C33.81 77.37, 24.62 77.37, 0 77.37 M0 77.37 C0 56.82, 0 36.26, 0 0 M0 77.37 C0 51.28, 0 25.18, 0 0" stroke="#504945" stroke-width="1" fill="none"></path></g><g stroke-linecap="round" transform="translate(93.40312797445006 431.1560645216141) rotate(0 21.50389399376658 38.68742713704793)"><path d="M0 0 C10.32 0, 20.64 0, 43.01 0 M0 0 C8.93 0, 17.87 0, 43.01 0 M43.01 0 C43.01 28.33, 43.01 56.66, 43.01 77.37 M43.01 0 C43.01 23.15, 43.01 46.3, 43.01 77.37 M43.01 77.37 C29.31 77.37, 15.61 77.37, 0 77.37 M43.01 77.37 C27.74 77.37, 12.47 77.37, 0 77.37 M0 77.37 C0 56.12, 0 34.86, 0 0 M0 77.37 C0 47.01, 0 16.65, 0 0" stroke="#504945" stroke-width="1" fill="none"></path></g><g stroke-linecap="round" transform="translate(136.41091682972143 431.1560644679205) rotate(0 21.50389399376658 38.68742713704793)"><path d="M0 0 C10.62 0, 21.23 0, 43.01 0 M0 0 C9.12 0, 18.24 0, 43.01 0 M43.01 0 C43.01 19.6, 43.01 39.21, 43.01 77.37 M43.01 0 C43.01 17.32, 43.01 34.63, 43.01 77.37 M43.01 77.37 C28.65 77.37, 14.29 77.37, 0 77.37 M43.01 77.37 C32.43 77.37, 21.85 77.37, 0 77.37 M0 77.37 C0 54.15, 0 30.92, 0 0 M0 77.37 C0 47.41, 0 17.45, 0 0" stroke="#504945" stroke-width="1" fill="none"></path></g><g stroke-linecap="round" transform="translate(179.41870450148656 431.15606447249786) rotate(0 21.50389399376658 38.68742713704793)"><path d="M0 0 C14.16 0, 28.32 0, 43.01 0 M0 0 C12.45 0, 24.9 0, 43.01 0 M43.01 0 C43.01 28.32, 43.01 56.65, 43.01 77.37 M43.01 0 C43.01 26.97, 43.01 53.95, 43.01 77.37 M43.01 77.37 C31.53 77.37, 20.05 77.37, 0 77.37 M43.01 77.37 C28.71 77.37, 14.42 77.37, 0 77.37 M0 77.37 C0 54.04, 0 30.71, 0 0 M0 77.37 C0 50.6, 0 23.82, 0 0" stroke="#504945" stroke-width="1" fill="none"></path></g><g stroke-linecap="round" transform="translate(222.42649221576318 431.1560646469684) rotate(0 21.50389399376658 38.68742713704793)"><path d="M0 0 C16.7 0, 33.39 0, 43.01 0 M0 0 C9.67 0, 19.35 0, 43.01 0 M43.01 0 C43.01 22.82, 43.01 45.63, 43.01 77.37 M43.01 0 C43.01 17.6, 43.01 35.2, 43.01 77.37 M43.01 77.37 C29.67 77.37, 16.33 77.37, 0 77.37 M43.01 77.37 C34.39 77.37, 25.77 77.37, 0 77.37 M0 77.37 C0 53.03, 0 28.69, 0 0 M0 77.37 C0 58.6, 0 39.83, 0 0" stroke="#504945" stroke-width="1" fill="none"></path></g><g stroke-linecap="round" transform="translate(265.4342798875281 431.1560646515462) rotate(0 21.50389399376658 38.68742713704793)"><path d="M0 0 C17.03 0, 34.06 0, 43.01 0 M0 0 C15.07 0, 30.13 0, 43.01 0 M43.01 0 C43.01 27.43, 43.01 54.86, 43.01 77.37 M43.01 0 C43.01 17.37, 43.01 34.73, 43.01 77.37 M43.01 77.37 C30.38 77.37, 17.76 77.37, 0 77.37 M43.01 77.37 C30.99 77.37, 18.98 77.37, 0 77.37 M0 77.37 C0 50.65, 0 23.92, 0 0 M0 77.37 C0 52.84, 0 28.31, 0 0" stroke="#504945" stroke-width="1" fill="none"></path></g><g stroke-linecap="round" transform="translate(308.4420687427996 431.1560645978526) rotate(0 21.50389399376658 38.68742713704793)"><path d="M0 0 C10.96 0, 21.92 0, 43.01 0 M0 0 C12.02 0, 24.04 0, 43.01 0 M43.01 0 C43.01 24.86, 43.01 49.71, 43.01 77.37 M43.01 0 C43.01 19.15, 43.01 38.31, 43.01 77.37 M43.01 77.37 C33.01 77.37, 23 77.37, 0 77.37 M43.01 77.37 C31.03 77.37, 19.06 77.37, 0 77.37 M0 77.37 C0 52.65, 0 27.92, 0 0 M0 77.37 C0 47.95, 0 18.52, 0 0" stroke="#504945" stroke-width="1" fill="none"></path></g><g stroke-linecap="round" transform="translate(351.4498564145647 431.15606460243) rotate(0 21.50389399376658 38.68742713704793)"><path d="M0 0 C13.05 0, 26.1 0, 43.01 0 M0 0 C8.72 0, 17.43 0, 43.01 0 M43.01 0 C43.01 17.3, 43.01 34.61, 43.01 77.37 M43.01 0 C43.01 30.12, 43.01 60.24, 43.01 77.37 M43.01 77.37 C30.7 77.37, 18.39 77.37, 0 77.37 M43.01 77.37 C30.03 77.37, 17.05 77.37, 0 77.37 M0 77.37 C0 56.68, 0 35.99, 0 0 M0 77.37 C0 49.72, 0 22.06, 0 0" stroke="#504945" stroke-width="1" fill="none"></path></g><g stroke-linecap="round" transform="translate(394.4576438670499 431.1560651824625) rotate(0 21.50389399376658 38.68742713704793)"><path d="M0 0 C11.77 0, 23.54 0, 43.01 0 M0 0 C10.6 0, 21.2 0, 43.01 0 M43.01 0 C43.01 18.67, 43.01 37.34, 43.01 77.37 M43.01 0 C43.01 21.01, 43.01 42.02, 43.01 77.37 M43.01 77.37 C28.95 77.37, 14.89 77.37, 0 77.37 M43.01 77.37 C32.67 77.37, 22.32 77.37, 0 77.37 M0 77.37 C0 47.93, 0 18.48, 0 0 M0 77.37 C0 54.19, 0 31, 0 0" stroke="#504945" stroke-width="1" fill="none"></path></g><g stroke-linecap="round" transform="translate(437.46543153881476 431.1560651870401) rotate(0 21.50389399376658 38.68742713704793)"><path d="M0 0 C14.59 0, 29.19 0, 43.01 0 M0 0 C10.11 0, 20.22 0, 43.01 0 M43.01 0 C43.01 29.41, 43.01 58.82, 43.01 77.37 M43.01 0 C43.01 18.57, 43.01 37.14, 43.01 77.37 M43.01 77.37 C31.95 77.37, 20.89 77.37, 0 77.37 M43.01 77.37 C34.22 77.37, 25.42 77.37, 0 77.37 M0 77.37 C0 58.49, 0 39.61, 0 0 M0 77.37 C0 57.57, 0 37.77, 0 0" stroke="#504945" stroke-width="1" fill="none"></path></g><g stroke-linecap="round" transform="translate(480.4732203940864 431.1560651333466) rotate(0 21.503893993766553 38.68742713704793)"><path d="M0 0 C15.05 0, 30.1 0, 43.01 0 M0 0 C11.44 0, 22.89 0, 43.01 0 M43.01 0 C43.01 21, 43.01 42.01, 43.01 77.37 M43.01 0 C43.01 21.38, 43.01 42.76, 43.01 77.37 M43.01 77.37 C32.02 77.37, 21.02 77.37, 0 77.37 M43.01 77.37 C27.2 77.37, 11.39 77.37, 0 77.37 M0 77.37 C0 58.3, 0 39.22, 0 0 M0 77.37 C0 57.89, 0 38.41, 0 0" stroke="#504945" stroke-width="1" fill="none"></path></g><g stroke-linecap="round" transform="translate(523.4810080658511 431.15606513792386) rotate(0 21.503893993766553 38.68742713704793)"><path d="M0 0 C14.47 0, 28.94 0, 43.01 0 M0 0 C12.96 0, 25.91 0, 43.01 0 M43.01 0 C43.01 29.65, 43.01 59.3, 43.01 77.37 M43.01 0 C43.01 26.89, 43.01 53.77, 43.01 77.37 M43.01 77.37 C27.19 77.37, 11.38 77.37, 0 77.37 M43.01 77.37 C29.6 77.37, 16.19 77.37, 0 77.37 M0 77.37 C0 57.92, 0 38.46, 0 0 M0 77.37 C0 46.94, 0 16.51, 0 0" stroke="#504945" stroke-width="1" fill="none"></path></g><g stroke-linecap="round" transform="translate(566.488795780128 431.1560653123944) rotate(0 21.503893993766553 38.68742713704793)"><path d="M0 0 C16.26 0, 32.52 0, 43.01 0 M0 0 C16.38 0, 32.77 0, 43.01 0 M43.01 0 C43.01 19.59, 43.01 39.19, 43.01 77.37 M43.01 0 C43.01 25.34, 43.01 50.69, 43.01 77.37 M43.01 77.37 C33.09 77.37, 23.17 77.37, 0 77.37 M43.01 77.37 C32.09 77.37, 21.18 77.37, 0 77.37 M0 77.37 C0 51.39, 0 25.41, 0 0 M0 77.37 C0 58.07, 0 38.77, 0 0" stroke="#504945" stroke-width="1" fill="none"></path></g><g stroke-linecap="round" transform="translate(609.4965834518928 431.1560653169722) rotate(0 21.503893993766553 38.68742713704793)"><path d="M0 0 C11.5 0, 23 0, 43.01 0 M0 0 C13.27 0, 26.55 0, 43.01 0 M43.01 0 C43.01 19.7, 43.01 39.41, 43.01 77.37 M43.01 0 C43.01 29.52, 43.01 59.03, 43.01 77.37 M43.01 77.37 C28.45 77.37, 13.89 77.37, 0 77.37 M43.01 77.37 C28.83 77.37, 14.65 77.37, 0 77.37 M0 77.37 C0 49.84, 0 22.31, 0 0 M0 77.37 C0 59.06, 0 40.75, 0 0" stroke="#504945" stroke-width="1" fill="none"></path></g><g stroke-linecap="round" transform="translate(652.5043723071644 431.1560652632785) rotate(0 21.503893993766553 38.68742713704793)"><path d="M0 0 C11.89 0, 23.77 0, 43.01 0 M0 0 C10.11 0, 20.21 0, 43.01 0 M43.01 0 C43.01 20.25, 43.01 40.51, 43.01 77.37 M43.01 0 C43.01 19.33, 43.01 38.65, 43.01 77.37 M43.01 77.37 C34.02 77.37, 25.03 77.37, 0 77.37 M43.01 77.37 C26.71 77.37, 10.41 77.37, 0 77.37 M0 77.37 C0 60.93, 0 44.48, 0 0 M0 77.37 C0 53.93, 0 30.48, 0 0" stroke="#504945" stroke-width="1" fill="none"></path></g><g stroke-linecap="round" transform="translate(695.5121599789295 431.156065267856) rotate(0 21.503893993766553 38.68742713704793)"><path d="M0 0 C9.53 0, 19.05 0, 43.01 0 M0 0 C14.74 0, 29.47 0, 43.01 0 M43.01 0 C43.01 16.68, 43.01 33.36, 43.01 77.37 M43.01 0 C43.01 18.02, 43.01 36.03, 43.01 77.37 M43.01 77.37 C32.35 77.37, 21.69 77.37, 0 77.37 M43.01 77.37 C33.14 77.37, 23.27 77.37, 0 77.37 M0 77.37 C0 60.55, 0 43.72, 0 0 M0 77.37 C0 53.17, 0 28.96, 0 0" stroke="#504945" stroke-width="1" fill="none"></path></g><g stroke-linecap="round" transform="translate(10 106.64825590905457) rotate(0 384.45757317985556 228.68632364922797)"><path d="M0 0 C277.92 0, 555.85 0, 768.92 0 M0 0 C299.55 0, 599.11 0, 768.92 0 M768.92 0 C768.92 168.41, 768.92 336.82, 768.92 457.37 M768.92 0 C768.92 107.52, 768.92 215.05, 768.92 457.37 M768.92 457.37 C503.94 457.37, 238.97 457.37, 0 457.37 M768.92 457.37 C473.14 457.37, 177.36 457.37, 0 457.37 M0 457.37 C0 329.93, 0 202.48, 0 0 M0 457.37 C0 326.53, 0 195.68, 0 0" stroke="transparent" stroke-width="1" fill="none"></path></g><g transform="translate(361.281486961776 10) rotate(0 0.00004999999998744897 0.00004999999998744897)" stroke="none"><path fill="transparent" d="M 1.57,-1.57 Q 1.57,-1.57 1.77,-1.27 1.98,-0.98 2.09,-0.64 2.20,-0.29 2.19,0.05 2.18,0.41 2.05,0.75 1.93,1.09 1.70,1.37 1.48,1.65 1.18,1.84 0.87,2.04 0.52,2.12 0.18,2.21 -0.17,2.18 -0.53,2.15 -0.86,2.01 -1.19,1.87 -1.46,1.63 -1.73,1.39 -1.90,1.07 -2.08,0.76 -2.15,0.41 -2.21,0.05 -2.17,-0.29 -2.12,-0.65 -1.96,-0.97 -1.80,-1.29 -1.54,-1.54 -1.29,-1.80 -0.97,-1.96 -0.65,-2.12 -0.29,-2.17 0.06,-2.21 0.41,-2.15 0.76,-2.08 1.07,-1.90 1.39,-1.73 1.63,-1.46 1.87,-1.19 2.01,-0.86 2.15,-0.53 2.18,-0.17 2.21,0.18 2.12,0.52 2.03,0.87 1.84,1.18 1.65,1.48 1.37,1.70 1.09,1.93 0.75,2.05 0.41,2.18 0.05,2.19 -0.30,2.20 -0.64,2.09 -0.98,1.98 -1.27,1.77 -1.57,1.56 -1.57,1.57 -1.57,1.57 -1.73,1.35 -1.90,1.14 -2.01,0.90 -2.12,0.66 -2.16,0.39 -2.21,0.13 -2.20,-0.13 -2.18,-0.40 -2.10,-0.65 -2.02,-0.91 -1.88,-1.14 -1.74,-1.36 -1.55,-1.55 -1.36,-1.74 -1.14,-1.88 -0.91,-2.02 -0.65,-2.10 -0.40,-2.18 -0.13,-2.20 0.13,-2.21 0.39,-2.16 0.66,-2.12 0.90,-2.01 1.14,-1.90 1.35,-1.73 1.57,-1.57 1.57,-1.57 L 1.57,-1.57 Z"></path></g><g transform="translate(360.4757287478796 67.2088331866446) rotate(0 34.24472409059706 8.460461245912256)" stroke="none"><path fill="transparent" d="M 0.81,-1.62 Q 0.81,-1.62 2.64,-0.65 4.47,0.32 7.97,1.90 11.48,3.48 15.24,4.85 19.01,6.22 24.76,7.97 30.52,9.72 37.98,10.92 45.44,12.12 51.44,13.11 57.43,14.10 60.42,14.52 63.42,14.95 66.04,15.13 68.67,15.31 68.92,15.38 69.18,15.45 69.39,15.60 69.61,15.75 69.76,15.96 69.92,16.17 70.00,16.42 70.09,16.67 70.08,16.93 70.08,17.19 70.00,17.44 69.91,17.69 69.75,17.89 69.59,18.10 69.37,18.25 69.15,18.39 68.90,18.46 68.65,18.53 68.39,18.51 68.12,18.50 67.88,18.40 67.64,18.30 67.44,18.13 67.24,17.96 67.11,17.73 66.97,17.50 66.92,17.25 66.87,16.99 66.90,16.73 66.93,16.47 67.04,16.23 67.15,16.00 67.33,15.81 67.51,15.62 67.75,15.50 67.98,15.38 68.24,15.34 68.50,15.30 68.76,15.34 69.01,15.38 69.24,15.51 69.47,15.63 69.65,15.83 69.83,16.02 69.94,16.26 70.05,16.49 70.08,16.76 70.10,17.02 70.04,17.27 69.98,17.53 69.85,17.75 69.71,17.97 69.51,18.14 69.31,18.31 69.06,18.41 68.82,18.50 68.56,18.51 68.30,18.53 68.30,18.53 68.30,18.53 65.67,18.09 63.04,17.66 60.01,17.26 56.98,16.85 50.99,15.89 45.00,14.94 37.34,13.74 29.68,12.53 23.84,10.82 17.99,9.10 14.10,7.76 10.20,6.42 6.57,4.90 2.94,3.38 1.06,2.50 -0.81,1.62 -0.99,1.50 -1.17,1.38 -1.32,1.22 -1.47,1.06 -1.58,0.87 -1.68,0.67 -1.74,0.46 -1.80,0.25 -1.80,0.03 -1.80,-0.18 -1.76,-0.39 -1.71,-0.61 -1.61,-0.80 -1.51,-1.00 -1.37,-1.17 -1.23,-1.33 -1.05,-1.46 -0.87,-1.59 -0.67,-1.67 -0.46,-1.75 -0.25,-1.78 -0.03,-1.81 0.18,-1.79 0.40,-1.77 0.60,-1.70 0.81,-1.62 0.81,-1.62 L 0.81,-1.62 Z"></path></g></svg>