<svg version="1.1" xmlns="http://www.w3.org/2000/svg" viewBox="0 0 1170.000000587063 539.9999993179481" width="1170.000000587063" height="539.9999993179481">
  <!-- svg-source:excalidraw -->
  
  <defs>
    <style class="style-fonts">
      @font-face {
        font-family: "Virgil";
        src: url("https://excalidraw.com/Virgil.woff2");
      }
      @font-face {
        font-family: "Cascadia";
        src: url("https://excalidraw.com/Cascadia.woff2");
      }
      @font-face {
        font-family: "Assistant";
        src: url("https://excalidraw.com/Assistant-Regular.woff2");
      }
    </style>
    
  </defs>
  <g stroke-linecap="round" transform="translate(10.00000048861557 412.4999993179481) rotate(0 575 58.75)"><path d="M0 0 C358.71 -1.51, 717.78 -0.8, 1150 0 M0 0 C396.18 -2.01, 792.28 -1.96, 1150 0 M1150 0 C1148.97 26.86, 1148.94 49.47, 1150 117.5 M1150 0 C1150.57 32.11, 1151.86 66.06, 1150 117.5 M1150 117.5 C723.69 115.04, 295.82 115.33, 0 117.5 M1150 117.5 C807.06 114.49, 464.35 114.59, 0 117.5 M0 117.5 C1.55 74.71, -0.9 37.09, 0 0 M0 117.5 C-0.49 92.74, -1.22 67.87, 0 0" stroke="transparent" stroke-width="2" fill="none"></path></g><g transform="translate(511.1500020144945 449.64999931794773) rotate(0 73.8499984741211 21.59999999999991)"><text x="73.8499984741211" y="0" font-family="Cascadia, Segoe UI Emoji" font-size="36px" fill="transparent" text-anchor="middle" style="white-space: pre;" direction="ltr" dominant-baseline="text-before-edge">Host OS</text></g><g stroke-linecap="round" transform="translate(10.00000048861557 258.7499993179481) rotate(0 575 58.75)"><path d="M0 0 C289.81 -2.46, 579.22 -1.82, 1150 0 M0 0 C284.7 1.82, 570.21 1.48, 1150 0 M1150 0 C1148.81 44.83, 1147.25 85.66, 1150 117.5 M1150 0 C1151.78 28.97, 1150.56 56.82, 1150 117.5 M1150 117.5 C822.27 118.89, 494.1 118.39, 0 117.5 M1150 117.5 C880.33 115.57, 609.93 115.92, 0 117.5 M0 117.5 C-1.12 92.36, 0.19 65.91, 0 0 M0 117.5 C1.03 84.03, 1.38 49.32, 0 0" stroke="#71b1ff" stroke-width="2" fill="none"></path></g><g transform="translate(426.75000048861557 295.89999931794773) rotate(0 158.25 21.59999999999991)"><text x="158.25" y="0" font-family="Cascadia, Segoe UI Emoji" font-size="36px" fill="#71b1ff" text-anchor="middle" style="white-space: pre;" direction="ltr" dominant-baseline="text-before-edge">Virtual Machine</text></g><g stroke-linecap="round" transform="translate(10 10) rotate(0 575 58.75)"><path d="M0 0 C263.49 -0.43, 527.51 -1.1, 1150 0 M0 0 C368.49 2.65, 736.13 2.83, 1150 0 M1150 0 C1147.6 46.56, 1150.03 90.91, 1150 117.5 M1150 0 C1149.25 46.79, 1149.62 93.92, 1150 117.5 M1150 117.5 C745.22 117.28, 341.17 117.4, 0 117.5 M1150 117.5 C830.23 120.22, 511.5 120.1, 0 117.5 M0 117.5 C0.02 77.99, -0.48 42.18, 0 0 M0 117.5 C-0.51 79.53, -0.69 42.08, 0 0" stroke="#f08c00" stroke-width="2" fill="none"></path></g><g transform="translate(437.3000030517578 47.149999999999636) rotate(0 147.6999969482422 21.59999999999991)"><text x="147.6999969482422" y="0" font-family="Cascadia, Segoe UI Emoji" font-size="36px" fill="#f08c00" text-anchor="middle" style="white-space: pre;" direction="ltr" dominant-baseline="text-before-edge">Smart Contract</text></g><g stroke-linecap="round" transform="translate(10.000000530818397 163.74999951483915) rotate(0 71.87499998388785 29.37499981849396)"><path d="M0 0 C43.23 0, 86.45 0, 143.75 0 M0 0 C33.8 0, 67.61 0, 143.75 0 M143.75 0 C143.75 22.98, 143.75 45.95, 143.75 58.75 M143.75 0 C143.75 16.6, 143.75 33.21, 143.75 58.75 M143.75 58.75 C95.51 58.75, 47.27 58.75, 0 58.75 M143.75 58.75 C108.99 58.75, 74.24 58.75, 0 58.75 M0 58.75 C0 46.97, 0 35.19, 0 0 M0 58.75 C0 42.79, 0 26.84, 0 0" stroke="#e03131" stroke-width="2" fill="none"></path></g><g stroke-linecap="round" transform="translate(153.75000061928722 163.74999951483824) rotate(0 71.87499998388785 29.37499981849396)"><path d="M0 0 C31.21 0, 62.42 0, 143.75 0 M0 0 C40.04 0, 80.09 0, 143.75 0 M143.75 0 C143.75 21.82, 143.75 43.63, 143.75 58.75 M143.75 0 C143.75 17.52, 143.75 35.03, 143.75 58.75 M143.75 58.75 C93.43 58.75, 43.11 58.75, 0 58.75 M143.75 58.75 C113.63 58.75, 83.5 58.75, 0 58.75 M0 58.75 C0 41.96, 0 25.17, 0 0 M0 58.75 C0 41.35, 0 23.95, 0 0" stroke="#e03131" stroke-width="2" fill="none"></path></g><g stroke-linecap="round" transform="translate(297.5000006192872 163.74999951483824) rotate(0 71.87499998388785 29.37499981849396)"><path d="M0 0 C48.33 0, 96.66 0, 143.75 0 M0 0 C28.87 0, 57.74 0, 143.75 0 M143.75 0 C143.75 14.64, 143.75 29.28, 143.75 58.75 M143.75 0 C143.75 14.11, 143.75 28.22, 143.75 58.75 M143.75 58.75 C112.5 58.75, 81.25 58.75, 0 58.75 M143.75 58.75 C104.17 58.75, 64.58 58.75, 0 58.75 M0 58.75 C0 39.9, 0 21.05, 0 0 M0 58.75 C0 39.18, 0 19.61, 0 0" stroke="#e03131" stroke-width="2" fill="none"></path></g><g stroke-linecap="round" transform="translate(441.2500006192872 163.74999951483824) rotate(0 71.87499998388785 29.37499981849396)"><path d="M0 0 C52.87 0, 105.73 0, 143.75 0 M0 0 C34.22 0, 68.43 0, 143.75 0 M143.75 0 C143.75 16.74, 143.75 33.48, 143.75 58.75 M143.75 0 C143.75 13.79, 143.75 27.57, 143.75 58.75 M143.75 58.75 C112.52 58.75, 81.29 58.75, 0 58.75 M143.75 58.75 C102.55 58.75, 61.34 58.75, 0 58.75 M0 58.75 C0 42.69, 0 26.64, 0 0 M0 58.75 C0 36.28, 0 13.82, 0 0" stroke="#e03131" stroke-width="2" fill="none"></path></g><g stroke-linecap="round" transform="translate(585.0000006192868 163.74999951483824) rotate(0 71.87499998388785 29.37499981849396)"><path d="M0 0 C31.98 0, 63.96 0, 143.75 0 M0 0 C51.7 0, 103.39 0, 143.75 0 M143.75 0 C143.75 18.87, 143.75 37.75, 143.75 58.75 M143.75 0 C143.75 15.27, 143.75 30.55, 143.75 58.75 M143.75 58.75 C87.29 58.75, 30.83 58.75, 0 58.75 M143.75 58.75 C106.14 58.75, 68.54 58.75, 0 58.75 M0 58.75 C0 43.73, 0 28.71, 0 0 M0 58.75 C0 39.15, 0 19.55, 0 0" stroke="#e03131" stroke-width="2" fill="none"></path></g><g stroke-linecap="round" transform="translate(728.7500006192868 163.74999951483824) rotate(0 71.87499998388785 29.37499981849396)"><path d="M0 0 C54.74 0, 109.48 0, 143.75 0 M0 0 C57.46 0, 114.92 0, 143.75 0 M143.75 0 C143.75 20.65, 143.75 41.3, 143.75 58.75 M143.75 0 C143.75 16.32, 143.75 32.64, 143.75 58.75 M143.75 58.75 C97.85 58.75, 51.95 58.75, 0 58.75 M143.75 58.75 C97.64 58.75, 51.53 58.75, 0 58.75 M0 58.75 C0 41.48, 0 24.21, 0 0 M0 58.75 C0 41.28, 0 23.82, 0 0" stroke="#e03131" stroke-width="2" fill="none"></path></g><g stroke-linecap="round" transform="translate(872.5000006192868 163.74999951483824) rotate(0 71.87499998388785 29.37499981849396)"><path d="M0 0 C37.61 0, 75.21 0, 143.75 0 M0 0 C55.82 0, 111.65 0, 143.75 0 M143.75 0 C143.75 16.98, 143.75 33.97, 143.75 58.75 M143.75 0 C143.75 21.4, 143.75 42.8, 143.75 58.75 M143.75 58.75 C104.48 58.75, 65.2 58.75, 0 58.75 M143.75 58.75 C112.42 58.75, 81.1 58.75, 0 58.75 M0 58.75 C0 41.34, 0 23.93, 0 0 M0 58.75 C0 39.01, 0 19.27, 0 0" stroke="#e03131" stroke-width="2" fill="none"></path></g><g stroke-linecap="round" transform="translate(1016.2500006192872 163.74999951483824) rotate(0 71.87499998388785 29.37499981849396)"><path d="M0 0 C56.22 0, 112.44 0, 143.75 0 M0 0 C40.63 0, 81.26 0, 143.75 0 M143.75 0 C143.75 19.72, 143.75 39.43, 143.75 58.75 M143.75 0 C143.75 14.2, 143.75 28.41, 143.75 58.75 M143.75 58.75 C114.92 58.75, 86.1 58.75, 0 58.75 M143.75 58.75 C104.71 58.75, 65.67 58.75, 0 58.75 M0 58.75 C0 45.71, 0 32.68, 0 0 M0 58.75 C0 35.5, 0 12.25, 0 0" stroke="#e03131" stroke-width="2" fill="none"></path></g></svg>