<svg version="1.1" xmlns="http://www.w3.org/2000/svg" viewBox="0 0 1170.000000587063 539.9999993179481" width="1170.000000587063" height="539.9999993179481">
  <!-- svg-source:excalidraw -->
  
  <defs>
    <style class="style-fonts">
      @font-face {
        font-family: "Virgil";
        src: url("https://excalidraw.com/Virgil.woff2");
      }
      @font-face {
        font-family: "Cascadia";
        src: url("https://excalidraw.com/Cascadia.woff2");
      }
      @font-face {
        font-family: "Assistant";
        src: url("https://excalidraw.com/Assistant-Regular.woff2");
      }
    </style>
    
  </defs>
  <g stroke-linecap="round" transform="translate(10.00000048861557 412.4999993179481) rotate(0 575 58.75)"><path d="M0 0 C358.71 -1.51, 717.78 -0.8, 1150 0 M0 0 C396.18 -2.01, 792.28 -1.96, 1150 0 M1150 0 C1148.97 26.86, 1148.94 49.47, 1150 117.5 M1150 0 C1150.57 32.11, 1151.86 66.06, 1150 117.5 M1150 117.5 C723.69 115.04, 295.82 115.33, 0 117.5 M1150 117.5 C807.06 114.49, 464.35 114.59, 0 117.5 M0 117.5 C1.55 74.71, -0.9 37.09, 0 0 M0 117.5 C-0.49 92.74, -1.22 67.87, 0 0" stroke="transparent" stroke-width="2" fill="none"></path></g><g transform="translate(511.1500020144945 449.64999931794773) rotate(0 73.8499984741211 21.59999999999991)"><text x="73.8499984741211" y="0" font-family="Cascadia, Segoe UI Emoji" font-size="36px" fill="transparent" text-anchor="middle" style="white-space: pre;" direction="ltr" dominant-baseline="text-before-edge">Host OS</text></g><g stroke-linecap="round" transform="translate(10.00000048861557 258.7499993179481) rotate(0 575 58.75)"><path d="M0 0 C289.81 -2.46, 579.22 -1.82, 1150 0 M0 0 C284.7 1.82, 570.21 1.48, 1150 0 M1150 0 C1148.81 44.83, 1147.25 85.66, 1150 117.5 M1150 0 C1151.78 28.97, 1150.56 56.82, 1150 117.5 M1150 117.5 C822.27 118.89, 494.1 118.39, 0 117.5 M1150 117.5 C880.33 115.57, 609.93 115.92, 0 117.5 M0 117.5 C-1.12 92.36, 0.19 65.91, 0 0 M0 117.5 C1.03 84.03, 1.38 49.32, 0 0" stroke="#71b1ff" stroke-width="2" fill="none"></path></g><g transform="translate(426.75000048861557 295.89999931794773) rotate(0 158.25 21.59999999999991)"><text x="158.25" y="0" font-family="Cascadia, Segoe UI Emoji" font-size="36px" fill="#71b1ff" text-anchor="middle" style="white-space: pre;" direction="ltr" dominant-baseline="text-before-edge">Virtual Machine</text></g><g stroke-linecap="round" transform="translate(10 10) rotate(0 575 58.75)"><path d="M0 0 C263.49 -0.43, 527.51 -1.1, 1150 0 M0 0 C368.49 2.65, 736.13 2.83, 1150 0 M1150 0 C1147.6 46.56, 1150.03 90.91, 1150 117.5 M1150 0 C1149.25 46.79, 1149.62 93.92, 1150 117.5 M1150 117.5 C745.22 117.28, 341.17 117.4, 0 117.5 M1150 117.5 C830.23 120.22, 511.5 120.1, 0 117.5 M0 117.5 C0.02 77.99, -0.48 42.18, 0 0 M0 117.5 C-0.51 79.53, -0.69 42.08, 0 0" stroke="#f08c00" stroke-width="2" fill="none"></path></g><g transform="translate(437.3000030517578 47.149999999999636) rotate(0 147.6999969482422 21.59999999999991)"><text x="147.6999969482422" y="0" font-family="Cascadia, Segoe UI Emoji" font-size="36px" fill="#f08c00" text-anchor="middle" style="white-space: pre;" direction="ltr" dominant-baseline="text-before-edge">Smart Contract</text></g><g stroke-linecap="round" transform="translate(10.000000530818397 163.74999951483915) rotate(0 71.87499998388785 29.37499981849396)"><path d="M0 0 C43.23 0, 86.45 0, 143.75 0 M0 0 C33.8 0, 67.61 0, 143.75 0 M143.75 0 C143.75 22.98, 143.75 45.95, 143.75 58.75 M143.75 0 C143.75 16.6, 143.75 33.21, 143.75 58.75 M143.75 58.75 C95.51 58.75, 47.27 58.75, 0 58.75 M143.75 58.75 C108.99 58.75, 74.24 58.75, 0 58.75 M0 58.75 C0 46.97, 0 35.19, 0 0 M0 58.75 C0 42.79, 0 26.84, 0 0" stroke="#e03131" stroke-width="2" fill="none"></path></g><g stroke-linecap="round" transform="translate(153.75000061928722 163.74999951483824) rotate(0 71.87499998388785 29.37499981849396)"><path d="M0 0 C0 0, 0 0, 0 0 M0 0 C0 0, 0 0, 0 0 M0.13 12.04 C2.57 9.24, 5 6.44, 10.63 -0.03 M0.13 12.04 C2.51 9.3, 4.89 6.56, 10.63 -0.03 M0.27 24.08 C7.09 16.24, 13.9 8.39, 21.26 -0.07 M0.27 24.08 C6.4 17.03, 12.53 9.97, 21.26 -0.07 M-0.26 36.88 C9.45 25.71, 19.16 14.55, 31.89 -0.1 M-0.26 36.88 C6.59 29, 13.43 21.13, 31.89 -0.1 M-0.12 48.92 C8.44 39.07, 17 29.23, 42.52 -0.14 M-0.12 48.92 C10.09 37.17, 20.3 25.43, 42.52 -0.14 M1.98 58.69 C17.5 40.84, 33.02 22.99, 53.15 -0.17 M1.98 58.69 C12.81 46.23, 23.65 33.77, 53.15 -0.17 M11.95 59.42 C28.42 40.47, 44.89 21.53, 63.78 -0.21 M11.95 59.42 C26.38 42.82, 40.8 26.23, 63.78 -0.21 M22.58 59.38 C41.21 37.96, 59.83 16.53, 74.41 -0.24 M22.58 59.38 C33.71 46.58, 44.84 33.77, 74.41 -0.24 M33.21 59.35 C50.42 39.56, 67.62 19.77, 85.04 -0.28 M33.21 59.35 C50.97 38.92, 68.72 18.5, 85.04 -0.28 M43.84 59.31 C59.86 40.89, 75.87 22.46, 95.67 -0.31 M43.84 59.31 C56.69 44.53, 69.54 29.75, 95.67 -0.31 M54.47 59.28 C70.8 40.49, 87.13 21.71, 106.3 -0.34 M54.47 59.28 C70.04 41.37, 85.6 23.46, 106.3 -0.34 M65.1 59.24 C80.8 41.18, 96.51 23.12, 116.27 0.38 M65.1 59.24 C84.11 37.37, 103.13 15.5, 116.27 0.38 M75.73 59.21 C93.87 38.34, 112.01 17.47, 126.91 0.34 M75.73 59.21 C93.85 38.36, 111.97 17.52, 126.91 0.34 M86.36 59.17 C97.77 46.05, 109.19 32.92, 137.54 0.31 M86.36 59.17 C100.71 42.67, 115.05 26.17, 137.54 0.31 M96.99 59.14 C113.68 39.95, 130.36 20.75, 144.23 4.8 M96.99 59.14 C108.36 46.06, 119.73 32.98, 144.23 4.8 M107.62 59.1 C116.56 48.82, 125.5 38.54, 144.36 16.84 M107.62 59.1 C118.76 46.29, 129.9 33.48, 144.36 16.84 M118.25 59.07 C124.13 52.31, 130.01 45.54, 143.84 29.64 M118.25 59.07 C124.17 52.26, 130.1 45.45, 143.84 29.64 M128.88 59.04 C132.94 54.36, 137 49.69, 143.97 41.68 M128.88 59.04 C131.96 55.5, 135.03 51.96, 143.97 41.68 M139.51 59 C140.98 57.32, 142.44 55.64, 144.11 53.72 M139.51 59 C141.04 57.25, 142.56 55.49, 144.11 53.72" stroke="#16db93" stroke-width="1" fill="none"></path><path d="M0 0 C31.21 0, 62.42 0, 143.75 0 M0 0 C40.04 0, 80.09 0, 143.75 0 M143.75 0 C143.75 21.82, 143.75 43.63, 143.75 58.75 M143.75 0 C143.75 17.52, 143.75 35.03, 143.75 58.75 M143.75 58.75 C93.43 58.75, 43.11 58.75, 0 58.75 M143.75 58.75 C113.63 58.75, 83.5 58.75, 0 58.75 M0 58.75 C0 41.96, 0 25.17, 0 0 M0 58.75 C0 41.35, 0 23.95, 0 0" stroke="#e03131" stroke-width="2" fill="none"></path></g><g stroke-linecap="round" transform="translate(297.5000006192872 163.74999951483824) rotate(0 71.87499998388785 29.37499981849396)"><path d="M0 0 C48.33 0, 96.66 0, 143.75 0 M0 0 C28.87 0, 57.74 0, 143.75 0 M143.75 0 C143.75 14.64, 143.75 29.28, 143.75 58.75 M143.75 0 C143.75 14.11, 143.75 28.22, 143.75 58.75 M143.75 58.75 C112.5 58.75, 81.25 58.75, 0 58.75 M143.75 58.75 C104.17 58.75, 64.58 58.75, 0 58.75 M0 58.75 C0 39.9, 0 21.05, 0 0 M0 58.75 C0 39.18, 0 19.61, 0 0" stroke="#e03131" stroke-width="2" fill="none"></path></g><g stroke-linecap="round" transform="translate(441.2500006192872 163.74999951483824) rotate(0 71.87499998388785 29.37499981849396)"><path d="M0 0 C0 0, 0 0, 0 0 M0 0 C0 0, 0 0, 0 0 M0.13 12.04 C3.83 7.79, 7.53 3.53, 10.63 -0.03 M0.13 12.04 C2.97 8.78, 5.8 5.52, 10.63 -0.03 M0.27 24.08 C6.52 16.89, 12.77 9.7, 21.26 -0.07 M0.27 24.08 C4.59 19.11, 8.92 14.13, 21.26 -0.07 M-0.26 36.88 C11.76 23.05, 23.78 9.23, 31.89 -0.1 M-0.26 36.88 C9.75 25.37, 19.75 13.86, 31.89 -0.1 M-0.12 48.92 C11.89 35.1, 23.9 21.28, 42.52 -0.14 M-0.12 48.92 C10.69 36.48, 21.51 24.04, 42.52 -0.14 M1.98 58.69 C17.56 40.77, 33.15 22.84, 53.15 -0.17 M1.98 58.69 C20.06 37.89, 38.15 17.08, 53.15 -0.17 M11.95 59.42 C26.94 42.17, 41.93 24.93, 63.78 -0.21 M11.95 59.42 C27.59 41.43, 43.22 23.44, 63.78 -0.21 M22.58 59.38 C34.36 45.83, 46.13 32.29, 74.41 -0.24 M22.58 59.38 C37.05 42.74, 51.51 26.1, 74.41 -0.24 M33.21 59.35 C45.44 45.28, 57.67 31.21, 85.04 -0.28 M33.21 59.35 C47.45 42.97, 61.68 26.6, 85.04 -0.28 M43.84 59.31 C61.47 39.03, 79.1 18.76, 95.67 -0.31 M43.84 59.31 C54.45 47.11, 65.05 34.91, 95.67 -0.31 M54.47 59.28 C67.58 44.2, 80.69 29.12, 106.3 -0.34 M54.47 59.28 C66.45 45.49, 78.44 31.71, 106.3 -0.34 M65.1 59.24 C83.38 38.22, 101.66 17.19, 116.27 0.38 M65.1 59.24 C79.48 42.7, 93.87 26.15, 116.27 0.38 M75.73 59.21 C90.41 42.32, 105.09 25.44, 126.91 0.34 M75.73 59.21 C94.38 37.76, 113.03 16.3, 126.91 0.34 M86.36 59.17 C102.12 41.04, 117.88 22.92, 137.54 0.31 M86.36 59.17 C101.39 41.89, 116.41 24.6, 137.54 0.31 M96.99 59.14 C111.17 42.83, 125.35 26.52, 144.23 4.8 M96.99 59.14 C106.53 48.17, 116.06 37.2, 144.23 4.8 M107.62 59.1 C120.03 44.84, 132.43 30.57, 144.36 16.84 M107.62 59.1 C117.25 48.03, 126.88 36.96, 144.36 16.84 M118.25 59.07 C125.18 51.1, 132.11 43.13, 143.84 29.64 M118.25 59.07 C123.51 53.03, 128.76 46.98, 143.84 29.64 M128.88 59.04 C133.51 53.71, 138.15 48.38, 143.97 41.68 M128.88 59.04 C132.51 54.86, 136.13 50.69, 143.97 41.68 M139.51 59 C141.31 56.93, 143.12 54.86, 144.11 53.72 M139.51 59 C141.22 57.04, 142.92 55.08, 144.11 53.72" stroke="#16db93" stroke-width="1" fill="none"></path><path d="M0 0 C52.87 0, 105.73 0, 143.75 0 M0 0 C34.22 0, 68.43 0, 143.75 0 M143.75 0 C143.75 16.74, 143.75 33.48, 143.75 58.75 M143.75 0 C143.75 13.79, 143.75 27.57, 143.75 58.75 M143.75 58.75 C112.52 58.75, 81.29 58.75, 0 58.75 M143.75 58.75 C102.55 58.75, 61.34 58.75, 0 58.75 M0 58.75 C0 42.69, 0 26.64, 0 0 M0 58.75 C0 36.28, 0 13.82, 0 0" stroke="#e03131" stroke-width="2" fill="none"></path></g><g stroke-linecap="round" transform="translate(585.0000006192868 163.74999951483824) rotate(0 71.87499998388785 29.37499981849396)"><path d="M0 0 C31.98 0, 63.96 0, 143.75 0 M0 0 C51.7 0, 103.39 0, 143.75 0 M143.75 0 C143.75 18.87, 143.75 37.75, 143.75 58.75 M143.75 0 C143.75 15.27, 143.75 30.55, 143.75 58.75 M143.75 58.75 C87.29 58.75, 30.83 58.75, 0 58.75 M143.75 58.75 C106.14 58.75, 68.54 58.75, 0 58.75 M0 58.75 C0 43.73, 0 28.71, 0 0 M0 58.75 C0 39.15, 0 19.55, 0 0" stroke="#e03131" stroke-width="2" fill="none"></path></g><g stroke-linecap="round" transform="translate(728.7500006192868 163.74999951483824) rotate(0 71.87499998388785 29.37499981849396)"><path d="M0 0 C0 0, 0 0, 0 0 M0 0 C0 0, 0 0, 0 0 M0.13 12.04 C3.83 7.79, 7.52 3.54, 10.63 -0.03 M0.13 12.04 C2.74 9.04, 5.35 6.04, 10.63 -0.03 M0.27 24.08 C5.46 18.1, 10.66 12.13, 21.26 -0.07 M0.27 24.08 C5.3 18.29, 10.33 12.51, 21.26 -0.07 M-0.26 36.88 C10.56 24.43, 21.38 11.99, 31.89 -0.1 M-0.26 36.88 C7.3 28.18, 14.87 19.48, 31.89 -0.1 M-0.12 48.92 C13.04 33.77, 26.21 18.63, 42.52 -0.14 M-0.12 48.92 C16.75 29.51, 33.62 10.1, 42.52 -0.14 M1.98 58.69 C21.1 36.69, 40.23 14.69, 53.15 -0.17 M1.98 58.69 C22.25 35.38, 42.52 12.06, 53.15 -0.17 M11.95 59.42 C24.49 44.99, 37.02 30.57, 63.78 -0.21 M11.95 59.42 C29.85 38.83, 47.74 18.25, 63.78 -0.21 M22.58 59.38 C38.43 41.15, 54.28 22.91, 74.41 -0.24 M22.58 59.38 C38.33 41.26, 54.08 23.15, 74.41 -0.24 M33.21 59.35 C44.7 46.13, 56.19 32.91, 85.04 -0.28 M33.21 59.35 C43.76 47.21, 54.31 35.07, 85.04 -0.28 M43.84 59.31 C58.89 42, 73.95 24.68, 95.67 -0.31 M43.84 59.31 C62.8 37.51, 81.75 15.7, 95.67 -0.31 M54.47 59.28 C66.85 45.04, 79.22 30.81, 106.3 -0.34 M54.47 59.28 C65.87 46.16, 77.27 33.05, 106.3 -0.34 M65.1 59.24 C75.38 47.42, 85.65 35.6, 116.27 0.38 M65.1 59.24 C76.52 46.1, 87.95 32.96, 116.27 0.38 M75.73 59.21 C91.04 41.6, 106.34 23.99, 126.91 0.34 M75.73 59.21 C95.08 36.95, 114.43 14.69, 126.91 0.34 M86.36 59.17 C97.92 45.88, 109.48 32.58, 137.54 0.31 M86.36 59.17 C104.39 38.44, 122.41 17.7, 137.54 0.31 M96.99 59.14 C107.6 46.94, 118.2 34.74, 144.23 4.8 M96.99 59.14 C115.71 37.61, 134.43 16.08, 144.23 4.8 M107.62 59.1 C117.55 47.68, 127.48 36.26, 144.36 16.84 M107.62 59.1 C117.29 47.98, 126.96 36.86, 144.36 16.84 M118.25 59.07 C124.71 51.65, 131.16 44.22, 143.84 29.64 M118.25 59.07 C126.61 49.45, 134.97 39.84, 143.84 29.64 M128.88 59.04 C134.22 52.89, 139.57 46.74, 143.97 41.68 M128.88 59.04 C133.42 53.82, 137.95 48.6, 143.97 41.68 M139.51 59 C140.59 57.76, 141.67 56.51, 144.11 53.72 M139.51 59 C141.15 57.12, 142.79 55.23, 144.11 53.72" stroke="#16db93" stroke-width="1" fill="none"></path><path d="M0 0 C54.74 0, 109.48 0, 143.75 0 M0 0 C57.46 0, 114.92 0, 143.75 0 M143.75 0 C143.75 20.65, 143.75 41.3, 143.75 58.75 M143.75 0 C143.75 16.32, 143.75 32.64, 143.75 58.75 M143.75 58.75 C97.85 58.75, 51.95 58.75, 0 58.75 M143.75 58.75 C97.64 58.75, 51.53 58.75, 0 58.75 M0 58.75 C0 41.48, 0 24.21, 0 0 M0 58.75 C0 41.28, 0 23.82, 0 0" stroke="#e03131" stroke-width="2" fill="none"></path></g><g stroke-linecap="round" transform="translate(872.5000006192868 163.74999951483824) rotate(0 71.87499998388785 29.37499981849396)"><path d="M0 0 C0 0, 0 0, 0 0 M0 0 C0 0, 0 0, 0 0 M0.13 12.04 C3.08 8.65, 6.04 5.25, 10.63 -0.03 M0.13 12.04 C3.2 8.52, 6.26 5, 10.63 -0.03 M0.27 24.08 C5.38 18.2, 10.5 12.31, 21.26 -0.07 M0.27 24.08 C5.28 18.32, 10.29 12.55, 21.26 -0.07 M-0.26 36.88 C6.47 29.14, 13.19 21.41, 31.89 -0.1 M-0.26 36.88 C9.58 25.56, 19.41 14.25, 31.89 -0.1 M-0.12 48.92 C16.23 30.1, 32.58 11.29, 42.52 -0.14 M-0.12 48.92 C13.89 32.8, 27.89 16.69, 42.52 -0.14 M1.98 58.69 C15.34 43.32, 28.71 27.94, 53.15 -0.17 M1.98 58.69 C21.8 35.9, 41.62 13.1, 53.15 -0.17 M11.95 59.42 C22.65 47.11, 33.35 34.8, 63.78 -0.21 M11.95 59.42 C28.94 39.87, 45.93 20.33, 63.78 -0.21 M22.58 59.38 C34.72 45.42, 46.86 31.46, 74.41 -0.24 M22.58 59.38 C37.04 42.75, 51.5 26.11, 74.41 -0.24 M33.21 59.35 C53.52 35.98, 73.84 12.61, 85.04 -0.28 M33.21 59.35 C52.48 37.18, 71.76 15, 85.04 -0.28 M43.84 59.31 C61.48 39.02, 79.13 18.72, 95.67 -0.31 M43.84 59.31 C57.24 43.9, 70.63 28.49, 95.67 -0.31 M54.47 59.28 C71.85 39.29, 89.22 19.31, 106.3 -0.34 M54.47 59.28 C66.41 45.54, 78.35 31.81, 106.3 -0.34 M65.1 59.24 C75.74 47.01, 86.37 34.77, 116.27 0.38 M65.1 59.24 C82.38 39.37, 99.65 19.5, 116.27 0.38 M75.73 59.21 C93.49 38.78, 111.25 18.35, 126.91 0.34 M75.73 59.21 C91.46 41.12, 107.18 23.03, 126.91 0.34 M86.36 59.17 C100.7 42.68, 115.03 26.2, 137.54 0.31 M86.36 59.17 C99.8 43.72, 113.24 28.26, 137.54 0.31 M96.99 59.14 C108.99 45.34, 120.98 31.54, 144.23 4.8 M96.99 59.14 C108.38 46.04, 119.77 32.93, 144.23 4.8 M107.62 59.1 C115.57 49.96, 123.52 40.81, 144.36 16.84 M107.62 59.1 C119.16 45.83, 130.7 32.55, 144.36 16.84 M118.25 59.07 C128.43 47.36, 138.61 35.65, 143.84 29.64 M118.25 59.07 C126.05 50.1, 133.85 41.13, 143.84 29.64 M128.88 59.04 C133.28 53.97, 137.68 48.91, 143.97 41.68 M128.88 59.04 C133.52 53.7, 138.15 48.37, 143.97 41.68 M139.51 59 C140.6 57.75, 141.68 56.5, 144.11 53.72 M139.51 59 C140.46 57.92, 141.4 56.83, 144.11 53.72" stroke="#16db93" stroke-width="1" fill="none"></path><path d="M0 0 C37.61 0, 75.21 0, 143.75 0 M0 0 C55.82 0, 111.65 0, 143.75 0 M143.75 0 C143.75 16.98, 143.75 33.97, 143.75 58.75 M143.75 0 C143.75 21.4, 143.75 42.8, 143.75 58.75 M143.75 58.75 C104.48 58.75, 65.2 58.75, 0 58.75 M143.75 58.75 C112.42 58.75, 81.1 58.75, 0 58.75 M0 58.75 C0 41.34, 0 23.93, 0 0 M0 58.75 C0 39.01, 0 19.27, 0 0" stroke="#e03131" stroke-width="2" fill="none"></path></g><g stroke-linecap="round" transform="translate(1016.2500006192872 163.74999951483824) rotate(0 71.87499998388785 29.37499981849396)"><path d="M0 0 C56.22 0, 112.44 0, 143.75 0 M0 0 C40.63 0, 81.26 0, 143.75 0 M143.75 0 C143.75 19.72, 143.75 39.43, 143.75 58.75 M143.75 0 C143.75 14.2, 143.75 28.41, 143.75 58.75 M143.75 58.75 C114.92 58.75, 86.1 58.75, 0 58.75 M143.75 58.75 C104.71 58.75, 65.67 58.75, 0 58.75 M0 58.75 C0 45.71, 0 32.68, 0 0 M0 58.75 C0 35.5, 0 12.25, 0 0" stroke="#e03131" stroke-width="2" fill="none"></path></g></svg>