<svg version="1.1" xmlns="http://www.w3.org/2000/svg" viewBox="0 0 1170.0000004723126 928.7501873126112" width="1170.0000004723126" height="928.7501873126112">
  <!-- svg-source:excalidraw -->
  
  <defs>
    <style class="style-fonts">
      @font-face {
        font-family: "Virgil";
        src: url("https://excalidraw.com/Virgil.woff2");
      }
      @font-face {
        font-family: "Cascadia";
        src: url("https://excalidraw.com/Cascadia.woff2");
      }
      @font-face {
        font-family: "Assistant";
        src: url("https://excalidraw.com/Assistant-Regular.woff2");
      }
    </style>
    
  </defs>
  <g stroke-linecap="round" transform="translate(10.00000047231265 530.0001872039929) rotate(0 575 58.75)"><path d="M0 0 C383.3 3.01, 766.53 3.72, 1150 0 M0 0 C314.5 3, 628.99 2.36, 1150 0 M1150 0 C1149.04 44.12, 1151.93 90.61, 1150 117.5 M1150 0 C1150.21 24.56, 1148.83 48.47, 1150 117.5 M1150 117.5 C738.8 118.04, 329.06 117.85, 0 117.5 M1150 117.5 C853.2 118.5, 556.31 118.11, 0 117.5 M0 117.5 C0.73 88.15, 1.96 57.37, 0 0 M0 117.5 C-2.15 82.46, -0.73 48.43, 0 0" stroke="#16db93" stroke-width="2" fill="none"></path></g><g transform="translate(511.15000199819156 567.1501872039926) rotate(0 73.8499984741211 21.59999999999991)"><text x="73.8499984741211" y="0" font-family="Cascadia, Segoe UI Emoji" font-size="36px" fill="#16db93" text-anchor="middle" style="white-space: pre;" direction="ltr" dominant-baseline="text-before-edge">Host OS</text></g><g stroke-linecap="round" transform="translate(10.00000047231265 683.7501872039929) rotate(0 574.9999998302505 117.50000005430911)"><path d="M0 0 C313.92 0.35, 627.21 0.5, 1150 0 M0 0 C395.81 -0.81, 791.44 -1.03, 1150 0 M1150 0 C1149.58 57.07, 1148.9 115.33, 1150 235 M1150 0 C1149.46 65.95, 1149.79 129.94, 1150 235 M1150 235 C705.87 232.21, 259.94 232.71, 0 235 M1150 235 C901.48 236.89, 653.36 237.38, 0 235 M0 235 C2.22 151.71, 1.81 65.5, 0 0 M0 235 C2.23 155.73, 2.5 77.06, 0 0" stroke="#a8a5af" stroke-width="2" fill="none"></path></g><g transform="translate(405.64999419904757 779.6501872583021) rotate(0 179.35000610351562 21.59999999999991)"><text x="179.35000610351562" y="0" font-family="Cascadia, Segoe UI Emoji" font-size="36px" fill="#a8a5af" text-anchor="middle" style="white-space: pre;" direction="ltr" dominant-baseline="text-before-edge">Physical Hardware</text></g><g stroke-linecap="round" transform="translate(10.00000047231265 376.25018720399294) rotate(0 575 58.75)"><path d="M0 0 C338.73 -0.99, 678.45 -1.2, 1150 0 M0 0 C376.19 -2.16, 752.11 -2.53, 1150 0 M1150 0 C1149.86 41.26, 1150.19 81.36, 1150 117.5 M1150 0 C1151.1 42.94, 1150.43 84.6, 1150 117.5 M1150 117.5 C905.87 120.82, 662.51 119.68, 0 117.5 M1150 117.5 C895.09 119.67, 639.52 119.71, 0 117.5 M0 117.5 C0.58 84.33, -1.21 46.87, 0 0 M0 117.5 C0 83.42, -0.06 48.36, 0 0" stroke="#71b1ff" stroke-width="2" fill="none"></path></g><g transform="translate(426.75000047231265 413.4001872039926) rotate(0 158.25 21.59999999999991)"><text x="158.25" y="0" font-family="Cascadia, Segoe UI Emoji" font-size="36px" fill="#71b1ff" text-anchor="middle" style="white-space: pre;" direction="ltr" dominant-baseline="text-before-edge">Virtual Machine</text></g><g stroke-linecap="round" transform="translate(10 105.00000120399272) rotate(0 123.9091892361563 117.50009324118264)"><path d="M0 0 C99.53 3.18, 197.33 0.53, 247.82 0 M0 0 C82.45 0.35, 162.88 0.09, 247.82 0 M247.82 0 C246.81 54.32, 245.27 109.98, 247.82 235 M247.82 0 C248.64 61.35, 248.75 122.74, 247.82 235 M247.82 235 C176.01 236.08, 107.25 236.74, 0 235 M247.82 235 C155.51 235.23, 62.27 234.77, 0 235 M0 235 C-1.64 175.33, -2.12 115.59, 0 0 M0 235 C-0.76 184.84, 0.66 134.82, 0 0" stroke="#ffcf23" stroke-width="2" fill="none"></path></g><g transform="translate(49.5091877102775 179.3000944451751) rotate(0 84.4000015258789 43.19999999999982)"><text x="84.4000015258789" y="0" font-family="Cascadia, Segoe UI Emoji" font-size="36px" fill="#ffcf23" text-anchor="middle" style="white-space: pre;" direction="ltr" dominant-baseline="text-before-edge">Smart</text><text x="84.4000015258789" y="43.199999999999996" font-family="Cascadia, Segoe UI Emoji" font-size="36px" fill="#ffcf23" text-anchor="middle" style="white-space: pre;" direction="ltr" dominant-baseline="text-before-edge">Contract</text></g><g stroke-linecap="round" transform="translate(289.82452654409394 105.00000041123894) rotate(0 123.9091892361563 117.50009324118264)"><path d="M0 0 C94.41 1.98, 191.11 1.47, 247.82 0 M0 0 C76.03 -0.24, 153.7 0.36, 247.82 0 M247.82 0 C249.61 83.98, 248.61 167.02, 247.82 235 M247.82 0 C246.93 84.52, 246.49 168.44, 247.82 235 M247.82 235 C183 237.48, 115.89 236.2, 0 235 M247.82 235 C159.37 236.39, 71.31 236.52, 0 235 M0 235 C0.45 176.48, -0.48 120.21, 0 0 M0 235 C-2.06 170.89, -1.08 106.49, 0 0" stroke="#ffcf23" stroke-width="2" fill="none"></path></g><g transform="translate(329.33371425437133 179.3000936524213) rotate(0 84.4000015258789 43.19999999999982)"><text x="84.4000015258789" y="0" font-family="Cascadia, Segoe UI Emoji" font-size="36px" fill="#ffcf23" text-anchor="middle" style="white-space: pre;" direction="ltr" dominant-baseline="text-before-edge">Smart</text><text x="84.4000015258789" y="43.199999999999996" font-family="Cascadia, Segoe UI Emoji" font-size="36px" fill="#ffcf23" text-anchor="middle" style="white-space: pre;" direction="ltr" dominant-baseline="text-before-edge">Contract</text></g><g stroke-linecap="round" transform="translate(569.6490531383778 105.0000010090398) rotate(0 123.90918923615632 117.50009324118264)"><path d="M0 0 C59.55 -0.88, 119.22 -0.23, 247.82 0 M0 0 C74.25 -0.29, 148.96 -0.57, 247.82 0 M247.82 0 C247.95 89.04, 246.65 178.9, 247.82 235 M247.82 0 C248.17 81.89, 247.47 162.92, 247.82 235 M247.82 235 C160.25 236.5, 71.71 234.74, 0 235 M247.82 235 C189.33 233.58, 131.57 233.92, 0 235 M0 235 C-0.74 176.74, 0.48 116.46, 0 0 M0 235 C-1.07 169.79, -1.83 104.98, 0 0" stroke="#ffcf23" stroke-width="2" fill="none"></path></g><g transform="translate(609.1582408486552 179.30009425022217) rotate(0 84.4000015258789 43.19999999999982)"><text x="84.4000015258789" y="0" font-family="Cascadia, Segoe UI Emoji" font-size="36px" fill="#ffcf23" text-anchor="middle" style="white-space: pre;" direction="ltr" dominant-baseline="text-before-edge">Smart</text><text x="84.4000015258789" y="43.199999999999996" font-family="Cascadia, Segoe UI Emoji" font-size="36px" fill="#ffcf23" text-anchor="middle" style="white-space: pre;" direction="ltr" dominant-baseline="text-before-edge">Contract</text></g><g stroke-linecap="round" transform="translate(10.000000062789013 10.000001104202056) rotate(0 123.90918903501222 29.375000104204446)"><path d="M0 0 C54.44 -1.12, 111.29 -2.15, 247.82 0 M0 0 C96.24 0.18, 192.49 0.04, 247.82 0 M247.82 0 C248.43 19.66, 245.54 39.67, 247.82 58.75 M247.82 0 C247.78 21.56, 248.22 43.33, 247.82 58.75 M247.82 58.75 C173.61 61.3, 98.19 59.8, 0 58.75 M247.82 58.75 C168.37 57.28, 90.55 57.83, 0 58.75 M0 58.75 C1.79 44.5, -1.18 24.9, 0 0 M0 58.75 C0.73 37.34, -0.48 16.38, 0 0" stroke="#e03131" stroke-width="2" fill="none"></path></g><g transform="translate(70.6091898607408 17.775001208406138) rotate(0 63.29999923706055 21.59999999999991)"><text x="63.29999923706055" y="0" font-family="Cascadia, Segoe UI Emoji" font-size="36px" fill="#e03131" text-anchor="middle" style="white-space: pre;" direction="ltr" dominant-baseline="text-before-edge">Memory</text></g><g stroke-linecap="round" transform="translate(289.824526027777 10) rotate(0 123.90918903501222 29.375000104204446)"><path d="M0 0 C51.87 0.66, 105.07 -0.81, 247.82 0 M0 0 C90.34 2.49, 181.47 2.38, 247.82 0 M247.82 0 C249.68 15.95, 248.24 30.1, 247.82 58.75 M247.82 0 C248.4 16.28, 247.38 31.92, 247.82 58.75 M247.82 58.75 C175.47 59.88, 101.57 61.23, 0 58.75 M247.82 58.75 C158.78 57.7, 68.75 58.03, 0 58.75 M0 58.75 C1.98 37.25, 1.99 13.84, 0 0 M0 58.75 C-0.97 39.91, -0.15 20.89, 0 0" stroke="#e03131" stroke-width="2" fill="none"></path></g><g transform="translate(350.43371582572865 17.775000104204082) rotate(0 63.29999923706055 21.59999999999991)"><text x="63.29999923706055" y="0" font-family="Cascadia, Segoe UI Emoji" font-size="36px" fill="#e03131" text-anchor="middle" style="white-space: pre;" direction="ltr" dominant-baseline="text-before-edge">Memory</text></g><g stroke-linecap="round" transform="translate(569.649053027777 10.000000999999429) rotate(0 123.90918903501222 29.375000104204446)"><path d="M0 0 C55.93 0.42, 111.29 -1.97, 247.82 0 M0 0 C94.33 0.34, 190.54 0.52, 247.82 0 M247.82 0 C247.11 20.45, 248.07 43.82, 247.82 58.75 M247.82 0 C249 17.45, 247.53 34.06, 247.82 58.75 M247.82 58.75 C158.29 55.85, 64.36 56.76, 0 58.75 M247.82 58.75 C155.21 59.11, 62.1 58.81, 0 58.75 M0 58.75 C1.31 39.59, -1.15 17.14, 0 0 M0 58.75 C-0.6 40.76, 1.17 25.12, 0 0" stroke="#e03131" stroke-width="2" fill="none"></path></g><g transform="translate(630.2582428257286 17.77500110420351) rotate(0 63.29999923706055 21.59999999999991)"><text x="63.29999923706055" y="0" font-family="Cascadia, Segoe UI Emoji" font-size="36px" fill="#e03131" text-anchor="middle" style="white-space: pre;" direction="ltr" dominant-baseline="text-before-edge">Memory</text></g></svg>