<svg version="1.1" xmlns="http://www.w3.org/2000/svg" viewBox="0 0 1194.59961807619 928.7501899013723" width="1194.59961807619" height="928.7501899013723">
  <!-- svg-source:excalidraw -->
  
  <defs>
    <style class="style-fonts">
      @font-face {
        font-family: "Virgil";
        src: url("https://excalidraw.com/Virgil.woff2");
      }
      @font-face {
        font-family: "Cascadia";
        src: url("https://excalidraw.com/Cascadia.woff2");
      }
      @font-face {
        font-family: "Assistant";
        src: url("https://excalidraw.com/Assistant-Regular.woff2");
      }
    </style>
    
  </defs>
  <g stroke-linecap="round" transform="translate(34.59961807618993 530.0001897927541) rotate(0 575 58.75)"><path d="M0 0 C366.26 -1.02, 731.41 -0.33, 1150 0 M0 0 C458.61 0.43, 917.84 0.1, 1150 0 M1150 0 C1151.04 23.19, 1149.45 48.41, 1150 117.5 M1150 0 C1148.32 27.75, 1148.42 55.81, 1150 117.5 M1150 117.5 C908.46 114.08, 665.75 114.19, 0 117.5 M1150 117.5 C748.87 116.09, 346.94 115.91, 0 117.5 M0 117.5 C0.27 74.26, -1.12 28.94, 0 0 M0 117.5 C0.61 70.39, 0.74 24.37, 0 0" stroke="#16db93" stroke-width="2" fill="none"></path></g><g transform="translate(535.7496196020688 567.1501897927537) rotate(0 73.8499984741211 21.59999999999991)"><text x="73.8499984741211" y="0" font-family="Cascadia, Segoe UI Emoji" font-size="36px" fill="#16db93" text-anchor="middle" style="white-space: pre;" direction="ltr" dominant-baseline="text-before-edge">Host OS</text></g><g stroke-linecap="round" transform="translate(34.59961807618993 683.7501897927541) rotate(0 574.9999998302505 117.50000005430911)"><path d="M0 0 C259.3 -0.73, 516.94 -1.05, 1150 0 M0 0 C352.43 3.89, 705.73 3.47, 1150 0 M1150 0 C1147.22 49.94, 1148.84 101.02, 1150 235 M1150 0 C1147.83 74.04, 1148.03 147.85, 1150 235 M1150 235 C861.04 233.44, 571.04 233.96, 0 235 M1150 235 C798.92 233.45, 446.86 233.42, 0 235 M0 235 C2.05 141.52, 0.26 49.23, 0 0 M0 235 C-1.79 185.04, -0.93 133.49, 0 0" stroke="#a8a5af" stroke-width="2" fill="none"></path></g><g transform="translate(430.24961180292485 779.6501898470633) rotate(0 179.35000610351562 21.59999999999991)"><text x="179.35000610351562" y="0" font-family="Cascadia, Segoe UI Emoji" font-size="36px" fill="#a8a5af" text-anchor="middle" style="white-space: pre;" direction="ltr" dominant-baseline="text-before-edge">Physical Hardware</text></g><g stroke-linecap="round" transform="translate(34.59961807618993 376.2501897927541) rotate(0 575 58.75)"><path d="M0 0 C309.7 3.36, 618.69 2.54, 1150 0 M0 0 C457.86 -0.07, 916.13 0.01, 1150 0 M1150 0 C1150.65 25.13, 1151.52 51.32, 1150 117.5 M1150 0 C1148.74 38.36, 1148.89 78.66, 1150 117.5 M1150 117.5 C805.02 119.89, 459.65 121.14, 0 117.5 M1150 117.5 C743.28 119.49, 336.15 119.96, 0 117.5 M0 117.5 C-1.56 84.84, -1.1 48.36, 0 0 M0 117.5 C-0.49 76.13, -0.02 35.5, 0 0" stroke="#71b1ff" stroke-width="2" fill="none"></path></g><g transform="translate(451.3496180761899 413.40018979275374) rotate(0 158.25 21.59999999999991)"><text x="158.25" y="0" font-family="Cascadia, Segoe UI Emoji" font-size="36px" fill="#71b1ff" text-anchor="middle" style="white-space: pre;" direction="ltr" dominant-baseline="text-before-edge">Virtual Machine</text></g><g stroke-linecap="round" transform="translate(34.59961760387705 10.00000079275378) rotate(0 123.90918923615641 117.50009324118264)"><path d="M0 0 C79.55 2.44, 155.77 0.45, 247.82 0 M0 0 C52.64 1.58, 105.83 1.43, 247.82 0 M247.82 0 C249.5 52.61, 249.58 106.64, 247.82 235 M247.82 0 C247.15 53.18, 247.69 106.94, 247.82 235 M247.82 235 C192.22 235.46, 135.6 238.31, 0 235 M247.82 235 C179.37 236.8, 111.51 236.2, 0 235 M0 235 C2.08 150.81, -0.24 65.36, 0 0 M0 235 C-0.78 168.95, -0.53 104.81, 0 0" stroke="#ffcf23" stroke-width="2" fill="none"></path></g><g transform="translate(74.10880531415432 84.30009403393615) rotate(0 84.4000015258789 43.19999999999982)"><text x="84.4000015258789" y="0" font-family="Cascadia, Segoe UI Emoji" font-size="36px" fill="#ffcf23" text-anchor="middle" style="white-space: pre;" direction="ltr" dominant-baseline="text-before-edge">Smart</text><text x="84.4000015258789" y="43.199999999999996" font-family="Cascadia, Segoe UI Emoji" font-size="36px" fill="#ffcf23" text-anchor="middle" style="white-space: pre;" direction="ltr" dominant-baseline="text-before-edge">Contract</text></g><g stroke-linecap="round" transform="translate(314.4241441479712 10) rotate(0 123.90918923615641 117.50009324118264)"><path d="M0 0 C82.63 0.64, 166.99 0.46, 247.82 0 M0 0 C81.53 0.19, 163.49 -0.01, 247.82 0 M247.82 0 C247.33 54.41, 249.38 109.97, 247.82 235 M247.82 0 C248.49 62.84, 249.81 126.79, 247.82 235 M247.82 235 C192.07 238.45, 138.65 236.78, 0 235 M247.82 235 C177.23 232.75, 105.07 233.67, 0 235 M0 235 C1.37 157.68, 2.24 79, 0 0 M0 235 C-0.26 185.93, -0.8 136.58, 0 0" stroke="#ffcf23" stroke-width="2" fill="none"></path></g><g transform="translate(353.9333318582485 84.30009324118237) rotate(0 84.4000015258789 43.19999999999982)"><text x="84.4000015258789" y="0" font-family="Cascadia, Segoe UI Emoji" font-size="36px" fill="#ffcf23" text-anchor="middle" style="white-space: pre;" direction="ltr" dominant-baseline="text-before-edge">Smart</text><text x="84.4000015258789" y="43.199999999999996" font-family="Cascadia, Segoe UI Emoji" font-size="36px" fill="#ffcf23" text-anchor="middle" style="white-space: pre;" direction="ltr" dominant-baseline="text-before-edge">Contract</text></g><g stroke-linecap="round" transform="translate(594.248670742255 10.000000597800863) rotate(0 123.90918923615641 117.50009324118264)"><path d="M0 0 C59.34 0.18, 117.88 0.33, 247.82 0 M0 0 C88.05 -0.36, 176.78 -1.26, 247.82 0 M247.82 0 C248.26 63.62, 248.88 123.85, 247.82 235 M247.82 0 C248.85 61.88, 250.31 122.78, 247.82 235 M247.82 235 C150.96 235.53, 53.12 235.75, 0 235 M247.82 235 C189.25 235.3, 130.07 235.84, 0 235 M0 235 C-2.13 156.69, 0.15 77.98, 0 0 M0 235 C1.52 168.24, 1.05 99.43, 0 0" stroke="#ffcf23" stroke-width="2" fill="none"></path></g><g transform="translate(633.7578584525322 84.30009383898323) rotate(0 84.4000015258789 43.19999999999982)"><text x="84.4000015258789" y="0" font-family="Cascadia, Segoe UI Emoji" font-size="36px" fill="#ffcf23" text-anchor="middle" style="white-space: pre;" direction="ltr" dominant-baseline="text-before-edge">Smart</text><text x="84.4000015258789" y="43.199999999999996" font-family="Cascadia, Segoe UI Emoji" font-size="36px" fill="#ffcf23" text-anchor="middle" style="white-space: pre;" direction="ltr" dominant-baseline="text-before-edge">Contract</text></g><g stroke-linecap="round" transform="translate(34.59961766666629 281.25018969296343) rotate(0 123.9091890350121 29.375000104204446)"><path d="M0 0 C55.28 -0.02, 109.21 0.37, 247.82 0 M0 0 C83.3 1.88, 167.15 1.22, 247.82 0 M247.82 0 C247.08 23.11, 248.93 41.3, 247.82 58.75 M247.82 0 C249.29 21.23, 248.27 40.45, 247.82 58.75 M247.82 58.75 C160.77 58.83, 76.6 60.5, 0 58.75 M247.82 58.75 C195.56 58.54, 142.65 57.55, 0 58.75 M0 58.75 C-0.51 39, -1.41 22.48, 0 0 M0 58.75 C0.36 35.99, -0.21 11.47, 0 0" stroke="#e03131" stroke-width="2" fill="none"></path></g><g transform="translate(95.20880746461808 289.0251897971675) rotate(0 63.29999923706055 21.59999999999991)"><text x="63.29999923706055" y="0" font-family="Cascadia, Segoe UI Emoji" font-size="36px" fill="#e03131" text-anchor="middle" style="white-space: pre;" direction="ltr" dominant-baseline="text-before-edge">Memory</text></g><g stroke-linecap="round" transform="translate(314.42414363165426 281.2501885887614) rotate(0 123.90918903501233 29.375000104204446)"><path d="M0 0 C52.72 0.55, 103.04 0.79, 247.82 0 M0 0 C87.03 0.68, 172.4 0.32, 247.82 0 M247.82 0 C249.04 24.53, 247.65 46.98, 247.82 58.75 M247.82 0 C248.22 22.27, 248.35 45.62, 247.82 58.75 M247.82 58.75 C189.47 59.19, 133.65 59.96, 0 58.75 M247.82 58.75 C166.26 57.25, 84.5 56.79, 0 58.75 M0 58.75 C2.24 44.24, -0.72 30.34, 0 0 M0 58.75 C-0.07 38.33, 1.03 17.51, 0 0" stroke="#e03131" stroke-width="2" fill="none"></path></g><g transform="translate(375.03333342960605 289.02518869296546) rotate(0 63.29999923706055 21.59999999999991)"><text x="63.29999923706055" y="0" font-family="Cascadia, Segoe UI Emoji" font-size="36px" fill="#e03131" text-anchor="middle" style="white-space: pre;" direction="ltr" dominant-baseline="text-before-edge">Memory</text></g><g stroke-linecap="round" transform="translate(594.248670631654 281.2501895887608) rotate(0 123.90918903501233 29.375000104204446)"><path d="M0 0 C63.16 0.69, 124.2 1.75, 247.82 0 M0 0 C76.42 1.22, 150.83 1.15, 247.82 0 M247.82 0 C249.55 23.08, 247.41 47.58, 247.82 58.75 M247.82 0 C247.47 13.1, 248.49 24.31, 247.82 58.75 M247.82 58.75 C176.92 59.27, 103.55 59.76, 0 58.75 M247.82 58.75 C162.16 58.02, 77.83 59.28, 0 58.75 M0 58.75 C1.22 40.52, -1.4 22.67, 0 0 M0 58.75 C-0.22 41.91, -0.91 24.35, 0 0" stroke="#e03131" stroke-width="2" fill="none"></path></g><g transform="translate(654.8578604296058 289.0251896929649) rotate(0 63.29999923706055 21.59999999999991)"><text x="63.29999923706055" y="0" font-family="Cascadia, Segoe UI Emoji" font-size="36px" fill="#e03131" text-anchor="middle" style="white-space: pre;" direction="ltr" dominant-baseline="text-before-edge">Memory</text></g><g stroke-linecap="round" transform="translate(10 265.6251903596303) rotate(0 428.3333333333335 45)"><path d="M0 0 C257.02 0, 514.03 0, 856.67 0 M0 0 C303.27 0, 606.53 0, 856.67 0 M856.67 0 C856.67 25.94, 856.67 51.88, 856.67 90 M856.67 0 C856.67 31.52, 856.67 63.04, 856.67 90 M856.67 90 C609.45 90, 362.23 90, 0 90 M856.67 90 C649.06 90, 441.44 90, 0 90 M0 90 C0 64.69, 0 39.38, 0 0 M0 90 C0 62.67, 0 35.33, 0 0" stroke="transparent" stroke-width="2" fill="none"></path></g><g transform="translate(968.0731979047614 289.025189264391) rotate(0 52.75 21.59999999999991)"><text x="0" y="0" font-family="Cascadia, Segoe UI Emoji" font-size="36px" fill="transparent" text-anchor="start" style="white-space: pre;" direction="ltr" dominant-baseline="text-before-edge">State</text></g></svg>