<?xml version="1.0" encoding="UTF-8"?>
<svg width="556px" height="155px" viewBox="0 0 556 155" version="1.1" xmlns="http://www.w3.org/2000/svg" xmlns:xlink="http://www.w3.org/1999/xlink">
    <!-- Generator: Sketch 52.5 (67469) - http://www.bohemiancoding.com/sketch -->
    <title>Group 11</title>
    <desc>Created with Sketch.</desc>
    <g id="Logos" stroke="none" stroke-width="1" fill="none" fill-rule="evenodd">
        <g id="Group-11" transform="translate(-34.000000, -19.000000)">
            <g id="Group-9" transform="translate(34.200000, 19.400000)">
                <path d="M108.80915,24.1563137 C108.80915,29.0507137 105.348843,31.0332235 101.081278,28.5866549 C96.8126111,26.1394549 93.3534052,20.1887686 93.3534052,15.2956314 L93.3534052,14.8789255 L67.4,-3.36462884e-16 L67.4,77.28 L134.8,115.92 L134.8,38.64 L108.80915,23.7396078 L108.80915,24.1563137 Z" id="Shape" fill="#3F2FA6"></path>
                <path d="M75.1091503,43.1963137 C75.1091503,48.0907137 71.6488431,50.0732235 67.3812778,47.6266549 C63.1126111,45.1794549 59.6534052,39.2287686 59.6534052,34.3356314 L59.6534052,33.9189255 L33.7,19.04 L33.7,96.32 L101.1,134.96 L101.1,57.68 L75.1091503,42.7796078 L75.1091503,43.1963137 Z" id="Shape" fill="#523ECA"></path>
                <path d="M41.4091503,62.6363137 C41.4091503,67.5307137 37.9488431,69.5132235 33.6812778,67.0666549 C29.4126111,64.6194549 25.9534052,58.6687686 25.9534052,53.7756314 L25.9534052,53.3589255 L0,38.48 L0,115.76 L67.4,154.4 L67.4,77.12 L41.4091503,62.2196078 L41.4091503,62.6363137 Z" id="Shape" fill="#654FF0"></path>
            </g>
            <g id="Group-10" transform="translate(199.400000, 37.400000)" fill="#061027">
                <path d="M90.744,42.668 L71.438,95 L59.678,95 L46.154,58.936 L32.434,95 L20.674,95 L1.466,42.668 L13.03,42.668 L26.848,81.28 L41.254,42.668 L51.544,42.668 L65.656,81.476 L79.866,42.668 L90.744,42.668 Z M115.048,42.08 C122.757372,42.08 128.653646,43.9256482 132.737,47.617 C136.820354,51.3083518 138.862,56.8779628 138.862,64.326 L138.862,95 L127.298,95 L127.298,88.63 C125.795326,90.9166781 123.655681,92.6643273 120.879,93.873 C118.102319,95.0816727 114.75402,95.686 110.834,95.686 C106.91398,95.686 103.484015,95.01634 100.544,93.677 C97.6039853,92.33766 95.3336747,90.4756786 93.733,88.091 C92.1323253,85.7063214 91.332,83.0113484 91.332,80.006 C91.332,75.3019765 93.0796492,71.5290142 96.575,68.687 C100.070351,65.8449858 105.574629,64.424 113.088,64.424 L126.612,64.424 L126.612,63.64 C126.612,59.981315 125.517678,57.1720098 123.329,55.212 C121.140322,53.2519902 117.890022,52.272 113.578,52.272 C110.637985,52.272 107.747014,52.7293288 104.905,53.644 C102.062986,54.5586712 99.6620098,55.8326585 97.702,57.466 L92.9,48.548 C95.6440137,46.4573229 98.9433141,44.8566722 102.798,43.746 C106.652686,42.6353278 110.735978,42.08 115.048,42.08 Z M113.382,86.768 C116.452682,86.768 119.180321,86.0656737 121.565,84.661 C123.949679,83.2563263 125.631995,81.2473464 126.612,78.634 L126.612,72.558 L113.97,72.558 C106.913965,72.558 103.386,74.8773101 103.386,79.516 C103.386,81.7373444 104.267991,83.5013268 106.032,84.808 C107.796009,86.1146732 110.245984,86.768 113.382,86.768 Z M168.262,95.686 C164.015312,95.686 159.866687,95.1306722 155.816,94.02 C151.765313,92.9093278 148.531345,91.5046752 146.114,89.806 L150.818,80.496 C153.170012,82.0640078 155.99565,83.3216619 159.295,84.269 C162.59435,85.2163381 165.844651,85.69 169.046,85.69 C176.36337,85.69 180.022,83.7626859 180.022,79.908 C180.022,78.0786575 179.091009,76.8046703 177.229,76.086 C175.366991,75.3673297 172.378021,74.6813366 168.262,74.028 C163.949978,73.3746634 160.438347,72.6233376 157.727,71.774 C155.015653,70.9246624 152.663677,69.4383439 150.671,67.315 C148.678323,65.1916561 147.682,62.2353523 147.682,58.446 C147.682,53.4806418 149.756313,49.5116815 153.905,46.539 C158.053687,43.5663185 163.655965,42.08 170.712,42.08 C174.305351,42.08 177.898649,42.4883292 181.492,43.305 C185.085351,44.1216708 188.025322,45.2159931 190.312,46.588 L185.608,55.898 C181.165311,53.2846536 176.167361,51.978 170.614,51.978 C167.020649,51.978 164.293009,52.5169946 162.431,53.595 C160.568991,54.6730054 159.638,56.0939912 159.638,57.858 C159.638,59.8180098 160.634323,61.2063293 162.627,62.023 C164.619677,62.8396707 167.706646,63.6073297 171.888,64.326 C176.069354,64.9793366 179.49932,65.7306624 182.178,66.58 C184.85668,67.4293376 187.159657,68.8666565 189.087,70.892 C191.014343,72.9173435 191.978,75.7919814 191.978,79.516 C191.978,84.4160245 189.854688,88.3359853 185.608,91.276 C181.361312,94.2160147 175.57937,95.686 168.262,95.686 Z M266.164,42.08 C272.7627,42.08 277.989314,43.9909809 281.844,47.813 C285.698686,51.6350191 287.626,57.3679618 287.626,65.012 L287.626,95 L275.376,95 L275.376,66.58 C275.376,62.0066438 274.363343,58.5603449 272.338,56.241 C270.312657,53.9216551 267.405352,52.762 263.616,52.762 C259.499979,52.762 256.200679,54.1176531 253.718,56.829 C251.235321,59.5403469 249.994,63.4113082 249.994,68.442 L249.994,95 L237.744,95 L237.744,66.58 C237.744,62.0066438 236.731343,58.5603449 234.706,56.241 C232.680657,53.9216551 229.773352,52.762 225.984,52.762 C221.802646,52.762 218.487012,54.1013199 216.037,56.78 C213.586988,59.4586801 212.362,63.3459745 212.362,68.442 L212.362,95 L200.112,95 L200.112,42.668 L211.774,42.668 L211.774,49.332 C213.73401,46.9799882 216.183985,45.1833395 219.124,43.942 C222.064015,42.7006605 225.330649,42.08 228.924,42.08 C232.84402,42.08 236.322985,42.8149926 239.361,44.285 C242.399015,45.7550073 244.799991,47.927319 246.564,50.802 C248.720011,48.0579863 251.49665,45.918341 254.894,44.383 C258.29135,42.847659 262.047979,42.08 266.164,42.08 Z M350.542,69.128 C350.542,69.9773376 350.476667,71.1859922 350.346,72.754 L309.284,72.754 C310.00267,76.6086859 311.880985,79.6629887 314.919,81.917 C317.957015,84.1710113 321.729977,85.298 326.238,85.298 C331.987362,85.298 336.723981,83.4033523 340.448,79.614 L347.014,87.16 C344.661988,89.9693474 341.689351,92.0926595 338.096,93.53 C334.502649,94.9673405 330.452023,95.686 325.944,95.686 C320.194638,95.686 315.131355,94.5426781 310.754,92.256 C306.376645,89.9693219 302.995679,86.7843538 300.611,82.701 C298.226321,78.6176463 297.034,73.9953591 297.034,68.834 C297.034,63.7379745 298.193655,59.1483537 300.513,55.065 C302.832345,50.9816462 306.049979,47.7966781 310.166,45.51 C314.282021,43.2233219 318.920641,42.08 324.082,42.08 C329.178025,42.08 333.73498,43.2069887 337.753,45.461 C341.77102,47.7150113 344.906989,50.8836462 347.161,54.967 C349.415011,59.0503537 350.542,63.7706399 350.542,69.128 Z M324.082,51.88 C320.16198,51.88 316.846347,53.0396551 314.135,55.359 C311.423653,57.6783449 309.774003,60.7653141 309.186,64.62 L338.88,64.62 C338.357331,60.8306477 336.75668,57.7600118 334.078,55.408 C331.39932,53.0559882 328.067353,51.88 324.082,51.88 Z M371.514,50.312 C375.042018,44.8239726 381.248622,42.08 390.134,42.08 L390.134,53.742 C389.088661,53.545999 388.141338,53.448 387.292,53.448 C382.522643,53.448 378.79868,54.8363195 376.12,57.613 C373.44132,60.3896805 372.102,64.3913072 372.102,69.618 L372.102,95 L359.852,95 L359.852,42.668 L371.514,42.668 L371.514,50.312 Z" id="wasmer"></path>
            </g>
        </g>
    </g>
</svg>